<?xml version="1.0" encoding="utf-8" standalone="no"?>
<!DOCTYPE svg PUBLIC "-//W3C//DTD SVG 1.1//EN"
  "http://www.w3.org/Graphics/SVG/1.1/DTD/svg11.dtd">
<!-- Created with matplotlib (https://matplotlib.org/) -->
<svg height="359.28pt" version="1.1" viewBox="0 0 719.28 359.28" width="719.28pt" xmlns="http://www.w3.org/2000/svg" xmlns:xlink="http://www.w3.org/1999/xlink">
 <metadata>
  <rdf:RDF xmlns:cc="http://creativecommons.org/ns#" xmlns:dc="http://purl.org/dc/elements/1.1/" xmlns:rdf="http://www.w3.org/1999/02/22-rdf-syntax-ns#">
   <cc:Work>
    <dc:type rdf:resource="http://purl.org/dc/dcmitype/StillImage"/>
    <dc:date>2021-07-27T09:06:15.896033</dc:date>
    <dc:format>image/svg+xml</dc:format>
    <dc:creator>
     <cc:Agent>
      <dc:title>Matplotlib v3.3.2, https://matplotlib.org/</dc:title>
     </cc:Agent>
    </dc:creator>
   </cc:Work>
  </rdf:RDF>
 </metadata>
 <defs>
  <style type="text/css">*{stroke-linecap:butt;stroke-linejoin:round;}</style>
 </defs>
 <g id="figure_1">
  <g id="patch_1">
   <path d="M 0 359.28 
L 719.28 359.28 
L 719.28 0 
L 0 0 
z
" style="fill:#ffffff;"/>
  </g>
  <g id="axes_1">
   <g id="patch_2">
    <path d="M 24.692805 337.942746 
L 354.661229 337.942746 
L 354.661229 16.946051 
L 24.692805 16.946051 
z
" style="fill:#eaeaf2;"/>
   </g>
   <g id="matplotlib.axis_1">
    <g id="xtick_1">
     <g id="line2d_1">
      <path clip-path="url(#p8b7c5d376a)" d="M 39.691369 337.942746 
L 39.691369 16.946051 
" style="fill:none;stroke:#ffffff;stroke-linecap:round;stroke-width:0.5;"/>
     </g>
     <g id="text_1">
      <!-- 0 -->
      <g style="fill:#262626;" transform="translate(37.941682 351.621887)scale(0.055 -0.055)">
       <defs>
        <path d="M 31.78125 66.40625 
Q 24.171875 66.40625 20.328125 58.90625 
Q 16.5 51.421875 16.5 36.375 
Q 16.5 21.390625 20.328125 13.890625 
Q 24.171875 6.390625 31.78125 6.390625 
Q 39.453125 6.390625 43.28125 13.890625 
Q 47.125 21.390625 47.125 36.375 
Q 47.125 51.421875 43.28125 58.90625 
Q 39.453125 66.40625 31.78125 66.40625 
z
M 31.78125 74.21875 
Q 44.046875 74.21875 50.515625 64.515625 
Q 56.984375 54.828125 56.984375 36.375 
Q 56.984375 17.96875 50.515625 8.265625 
Q 44.046875 -1.421875 31.78125 -1.421875 
Q 19.53125 -1.421875 13.0625 8.265625 
Q 6.59375 17.96875 6.59375 36.375 
Q 6.59375 54.828125 13.0625 64.515625 
Q 19.53125 74.21875 31.78125 74.21875 
z
" id="DejaVuSans-48"/>
       </defs>
       <use xlink:href="#DejaVuSans-48"/>
      </g>
     </g>
    </g>
    <g id="xtick_2">
     <g id="line2d_2">
      <path clip-path="url(#p8b7c5d376a)" d="M 94.231605 337.942746 
L 94.231605 16.946051 
" style="fill:none;stroke:#ffffff;stroke-linecap:round;stroke-width:0.5;"/>
     </g>
     <g id="text_2">
      <!-- 2 -->
      <g style="fill:#262626;" transform="translate(92.481917 351.621887)scale(0.055 -0.055)">
       <defs>
        <path d="M 19.1875 8.296875 
L 53.609375 8.296875 
L 53.609375 0 
L 7.328125 0 
L 7.328125 8.296875 
Q 12.9375 14.109375 22.625 23.890625 
Q 32.328125 33.6875 34.8125 36.53125 
Q 39.546875 41.84375 41.421875 45.53125 
Q 43.3125 49.21875 43.3125 52.78125 
Q 43.3125 58.59375 39.234375 62.25 
Q 35.15625 65.921875 28.609375 65.921875 
Q 23.96875 65.921875 18.8125 64.3125 
Q 13.671875 62.703125 7.8125 59.421875 
L 7.8125 69.390625 
Q 13.765625 71.78125 18.9375 73 
Q 24.125 74.21875 28.421875 74.21875 
Q 39.75 74.21875 46.484375 68.546875 
Q 53.21875 62.890625 53.21875 53.421875 
Q 53.21875 48.921875 51.53125 44.890625 
Q 49.859375 40.875 45.40625 35.40625 
Q 44.1875 33.984375 37.640625 27.21875 
Q 31.109375 20.453125 19.1875 8.296875 
z
" id="DejaVuSans-50"/>
       </defs>
       <use xlink:href="#DejaVuSans-50"/>
      </g>
     </g>
    </g>
    <g id="xtick_3">
     <g id="line2d_3">
      <path clip-path="url(#p8b7c5d376a)" d="M 148.77184 337.942746 
L 148.77184 16.946051 
" style="fill:none;stroke:#ffffff;stroke-linecap:round;stroke-width:0.5;"/>
     </g>
     <g id="text_3">
      <!-- 4 -->
      <g style="fill:#262626;" transform="translate(147.022153 351.621887)scale(0.055 -0.055)">
       <defs>
        <path d="M 37.796875 64.3125 
L 12.890625 25.390625 
L 37.796875 25.390625 
z
M 35.203125 72.90625 
L 47.609375 72.90625 
L 47.609375 25.390625 
L 58.015625 25.390625 
L 58.015625 17.1875 
L 47.609375 17.1875 
L 47.609375 0 
L 37.796875 0 
L 37.796875 17.1875 
L 4.890625 17.1875 
L 4.890625 26.703125 
z
" id="DejaVuSans-52"/>
       </defs>
       <use xlink:href="#DejaVuSans-52"/>
      </g>
     </g>
    </g>
    <g id="xtick_4">
     <g id="line2d_4">
      <path clip-path="url(#p8b7c5d376a)" d="M 203.312076 337.942746 
L 203.312076 16.946051 
" style="fill:none;stroke:#ffffff;stroke-linecap:round;stroke-width:0.5;"/>
     </g>
     <g id="text_4">
      <!-- 6 -->
      <g style="fill:#262626;" transform="translate(201.562388 351.621887)scale(0.055 -0.055)">
       <defs>
        <path d="M 33.015625 40.375 
Q 26.375 40.375 22.484375 35.828125 
Q 18.609375 31.296875 18.609375 23.390625 
Q 18.609375 15.53125 22.484375 10.953125 
Q 26.375 6.390625 33.015625 6.390625 
Q 39.65625 6.390625 43.53125 10.953125 
Q 47.40625 15.53125 47.40625 23.390625 
Q 47.40625 31.296875 43.53125 35.828125 
Q 39.65625 40.375 33.015625 40.375 
z
M 52.59375 71.296875 
L 52.59375 62.3125 
Q 48.875 64.0625 45.09375 64.984375 
Q 41.3125 65.921875 37.59375 65.921875 
Q 27.828125 65.921875 22.671875 59.328125 
Q 17.53125 52.734375 16.796875 39.40625 
Q 19.671875 43.65625 24.015625 45.921875 
Q 28.375 48.1875 33.59375 48.1875 
Q 44.578125 48.1875 50.953125 41.515625 
Q 57.328125 34.859375 57.328125 23.390625 
Q 57.328125 12.15625 50.6875 5.359375 
Q 44.046875 -1.421875 33.015625 -1.421875 
Q 20.359375 -1.421875 13.671875 8.265625 
Q 6.984375 17.96875 6.984375 36.375 
Q 6.984375 53.65625 15.1875 63.9375 
Q 23.390625 74.21875 37.203125 74.21875 
Q 40.921875 74.21875 44.703125 73.484375 
Q 48.484375 72.75 52.59375 71.296875 
z
" id="DejaVuSans-54"/>
       </defs>
       <use xlink:href="#DejaVuSans-54"/>
      </g>
     </g>
    </g>
    <g id="xtick_5">
     <g id="line2d_5">
      <path clip-path="url(#p8b7c5d376a)" d="M 257.852311 337.942746 
L 257.852311 16.946051 
" style="fill:none;stroke:#ffffff;stroke-linecap:round;stroke-width:0.5;"/>
     </g>
     <g id="text_5">
      <!-- 8 -->
      <g style="fill:#262626;" transform="translate(256.102624 351.621887)scale(0.055 -0.055)">
       <defs>
        <path d="M 31.78125 34.625 
Q 24.75 34.625 20.71875 30.859375 
Q 16.703125 27.09375 16.703125 20.515625 
Q 16.703125 13.921875 20.71875 10.15625 
Q 24.75 6.390625 31.78125 6.390625 
Q 38.8125 6.390625 42.859375 10.171875 
Q 46.921875 13.96875 46.921875 20.515625 
Q 46.921875 27.09375 42.890625 30.859375 
Q 38.875 34.625 31.78125 34.625 
z
M 21.921875 38.8125 
Q 15.578125 40.375 12.03125 44.71875 
Q 8.5 49.078125 8.5 55.328125 
Q 8.5 64.0625 14.71875 69.140625 
Q 20.953125 74.21875 31.78125 74.21875 
Q 42.671875 74.21875 48.875 69.140625 
Q 55.078125 64.0625 55.078125 55.328125 
Q 55.078125 49.078125 51.53125 44.71875 
Q 48 40.375 41.703125 38.8125 
Q 48.828125 37.15625 52.796875 32.3125 
Q 56.78125 27.484375 56.78125 20.515625 
Q 56.78125 9.90625 50.3125 4.234375 
Q 43.84375 -1.421875 31.78125 -1.421875 
Q 19.734375 -1.421875 13.25 4.234375 
Q 6.78125 9.90625 6.78125 20.515625 
Q 6.78125 27.484375 10.78125 32.3125 
Q 14.796875 37.15625 21.921875 38.8125 
z
M 18.3125 54.390625 
Q 18.3125 48.734375 21.84375 45.5625 
Q 25.390625 42.390625 31.78125 42.390625 
Q 38.140625 42.390625 41.71875 45.5625 
Q 45.3125 48.734375 45.3125 54.390625 
Q 45.3125 60.0625 41.71875 63.234375 
Q 38.140625 66.40625 31.78125 66.40625 
Q 25.390625 66.40625 21.84375 63.234375 
Q 18.3125 60.0625 18.3125 54.390625 
z
" id="DejaVuSans-56"/>
       </defs>
       <use xlink:href="#DejaVuSans-56"/>
      </g>
     </g>
    </g>
    <g id="xtick_6">
     <g id="line2d_6">
      <path clip-path="url(#p8b7c5d376a)" d="M 312.392547 337.942746 
L 312.392547 16.946051 
" style="fill:none;stroke:#ffffff;stroke-linecap:round;stroke-width:0.5;"/>
     </g>
     <g id="text_6">
      <!-- 10 -->
      <g style="fill:#262626;" transform="translate(308.893172 351.621887)scale(0.055 -0.055)">
       <defs>
        <path d="M 12.40625 8.296875 
L 28.515625 8.296875 
L 28.515625 63.921875 
L 10.984375 60.40625 
L 10.984375 69.390625 
L 28.421875 72.90625 
L 38.28125 72.90625 
L 38.28125 8.296875 
L 54.390625 8.296875 
L 54.390625 0 
L 12.40625 0 
z
" id="DejaVuSans-49"/>
       </defs>
       <use xlink:href="#DejaVuSans-49"/>
       <use x="63.623047" xlink:href="#DejaVuSans-48"/>
      </g>
     </g>
    </g>
   </g>
   <g id="matplotlib.axis_2">
    <g id="ytick_1">
     <g id="line2d_7">
      <path clip-path="url(#p8b7c5d376a)" d="M 24.692805 302.349841 
L 354.661229 302.349841 
" style="fill:none;stroke:#ffffff;stroke-linecap:round;stroke-width:0.5;"/>
     </g>
     <g id="text_7">
      <!-- 0.2 -->
      <g style="fill:#262626;" transform="translate(6.446086 304.439412)scale(0.055 -0.055)">
       <defs>
        <path d="M 10.6875 12.40625 
L 21 12.40625 
L 21 0 
L 10.6875 0 
z
" id="DejaVuSans-46"/>
       </defs>
       <use xlink:href="#DejaVuSans-48"/>
       <use x="63.623047" xlink:href="#DejaVuSans-46"/>
       <use x="95.410156" xlink:href="#DejaVuSans-50"/>
      </g>
     </g>
    </g>
    <g id="ytick_2">
     <g id="line2d_8">
      <path clip-path="url(#p8b7c5d376a)" d="M 24.692805 250.235335 
L 354.661229 250.235335 
" style="fill:none;stroke:#ffffff;stroke-linecap:round;stroke-width:0.5;"/>
     </g>
     <g id="text_8">
      <!-- 0.4 -->
      <g style="fill:#262626;" transform="translate(6.446086 252.324906)scale(0.055 -0.055)">
       <use xlink:href="#DejaVuSans-48"/>
       <use x="63.623047" xlink:href="#DejaVuSans-46"/>
       <use x="95.410156" xlink:href="#DejaVuSans-52"/>
      </g>
     </g>
    </g>
    <g id="ytick_3">
     <g id="line2d_9">
      <path clip-path="url(#p8b7c5d376a)" d="M 24.692805 198.120829 
L 354.661229 198.120829 
" style="fill:none;stroke:#ffffff;stroke-linecap:round;stroke-width:0.5;"/>
     </g>
     <g id="text_9">
      <!-- 0.6 -->
      <g style="fill:#262626;" transform="translate(6.446086 200.210399)scale(0.055 -0.055)">
       <use xlink:href="#DejaVuSans-48"/>
       <use x="63.623047" xlink:href="#DejaVuSans-46"/>
       <use x="95.410156" xlink:href="#DejaVuSans-54"/>
      </g>
     </g>
    </g>
    <g id="ytick_4">
     <g id="line2d_10">
      <path clip-path="url(#p8b7c5d376a)" d="M 24.692805 146.006323 
L 354.661229 146.006323 
" style="fill:none;stroke:#ffffff;stroke-linecap:round;stroke-width:0.5;"/>
     </g>
     <g id="text_10">
      <!-- 0.8 -->
      <g style="fill:#262626;" transform="translate(6.446086 148.095893)scale(0.055 -0.055)">
       <use xlink:href="#DejaVuSans-48"/>
       <use x="63.623047" xlink:href="#DejaVuSans-46"/>
       <use x="95.410156" xlink:href="#DejaVuSans-56"/>
      </g>
     </g>
    </g>
    <g id="ytick_5">
     <g id="line2d_11">
      <path clip-path="url(#p8b7c5d376a)" d="M 24.692805 93.891817 
L 354.661229 93.891817 
" style="fill:none;stroke:#ffffff;stroke-linecap:round;stroke-width:0.5;"/>
     </g>
     <g id="text_11">
      <!-- 1.0 -->
      <g style="fill:#262626;" transform="translate(6.446086 95.981387)scale(0.055 -0.055)">
       <use xlink:href="#DejaVuSans-49"/>
       <use x="63.623047" xlink:href="#DejaVuSans-46"/>
       <use x="95.410156" xlink:href="#DejaVuSans-48"/>
      </g>
     </g>
    </g>
    <g id="ytick_6">
     <g id="line2d_12">
      <path clip-path="url(#p8b7c5d376a)" d="M 24.692805 41.777311 
L 354.661229 41.777311 
" style="fill:none;stroke:#ffffff;stroke-linecap:round;stroke-width:0.5;"/>
     </g>
     <g id="text_12">
      <!-- 1.2 -->
      <g style="fill:#262626;" transform="translate(6.446086 43.866881)scale(0.055 -0.055)">
       <use xlink:href="#DejaVuSans-49"/>
       <use x="63.623047" xlink:href="#DejaVuSans-46"/>
       <use x="95.410156" xlink:href="#DejaVuSans-50"/>
      </g>
     </g>
    </g>
   </g>
   <g id="line2d_13">
    <path clip-path="url(#p8b7c5d376a)" d="M 39.691369 199.111005 
L 66.961487 240.020892 
L 94.231605 249.140931 
L 121.501723 253.362206 
L 148.77184 256.984164 
L 176.041958 259.329317 
L 203.312076 263.680878 
L 230.582194 263.628763 
L 257.852311 263.342134 
L 285.122429 263.081561 
L 312.392547 263.133676 
L 339.662665 263.107618 
" style="fill:none;stroke:#4c72b0;stroke-linecap:round;stroke-width:0.75;"/>
   </g>
   <g id="line2d_14">
    <path clip-path="url(#p8b7c5d376a)" d="M 39.691369 147.517644 
L 66.961487 146.814098 
L 94.231605 129.642368 
L 121.501723 124.274574 
L 148.77184 118.541978 
L 176.041958 107.754276 
L 203.312076 250.886767 
L 230.582194 251.32974 
L 257.852311 249.870534 
L 285.122429 250.626194 
L 312.392547 252.0854 
L 339.662665 250.782538 
" style="fill:none;stroke:#4c72b0;stroke-dasharray:2.775,1.2;stroke-dashoffset:0;stroke-width:0.75;"/>
   </g>
   <g id="line2d_15">
    <path clip-path="url(#p8b7c5d376a)" d="M 39.691369 180.271611 
L 66.961487 229.467705 
L 94.231605 238.744087 
L 121.501723 243.825251 
L 148.77184 246.326747 
L 176.041958 248.828244 
L 203.312076 251.277625 
L 230.582194 251.850885 
L 257.852311 251.642427 
L 285.122429 251.460026 
L 312.392547 251.824828 
L 339.662665 251.590312 
" style="fill:none;stroke:#dd8452;stroke-linecap:round;stroke-width:0.75;"/>
   </g>
   <g id="line2d_16">
    <path clip-path="url(#p8b7c5d376a)" d="M 39.691369 114.268589 
L 66.961487 111.376234 
L 94.231605 101.213905 
L 121.501723 89.201511 
L 148.77184 76.720087 
L 176.041958 70.752976 
L 203.312076 244.554854 
L 230.582194 245.779545 
L 257.852311 246.118289 
L 285.122429 245.466858 
L 312.392547 246.040118 
L 339.662665 245.571087 
" style="fill:none;stroke:#dd8452;stroke-dasharray:2.775,1.2;stroke-dashoffset:0;stroke-width:0.75;"/>
   </g>
   <g id="line2d_17">
    <path clip-path="url(#p8b7c5d376a)" d="M 39.691369 184.492886 
L 66.961487 228.008498 
L 94.231605 235.669331 
L 121.501723 239.734262 
L 148.77184 242.339988 
L 176.041958 244.059766 
L 203.312076 247.34298 
L 230.582194 247.707782 
L 257.852311 247.785954 
L 285.122429 247.34298 
L 312.392547 247.785954 
L 339.662665 247.395095 
" style="fill:none;stroke:#55a868;stroke-linecap:round;stroke-width:0.75;"/>
   </g>
   <g id="line2d_18">
    <path clip-path="url(#p8b7c5d376a)" d="M 39.691369 126.176753 
L 66.961487 128.443734 
L 94.231605 111.245947 
L 121.501723 99.676527 
L 148.77184 89.566313 
L 176.041958 79.06524 
L 203.312076 240.203293 
L 230.582194 238.457457 
L 257.852311 239.239175 
L 285.122429 240.177236 
L 312.392547 240.906839 
L 339.662665 240.463865 
" style="fill:none;stroke:#55a868;stroke-dasharray:2.775,1.2;stroke-dashoffset:0;stroke-width:0.75;"/>
   </g>
   <g id="line2d_19">
    <path clip-path="url(#p8b7c5d376a)" d="M 39.691369 184.649229 
L 66.961487 226.783808 
L 94.231605 234.053781 
L 121.501723 236.659506 
L 148.77184 240.51598 
L 176.041958 240.51598 
L 203.312076 244.789369 
L 230.582194 244.711198 
L 257.852311 245.128114 
L 285.122429 245.102056 
L 312.392547 244.919656 
L 339.662665 244.789369 
" style="fill:none;stroke:#c44e52;stroke-linecap:round;stroke-width:0.75;"/>
   </g>
   <g id="line2d_20">
    <path clip-path="url(#p8b7c5d376a)" d="M 39.691369 113.538986 
L 66.961487 80.967419 
L 94.231605 56.265143 
L 121.501723 48.890941 
L 148.77184 46.62396 
L 176.041958 31.53681 
L 203.312076 246.821835 
L 230.582194 245.597144 
L 257.852311 246.30069 
L 285.122429 246.926064 
L 312.392547 246.483091 
L 339.662665 246.30069 
" style="fill:none;stroke:#c44e52;stroke-dasharray:2.775,1.2;stroke-dashoffset:0;stroke-width:0.75;"/>
   </g>
   <g id="line2d_21">
    <path clip-path="url(#p8b7c5d376a)" d="M 39.691369 216.048219 
L 66.961487 254.143923 
L 94.231605 262.612531 
L 121.501723 267.511294 
L 148.77184 271.498054 
L 176.041958 273.973493 
L 203.312076 249.349389 
L 230.582194 293.620662 
L 257.852311 303.913277 
L 285.122429 311.46988 
L 312.392547 319.599743 
L 339.662665 323.351987 
" style="fill:none;stroke:#8172b3;stroke-linecap:round;stroke-width:0.75;"/>
   </g>
   <g id="line2d_22">
    <path clip-path="url(#p8b7c5d376a)" d="M 39.691369 253.544606 
L 66.961487 262.247729 
L 94.231605 265.895744 
L 121.501723 267.068321 
L 148.77184 269.25713 
L 176.041958 270.064905 
L 203.312076 269.804332 
L 230.582194 277.882081 
L 257.852311 295.835528 
L 285.122429 291.301566 
L 312.392547 272.175542 
L 339.662665 289.659959 
" style="fill:none;stroke:#8172b3;stroke-dasharray:2.775,1.2;stroke-dashoffset:0;stroke-width:0.75;"/>
   </g>
   <g id="line2d_23">
    <path clip-path="url(#p8b7c5d376a)" d="M 39.691369 183.294252 
L 66.961487 228.060613 
L 94.231605 235.903846 
L 121.501723 239.577919 
L 148.77184 242.418159 
L 176.041958 244.580911 
L 203.312076 248.046526 
L 230.582194 247.473266 
L 257.852311 247.316923 
L 285.122429 247.707782 
L 312.392547 248.072583 
L 339.662665 247.62961 
" style="fill:none;stroke:#937860;stroke-linecap:round;stroke-width:0.75;"/>
   </g>
   <g id="line2d_24">
    <path clip-path="url(#p8b7c5d376a)" d="M 39.691369 151.139602 
L 66.961487 132.977696 
L 94.231605 121.773078 
L 121.501723 111.454405 
L 148.77184 94.282676 
L 176.041958 80.602618 
L 203.312076 239.056774 
L 230.582194 240.020892 
L 257.852311 239.056774 
L 285.122429 237.727854 
L 312.392547 239.812434 
L 339.662665 239.291289 
" style="fill:none;stroke:#937860;stroke-dasharray:2.775,1.2;stroke-dashoffset:0;stroke-width:0.75;"/>
   </g>
   <g id="line2d_25">
    <path clip-path="url(#p8b7c5d376a)" d="M 39.691369 110.75086 
L 66.961487 146.814098 
L 94.231605 151.009316 
L 121.501723 153.771384 
L 148.77184 155.543278 
L 176.041958 155.152419 
L 203.312076 158.930721 
L 230.582194 155.04819 
L 257.852311 158.018717 
L 285.122429 153.536869 
L 312.392547 156.533453 
L 339.662665 157.601801 
" style="fill:none;stroke:#da8bc3;stroke-linecap:round;stroke-width:0.75;"/>
   </g>
   <g id="line2d_26">
    <path clip-path="url(#p8b7c5d376a)" d="M 39.691369 134.384788 
L 66.961487 135.713708 
L 94.231605 117.994776 
L 121.501723 114.815791 
L 148.77184 105.956325 
L 176.041958 97.201088 
L 203.312076 235.877789 
L 230.582194 236.294705 
L 257.852311 237.050365 
L 285.122429 234.705212 
L 312.392547 236.06019 
L 339.662665 235.434816 
" style="fill:none;stroke:#da8bc3;stroke-dasharray:2.775,1.2;stroke-dashoffset:0;stroke-width:0.75;"/>
   </g>
   <g id="line2d_27">
    <path clip-path="url(#p8b7c5d376a)" d="M 39.691369 305.843077 
L 39.691369 49.045721 
" style="fill:none;stroke:#da8bc3;stroke-dasharray:2.775,1.2;stroke-dashoffset:0;stroke-width:0.75;"/>
   </g>
   <g id="line2d_28">
    <path clip-path="url(#p8b7c5d376a)" d="M 203.312076 305.843077 
L 203.312076 49.045721 
" style="fill:none;stroke:#da8bc3;stroke-dasharray:2.775,1.2;stroke-dashoffset:0;stroke-width:0.75;"/>
   </g>
   <g id="patch_3">
    <path d="M 24.692805 337.942746 
L 24.692805 16.946051 
" style="fill:none;stroke:#ffffff;stroke-linecap:square;stroke-linejoin:miter;stroke-width:0.625;"/>
   </g>
   <g id="patch_4">
    <path d="M 354.661229 337.942746 
L 354.661229 16.946051 
" style="fill:none;stroke:#ffffff;stroke-linecap:square;stroke-linejoin:miter;stroke-width:0.625;"/>
   </g>
   <g id="patch_5">
    <path d="M 24.692805 337.942746 
L 354.661229 337.942746 
" style="fill:none;stroke:#ffffff;stroke-linecap:square;stroke-linejoin:miter;stroke-width:0.625;"/>
   </g>
   <g id="patch_6">
    <path d="M 24.692805 16.946051 
L 354.661229 16.946051 
" style="fill:none;stroke:#ffffff;stroke-linecap:square;stroke-linejoin:miter;stroke-width:0.625;"/>
   </g>
   <g id="text_13">
    <!-- trainable = False -->
    <g style="fill:#262626;" transform="translate(68.2093 173.462145)rotate(-270)scale(0.06 -0.06)">
     <defs>
      <path d="M 18.3125 70.21875 
L 18.3125 54.6875 
L 36.8125 54.6875 
L 36.8125 47.703125 
L 18.3125 47.703125 
L 18.3125 18.015625 
Q 18.3125 11.328125 20.140625 9.421875 
Q 21.96875 7.515625 27.59375 7.515625 
L 36.8125 7.515625 
L 36.8125 0 
L 27.59375 0 
Q 17.1875 0 13.234375 3.875 
Q 9.28125 7.765625 9.28125 18.015625 
L 9.28125 47.703125 
L 2.6875 47.703125 
L 2.6875 54.6875 
L 9.28125 54.6875 
L 9.28125 70.21875 
z
" id="DejaVuSans-116"/>
      <path d="M 41.109375 46.296875 
Q 39.59375 47.171875 37.8125 47.578125 
Q 36.03125 48 33.890625 48 
Q 26.265625 48 22.1875 43.046875 
Q 18.109375 38.09375 18.109375 28.8125 
L 18.109375 0 
L 9.078125 0 
L 9.078125 54.6875 
L 18.109375 54.6875 
L 18.109375 46.1875 
Q 20.953125 51.171875 25.484375 53.578125 
Q 30.03125 56 36.53125 56 
Q 37.453125 56 38.578125 55.875 
Q 39.703125 55.765625 41.0625 55.515625 
z
" id="DejaVuSans-114"/>
      <path d="M 34.28125 27.484375 
Q 23.390625 27.484375 19.1875 25 
Q 14.984375 22.515625 14.984375 16.5 
Q 14.984375 11.71875 18.140625 8.90625 
Q 21.296875 6.109375 26.703125 6.109375 
Q 34.1875 6.109375 38.703125 11.40625 
Q 43.21875 16.703125 43.21875 25.484375 
L 43.21875 27.484375 
z
M 52.203125 31.203125 
L 52.203125 0 
L 43.21875 0 
L 43.21875 8.296875 
Q 40.140625 3.328125 35.546875 0.953125 
Q 30.953125 -1.421875 24.3125 -1.421875 
Q 15.921875 -1.421875 10.953125 3.296875 
Q 6 8.015625 6 15.921875 
Q 6 25.140625 12.171875 29.828125 
Q 18.359375 34.515625 30.609375 34.515625 
L 43.21875 34.515625 
L 43.21875 35.40625 
Q 43.21875 41.609375 39.140625 45 
Q 35.0625 48.390625 27.6875 48.390625 
Q 23 48.390625 18.546875 47.265625 
Q 14.109375 46.140625 10.015625 43.890625 
L 10.015625 52.203125 
Q 14.9375 54.109375 19.578125 55.046875 
Q 24.21875 56 28.609375 56 
Q 40.484375 56 46.34375 49.84375 
Q 52.203125 43.703125 52.203125 31.203125 
z
" id="DejaVuSans-97"/>
      <path d="M 9.421875 54.6875 
L 18.40625 54.6875 
L 18.40625 0 
L 9.421875 0 
z
M 9.421875 75.984375 
L 18.40625 75.984375 
L 18.40625 64.59375 
L 9.421875 64.59375 
z
" id="DejaVuSans-105"/>
      <path d="M 54.890625 33.015625 
L 54.890625 0 
L 45.90625 0 
L 45.90625 32.71875 
Q 45.90625 40.484375 42.875 44.328125 
Q 39.84375 48.1875 33.796875 48.1875 
Q 26.515625 48.1875 22.3125 43.546875 
Q 18.109375 38.921875 18.109375 30.90625 
L 18.109375 0 
L 9.078125 0 
L 9.078125 54.6875 
L 18.109375 54.6875 
L 18.109375 46.1875 
Q 21.34375 51.125 25.703125 53.5625 
Q 30.078125 56 35.796875 56 
Q 45.21875 56 50.046875 50.171875 
Q 54.890625 44.34375 54.890625 33.015625 
z
" id="DejaVuSans-110"/>
      <path d="M 48.6875 27.296875 
Q 48.6875 37.203125 44.609375 42.84375 
Q 40.53125 48.484375 33.40625 48.484375 
Q 26.265625 48.484375 22.1875 42.84375 
Q 18.109375 37.203125 18.109375 27.296875 
Q 18.109375 17.390625 22.1875 11.75 
Q 26.265625 6.109375 33.40625 6.109375 
Q 40.53125 6.109375 44.609375 11.75 
Q 48.6875 17.390625 48.6875 27.296875 
z
M 18.109375 46.390625 
Q 20.953125 51.265625 25.265625 53.625 
Q 29.59375 56 35.59375 56 
Q 45.5625 56 51.78125 48.09375 
Q 58.015625 40.1875 58.015625 27.296875 
Q 58.015625 14.40625 51.78125 6.484375 
Q 45.5625 -1.421875 35.59375 -1.421875 
Q 29.59375 -1.421875 25.265625 0.953125 
Q 20.953125 3.328125 18.109375 8.203125 
L 18.109375 0 
L 9.078125 0 
L 9.078125 75.984375 
L 18.109375 75.984375 
z
" id="DejaVuSans-98"/>
      <path d="M 9.421875 75.984375 
L 18.40625 75.984375 
L 18.40625 0 
L 9.421875 0 
z
" id="DejaVuSans-108"/>
      <path d="M 56.203125 29.59375 
L 56.203125 25.203125 
L 14.890625 25.203125 
Q 15.484375 15.921875 20.484375 11.0625 
Q 25.484375 6.203125 34.421875 6.203125 
Q 39.59375 6.203125 44.453125 7.46875 
Q 49.3125 8.734375 54.109375 11.28125 
L 54.109375 2.78125 
Q 49.265625 0.734375 44.1875 -0.34375 
Q 39.109375 -1.421875 33.890625 -1.421875 
Q 20.796875 -1.421875 13.15625 6.1875 
Q 5.515625 13.8125 5.515625 26.8125 
Q 5.515625 40.234375 12.765625 48.109375 
Q 20.015625 56 32.328125 56 
Q 43.359375 56 49.78125 48.890625 
Q 56.203125 41.796875 56.203125 29.59375 
z
M 47.21875 32.234375 
Q 47.125 39.59375 43.09375 43.984375 
Q 39.0625 48.390625 32.421875 48.390625 
Q 24.90625 48.390625 20.390625 44.140625 
Q 15.875 39.890625 15.1875 32.171875 
z
" id="DejaVuSans-101"/>
      <path id="DejaVuSans-32"/>
      <path d="M 10.59375 45.40625 
L 73.1875 45.40625 
L 73.1875 37.203125 
L 10.59375 37.203125 
z
M 10.59375 25.484375 
L 73.1875 25.484375 
L 73.1875 17.1875 
L 10.59375 17.1875 
z
" id="DejaVuSans-61"/>
      <path d="M 9.8125 72.90625 
L 51.703125 72.90625 
L 51.703125 64.59375 
L 19.671875 64.59375 
L 19.671875 43.109375 
L 48.578125 43.109375 
L 48.578125 34.8125 
L 19.671875 34.8125 
L 19.671875 0 
L 9.8125 0 
z
" id="DejaVuSans-70"/>
      <path d="M 44.28125 53.078125 
L 44.28125 44.578125 
Q 40.484375 46.53125 36.375 47.5 
Q 32.28125 48.484375 27.875 48.484375 
Q 21.1875 48.484375 17.84375 46.4375 
Q 14.5 44.390625 14.5 40.28125 
Q 14.5 37.15625 16.890625 35.375 
Q 19.28125 33.59375 26.515625 31.984375 
L 29.59375 31.296875 
Q 39.15625 29.25 43.1875 25.515625 
Q 47.21875 21.78125 47.21875 15.09375 
Q 47.21875 7.46875 41.1875 3.015625 
Q 35.15625 -1.421875 24.609375 -1.421875 
Q 20.21875 -1.421875 15.453125 -0.5625 
Q 10.6875 0.296875 5.421875 2 
L 5.421875 11.28125 
Q 10.40625 8.6875 15.234375 7.390625 
Q 20.0625 6.109375 24.8125 6.109375 
Q 31.15625 6.109375 34.5625 8.28125 
Q 37.984375 10.453125 37.984375 14.40625 
Q 37.984375 18.0625 35.515625 20.015625 
Q 33.0625 21.96875 24.703125 23.78125 
L 21.578125 24.515625 
Q 13.234375 26.265625 9.515625 29.90625 
Q 5.8125 33.546875 5.8125 39.890625 
Q 5.8125 47.609375 11.28125 51.796875 
Q 16.75 56 26.8125 56 
Q 31.78125 56 36.171875 55.265625 
Q 40.578125 54.546875 44.28125 53.078125 
z
" id="DejaVuSans-115"/>
     </defs>
     <use xlink:href="#DejaVuSans-116"/>
     <use x="39.208984" xlink:href="#DejaVuSans-114"/>
     <use x="80.322266" xlink:href="#DejaVuSans-97"/>
     <use x="141.601562" xlink:href="#DejaVuSans-105"/>
     <use x="169.384766" xlink:href="#DejaVuSans-110"/>
     <use x="232.763672" xlink:href="#DejaVuSans-97"/>
     <use x="294.042969" xlink:href="#DejaVuSans-98"/>
     <use x="357.519531" xlink:href="#DejaVuSans-108"/>
     <use x="385.302734" xlink:href="#DejaVuSans-101"/>
     <use x="446.826172" xlink:href="#DejaVuSans-32"/>
     <use x="478.613281" xlink:href="#DejaVuSans-61"/>
     <use x="562.402344" xlink:href="#DejaVuSans-32"/>
     <use x="594.189453" xlink:href="#DejaVuSans-70"/>
     <use x="642.583984" xlink:href="#DejaVuSans-97"/>
     <use x="703.863281" xlink:href="#DejaVuSans-108"/>
     <use x="731.646484" xlink:href="#DejaVuSans-115"/>
     <use x="783.746094" xlink:href="#DejaVuSans-101"/>
    </g>
   </g>
   <g id="text_14">
    <!-- trainable = True -->
    <g style="fill:#262626;" transform="translate(231.830006 175.786207)rotate(-270)scale(0.06 -0.06)">
     <defs>
      <path d="M -0.296875 72.90625 
L 61.375 72.90625 
L 61.375 64.59375 
L 35.5 64.59375 
L 35.5 0 
L 25.59375 0 
L 25.59375 64.59375 
L -0.296875 64.59375 
z
" id="DejaVuSans-84"/>
      <path d="M 8.5 21.578125 
L 8.5 54.6875 
L 17.484375 54.6875 
L 17.484375 21.921875 
Q 17.484375 14.15625 20.5 10.265625 
Q 23.53125 6.390625 29.59375 6.390625 
Q 36.859375 6.390625 41.078125 11.03125 
Q 45.3125 15.671875 45.3125 23.6875 
L 45.3125 54.6875 
L 54.296875 54.6875 
L 54.296875 0 
L 45.3125 0 
L 45.3125 8.40625 
Q 42.046875 3.421875 37.71875 1 
Q 33.40625 -1.421875 27.6875 -1.421875 
Q 18.265625 -1.421875 13.375 4.4375 
Q 8.5 10.296875 8.5 21.578125 
z
M 31.109375 56 
z
" id="DejaVuSans-117"/>
     </defs>
     <use xlink:href="#DejaVuSans-116"/>
     <use x="39.208984" xlink:href="#DejaVuSans-114"/>
     <use x="80.322266" xlink:href="#DejaVuSans-97"/>
     <use x="141.601562" xlink:href="#DejaVuSans-105"/>
     <use x="169.384766" xlink:href="#DejaVuSans-110"/>
     <use x="232.763672" xlink:href="#DejaVuSans-97"/>
     <use x="294.042969" xlink:href="#DejaVuSans-98"/>
     <use x="357.519531" xlink:href="#DejaVuSans-108"/>
     <use x="385.302734" xlink:href="#DejaVuSans-101"/>
     <use x="446.826172" xlink:href="#DejaVuSans-32"/>
     <use x="478.613281" xlink:href="#DejaVuSans-61"/>
     <use x="562.402344" xlink:href="#DejaVuSans-32"/>
     <use x="594.189453" xlink:href="#DejaVuSans-84"/>
     <use x="640.523438" xlink:href="#DejaVuSans-114"/>
     <use x="681.636719" xlink:href="#DejaVuSans-117"/>
     <use x="745.015625" xlink:href="#DejaVuSans-101"/>
    </g>
   </g>
   <g id="text_15">
    <!-- Loss -->
    <g style="fill:#262626;" transform="translate(183.096705 10.946051)scale(0.06 -0.06)">
     <defs>
      <path d="M 9.8125 72.90625 
L 19.671875 72.90625 
L 19.671875 8.296875 
L 55.171875 8.296875 
L 55.171875 0 
L 9.8125 0 
z
" id="DejaVuSans-76"/>
      <path d="M 30.609375 48.390625 
Q 23.390625 48.390625 19.1875 42.75 
Q 14.984375 37.109375 14.984375 27.296875 
Q 14.984375 17.484375 19.15625 11.84375 
Q 23.34375 6.203125 30.609375 6.203125 
Q 37.796875 6.203125 41.984375 11.859375 
Q 46.1875 17.53125 46.1875 27.296875 
Q 46.1875 37.015625 41.984375 42.703125 
Q 37.796875 48.390625 30.609375 48.390625 
z
M 30.609375 56 
Q 42.328125 56 49.015625 48.375 
Q 55.71875 40.765625 55.71875 27.296875 
Q 55.71875 13.875 49.015625 6.21875 
Q 42.328125 -1.421875 30.609375 -1.421875 
Q 18.84375 -1.421875 12.171875 6.21875 
Q 5.515625 13.875 5.515625 27.296875 
Q 5.515625 40.765625 12.171875 48.375 
Q 18.84375 56 30.609375 56 
z
" id="DejaVuSans-111"/>
     </defs>
     <use xlink:href="#DejaVuSans-76"/>
     <use x="53.962891" xlink:href="#DejaVuSans-111"/>
     <use x="115.144531" xlink:href="#DejaVuSans-115"/>
     <use x="167.244141" xlink:href="#DejaVuSans-115"/>
    </g>
   </g>
   <g id="legend_1">
    <g id="line2d_29">
     <path d="M 249.880214 24.150192 
L 260.880214 24.150192 
" style="fill:none;stroke:#4c72b0;stroke-linecap:round;stroke-width:0.75;"/>
    </g>
    <g id="line2d_30"/>
    <g id="text_16">
     <!-- mix_loss -->
     <g style="fill:#262626;" transform="translate(265.280214 26.075192)scale(0.055 -0.055)">
      <defs>
       <path d="M 52 44.1875 
Q 55.375 50.25 60.0625 53.125 
Q 64.75 56 71.09375 56 
Q 79.640625 56 84.28125 50.015625 
Q 88.921875 44.046875 88.921875 33.015625 
L 88.921875 0 
L 79.890625 0 
L 79.890625 32.71875 
Q 79.890625 40.578125 77.09375 44.375 
Q 74.3125 48.1875 68.609375 48.1875 
Q 61.625 48.1875 57.5625 43.546875 
Q 53.515625 38.921875 53.515625 30.90625 
L 53.515625 0 
L 44.484375 0 
L 44.484375 32.71875 
Q 44.484375 40.625 41.703125 44.40625 
Q 38.921875 48.1875 33.109375 48.1875 
Q 26.21875 48.1875 22.15625 43.53125 
Q 18.109375 38.875 18.109375 30.90625 
L 18.109375 0 
L 9.078125 0 
L 9.078125 54.6875 
L 18.109375 54.6875 
L 18.109375 46.1875 
Q 21.1875 51.21875 25.484375 53.609375 
Q 29.78125 56 35.6875 56 
Q 41.65625 56 45.828125 52.96875 
Q 50 49.953125 52 44.1875 
z
" id="DejaVuSans-109"/>
       <path d="M 54.890625 54.6875 
L 35.109375 28.078125 
L 55.90625 0 
L 45.3125 0 
L 29.390625 21.484375 
L 13.484375 0 
L 2.875 0 
L 24.125 28.609375 
L 4.6875 54.6875 
L 15.28125 54.6875 
L 29.78125 35.203125 
L 44.28125 54.6875 
z
" id="DejaVuSans-120"/>
       <path d="M 50.984375 -16.609375 
L 50.984375 -23.578125 
L -0.984375 -23.578125 
L -0.984375 -16.609375 
z
" id="DejaVuSans-95"/>
      </defs>
      <use xlink:href="#DejaVuSans-109"/>
      <use x="97.412109" xlink:href="#DejaVuSans-105"/>
      <use x="125.195312" xlink:href="#DejaVuSans-120"/>
      <use x="184.375" xlink:href="#DejaVuSans-95"/>
      <use x="234.375" xlink:href="#DejaVuSans-108"/>
      <use x="262.158203" xlink:href="#DejaVuSans-111"/>
      <use x="323.339844" xlink:href="#DejaVuSans-115"/>
      <use x="375.439453" xlink:href="#DejaVuSans-115"/>
     </g>
    </g>
    <g id="line2d_31">
     <path d="M 249.880214 32.37613 
L 260.880214 32.37613 
" style="fill:none;stroke:#4c72b0;stroke-dasharray:2.775,1.2;stroke-dashoffset:0;stroke-width:0.75;"/>
    </g>
    <g id="line2d_32"/>
    <g id="text_17">
     <!-- mix_val_loss -->
     <g style="fill:#262626;" transform="translate(265.280214 34.30113)scale(0.055 -0.055)">
      <defs>
       <path d="M 2.984375 54.6875 
L 12.5 54.6875 
L 29.59375 8.796875 
L 46.6875 54.6875 
L 56.203125 54.6875 
L 35.6875 0 
L 23.484375 0 
z
" id="DejaVuSans-118"/>
      </defs>
      <use xlink:href="#DejaVuSans-109"/>
      <use x="97.412109" xlink:href="#DejaVuSans-105"/>
      <use x="125.195312" xlink:href="#DejaVuSans-120"/>
      <use x="184.375" xlink:href="#DejaVuSans-95"/>
      <use x="234.375" xlink:href="#DejaVuSans-118"/>
      <use x="293.554688" xlink:href="#DejaVuSans-97"/>
      <use x="354.833984" xlink:href="#DejaVuSans-108"/>
      <use x="382.617188" xlink:href="#DejaVuSans-95"/>
      <use x="432.617188" xlink:href="#DejaVuSans-108"/>
      <use x="460.400391" xlink:href="#DejaVuSans-111"/>
      <use x="521.582031" xlink:href="#DejaVuSans-115"/>
      <use x="573.681641" xlink:href="#DejaVuSans-115"/>
     </g>
    </g>
    <g id="line2d_33">
     <path d="M 249.880214 40.602067 
L 260.880214 40.602067 
" style="fill:none;stroke:#dd8452;stroke-linecap:round;stroke-width:0.75;"/>
    </g>
    <g id="line2d_34"/>
    <g id="text_18">
     <!-- mean_loss -->
     <g style="fill:#262626;" transform="translate(265.280214 42.527067)scale(0.055 -0.055)">
      <use xlink:href="#DejaVuSans-109"/>
      <use x="97.412109" xlink:href="#DejaVuSans-101"/>
      <use x="158.935547" xlink:href="#DejaVuSans-97"/>
      <use x="220.214844" xlink:href="#DejaVuSans-110"/>
      <use x="283.59375" xlink:href="#DejaVuSans-95"/>
      <use x="333.59375" xlink:href="#DejaVuSans-108"/>
      <use x="361.376953" xlink:href="#DejaVuSans-111"/>
      <use x="422.558594" xlink:href="#DejaVuSans-115"/>
      <use x="474.658203" xlink:href="#DejaVuSans-115"/>
     </g>
    </g>
    <g id="line2d_35">
     <path d="M 249.880214 48.828005 
L 260.880214 48.828005 
" style="fill:none;stroke:#dd8452;stroke-dasharray:2.775,1.2;stroke-dashoffset:0;stroke-width:0.75;"/>
    </g>
    <g id="line2d_36"/>
    <g id="text_19">
     <!-- mean_val_loss -->
     <g style="fill:#262626;" transform="translate(265.280214 50.753005)scale(0.055 -0.055)">
      <use xlink:href="#DejaVuSans-109"/>
      <use x="97.412109" xlink:href="#DejaVuSans-101"/>
      <use x="158.935547" xlink:href="#DejaVuSans-97"/>
      <use x="220.214844" xlink:href="#DejaVuSans-110"/>
      <use x="283.59375" xlink:href="#DejaVuSans-95"/>
      <use x="333.59375" xlink:href="#DejaVuSans-118"/>
      <use x="392.773438" xlink:href="#DejaVuSans-97"/>
      <use x="454.052734" xlink:href="#DejaVuSans-108"/>
      <use x="481.835938" xlink:href="#DejaVuSans-95"/>
      <use x="531.835938" xlink:href="#DejaVuSans-108"/>
      <use x="559.619141" xlink:href="#DejaVuSans-111"/>
      <use x="620.800781" xlink:href="#DejaVuSans-115"/>
      <use x="672.900391" xlink:href="#DejaVuSans-115"/>
     </g>
    </g>
    <g id="line2d_37">
     <path d="M 249.880214 57.053942 
L 260.880214 57.053942 
" style="fill:none;stroke:#55a868;stroke-linecap:round;stroke-width:0.75;"/>
    </g>
    <g id="line2d_38"/>
    <g id="text_20">
     <!-- token_loss -->
     <g style="fill:#262626;" transform="translate(265.280214 58.978942)scale(0.055 -0.055)">
      <defs>
       <path d="M 9.078125 75.984375 
L 18.109375 75.984375 
L 18.109375 31.109375 
L 44.921875 54.6875 
L 56.390625 54.6875 
L 27.390625 29.109375 
L 57.625 0 
L 45.90625 0 
L 18.109375 26.703125 
L 18.109375 0 
L 9.078125 0 
z
" id="DejaVuSans-107"/>
      </defs>
      <use xlink:href="#DejaVuSans-116"/>
      <use x="39.208984" xlink:href="#DejaVuSans-111"/>
      <use x="100.390625" xlink:href="#DejaVuSans-107"/>
      <use x="154.675781" xlink:href="#DejaVuSans-101"/>
      <use x="216.199219" xlink:href="#DejaVuSans-110"/>
      <use x="279.578125" xlink:href="#DejaVuSans-95"/>
      <use x="329.578125" xlink:href="#DejaVuSans-108"/>
      <use x="357.361328" xlink:href="#DejaVuSans-111"/>
      <use x="418.542969" xlink:href="#DejaVuSans-115"/>
      <use x="470.642578" xlink:href="#DejaVuSans-115"/>
     </g>
    </g>
    <g id="line2d_39">
     <path d="M 249.880214 65.27988 
L 260.880214 65.27988 
" style="fill:none;stroke:#55a868;stroke-dasharray:2.775,1.2;stroke-dashoffset:0;stroke-width:0.75;"/>
    </g>
    <g id="line2d_40"/>
    <g id="text_21">
     <!-- token_val_loss -->
     <g style="fill:#262626;" transform="translate(265.280214 67.20488)scale(0.055 -0.055)">
      <use xlink:href="#DejaVuSans-116"/>
      <use x="39.208984" xlink:href="#DejaVuSans-111"/>
      <use x="100.390625" xlink:href="#DejaVuSans-107"/>
      <use x="154.675781" xlink:href="#DejaVuSans-101"/>
      <use x="216.199219" xlink:href="#DejaVuSans-110"/>
      <use x="279.578125" xlink:href="#DejaVuSans-95"/>
      <use x="329.578125" xlink:href="#DejaVuSans-118"/>
      <use x="388.757812" xlink:href="#DejaVuSans-97"/>
      <use x="450.037109" xlink:href="#DejaVuSans-108"/>
      <use x="477.820312" xlink:href="#DejaVuSans-95"/>
      <use x="527.820312" xlink:href="#DejaVuSans-108"/>
      <use x="555.603516" xlink:href="#DejaVuSans-111"/>
      <use x="616.785156" xlink:href="#DejaVuSans-115"/>
      <use x="668.884766" xlink:href="#DejaVuSans-115"/>
     </g>
    </g>
    <g id="line2d_41">
     <path d="M 249.880214 73.505817 
L 260.880214 73.505817 
" style="fill:none;stroke:#c44e52;stroke-linecap:round;stroke-width:0.75;"/>
    </g>
    <g id="line2d_42"/>
    <g id="text_22">
     <!-- classifier_0_pooling_loss -->
     <g style="fill:#262626;" transform="translate(265.280214 75.430817)scale(0.055 -0.055)">
      <defs>
       <path d="M 48.78125 52.59375 
L 48.78125 44.1875 
Q 44.96875 46.296875 41.140625 47.34375 
Q 37.3125 48.390625 33.40625 48.390625 
Q 24.65625 48.390625 19.8125 42.84375 
Q 14.984375 37.3125 14.984375 27.296875 
Q 14.984375 17.28125 19.8125 11.734375 
Q 24.65625 6.203125 33.40625 6.203125 
Q 37.3125 6.203125 41.140625 7.25 
Q 44.96875 8.296875 48.78125 10.40625 
L 48.78125 2.09375 
Q 45.015625 0.34375 40.984375 -0.53125 
Q 36.96875 -1.421875 32.421875 -1.421875 
Q 20.0625 -1.421875 12.78125 6.34375 
Q 5.515625 14.109375 5.515625 27.296875 
Q 5.515625 40.671875 12.859375 48.328125 
Q 20.21875 56 33.015625 56 
Q 37.15625 56 41.109375 55.140625 
Q 45.0625 54.296875 48.78125 52.59375 
z
" id="DejaVuSans-99"/>
       <path d="M 37.109375 75.984375 
L 37.109375 68.5 
L 28.515625 68.5 
Q 23.6875 68.5 21.796875 66.546875 
Q 19.921875 64.59375 19.921875 59.515625 
L 19.921875 54.6875 
L 34.71875 54.6875 
L 34.71875 47.703125 
L 19.921875 47.703125 
L 19.921875 0 
L 10.890625 0 
L 10.890625 47.703125 
L 2.296875 47.703125 
L 2.296875 54.6875 
L 10.890625 54.6875 
L 10.890625 58.5 
Q 10.890625 67.625 15.140625 71.796875 
Q 19.390625 75.984375 28.609375 75.984375 
z
" id="DejaVuSans-102"/>
       <path d="M 18.109375 8.203125 
L 18.109375 -20.796875 
L 9.078125 -20.796875 
L 9.078125 54.6875 
L 18.109375 54.6875 
L 18.109375 46.390625 
Q 20.953125 51.265625 25.265625 53.625 
Q 29.59375 56 35.59375 56 
Q 45.5625 56 51.78125 48.09375 
Q 58.015625 40.1875 58.015625 27.296875 
Q 58.015625 14.40625 51.78125 6.484375 
Q 45.5625 -1.421875 35.59375 -1.421875 
Q 29.59375 -1.421875 25.265625 0.953125 
Q 20.953125 3.328125 18.109375 8.203125 
z
M 48.6875 27.296875 
Q 48.6875 37.203125 44.609375 42.84375 
Q 40.53125 48.484375 33.40625 48.484375 
Q 26.265625 48.484375 22.1875 42.84375 
Q 18.109375 37.203125 18.109375 27.296875 
Q 18.109375 17.390625 22.1875 11.75 
Q 26.265625 6.109375 33.40625 6.109375 
Q 40.53125 6.109375 44.609375 11.75 
Q 48.6875 17.390625 48.6875 27.296875 
z
" id="DejaVuSans-112"/>
       <path d="M 45.40625 27.984375 
Q 45.40625 37.75 41.375 43.109375 
Q 37.359375 48.484375 30.078125 48.484375 
Q 22.859375 48.484375 18.828125 43.109375 
Q 14.796875 37.75 14.796875 27.984375 
Q 14.796875 18.265625 18.828125 12.890625 
Q 22.859375 7.515625 30.078125 7.515625 
Q 37.359375 7.515625 41.375 12.890625 
Q 45.40625 18.265625 45.40625 27.984375 
z
M 54.390625 6.78125 
Q 54.390625 -7.171875 48.1875 -13.984375 
Q 42 -20.796875 29.203125 -20.796875 
Q 24.46875 -20.796875 20.265625 -20.09375 
Q 16.0625 -19.390625 12.109375 -17.921875 
L 12.109375 -9.1875 
Q 16.0625 -11.328125 19.921875 -12.34375 
Q 23.78125 -13.375 27.78125 -13.375 
Q 36.625 -13.375 41.015625 -8.765625 
Q 45.40625 -4.15625 45.40625 5.171875 
L 45.40625 9.625 
Q 42.625 4.78125 38.28125 2.390625 
Q 33.9375 0 27.875 0 
Q 17.828125 0 11.671875 7.65625 
Q 5.515625 15.328125 5.515625 27.984375 
Q 5.515625 40.671875 11.671875 48.328125 
Q 17.828125 56 27.875 56 
Q 33.9375 56 38.28125 53.609375 
Q 42.625 51.21875 45.40625 46.390625 
L 45.40625 54.6875 
L 54.390625 54.6875 
z
" id="DejaVuSans-103"/>
      </defs>
      <use xlink:href="#DejaVuSans-99"/>
      <use x="54.980469" xlink:href="#DejaVuSans-108"/>
      <use x="82.763672" xlink:href="#DejaVuSans-97"/>
      <use x="144.042969" xlink:href="#DejaVuSans-115"/>
      <use x="196.142578" xlink:href="#DejaVuSans-115"/>
      <use x="248.242188" xlink:href="#DejaVuSans-105"/>
      <use x="276.025391" xlink:href="#DejaVuSans-102"/>
      <use x="311.230469" xlink:href="#DejaVuSans-105"/>
      <use x="339.013672" xlink:href="#DejaVuSans-101"/>
      <use x="400.537109" xlink:href="#DejaVuSans-114"/>
      <use x="441.650391" xlink:href="#DejaVuSans-95"/>
      <use x="491.650391" xlink:href="#DejaVuSans-48"/>
      <use x="555.273438" xlink:href="#DejaVuSans-95"/>
      <use x="605.273438" xlink:href="#DejaVuSans-112"/>
      <use x="668.75" xlink:href="#DejaVuSans-111"/>
      <use x="729.931641" xlink:href="#DejaVuSans-111"/>
      <use x="791.113281" xlink:href="#DejaVuSans-108"/>
      <use x="818.896484" xlink:href="#DejaVuSans-105"/>
      <use x="846.679688" xlink:href="#DejaVuSans-110"/>
      <use x="910.058594" xlink:href="#DejaVuSans-103"/>
      <use x="973.535156" xlink:href="#DejaVuSans-95"/>
      <use x="1023.535156" xlink:href="#DejaVuSans-108"/>
      <use x="1051.318359" xlink:href="#DejaVuSans-111"/>
      <use x="1112.5" xlink:href="#DejaVuSans-115"/>
      <use x="1164.599609" xlink:href="#DejaVuSans-115"/>
     </g>
    </g>
    <g id="line2d_43">
     <path d="M 249.880214 81.731755 
L 260.880214 81.731755 
" style="fill:none;stroke:#c44e52;stroke-dasharray:2.775,1.2;stroke-dashoffset:0;stroke-width:0.75;"/>
    </g>
    <g id="line2d_44"/>
    <g id="text_23">
     <!-- classifier_0_pooling_val_loss -->
     <g style="fill:#262626;" transform="translate(265.280214 83.656755)scale(0.055 -0.055)">
      <use xlink:href="#DejaVuSans-99"/>
      <use x="54.980469" xlink:href="#DejaVuSans-108"/>
      <use x="82.763672" xlink:href="#DejaVuSans-97"/>
      <use x="144.042969" xlink:href="#DejaVuSans-115"/>
      <use x="196.142578" xlink:href="#DejaVuSans-115"/>
      <use x="248.242188" xlink:href="#DejaVuSans-105"/>
      <use x="276.025391" xlink:href="#DejaVuSans-102"/>
      <use x="311.230469" xlink:href="#DejaVuSans-105"/>
      <use x="339.013672" xlink:href="#DejaVuSans-101"/>
      <use x="400.537109" xlink:href="#DejaVuSans-114"/>
      <use x="441.650391" xlink:href="#DejaVuSans-95"/>
      <use x="491.650391" xlink:href="#DejaVuSans-48"/>
      <use x="555.273438" xlink:href="#DejaVuSans-95"/>
      <use x="605.273438" xlink:href="#DejaVuSans-112"/>
      <use x="668.75" xlink:href="#DejaVuSans-111"/>
      <use x="729.931641" xlink:href="#DejaVuSans-111"/>
      <use x="791.113281" xlink:href="#DejaVuSans-108"/>
      <use x="818.896484" xlink:href="#DejaVuSans-105"/>
      <use x="846.679688" xlink:href="#DejaVuSans-110"/>
      <use x="910.058594" xlink:href="#DejaVuSans-103"/>
      <use x="973.535156" xlink:href="#DejaVuSans-95"/>
      <use x="1023.535156" xlink:href="#DejaVuSans-118"/>
      <use x="1082.714844" xlink:href="#DejaVuSans-97"/>
      <use x="1143.994141" xlink:href="#DejaVuSans-108"/>
      <use x="1171.777344" xlink:href="#DejaVuSans-95"/>
      <use x="1221.777344" xlink:href="#DejaVuSans-108"/>
      <use x="1249.560547" xlink:href="#DejaVuSans-111"/>
      <use x="1310.742188" xlink:href="#DejaVuSans-115"/>
      <use x="1362.841797" xlink:href="#DejaVuSans-115"/>
     </g>
    </g>
    <g id="line2d_45">
     <path d="M 249.880214 89.957692 
L 260.880214 89.957692 
" style="fill:none;stroke:#8172b3;stroke-linecap:round;stroke-width:0.75;"/>
    </g>
    <g id="line2d_46"/>
    <g id="text_24">
     <!-- efficientnet_b0_loss -->
     <g style="fill:#262626;" transform="translate(265.280214 91.882692)scale(0.055 -0.055)">
      <use xlink:href="#DejaVuSans-101"/>
      <use x="61.523438" xlink:href="#DejaVuSans-102"/>
      <use x="96.728516" xlink:href="#DejaVuSans-102"/>
      <use x="131.933594" xlink:href="#DejaVuSans-105"/>
      <use x="159.716797" xlink:href="#DejaVuSans-99"/>
      <use x="214.697266" xlink:href="#DejaVuSans-105"/>
      <use x="242.480469" xlink:href="#DejaVuSans-101"/>
      <use x="304.003906" xlink:href="#DejaVuSans-110"/>
      <use x="367.382812" xlink:href="#DejaVuSans-116"/>
      <use x="406.591797" xlink:href="#DejaVuSans-110"/>
      <use x="469.970703" xlink:href="#DejaVuSans-101"/>
      <use x="531.494141" xlink:href="#DejaVuSans-116"/>
      <use x="570.703125" xlink:href="#DejaVuSans-95"/>
      <use x="620.703125" xlink:href="#DejaVuSans-98"/>
      <use x="684.179688" xlink:href="#DejaVuSans-48"/>
      <use x="747.802734" xlink:href="#DejaVuSans-95"/>
      <use x="797.802734" xlink:href="#DejaVuSans-108"/>
      <use x="825.585938" xlink:href="#DejaVuSans-111"/>
      <use x="886.767578" xlink:href="#DejaVuSans-115"/>
      <use x="938.867188" xlink:href="#DejaVuSans-115"/>
     </g>
    </g>
    <g id="line2d_47">
     <path d="M 249.880214 98.18363 
L 260.880214 98.18363 
" style="fill:none;stroke:#8172b3;stroke-dasharray:2.775,1.2;stroke-dashoffset:0;stroke-width:0.75;"/>
    </g>
    <g id="line2d_48"/>
    <g id="text_25">
     <!-- efficientnet_b0_val_loss -->
     <g style="fill:#262626;" transform="translate(265.280214 100.10863)scale(0.055 -0.055)">
      <use xlink:href="#DejaVuSans-101"/>
      <use x="61.523438" xlink:href="#DejaVuSans-102"/>
      <use x="96.728516" xlink:href="#DejaVuSans-102"/>
      <use x="131.933594" xlink:href="#DejaVuSans-105"/>
      <use x="159.716797" xlink:href="#DejaVuSans-99"/>
      <use x="214.697266" xlink:href="#DejaVuSans-105"/>
      <use x="242.480469" xlink:href="#DejaVuSans-101"/>
      <use x="304.003906" xlink:href="#DejaVuSans-110"/>
      <use x="367.382812" xlink:href="#DejaVuSans-116"/>
      <use x="406.591797" xlink:href="#DejaVuSans-110"/>
      <use x="469.970703" xlink:href="#DejaVuSans-101"/>
      <use x="531.494141" xlink:href="#DejaVuSans-116"/>
      <use x="570.703125" xlink:href="#DejaVuSans-95"/>
      <use x="620.703125" xlink:href="#DejaVuSans-98"/>
      <use x="684.179688" xlink:href="#DejaVuSans-48"/>
      <use x="747.802734" xlink:href="#DejaVuSans-95"/>
      <use x="797.802734" xlink:href="#DejaVuSans-118"/>
      <use x="856.982422" xlink:href="#DejaVuSans-97"/>
      <use x="918.261719" xlink:href="#DejaVuSans-108"/>
      <use x="946.044922" xlink:href="#DejaVuSans-95"/>
      <use x="996.044922" xlink:href="#DejaVuSans-108"/>
      <use x="1023.828125" xlink:href="#DejaVuSans-111"/>
      <use x="1085.009766" xlink:href="#DejaVuSans-115"/>
      <use x="1137.109375" xlink:href="#DejaVuSans-115"/>
     </g>
    </g>
    <g id="line2d_49">
     <path d="M 249.880214 106.409567 
L 260.880214 106.409567 
" style="fill:none;stroke:#937860;stroke-linecap:round;stroke-width:0.75;"/>
    </g>
    <g id="line2d_50"/>
    <g id="text_26">
     <!-- token_label_mix_false_loss -->
     <g style="fill:#262626;" transform="translate(265.280214 108.334567)scale(0.055 -0.055)">
      <use xlink:href="#DejaVuSans-116"/>
      <use x="39.208984" xlink:href="#DejaVuSans-111"/>
      <use x="100.390625" xlink:href="#DejaVuSans-107"/>
      <use x="154.675781" xlink:href="#DejaVuSans-101"/>
      <use x="216.199219" xlink:href="#DejaVuSans-110"/>
      <use x="279.578125" xlink:href="#DejaVuSans-95"/>
      <use x="329.578125" xlink:href="#DejaVuSans-108"/>
      <use x="357.361328" xlink:href="#DejaVuSans-97"/>
      <use x="418.640625" xlink:href="#DejaVuSans-98"/>
      <use x="482.117188" xlink:href="#DejaVuSans-101"/>
      <use x="543.640625" xlink:href="#DejaVuSans-108"/>
      <use x="571.423828" xlink:href="#DejaVuSans-95"/>
      <use x="621.423828" xlink:href="#DejaVuSans-109"/>
      <use x="718.835938" xlink:href="#DejaVuSans-105"/>
      <use x="746.619141" xlink:href="#DejaVuSans-120"/>
      <use x="805.798828" xlink:href="#DejaVuSans-95"/>
      <use x="855.798828" xlink:href="#DejaVuSans-102"/>
      <use x="891.003906" xlink:href="#DejaVuSans-97"/>
      <use x="952.283203" xlink:href="#DejaVuSans-108"/>
      <use x="980.066406" xlink:href="#DejaVuSans-115"/>
      <use x="1032.166016" xlink:href="#DejaVuSans-101"/>
      <use x="1093.689453" xlink:href="#DejaVuSans-95"/>
      <use x="1143.689453" xlink:href="#DejaVuSans-108"/>
      <use x="1171.472656" xlink:href="#DejaVuSans-111"/>
      <use x="1232.654297" xlink:href="#DejaVuSans-115"/>
      <use x="1284.753906" xlink:href="#DejaVuSans-115"/>
     </g>
    </g>
    <g id="line2d_51">
     <path d="M 249.880214 114.635505 
L 260.880214 114.635505 
" style="fill:none;stroke:#937860;stroke-dasharray:2.775,1.2;stroke-dashoffset:0;stroke-width:0.75;"/>
    </g>
    <g id="line2d_52"/>
    <g id="text_27">
     <!-- token_label_mix_false_val_loss -->
     <g style="fill:#262626;" transform="translate(265.280214 116.560505)scale(0.055 -0.055)">
      <use xlink:href="#DejaVuSans-116"/>
      <use x="39.208984" xlink:href="#DejaVuSans-111"/>
      <use x="100.390625" xlink:href="#DejaVuSans-107"/>
      <use x="154.675781" xlink:href="#DejaVuSans-101"/>
      <use x="216.199219" xlink:href="#DejaVuSans-110"/>
      <use x="279.578125" xlink:href="#DejaVuSans-95"/>
      <use x="329.578125" xlink:href="#DejaVuSans-108"/>
      <use x="357.361328" xlink:href="#DejaVuSans-97"/>
      <use x="418.640625" xlink:href="#DejaVuSans-98"/>
      <use x="482.117188" xlink:href="#DejaVuSans-101"/>
      <use x="543.640625" xlink:href="#DejaVuSans-108"/>
      <use x="571.423828" xlink:href="#DejaVuSans-95"/>
      <use x="621.423828" xlink:href="#DejaVuSans-109"/>
      <use x="718.835938" xlink:href="#DejaVuSans-105"/>
      <use x="746.619141" xlink:href="#DejaVuSans-120"/>
      <use x="805.798828" xlink:href="#DejaVuSans-95"/>
      <use x="855.798828" xlink:href="#DejaVuSans-102"/>
      <use x="891.003906" xlink:href="#DejaVuSans-97"/>
      <use x="952.283203" xlink:href="#DejaVuSans-108"/>
      <use x="980.066406" xlink:href="#DejaVuSans-115"/>
      <use x="1032.166016" xlink:href="#DejaVuSans-101"/>
      <use x="1093.689453" xlink:href="#DejaVuSans-95"/>
      <use x="1143.689453" xlink:href="#DejaVuSans-118"/>
      <use x="1202.869141" xlink:href="#DejaVuSans-97"/>
      <use x="1264.148438" xlink:href="#DejaVuSans-108"/>
      <use x="1291.931641" xlink:href="#DejaVuSans-95"/>
      <use x="1341.931641" xlink:href="#DejaVuSans-108"/>
      <use x="1369.714844" xlink:href="#DejaVuSans-111"/>
      <use x="1430.896484" xlink:href="#DejaVuSans-115"/>
      <use x="1482.996094" xlink:href="#DejaVuSans-115"/>
     </g>
    </g>
    <g id="line2d_53">
     <path d="M 249.880214 122.861442 
L 260.880214 122.861442 
" style="fill:none;stroke:#da8bc3;stroke-linecap:round;stroke-width:0.75;"/>
    </g>
    <g id="line2d_54"/>
    <g id="text_28">
     <!-- token_label_mix_true_loss -->
     <g style="fill:#262626;" transform="translate(265.280214 124.786442)scale(0.055 -0.055)">
      <use xlink:href="#DejaVuSans-116"/>
      <use x="39.208984" xlink:href="#DejaVuSans-111"/>
      <use x="100.390625" xlink:href="#DejaVuSans-107"/>
      <use x="154.675781" xlink:href="#DejaVuSans-101"/>
      <use x="216.199219" xlink:href="#DejaVuSans-110"/>
      <use x="279.578125" xlink:href="#DejaVuSans-95"/>
      <use x="329.578125" xlink:href="#DejaVuSans-108"/>
      <use x="357.361328" xlink:href="#DejaVuSans-97"/>
      <use x="418.640625" xlink:href="#DejaVuSans-98"/>
      <use x="482.117188" xlink:href="#DejaVuSans-101"/>
      <use x="543.640625" xlink:href="#DejaVuSans-108"/>
      <use x="571.423828" xlink:href="#DejaVuSans-95"/>
      <use x="621.423828" xlink:href="#DejaVuSans-109"/>
      <use x="718.835938" xlink:href="#DejaVuSans-105"/>
      <use x="746.619141" xlink:href="#DejaVuSans-120"/>
      <use x="805.798828" xlink:href="#DejaVuSans-95"/>
      <use x="855.798828" xlink:href="#DejaVuSans-116"/>
      <use x="895.007812" xlink:href="#DejaVuSans-114"/>
      <use x="936.121094" xlink:href="#DejaVuSans-117"/>
      <use x="999.5" xlink:href="#DejaVuSans-101"/>
      <use x="1061.023438" xlink:href="#DejaVuSans-95"/>
      <use x="1111.023438" xlink:href="#DejaVuSans-108"/>
      <use x="1138.806641" xlink:href="#DejaVuSans-111"/>
      <use x="1199.988281" xlink:href="#DejaVuSans-115"/>
      <use x="1252.087891" xlink:href="#DejaVuSans-115"/>
     </g>
    </g>
    <g id="line2d_55">
     <path d="M 249.880214 131.08738 
L 260.880214 131.08738 
" style="fill:none;stroke:#da8bc3;stroke-dasharray:2.775,1.2;stroke-dashoffset:0;stroke-width:0.75;"/>
    </g>
    <g id="line2d_56"/>
    <g id="text_29">
     <!-- token_label_mix_true_val_loss -->
     <g style="fill:#262626;" transform="translate(265.280214 133.01238)scale(0.055 -0.055)">
      <use xlink:href="#DejaVuSans-116"/>
      <use x="39.208984" xlink:href="#DejaVuSans-111"/>
      <use x="100.390625" xlink:href="#DejaVuSans-107"/>
      <use x="154.675781" xlink:href="#DejaVuSans-101"/>
      <use x="216.199219" xlink:href="#DejaVuSans-110"/>
      <use x="279.578125" xlink:href="#DejaVuSans-95"/>
      <use x="329.578125" xlink:href="#DejaVuSans-108"/>
      <use x="357.361328" xlink:href="#DejaVuSans-97"/>
      <use x="418.640625" xlink:href="#DejaVuSans-98"/>
      <use x="482.117188" xlink:href="#DejaVuSans-101"/>
      <use x="543.640625" xlink:href="#DejaVuSans-108"/>
      <use x="571.423828" xlink:href="#DejaVuSans-95"/>
      <use x="621.423828" xlink:href="#DejaVuSans-109"/>
      <use x="718.835938" xlink:href="#DejaVuSans-105"/>
      <use x="746.619141" xlink:href="#DejaVuSans-120"/>
      <use x="805.798828" xlink:href="#DejaVuSans-95"/>
      <use x="855.798828" xlink:href="#DejaVuSans-116"/>
      <use x="895.007812" xlink:href="#DejaVuSans-114"/>
      <use x="936.121094" xlink:href="#DejaVuSans-117"/>
      <use x="999.5" xlink:href="#DejaVuSans-101"/>
      <use x="1061.023438" xlink:href="#DejaVuSans-95"/>
      <use x="1111.023438" xlink:href="#DejaVuSans-118"/>
      <use x="1170.203125" xlink:href="#DejaVuSans-97"/>
      <use x="1231.482422" xlink:href="#DejaVuSans-108"/>
      <use x="1259.265625" xlink:href="#DejaVuSans-95"/>
      <use x="1309.265625" xlink:href="#DejaVuSans-108"/>
      <use x="1337.048828" xlink:href="#DejaVuSans-111"/>
      <use x="1398.230469" xlink:href="#DejaVuSans-115"/>
      <use x="1450.330078" xlink:href="#DejaVuSans-115"/>
     </g>
    </g>
   </g>
  </g>
  <g id="axes_2">
   <g id="patch_7">
    <path d="M 382.838055 337.942746 
L 712.80648 337.942746 
L 712.80648 16.946051 
L 382.838055 16.946051 
z
" style="fill:#eaeaf2;"/>
   </g>
   <g id="matplotlib.axis_3">
    <g id="xtick_7">
     <g id="line2d_57">
      <path clip-path="url(#p4824029eb5)" d="M 397.83662 337.942746 
L 397.83662 16.946051 
" style="fill:none;stroke:#ffffff;stroke-linecap:round;stroke-width:0.5;"/>
     </g>
     <g id="text_30">
      <!-- 0 -->
      <g style="fill:#262626;" transform="translate(396.086933 351.621887)scale(0.055 -0.055)">
       <use xlink:href="#DejaVuSans-48"/>
      </g>
     </g>
    </g>
    <g id="xtick_8">
     <g id="line2d_58">
      <path clip-path="url(#p4824029eb5)" d="M 452.376856 337.942746 
L 452.376856 16.946051 
" style="fill:none;stroke:#ffffff;stroke-linecap:round;stroke-width:0.5;"/>
     </g>
     <g id="text_31">
      <!-- 2 -->
      <g style="fill:#262626;" transform="translate(450.627168 351.621887)scale(0.055 -0.055)">
       <use xlink:href="#DejaVuSans-50"/>
      </g>
     </g>
    </g>
    <g id="xtick_9">
     <g id="line2d_59">
      <path clip-path="url(#p4824029eb5)" d="M 506.917091 337.942746 
L 506.917091 16.946051 
" style="fill:none;stroke:#ffffff;stroke-linecap:round;stroke-width:0.5;"/>
     </g>
     <g id="text_32">
      <!-- 4 -->
      <g style="fill:#262626;" transform="translate(505.167404 351.621887)scale(0.055 -0.055)">
       <use xlink:href="#DejaVuSans-52"/>
      </g>
     </g>
    </g>
    <g id="xtick_10">
     <g id="line2d_60">
      <path clip-path="url(#p4824029eb5)" d="M 561.457327 337.942746 
L 561.457327 16.946051 
" style="fill:none;stroke:#ffffff;stroke-linecap:round;stroke-width:0.5;"/>
     </g>
     <g id="text_33">
      <!-- 6 -->
      <g style="fill:#262626;" transform="translate(559.707639 351.621887)scale(0.055 -0.055)">
       <use xlink:href="#DejaVuSans-54"/>
      </g>
     </g>
    </g>
    <g id="xtick_11">
     <g id="line2d_61">
      <path clip-path="url(#p4824029eb5)" d="M 615.997562 337.942746 
L 615.997562 16.946051 
" style="fill:none;stroke:#ffffff;stroke-linecap:round;stroke-width:0.5;"/>
     </g>
     <g id="text_34">
      <!-- 8 -->
      <g style="fill:#262626;" transform="translate(614.247875 351.621887)scale(0.055 -0.055)">
       <use xlink:href="#DejaVuSans-56"/>
      </g>
     </g>
    </g>
    <g id="xtick_12">
     <g id="line2d_62">
      <path clip-path="url(#p4824029eb5)" d="M 670.537798 337.942746 
L 670.537798 16.946051 
" style="fill:none;stroke:#ffffff;stroke-linecap:round;stroke-width:0.5;"/>
     </g>
     <g id="text_35">
      <!-- 10 -->
      <g style="fill:#262626;" transform="translate(667.038423 351.621887)scale(0.055 -0.055)">
       <use xlink:href="#DejaVuSans-49"/>
       <use x="63.623047" xlink:href="#DejaVuSans-48"/>
      </g>
     </g>
    </g>
   </g>
   <g id="matplotlib.axis_4">
    <g id="ytick_7">
     <g id="line2d_63">
      <path clip-path="url(#p4824029eb5)" d="M 382.838055 323.464875 
L 712.80648 323.464875 
" style="fill:none;stroke:#ffffff;stroke-linecap:round;stroke-width:0.5;"/>
     </g>
     <g id="text_36">
      <!-- 0.70 -->
      <g style="fill:#262626;" transform="translate(361.091962 325.554446)scale(0.055 -0.055)">
       <defs>
        <path d="M 8.203125 72.90625 
L 55.078125 72.90625 
L 55.078125 68.703125 
L 28.609375 0 
L 18.3125 0 
L 43.21875 64.59375 
L 8.203125 64.59375 
z
" id="DejaVuSans-55"/>
       </defs>
       <use xlink:href="#DejaVuSans-48"/>
       <use x="63.623047" xlink:href="#DejaVuSans-46"/>
       <use x="95.410156" xlink:href="#DejaVuSans-55"/>
       <use x="159.033203" xlink:href="#DejaVuSans-48"/>
      </g>
     </g>
    </g>
    <g id="ytick_8">
     <g id="line2d_64">
      <path clip-path="url(#p4824029eb5)" d="M 382.838055 267.020934 
L 712.80648 267.020934 
" style="fill:none;stroke:#ffffff;stroke-linecap:round;stroke-width:0.5;"/>
     </g>
     <g id="text_37">
      <!-- 0.75 -->
      <g style="fill:#262626;" transform="translate(361.091962 269.110504)scale(0.055 -0.055)">
       <defs>
        <path d="M 10.796875 72.90625 
L 49.515625 72.90625 
L 49.515625 64.59375 
L 19.828125 64.59375 
L 19.828125 46.734375 
Q 21.96875 47.46875 24.109375 47.828125 
Q 26.265625 48.1875 28.421875 48.1875 
Q 40.625 48.1875 47.75 41.5 
Q 54.890625 34.8125 54.890625 23.390625 
Q 54.890625 11.625 47.5625 5.09375 
Q 40.234375 -1.421875 26.90625 -1.421875 
Q 22.3125 -1.421875 17.546875 -0.640625 
Q 12.796875 0.140625 7.71875 1.703125 
L 7.71875 11.625 
Q 12.109375 9.234375 16.796875 8.0625 
Q 21.484375 6.890625 26.703125 6.890625 
Q 35.15625 6.890625 40.078125 11.328125 
Q 45.015625 15.765625 45.015625 23.390625 
Q 45.015625 31 40.078125 35.4375 
Q 35.15625 39.890625 26.703125 39.890625 
Q 22.75 39.890625 18.8125 39.015625 
Q 14.890625 38.140625 10.796875 36.28125 
z
" id="DejaVuSans-53"/>
       </defs>
       <use xlink:href="#DejaVuSans-48"/>
       <use x="63.623047" xlink:href="#DejaVuSans-46"/>
       <use x="95.410156" xlink:href="#DejaVuSans-55"/>
       <use x="159.033203" xlink:href="#DejaVuSans-53"/>
      </g>
     </g>
    </g>
    <g id="ytick_9">
     <g id="line2d_65">
      <path clip-path="url(#p4824029eb5)" d="M 382.838055 210.576992 
L 712.80648 210.576992 
" style="fill:none;stroke:#ffffff;stroke-linecap:round;stroke-width:0.5;"/>
     </g>
     <g id="text_38">
      <!-- 0.80 -->
      <g style="fill:#262626;" transform="translate(361.091962 212.666563)scale(0.055 -0.055)">
       <use xlink:href="#DejaVuSans-48"/>
       <use x="63.623047" xlink:href="#DejaVuSans-46"/>
       <use x="95.410156" xlink:href="#DejaVuSans-56"/>
       <use x="159.033203" xlink:href="#DejaVuSans-48"/>
      </g>
     </g>
    </g>
    <g id="ytick_10">
     <g id="line2d_66">
      <path clip-path="url(#p4824029eb5)" d="M 382.838055 154.133051 
L 712.80648 154.133051 
" style="fill:none;stroke:#ffffff;stroke-linecap:round;stroke-width:0.5;"/>
     </g>
     <g id="text_39">
      <!-- 0.85 -->
      <g style="fill:#262626;" transform="translate(361.091962 156.222621)scale(0.055 -0.055)">
       <use xlink:href="#DejaVuSans-48"/>
       <use x="63.623047" xlink:href="#DejaVuSans-46"/>
       <use x="95.410156" xlink:href="#DejaVuSans-56"/>
       <use x="159.033203" xlink:href="#DejaVuSans-53"/>
      </g>
     </g>
    </g>
    <g id="ytick_11">
     <g id="line2d_67">
      <path clip-path="url(#p4824029eb5)" d="M 382.838055 97.68911 
L 712.80648 97.68911 
" style="fill:none;stroke:#ffffff;stroke-linecap:round;stroke-width:0.5;"/>
     </g>
     <g id="text_40">
      <!-- 0.90 -->
      <g style="fill:#262626;" transform="translate(361.091962 99.77868)scale(0.055 -0.055)">
       <defs>
        <path d="M 10.984375 1.515625 
L 10.984375 10.5 
Q 14.703125 8.734375 18.5 7.8125 
Q 22.3125 6.890625 25.984375 6.890625 
Q 35.75 6.890625 40.890625 13.453125 
Q 46.046875 20.015625 46.78125 33.40625 
Q 43.953125 29.203125 39.59375 26.953125 
Q 35.25 24.703125 29.984375 24.703125 
Q 19.046875 24.703125 12.671875 31.3125 
Q 6.296875 37.9375 6.296875 49.421875 
Q 6.296875 60.640625 12.9375 67.421875 
Q 19.578125 74.21875 30.609375 74.21875 
Q 43.265625 74.21875 49.921875 64.515625 
Q 56.59375 54.828125 56.59375 36.375 
Q 56.59375 19.140625 48.40625 8.859375 
Q 40.234375 -1.421875 26.421875 -1.421875 
Q 22.703125 -1.421875 18.890625 -0.6875 
Q 15.09375 0.046875 10.984375 1.515625 
z
M 30.609375 32.421875 
Q 37.25 32.421875 41.125 36.953125 
Q 45.015625 41.5 45.015625 49.421875 
Q 45.015625 57.28125 41.125 61.84375 
Q 37.25 66.40625 30.609375 66.40625 
Q 23.96875 66.40625 20.09375 61.84375 
Q 16.21875 57.28125 16.21875 49.421875 
Q 16.21875 41.5 20.09375 36.953125 
Q 23.96875 32.421875 30.609375 32.421875 
z
" id="DejaVuSans-57"/>
       </defs>
       <use xlink:href="#DejaVuSans-48"/>
       <use x="63.623047" xlink:href="#DejaVuSans-46"/>
       <use x="95.410156" xlink:href="#DejaVuSans-57"/>
       <use x="159.033203" xlink:href="#DejaVuSans-48"/>
      </g>
     </g>
    </g>
    <g id="ytick_12">
     <g id="line2d_68">
      <path clip-path="url(#p4824029eb5)" d="M 382.838055 41.245168 
L 712.80648 41.245168 
" style="fill:none;stroke:#ffffff;stroke-linecap:round;stroke-width:0.5;"/>
     </g>
     <g id="text_41">
      <!-- 0.95 -->
      <g style="fill:#262626;" transform="translate(361.091962 43.334739)scale(0.055 -0.055)">
       <use xlink:href="#DejaVuSans-48"/>
       <use x="63.623047" xlink:href="#DejaVuSans-46"/>
       <use x="95.410156" xlink:href="#DejaVuSans-57"/>
       <use x="159.033203" xlink:href="#DejaVuSans-53"/>
      </g>
     </g>
    </g>
   </g>
   <g id="line2d_69">
    <path clip-path="url(#p4824029eb5)" d="M 397.83662 211.028544 
L 425.106738 153.11706 
L 452.376856 141.263832 
L 479.646973 134.039008 
L 506.917091 129.184829 
L 534.187209 126.136856 
L 561.457327 120.266686 
L 588.727444 119.815135 
L 615.997562 119.928023 
L 643.26768 120.60535 
L 670.537798 120.379574 
L 697.807915 119.476471 
" style="fill:none;stroke:#4c72b0;stroke-linecap:round;stroke-width:0.75;"/>
   </g>
   <g id="line2d_70">
    <path clip-path="url(#p4824029eb5)" d="M 397.83662 265.214728 
L 425.106738 259.005894 
L 452.376856 276.051965 
L 479.646973 277.971059 
L 506.917091 280.00304 
L 534.187209 288.469632 
L 561.457327 135.619438 
L 588.727444 135.619438 
L 615.997562 137.086981 
L 643.26768 135.393662 
L 670.537798 133.700344 
L 697.807915 134.716335 
" style="fill:none;stroke:#4c72b0;stroke-dasharray:2.775,1.2;stroke-dashoffset:0;stroke-width:0.75;"/>
   </g>
   <g id="line2d_71">
    <path clip-path="url(#p4824029eb5)" d="M 397.83662 230.671036 
L 425.106738 166.889382 
L 452.376856 153.907275 
L 479.646973 148.375769 
L 506.917091 145.10202 
L 534.187209 141.150945 
L 561.457327 135.958102 
L 588.727444 134.377672 
L 615.997562 135.054999 
L 643.26768 135.845214 
L 670.537798 135.167887 
L 697.807915 134.942111 
" style="fill:none;stroke:#dd8452;stroke-linecap:round;stroke-width:0.75;"/>
   </g>
   <g id="line2d_72">
    <path clip-path="url(#p4824029eb5)" d="M 397.83662 305.967253 
L 425.106738 298.17799 
L 452.376856 296.03312 
L 479.646973 302.580617 
L 506.917091 308.902338 
L 534.187209 307.321908 
L 561.457327 148.149993 
L 588.727444 143.295814 
L 615.997562 144.650469 
L 643.26768 146.456675 
L 670.537798 142.505599 
L 697.807915 146.118011 
" style="fill:none;stroke:#dd8452;stroke-dasharray:2.775,1.2;stroke-dashoffset:0;stroke-width:0.75;"/>
   </g>
   <g id="line2d_73">
    <path clip-path="url(#p4824029eb5)" d="M 397.83662 227.284399 
L 425.106738 168.131149 
L 452.376856 158.535678 
L 479.646973 153.11706 
L 506.917091 149.504648 
L 534.187209 146.343787 
L 561.457327 142.279823 
L 588.727444 142.392711 
L 615.997562 141.150945 
L 643.26768 143.973142 
L 670.537798 141.37672 
L 697.807915 143.295814 
" style="fill:none;stroke:#55a868;stroke-linecap:round;stroke-width:0.75;"/>
   </g>
   <g id="line2d_74">
    <path clip-path="url(#p4824029eb5)" d="M 397.83662 290.050062 
L 425.106738 283.728341 
L 452.376856 298.403765 
L 479.646973 308.450787 
L 506.917091 315.901387 
L 534.187209 323.2391 
L 561.457327 153.342836 
L 588.727444 154.133051 
L 615.997562 154.471715 
L 643.26768 152.213957 
L 670.537798 151.423742 
L 697.807915 154.020163 
" style="fill:none;stroke:#55a868;stroke-dasharray:2.775,1.2;stroke-dashoffset:0;stroke-width:0.75;"/>
   </g>
   <g id="line2d_75">
    <path clip-path="url(#p4824029eb5)" d="M 397.83662 229.655045 
L 425.106738 172.308 
L 452.376856 160.56766 
L 479.646973 159.213006 
L 506.917091 152.778396 
L 534.187209 153.342836 
L 561.457327 145.779348 
L 588.727444 147.585554 
L 615.997562 145.66646 
L 643.26768 146.908227 
L 670.537798 145.553572 
L 697.807915 145.327796 
" style="fill:none;stroke:#c44e52;stroke-linecap:round;stroke-width:0.75;"/>
   </g>
   <g id="line2d_76">
    <path clip-path="url(#p4824029eb5)" d="M 397.83662 272.55244 
L 425.106738 280.00304 
L 452.376856 289.372735 
L 479.646973 286.663426 
L 506.917091 288.243856 
L 534.187209 292.30782 
L 561.457327 143.973142 
L 588.727444 145.327796 
L 615.997562 144.424693 
L 643.26768 142.731375 
L 670.537798 142.731375 
L 697.807915 143.070039 
" style="fill:none;stroke:#c44e52;stroke-dasharray:2.775,1.2;stroke-dashoffset:0;stroke-width:0.75;"/>
   </g>
   <g id="line2d_77">
    <path clip-path="url(#p4824029eb5)" d="M 397.83662 182.693685 
L 425.106738 133.92612 
L 452.376856 122.072892 
L 479.646973 115.073844 
L 506.917091 109.993889 
L 534.187209 106.381477 
L 561.457327 131.78125 
L 588.727444 74.998645 
L 615.997562 58.291239 
L 643.26768 48.244217 
L 670.537798 35.82655 
L 697.807915 31.53681 
" style="fill:none;stroke:#8172b3;stroke-linecap:round;stroke-width:0.75;"/>
   </g>
   <g id="line2d_78">
    <path clip-path="url(#p4824029eb5)" d="M 397.83662 134.942111 
L 425.106738 121.734229 
L 452.376856 115.186731 
L 479.646973 113.719189 
L 506.917091 112.138759 
L 534.187209 111.687207 
L 561.457327 107.28458 
L 588.727444 88.883855 
L 615.997562 66.19339 
L 643.26768 69.805803 
L 670.537798 83.8039 
L 697.807915 64.161408 
" style="fill:none;stroke:#8172b3;stroke-dasharray:2.775,1.2;stroke-dashoffset:0;stroke-width:0.75;"/>
   </g>
   <g id="line2d_79">
    <path clip-path="url(#p4824029eb5)" d="M 397.83662 229.090605 
L 425.106738 169.372915 
L 452.376856 157.858351 
L 479.646973 151.310854 
L 506.917091 148.037105 
L 534.187209 144.876245 
L 561.457327 141.94116 
L 588.727444 142.166935 
L 615.997562 142.166935 
L 643.26768 140.586505 
L 670.537798 141.94116 
L 697.807915 142.957151 
" style="fill:none;stroke:#937860;stroke-linecap:round;stroke-width:0.75;"/>
   </g>
   <g id="line2d_80">
    <path clip-path="url(#p4824029eb5)" d="M 397.83662 260.924988 
L 425.106738 276.503516 
L 452.376856 281.244807 
L 479.646973 286.43765 
L 506.917091 297.726438 
L 534.187209 304.612599 
L 561.457327 151.875293 
L 588.727444 150.746415 
L 615.997562 151.649518 
L 643.26768 153.568612 
L 670.537798 151.762406 
L 697.807915 150.520639 
" style="fill:none;stroke:#937860;stroke-dasharray:2.775,1.2;stroke-dashoffset:0;stroke-width:0.75;"/>
   </g>
   <g id="line2d_81">
    <path clip-path="url(#p4824029eb5)" d="M 397.83662 269.278692 
L 425.106738 208.657898 
L 452.376856 197.594886 
L 479.646973 196.127343 
L 506.917091 192.06338 
L 534.187209 191.49894 
L 561.457327 189.241183 
L 588.727444 191.386052 
L 615.997562 188.676743 
L 643.26768 190.482949 
L 670.537798 190.934501 
L 697.807915 191.160277 
" style="fill:none;stroke:#da8bc3;stroke-linecap:round;stroke-width:0.75;"/>
   </g>
   <g id="line2d_82">
    <path clip-path="url(#p4824029eb5)" d="M 397.83662 285.195883 
L 425.106738 282.373686 
L 452.376856 302.467729 
L 479.646973 305.06415 
L 506.917091 310.369881 
L 534.187209 323.351987 
L 561.457327 157.632575 
L 588.727444 157.971239 
L 615.997562 157.181024 
L 643.26768 161.244988 
L 670.537798 159.777445 
L 697.807915 159.213006 
" style="fill:none;stroke:#da8bc3;stroke-dasharray:2.775,1.2;stroke-dashoffset:0;stroke-width:0.75;"/>
   </g>
   <g id="line2d_83">
    <path clip-path="url(#p4824029eb5)" d="M 397.83662 305.843077 
L 397.83662 49.045721 
" style="fill:none;stroke:#da8bc3;stroke-dasharray:2.775,1.2;stroke-dashoffset:0;stroke-width:0.75;"/>
   </g>
   <g id="line2d_84">
    <path clip-path="url(#p4824029eb5)" d="M 561.457327 305.843077 
L 561.457327 49.045721 
" style="fill:none;stroke:#da8bc3;stroke-dasharray:2.775,1.2;stroke-dashoffset:0;stroke-width:0.75;"/>
   </g>
   <g id="patch_8">
    <path d="M 382.838055 337.942746 
L 382.838055 16.946051 
" style="fill:none;stroke:#ffffff;stroke-linecap:square;stroke-linejoin:miter;stroke-width:0.625;"/>
   </g>
   <g id="patch_9">
    <path d="M 712.80648 337.942746 
L 712.80648 16.946051 
" style="fill:none;stroke:#ffffff;stroke-linecap:square;stroke-linejoin:miter;stroke-width:0.625;"/>
   </g>
   <g id="patch_10">
    <path d="M 382.838055 337.942746 
L 712.80648 337.942746 
" style="fill:none;stroke:#ffffff;stroke-linecap:square;stroke-linejoin:miter;stroke-width:0.625;"/>
   </g>
   <g id="patch_11">
    <path d="M 382.838055 16.946051 
L 712.80648 16.946051 
" style="fill:none;stroke:#ffffff;stroke-linecap:square;stroke-linejoin:miter;stroke-width:0.625;"/>
   </g>
   <g id="text_42">
    <!-- trainable = False -->
    <g style="fill:#262626;" transform="translate(426.35455 159.861055)rotate(-270)scale(0.06 -0.06)">
     <use xlink:href="#DejaVuSans-116"/>
     <use x="39.208984" xlink:href="#DejaVuSans-114"/>
     <use x="80.322266" xlink:href="#DejaVuSans-97"/>
     <use x="141.601562" xlink:href="#DejaVuSans-105"/>
     <use x="169.384766" xlink:href="#DejaVuSans-110"/>
     <use x="232.763672" xlink:href="#DejaVuSans-97"/>
     <use x="294.042969" xlink:href="#DejaVuSans-98"/>
     <use x="357.519531" xlink:href="#DejaVuSans-108"/>
     <use x="385.302734" xlink:href="#DejaVuSans-101"/>
     <use x="446.826172" xlink:href="#DejaVuSans-32"/>
     <use x="478.613281" xlink:href="#DejaVuSans-61"/>
     <use x="562.402344" xlink:href="#DejaVuSans-32"/>
     <use x="594.189453" xlink:href="#DejaVuSans-70"/>
     <use x="642.583984" xlink:href="#DejaVuSans-97"/>
     <use x="703.863281" xlink:href="#DejaVuSans-108"/>
     <use x="731.646484" xlink:href="#DejaVuSans-115"/>
     <use x="783.746094" xlink:href="#DejaVuSans-101"/>
    </g>
   </g>
   <g id="text_43">
    <!-- trainable = True -->
    <g style="fill:#262626;" transform="translate(589.975257 162.185117)rotate(-270)scale(0.06 -0.06)">
     <use xlink:href="#DejaVuSans-116"/>
     <use x="39.208984" xlink:href="#DejaVuSans-114"/>
     <use x="80.322266" xlink:href="#DejaVuSans-97"/>
     <use x="141.601562" xlink:href="#DejaVuSans-105"/>
     <use x="169.384766" xlink:href="#DejaVuSans-110"/>
     <use x="232.763672" xlink:href="#DejaVuSans-97"/>
     <use x="294.042969" xlink:href="#DejaVuSans-98"/>
     <use x="357.519531" xlink:href="#DejaVuSans-108"/>
     <use x="385.302734" xlink:href="#DejaVuSans-101"/>
     <use x="446.826172" xlink:href="#DejaVuSans-32"/>
     <use x="478.613281" xlink:href="#DejaVuSans-61"/>
     <use x="562.402344" xlink:href="#DejaVuSans-32"/>
     <use x="594.189453" xlink:href="#DejaVuSans-84"/>
     <use x="640.523438" xlink:href="#DejaVuSans-114"/>
     <use x="681.636719" xlink:href="#DejaVuSans-117"/>
     <use x="745.015625" xlink:href="#DejaVuSans-101"/>
    </g>
   </g>
   <g id="text_44">
    <!-- Accuracy -->
    <g style="fill:#262626;" transform="translate(534.125393 10.946051)scale(0.06 -0.06)">
     <defs>
      <path d="M 34.1875 63.1875 
L 20.796875 26.90625 
L 47.609375 26.90625 
z
M 28.609375 72.90625 
L 39.796875 72.90625 
L 67.578125 0 
L 57.328125 0 
L 50.6875 18.703125 
L 17.828125 18.703125 
L 11.1875 0 
L 0.78125 0 
z
" id="DejaVuSans-65"/>
      <path d="M 32.171875 -5.078125 
Q 28.375 -14.84375 24.75 -17.8125 
Q 21.140625 -20.796875 15.09375 -20.796875 
L 7.90625 -20.796875 
L 7.90625 -13.28125 
L 13.1875 -13.28125 
Q 16.890625 -13.28125 18.9375 -11.515625 
Q 21 -9.765625 23.484375 -3.21875 
L 25.09375 0.875 
L 2.984375 54.6875 
L 12.5 54.6875 
L 29.59375 11.921875 
L 46.6875 54.6875 
L 56.203125 54.6875 
z
" id="DejaVuSans-121"/>
     </defs>
     <use xlink:href="#DejaVuSans-65"/>
     <use x="66.658203" xlink:href="#DejaVuSans-99"/>
     <use x="121.638672" xlink:href="#DejaVuSans-99"/>
     <use x="176.619141" xlink:href="#DejaVuSans-117"/>
     <use x="239.998047" xlink:href="#DejaVuSans-114"/>
     <use x="281.111328" xlink:href="#DejaVuSans-97"/>
     <use x="342.390625" xlink:href="#DejaVuSans-99"/>
     <use x="397.371094" xlink:href="#DejaVuSans-121"/>
    </g>
   </g>
   <g id="legend_2">
    <g id="line2d_85">
     <path d="M 609.230308 222.833762 
L 620.230308 222.833762 
" style="fill:none;stroke:#4c72b0;stroke-linecap:round;stroke-width:0.75;"/>
    </g>
    <g id="line2d_86"/>
    <g id="text_45">
     <!-- mix_acc -->
     <g style="fill:#262626;" transform="translate(624.630308 224.758762)scale(0.055 -0.055)">
      <use xlink:href="#DejaVuSans-109"/>
      <use x="97.412109" xlink:href="#DejaVuSans-105"/>
      <use x="125.195312" xlink:href="#DejaVuSans-120"/>
      <use x="184.375" xlink:href="#DejaVuSans-95"/>
      <use x="234.375" xlink:href="#DejaVuSans-97"/>
      <use x="295.654297" xlink:href="#DejaVuSans-99"/>
      <use x="350.634766" xlink:href="#DejaVuSans-99"/>
     </g>
    </g>
    <g id="line2d_87">
     <path d="M 609.230308 231.059699 
L 620.230308 231.059699 
" style="fill:none;stroke:#4c72b0;stroke-dasharray:2.775,1.2;stroke-dashoffset:0;stroke-width:0.75;"/>
    </g>
    <g id="line2d_88"/>
    <g id="text_46">
     <!-- mix_val_acc -->
     <g style="fill:#262626;" transform="translate(624.630308 232.984699)scale(0.055 -0.055)">
      <use xlink:href="#DejaVuSans-109"/>
      <use x="97.412109" xlink:href="#DejaVuSans-105"/>
      <use x="125.195312" xlink:href="#DejaVuSans-120"/>
      <use x="184.375" xlink:href="#DejaVuSans-95"/>
      <use x="234.375" xlink:href="#DejaVuSans-118"/>
      <use x="293.554688" xlink:href="#DejaVuSans-97"/>
      <use x="354.833984" xlink:href="#DejaVuSans-108"/>
      <use x="382.617188" xlink:href="#DejaVuSans-95"/>
      <use x="432.617188" xlink:href="#DejaVuSans-97"/>
      <use x="493.896484" xlink:href="#DejaVuSans-99"/>
      <use x="548.876953" xlink:href="#DejaVuSans-99"/>
     </g>
    </g>
    <g id="line2d_89">
     <path d="M 609.230308 239.285637 
L 620.230308 239.285637 
" style="fill:none;stroke:#dd8452;stroke-linecap:round;stroke-width:0.75;"/>
    </g>
    <g id="line2d_90"/>
    <g id="text_47">
     <!-- mean_acc -->
     <g style="fill:#262626;" transform="translate(624.630308 241.210637)scale(0.055 -0.055)">
      <use xlink:href="#DejaVuSans-109"/>
      <use x="97.412109" xlink:href="#DejaVuSans-101"/>
      <use x="158.935547" xlink:href="#DejaVuSans-97"/>
      <use x="220.214844" xlink:href="#DejaVuSans-110"/>
      <use x="283.59375" xlink:href="#DejaVuSans-95"/>
      <use x="333.59375" xlink:href="#DejaVuSans-97"/>
      <use x="394.873047" xlink:href="#DejaVuSans-99"/>
      <use x="449.853516" xlink:href="#DejaVuSans-99"/>
     </g>
    </g>
    <g id="line2d_91">
     <path d="M 609.230308 247.511574 
L 620.230308 247.511574 
" style="fill:none;stroke:#dd8452;stroke-dasharray:2.775,1.2;stroke-dashoffset:0;stroke-width:0.75;"/>
    </g>
    <g id="line2d_92"/>
    <g id="text_48">
     <!-- mean_val_acc -->
     <g style="fill:#262626;" transform="translate(624.630308 249.436574)scale(0.055 -0.055)">
      <use xlink:href="#DejaVuSans-109"/>
      <use x="97.412109" xlink:href="#DejaVuSans-101"/>
      <use x="158.935547" xlink:href="#DejaVuSans-97"/>
      <use x="220.214844" xlink:href="#DejaVuSans-110"/>
      <use x="283.59375" xlink:href="#DejaVuSans-95"/>
      <use x="333.59375" xlink:href="#DejaVuSans-118"/>
      <use x="392.773438" xlink:href="#DejaVuSans-97"/>
      <use x="454.052734" xlink:href="#DejaVuSans-108"/>
      <use x="481.835938" xlink:href="#DejaVuSans-95"/>
      <use x="531.835938" xlink:href="#DejaVuSans-97"/>
      <use x="593.115234" xlink:href="#DejaVuSans-99"/>
      <use x="648.095703" xlink:href="#DejaVuSans-99"/>
     </g>
    </g>
    <g id="line2d_93">
     <path d="M 609.230308 255.737512 
L 620.230308 255.737512 
" style="fill:none;stroke:#55a868;stroke-linecap:round;stroke-width:0.75;"/>
    </g>
    <g id="line2d_94"/>
    <g id="text_49">
     <!-- token_acc -->
     <g style="fill:#262626;" transform="translate(624.630308 257.662512)scale(0.055 -0.055)">
      <use xlink:href="#DejaVuSans-116"/>
      <use x="39.208984" xlink:href="#DejaVuSans-111"/>
      <use x="100.390625" xlink:href="#DejaVuSans-107"/>
      <use x="154.675781" xlink:href="#DejaVuSans-101"/>
      <use x="216.199219" xlink:href="#DejaVuSans-110"/>
      <use x="279.578125" xlink:href="#DejaVuSans-95"/>
      <use x="329.578125" xlink:href="#DejaVuSans-97"/>
      <use x="390.857422" xlink:href="#DejaVuSans-99"/>
      <use x="445.837891" xlink:href="#DejaVuSans-99"/>
     </g>
    </g>
    <g id="line2d_95">
     <path d="M 609.230308 263.963449 
L 620.230308 263.963449 
" style="fill:none;stroke:#55a868;stroke-dasharray:2.775,1.2;stroke-dashoffset:0;stroke-width:0.75;"/>
    </g>
    <g id="line2d_96"/>
    <g id="text_50">
     <!-- token_val_acc -->
     <g style="fill:#262626;" transform="translate(624.630308 265.888449)scale(0.055 -0.055)">
      <use xlink:href="#DejaVuSans-116"/>
      <use x="39.208984" xlink:href="#DejaVuSans-111"/>
      <use x="100.390625" xlink:href="#DejaVuSans-107"/>
      <use x="154.675781" xlink:href="#DejaVuSans-101"/>
      <use x="216.199219" xlink:href="#DejaVuSans-110"/>
      <use x="279.578125" xlink:href="#DejaVuSans-95"/>
      <use x="329.578125" xlink:href="#DejaVuSans-118"/>
      <use x="388.757812" xlink:href="#DejaVuSans-97"/>
      <use x="450.037109" xlink:href="#DejaVuSans-108"/>
      <use x="477.820312" xlink:href="#DejaVuSans-95"/>
      <use x="527.820312" xlink:href="#DejaVuSans-97"/>
      <use x="589.099609" xlink:href="#DejaVuSans-99"/>
      <use x="644.080078" xlink:href="#DejaVuSans-99"/>
     </g>
    </g>
    <g id="line2d_97">
     <path d="M 609.230308 272.189387 
L 620.230308 272.189387 
" style="fill:none;stroke:#c44e52;stroke-linecap:round;stroke-width:0.75;"/>
    </g>
    <g id="line2d_98"/>
    <g id="text_51">
     <!-- classifier_0_pooling_acc -->
     <g style="fill:#262626;" transform="translate(624.630308 274.114387)scale(0.055 -0.055)">
      <use xlink:href="#DejaVuSans-99"/>
      <use x="54.980469" xlink:href="#DejaVuSans-108"/>
      <use x="82.763672" xlink:href="#DejaVuSans-97"/>
      <use x="144.042969" xlink:href="#DejaVuSans-115"/>
      <use x="196.142578" xlink:href="#DejaVuSans-115"/>
      <use x="248.242188" xlink:href="#DejaVuSans-105"/>
      <use x="276.025391" xlink:href="#DejaVuSans-102"/>
      <use x="311.230469" xlink:href="#DejaVuSans-105"/>
      <use x="339.013672" xlink:href="#DejaVuSans-101"/>
      <use x="400.537109" xlink:href="#DejaVuSans-114"/>
      <use x="441.650391" xlink:href="#DejaVuSans-95"/>
      <use x="491.650391" xlink:href="#DejaVuSans-48"/>
      <use x="555.273438" xlink:href="#DejaVuSans-95"/>
      <use x="605.273438" xlink:href="#DejaVuSans-112"/>
      <use x="668.75" xlink:href="#DejaVuSans-111"/>
      <use x="729.931641" xlink:href="#DejaVuSans-111"/>
      <use x="791.113281" xlink:href="#DejaVuSans-108"/>
      <use x="818.896484" xlink:href="#DejaVuSans-105"/>
      <use x="846.679688" xlink:href="#DejaVuSans-110"/>
      <use x="910.058594" xlink:href="#DejaVuSans-103"/>
      <use x="973.535156" xlink:href="#DejaVuSans-95"/>
      <use x="1023.535156" xlink:href="#DejaVuSans-97"/>
      <use x="1084.814453" xlink:href="#DejaVuSans-99"/>
      <use x="1139.794922" xlink:href="#DejaVuSans-99"/>
     </g>
    </g>
    <g id="line2d_99">
     <path d="M 609.230308 280.415324 
L 620.230308 280.415324 
" style="fill:none;stroke:#c44e52;stroke-dasharray:2.775,1.2;stroke-dashoffset:0;stroke-width:0.75;"/>
    </g>
    <g id="line2d_100"/>
    <g id="text_52">
     <!-- classifier_0_pooling_val_acc -->
     <g style="fill:#262626;" transform="translate(624.630308 282.340324)scale(0.055 -0.055)">
      <use xlink:href="#DejaVuSans-99"/>
      <use x="54.980469" xlink:href="#DejaVuSans-108"/>
      <use x="82.763672" xlink:href="#DejaVuSans-97"/>
      <use x="144.042969" xlink:href="#DejaVuSans-115"/>
      <use x="196.142578" xlink:href="#DejaVuSans-115"/>
      <use x="248.242188" xlink:href="#DejaVuSans-105"/>
      <use x="276.025391" xlink:href="#DejaVuSans-102"/>
      <use x="311.230469" xlink:href="#DejaVuSans-105"/>
      <use x="339.013672" xlink:href="#DejaVuSans-101"/>
      <use x="400.537109" xlink:href="#DejaVuSans-114"/>
      <use x="441.650391" xlink:href="#DejaVuSans-95"/>
      <use x="491.650391" xlink:href="#DejaVuSans-48"/>
      <use x="555.273438" xlink:href="#DejaVuSans-95"/>
      <use x="605.273438" xlink:href="#DejaVuSans-112"/>
      <use x="668.75" xlink:href="#DejaVuSans-111"/>
      <use x="729.931641" xlink:href="#DejaVuSans-111"/>
      <use x="791.113281" xlink:href="#DejaVuSans-108"/>
      <use x="818.896484" xlink:href="#DejaVuSans-105"/>
      <use x="846.679688" xlink:href="#DejaVuSans-110"/>
      <use x="910.058594" xlink:href="#DejaVuSans-103"/>
      <use x="973.535156" xlink:href="#DejaVuSans-95"/>
      <use x="1023.535156" xlink:href="#DejaVuSans-118"/>
      <use x="1082.714844" xlink:href="#DejaVuSans-97"/>
      <use x="1143.994141" xlink:href="#DejaVuSans-108"/>
      <use x="1171.777344" xlink:href="#DejaVuSans-95"/>
      <use x="1221.777344" xlink:href="#DejaVuSans-97"/>
      <use x="1283.056641" xlink:href="#DejaVuSans-99"/>
      <use x="1338.037109" xlink:href="#DejaVuSans-99"/>
     </g>
    </g>
    <g id="line2d_101">
     <path d="M 609.230308 288.641262 
L 620.230308 288.641262 
" style="fill:none;stroke:#8172b3;stroke-linecap:round;stroke-width:0.75;"/>
    </g>
    <g id="line2d_102"/>
    <g id="text_53">
     <!-- efficientnet_b0_acc -->
     <g style="fill:#262626;" transform="translate(624.630308 290.566262)scale(0.055 -0.055)">
      <use xlink:href="#DejaVuSans-101"/>
      <use x="61.523438" xlink:href="#DejaVuSans-102"/>
      <use x="96.728516" xlink:href="#DejaVuSans-102"/>
      <use x="131.933594" xlink:href="#DejaVuSans-105"/>
      <use x="159.716797" xlink:href="#DejaVuSans-99"/>
      <use x="214.697266" xlink:href="#DejaVuSans-105"/>
      <use x="242.480469" xlink:href="#DejaVuSans-101"/>
      <use x="304.003906" xlink:href="#DejaVuSans-110"/>
      <use x="367.382812" xlink:href="#DejaVuSans-116"/>
      <use x="406.591797" xlink:href="#DejaVuSans-110"/>
      <use x="469.970703" xlink:href="#DejaVuSans-101"/>
      <use x="531.494141" xlink:href="#DejaVuSans-116"/>
      <use x="570.703125" xlink:href="#DejaVuSans-95"/>
      <use x="620.703125" xlink:href="#DejaVuSans-98"/>
      <use x="684.179688" xlink:href="#DejaVuSans-48"/>
      <use x="747.802734" xlink:href="#DejaVuSans-95"/>
      <use x="797.802734" xlink:href="#DejaVuSans-97"/>
      <use x="859.082031" xlink:href="#DejaVuSans-99"/>
      <use x="914.0625" xlink:href="#DejaVuSans-99"/>
     </g>
    </g>
    <g id="line2d_103">
     <path d="M 609.230308 296.867199 
L 620.230308 296.867199 
" style="fill:none;stroke:#8172b3;stroke-dasharray:2.775,1.2;stroke-dashoffset:0;stroke-width:0.75;"/>
    </g>
    <g id="line2d_104"/>
    <g id="text_54">
     <!-- efficientnet_b0_val_acc -->
     <g style="fill:#262626;" transform="translate(624.630308 298.792199)scale(0.055 -0.055)">
      <use xlink:href="#DejaVuSans-101"/>
      <use x="61.523438" xlink:href="#DejaVuSans-102"/>
      <use x="96.728516" xlink:href="#DejaVuSans-102"/>
      <use x="131.933594" xlink:href="#DejaVuSans-105"/>
      <use x="159.716797" xlink:href="#DejaVuSans-99"/>
      <use x="214.697266" xlink:href="#DejaVuSans-105"/>
      <use x="242.480469" xlink:href="#DejaVuSans-101"/>
      <use x="304.003906" xlink:href="#DejaVuSans-110"/>
      <use x="367.382812" xlink:href="#DejaVuSans-116"/>
      <use x="406.591797" xlink:href="#DejaVuSans-110"/>
      <use x="469.970703" xlink:href="#DejaVuSans-101"/>
      <use x="531.494141" xlink:href="#DejaVuSans-116"/>
      <use x="570.703125" xlink:href="#DejaVuSans-95"/>
      <use x="620.703125" xlink:href="#DejaVuSans-98"/>
      <use x="684.179688" xlink:href="#DejaVuSans-48"/>
      <use x="747.802734" xlink:href="#DejaVuSans-95"/>
      <use x="797.802734" xlink:href="#DejaVuSans-118"/>
      <use x="856.982422" xlink:href="#DejaVuSans-97"/>
      <use x="918.261719" xlink:href="#DejaVuSans-108"/>
      <use x="946.044922" xlink:href="#DejaVuSans-95"/>
      <use x="996.044922" xlink:href="#DejaVuSans-97"/>
      <use x="1057.324219" xlink:href="#DejaVuSans-99"/>
      <use x="1112.304688" xlink:href="#DejaVuSans-99"/>
     </g>
    </g>
    <g id="line2d_105">
     <path d="M 609.230308 305.093137 
L 620.230308 305.093137 
" style="fill:none;stroke:#937860;stroke-linecap:round;stroke-width:0.75;"/>
    </g>
    <g id="line2d_106"/>
    <g id="text_55">
     <!-- token_label_mix_false_acc -->
     <g style="fill:#262626;" transform="translate(624.630308 307.018137)scale(0.055 -0.055)">
      <use xlink:href="#DejaVuSans-116"/>
      <use x="39.208984" xlink:href="#DejaVuSans-111"/>
      <use x="100.390625" xlink:href="#DejaVuSans-107"/>
      <use x="154.675781" xlink:href="#DejaVuSans-101"/>
      <use x="216.199219" xlink:href="#DejaVuSans-110"/>
      <use x="279.578125" xlink:href="#DejaVuSans-95"/>
      <use x="329.578125" xlink:href="#DejaVuSans-108"/>
      <use x="357.361328" xlink:href="#DejaVuSans-97"/>
      <use x="418.640625" xlink:href="#DejaVuSans-98"/>
      <use x="482.117188" xlink:href="#DejaVuSans-101"/>
      <use x="543.640625" xlink:href="#DejaVuSans-108"/>
      <use x="571.423828" xlink:href="#DejaVuSans-95"/>
      <use x="621.423828" xlink:href="#DejaVuSans-109"/>
      <use x="718.835938" xlink:href="#DejaVuSans-105"/>
      <use x="746.619141" xlink:href="#DejaVuSans-120"/>
      <use x="805.798828" xlink:href="#DejaVuSans-95"/>
      <use x="855.798828" xlink:href="#DejaVuSans-102"/>
      <use x="891.003906" xlink:href="#DejaVuSans-97"/>
      <use x="952.283203" xlink:href="#DejaVuSans-108"/>
      <use x="980.066406" xlink:href="#DejaVuSans-115"/>
      <use x="1032.166016" xlink:href="#DejaVuSans-101"/>
      <use x="1093.689453" xlink:href="#DejaVuSans-95"/>
      <use x="1143.689453" xlink:href="#DejaVuSans-97"/>
      <use x="1204.96875" xlink:href="#DejaVuSans-99"/>
      <use x="1259.949219" xlink:href="#DejaVuSans-99"/>
     </g>
    </g>
    <g id="line2d_107">
     <path d="M 609.230308 313.319074 
L 620.230308 313.319074 
" style="fill:none;stroke:#937860;stroke-dasharray:2.775,1.2;stroke-dashoffset:0;stroke-width:0.75;"/>
    </g>
    <g id="line2d_108"/>
    <g id="text_56">
     <!-- token_label_mix_false_val_acc -->
     <g style="fill:#262626;" transform="translate(624.630308 315.244074)scale(0.055 -0.055)">
      <use xlink:href="#DejaVuSans-116"/>
      <use x="39.208984" xlink:href="#DejaVuSans-111"/>
      <use x="100.390625" xlink:href="#DejaVuSans-107"/>
      <use x="154.675781" xlink:href="#DejaVuSans-101"/>
      <use x="216.199219" xlink:href="#DejaVuSans-110"/>
      <use x="279.578125" xlink:href="#DejaVuSans-95"/>
      <use x="329.578125" xlink:href="#DejaVuSans-108"/>
      <use x="357.361328" xlink:href="#DejaVuSans-97"/>
      <use x="418.640625" xlink:href="#DejaVuSans-98"/>
      <use x="482.117188" xlink:href="#DejaVuSans-101"/>
      <use x="543.640625" xlink:href="#DejaVuSans-108"/>
      <use x="571.423828" xlink:href="#DejaVuSans-95"/>
      <use x="621.423828" xlink:href="#DejaVuSans-109"/>
      <use x="718.835938" xlink:href="#DejaVuSans-105"/>
      <use x="746.619141" xlink:href="#DejaVuSans-120"/>
      <use x="805.798828" xlink:href="#DejaVuSans-95"/>
      <use x="855.798828" xlink:href="#DejaVuSans-102"/>
      <use x="891.003906" xlink:href="#DejaVuSans-97"/>
      <use x="952.283203" xlink:href="#DejaVuSans-108"/>
      <use x="980.066406" xlink:href="#DejaVuSans-115"/>
      <use x="1032.166016" xlink:href="#DejaVuSans-101"/>
      <use x="1093.689453" xlink:href="#DejaVuSans-95"/>
      <use x="1143.689453" xlink:href="#DejaVuSans-118"/>
      <use x="1202.869141" xlink:href="#DejaVuSans-97"/>
      <use x="1264.148438" xlink:href="#DejaVuSans-108"/>
      <use x="1291.931641" xlink:href="#DejaVuSans-95"/>
      <use x="1341.931641" xlink:href="#DejaVuSans-97"/>
      <use x="1403.210938" xlink:href="#DejaVuSans-99"/>
      <use x="1458.191406" xlink:href="#DejaVuSans-99"/>
     </g>
    </g>
    <g id="line2d_109">
     <path d="M 609.230308 321.545012 
L 620.230308 321.545012 
" style="fill:none;stroke:#da8bc3;stroke-linecap:round;stroke-width:0.75;"/>
    </g>
    <g id="line2d_110"/>
    <g id="text_57">
     <!-- token_label_mix_true_acc -->
     <g style="fill:#262626;" transform="translate(624.630308 323.470012)scale(0.055 -0.055)">
      <use xlink:href="#DejaVuSans-116"/>
      <use x="39.208984" xlink:href="#DejaVuSans-111"/>
      <use x="100.390625" xlink:href="#DejaVuSans-107"/>
      <use x="154.675781" xlink:href="#DejaVuSans-101"/>
      <use x="216.199219" xlink:href="#DejaVuSans-110"/>
      <use x="279.578125" xlink:href="#DejaVuSans-95"/>
      <use x="329.578125" xlink:href="#DejaVuSans-108"/>
      <use x="357.361328" xlink:href="#DejaVuSans-97"/>
      <use x="418.640625" xlink:href="#DejaVuSans-98"/>
      <use x="482.117188" xlink:href="#DejaVuSans-101"/>
      <use x="543.640625" xlink:href="#DejaVuSans-108"/>
      <use x="571.423828" xlink:href="#DejaVuSans-95"/>
      <use x="621.423828" xlink:href="#DejaVuSans-109"/>
      <use x="718.835938" xlink:href="#DejaVuSans-105"/>
      <use x="746.619141" xlink:href="#DejaVuSans-120"/>
      <use x="805.798828" xlink:href="#DejaVuSans-95"/>
      <use x="855.798828" xlink:href="#DejaVuSans-116"/>
      <use x="895.007812" xlink:href="#DejaVuSans-114"/>
      <use x="936.121094" xlink:href="#DejaVuSans-117"/>
      <use x="999.5" xlink:href="#DejaVuSans-101"/>
      <use x="1061.023438" xlink:href="#DejaVuSans-95"/>
      <use x="1111.023438" xlink:href="#DejaVuSans-97"/>
      <use x="1172.302734" xlink:href="#DejaVuSans-99"/>
      <use x="1227.283203" xlink:href="#DejaVuSans-99"/>
     </g>
    </g>
    <g id="line2d_111">
     <path d="M 609.230308 329.770949 
L 620.230308 329.770949 
" style="fill:none;stroke:#da8bc3;stroke-dasharray:2.775,1.2;stroke-dashoffset:0;stroke-width:0.75;"/>
    </g>
    <g id="line2d_112"/>
    <g id="text_58">
     <!-- token_label_mix_true_val_acc -->
     <g style="fill:#262626;" transform="translate(624.630308 331.695949)scale(0.055 -0.055)">
      <use xlink:href="#DejaVuSans-116"/>
      <use x="39.208984" xlink:href="#DejaVuSans-111"/>
      <use x="100.390625" xlink:href="#DejaVuSans-107"/>
      <use x="154.675781" xlink:href="#DejaVuSans-101"/>
      <use x="216.199219" xlink:href="#DejaVuSans-110"/>
      <use x="279.578125" xlink:href="#DejaVuSans-95"/>
      <use x="329.578125" xlink:href="#DejaVuSans-108"/>
      <use x="357.361328" xlink:href="#DejaVuSans-97"/>
      <use x="418.640625" xlink:href="#DejaVuSans-98"/>
      <use x="482.117188" xlink:href="#DejaVuSans-101"/>
      <use x="543.640625" xlink:href="#DejaVuSans-108"/>
      <use x="571.423828" xlink:href="#DejaVuSans-95"/>
      <use x="621.423828" xlink:href="#DejaVuSans-109"/>
      <use x="718.835938" xlink:href="#DejaVuSans-105"/>
      <use x="746.619141" xlink:href="#DejaVuSans-120"/>
      <use x="805.798828" xlink:href="#DejaVuSans-95"/>
      <use x="855.798828" xlink:href="#DejaVuSans-116"/>
      <use x="895.007812" xlink:href="#DejaVuSans-114"/>
      <use x="936.121094" xlink:href="#DejaVuSans-117"/>
      <use x="999.5" xlink:href="#DejaVuSans-101"/>
      <use x="1061.023438" xlink:href="#DejaVuSans-95"/>
      <use x="1111.023438" xlink:href="#DejaVuSans-118"/>
      <use x="1170.203125" xlink:href="#DejaVuSans-97"/>
      <use x="1231.482422" xlink:href="#DejaVuSans-108"/>
      <use x="1259.265625" xlink:href="#DejaVuSans-95"/>
      <use x="1309.265625" xlink:href="#DejaVuSans-97"/>
      <use x="1370.544922" xlink:href="#DejaVuSans-99"/>
      <use x="1425.525391" xlink:href="#DejaVuSans-99"/>
     </g>
    </g>
   </g>
  </g>
 </g>
 <defs>
  <clipPath id="p8b7c5d376a">
   <rect height="320.996695" width="329.968425" x="24.692805" y="16.946051"/>
  </clipPath>
  <clipPath id="p4824029eb5">
   <rect height="320.996695" width="329.968425" x="382.838055" y="16.946051"/>
  </clipPath>
 </defs>
</svg>
