<?xml version="1.0" encoding="utf-8" standalone="no"?>
<!DOCTYPE svg PUBLIC "-//W3C//DTD SVG 1.1//EN"
  "http://www.w3.org/Graphics/SVG/1.1/DTD/svg11.dtd">
<!-- Created with matplotlib (https://matplotlib.org/) -->
<svg height="575.28pt" version="1.1" viewBox="0 0 1727.28 575.28" width="1727.28pt" xmlns="http://www.w3.org/2000/svg" xmlns:xlink="http://www.w3.org/1999/xlink">
 <metadata>
  <rdf:RDF xmlns:cc="http://creativecommons.org/ns#" xmlns:dc="http://purl.org/dc/elements/1.1/" xmlns:rdf="http://www.w3.org/1999/02/22-rdf-syntax-ns#">
   <cc:Work>
    <dc:type rdf:resource="http://purl.org/dc/dcmitype/StillImage"/>
    <dc:date>2021-12-06T14:51:48.985800</dc:date>
    <dc:format>image/svg+xml</dc:format>
    <dc:creator>
     <cc:Agent>
      <dc:title>Matplotlib v3.3.2, https://matplotlib.org/</dc:title>
     </cc:Agent>
    </dc:creator>
   </cc:Work>
  </rdf:RDF>
 </metadata>
 <defs>
  <style type="text/css">*{stroke-linecap:butt;stroke-linejoin:round;}</style>
 </defs>
 <g id="figure_1">
  <g id="patch_1">
   <path d="M 0 575.28 
L 1727.28 575.28 
L 1727.28 0 
L 0 0 
z
" style="fill:#ffffff;"/>
  </g>
  <g id="axes_1">
   <g id="patch_2">
    <path d="M 57.38508 538.519973 
L 566.789988 538.519973 
L 566.789988 16.258296 
L 57.38508 16.258296 
z
" style="fill:#eaeaf2;"/>
   </g>
   <g id="matplotlib.axis_1">
    <g id="xtick_1">
     <g id="line2d_1">
      <path clip-path="url(#p1ad947d467)" d="M 71.459547 538.519973 
L 71.459547 16.258296 
" style="fill:none;stroke:#ffffff;stroke-linecap:round;"/>
     </g>
     <g id="text_1">
      <!-- 0 -->
      <g style="fill:#262626;" transform="translate(67.960172 559.878254)scale(0.11 -0.11)">
       <defs>
        <path d="M 31.78125 66.40625 
Q 24.171875 66.40625 20.328125 58.90625 
Q 16.5 51.421875 16.5 36.375 
Q 16.5 21.390625 20.328125 13.890625 
Q 24.171875 6.390625 31.78125 6.390625 
Q 39.453125 6.390625 43.28125 13.890625 
Q 47.125 21.390625 47.125 36.375 
Q 47.125 51.421875 43.28125 58.90625 
Q 39.453125 66.40625 31.78125 66.40625 
z
M 31.78125 74.21875 
Q 44.046875 74.21875 50.515625 64.515625 
Q 56.984375 54.828125 56.984375 36.375 
Q 56.984375 17.96875 50.515625 8.265625 
Q 44.046875 -1.421875 31.78125 -1.421875 
Q 19.53125 -1.421875 13.0625 8.265625 
Q 6.59375 17.96875 6.59375 36.375 
Q 6.59375 54.828125 13.0625 64.515625 
Q 19.53125 74.21875 31.78125 74.21875 
z
" id="DejaVuSans-48"/>
       </defs>
       <use xlink:href="#DejaVuSans-48"/>
      </g>
     </g>
    </g>
    <g id="xtick_2">
     <g id="line2d_2">
      <path clip-path="url(#p1ad947d467)" d="M 162.262561 538.519973 
L 162.262561 16.258296 
" style="fill:none;stroke:#ffffff;stroke-linecap:round;"/>
     </g>
     <g id="text_2">
      <!-- 20 -->
      <g style="fill:#262626;" transform="translate(155.263811 559.878254)scale(0.11 -0.11)">
       <defs>
        <path d="M 19.1875 8.296875 
L 53.609375 8.296875 
L 53.609375 0 
L 7.328125 0 
L 7.328125 8.296875 
Q 12.9375 14.109375 22.625 23.890625 
Q 32.328125 33.6875 34.8125 36.53125 
Q 39.546875 41.84375 41.421875 45.53125 
Q 43.3125 49.21875 43.3125 52.78125 
Q 43.3125 58.59375 39.234375 62.25 
Q 35.15625 65.921875 28.609375 65.921875 
Q 23.96875 65.921875 18.8125 64.3125 
Q 13.671875 62.703125 7.8125 59.421875 
L 7.8125 69.390625 
Q 13.765625 71.78125 18.9375 73 
Q 24.125 74.21875 28.421875 74.21875 
Q 39.75 74.21875 46.484375 68.546875 
Q 53.21875 62.890625 53.21875 53.421875 
Q 53.21875 48.921875 51.53125 44.890625 
Q 49.859375 40.875 45.40625 35.40625 
Q 44.1875 33.984375 37.640625 27.21875 
Q 31.109375 20.453125 19.1875 8.296875 
z
" id="DejaVuSans-50"/>
       </defs>
       <use xlink:href="#DejaVuSans-50"/>
       <use x="63.623047" xlink:href="#DejaVuSans-48"/>
      </g>
     </g>
    </g>
    <g id="xtick_3">
     <g id="line2d_3">
      <path clip-path="url(#p1ad947d467)" d="M 253.065575 538.519973 
L 253.065575 16.258296 
" style="fill:none;stroke:#ffffff;stroke-linecap:round;"/>
     </g>
     <g id="text_3">
      <!-- 40 -->
      <g style="fill:#262626;" transform="translate(246.066825 559.878254)scale(0.11 -0.11)">
       <defs>
        <path d="M 37.796875 64.3125 
L 12.890625 25.390625 
L 37.796875 25.390625 
z
M 35.203125 72.90625 
L 47.609375 72.90625 
L 47.609375 25.390625 
L 58.015625 25.390625 
L 58.015625 17.1875 
L 47.609375 17.1875 
L 47.609375 0 
L 37.796875 0 
L 37.796875 17.1875 
L 4.890625 17.1875 
L 4.890625 26.703125 
z
" id="DejaVuSans-52"/>
       </defs>
       <use xlink:href="#DejaVuSans-52"/>
       <use x="63.623047" xlink:href="#DejaVuSans-48"/>
      </g>
     </g>
    </g>
    <g id="xtick_4">
     <g id="line2d_4">
      <path clip-path="url(#p1ad947d467)" d="M 343.868589 538.519973 
L 343.868589 16.258296 
" style="fill:none;stroke:#ffffff;stroke-linecap:round;"/>
     </g>
     <g id="text_4">
      <!-- 60 -->
      <g style="fill:#262626;" transform="translate(336.869839 559.878254)scale(0.11 -0.11)">
       <defs>
        <path d="M 33.015625 40.375 
Q 26.375 40.375 22.484375 35.828125 
Q 18.609375 31.296875 18.609375 23.390625 
Q 18.609375 15.53125 22.484375 10.953125 
Q 26.375 6.390625 33.015625 6.390625 
Q 39.65625 6.390625 43.53125 10.953125 
Q 47.40625 15.53125 47.40625 23.390625 
Q 47.40625 31.296875 43.53125 35.828125 
Q 39.65625 40.375 33.015625 40.375 
z
M 52.59375 71.296875 
L 52.59375 62.3125 
Q 48.875 64.0625 45.09375 64.984375 
Q 41.3125 65.921875 37.59375 65.921875 
Q 27.828125 65.921875 22.671875 59.328125 
Q 17.53125 52.734375 16.796875 39.40625 
Q 19.671875 43.65625 24.015625 45.921875 
Q 28.375 48.1875 33.59375 48.1875 
Q 44.578125 48.1875 50.953125 41.515625 
Q 57.328125 34.859375 57.328125 23.390625 
Q 57.328125 12.15625 50.6875 5.359375 
Q 44.046875 -1.421875 33.015625 -1.421875 
Q 20.359375 -1.421875 13.671875 8.265625 
Q 6.984375 17.96875 6.984375 36.375 
Q 6.984375 53.65625 15.1875 63.9375 
Q 23.390625 74.21875 37.203125 74.21875 
Q 40.921875 74.21875 44.703125 73.484375 
Q 48.484375 72.75 52.59375 71.296875 
z
" id="DejaVuSans-54"/>
       </defs>
       <use xlink:href="#DejaVuSans-54"/>
       <use x="63.623047" xlink:href="#DejaVuSans-48"/>
      </g>
     </g>
    </g>
    <g id="xtick_5">
     <g id="line2d_5">
      <path clip-path="url(#p1ad947d467)" d="M 434.671603 538.519973 
L 434.671603 16.258296 
" style="fill:none;stroke:#ffffff;stroke-linecap:round;"/>
     </g>
     <g id="text_5">
      <!-- 80 -->
      <g style="fill:#262626;" transform="translate(427.672853 559.878254)scale(0.11 -0.11)">
       <defs>
        <path d="M 31.78125 34.625 
Q 24.75 34.625 20.71875 30.859375 
Q 16.703125 27.09375 16.703125 20.515625 
Q 16.703125 13.921875 20.71875 10.15625 
Q 24.75 6.390625 31.78125 6.390625 
Q 38.8125 6.390625 42.859375 10.171875 
Q 46.921875 13.96875 46.921875 20.515625 
Q 46.921875 27.09375 42.890625 30.859375 
Q 38.875 34.625 31.78125 34.625 
z
M 21.921875 38.8125 
Q 15.578125 40.375 12.03125 44.71875 
Q 8.5 49.078125 8.5 55.328125 
Q 8.5 64.0625 14.71875 69.140625 
Q 20.953125 74.21875 31.78125 74.21875 
Q 42.671875 74.21875 48.875 69.140625 
Q 55.078125 64.0625 55.078125 55.328125 
Q 55.078125 49.078125 51.53125 44.71875 
Q 48 40.375 41.703125 38.8125 
Q 48.828125 37.15625 52.796875 32.3125 
Q 56.78125 27.484375 56.78125 20.515625 
Q 56.78125 9.90625 50.3125 4.234375 
Q 43.84375 -1.421875 31.78125 -1.421875 
Q 19.734375 -1.421875 13.25 4.234375 
Q 6.78125 9.90625 6.78125 20.515625 
Q 6.78125 27.484375 10.78125 32.3125 
Q 14.796875 37.15625 21.921875 38.8125 
z
M 18.3125 54.390625 
Q 18.3125 48.734375 21.84375 45.5625 
Q 25.390625 42.390625 31.78125 42.390625 
Q 38.140625 42.390625 41.71875 45.5625 
Q 45.3125 48.734375 45.3125 54.390625 
Q 45.3125 60.0625 41.71875 63.234375 
Q 38.140625 66.40625 31.78125 66.40625 
Q 25.390625 66.40625 21.84375 63.234375 
Q 18.3125 60.0625 18.3125 54.390625 
z
" id="DejaVuSans-56"/>
       </defs>
       <use xlink:href="#DejaVuSans-56"/>
       <use x="63.623047" xlink:href="#DejaVuSans-48"/>
      </g>
     </g>
    </g>
    <g id="xtick_6">
     <g id="line2d_6">
      <path clip-path="url(#p1ad947d467)" d="M 525.474617 538.519973 
L 525.474617 16.258296 
" style="fill:none;stroke:#ffffff;stroke-linecap:round;"/>
     </g>
     <g id="text_6">
      <!-- 100 -->
      <g style="fill:#262626;" transform="translate(514.976492 559.878254)scale(0.11 -0.11)">
       <defs>
        <path d="M 12.40625 8.296875 
L 28.515625 8.296875 
L 28.515625 63.921875 
L 10.984375 60.40625 
L 10.984375 69.390625 
L 28.421875 72.90625 
L 38.28125 72.90625 
L 38.28125 8.296875 
L 54.390625 8.296875 
L 54.390625 0 
L 12.40625 0 
z
" id="DejaVuSans-49"/>
       </defs>
       <use xlink:href="#DejaVuSans-49"/>
       <use x="63.623047" xlink:href="#DejaVuSans-48"/>
       <use x="127.246094" xlink:href="#DejaVuSans-48"/>
      </g>
     </g>
    </g>
   </g>
   <g id="matplotlib.axis_2">
    <g id="ytick_1">
     <g id="line2d_7">
      <path clip-path="url(#p1ad947d467)" d="M 57.38508 480.016288 
L 566.789988 480.016288 
" style="fill:none;stroke:#ffffff;stroke-linecap:round;"/>
     </g>
     <g id="text_7">
      <!-- 0.002 -->
      <g style="fill:#262626;" transform="translate(12.894142 484.195429)scale(0.11 -0.11)">
       <defs>
        <path d="M 10.6875 12.40625 
L 21 12.40625 
L 21 0 
L 10.6875 0 
z
" id="DejaVuSans-46"/>
       </defs>
       <use xlink:href="#DejaVuSans-48"/>
       <use x="63.623047" xlink:href="#DejaVuSans-46"/>
       <use x="95.410156" xlink:href="#DejaVuSans-48"/>
       <use x="159.033203" xlink:href="#DejaVuSans-48"/>
       <use x="222.65625" xlink:href="#DejaVuSans-50"/>
      </g>
     </g>
    </g>
    <g id="ytick_2">
     <g id="line2d_8">
      <path clip-path="url(#p1ad947d467)" d="M 57.38508 416.527972 
L 566.789988 416.527972 
" style="fill:none;stroke:#ffffff;stroke-linecap:round;"/>
     </g>
     <g id="text_8">
      <!-- 0.003 -->
      <g style="fill:#262626;" transform="translate(12.894142 420.707112)scale(0.11 -0.11)">
       <defs>
        <path d="M 40.578125 39.3125 
Q 47.65625 37.796875 51.625 33 
Q 55.609375 28.21875 55.609375 21.1875 
Q 55.609375 10.40625 48.1875 4.484375 
Q 40.765625 -1.421875 27.09375 -1.421875 
Q 22.515625 -1.421875 17.65625 -0.515625 
Q 12.796875 0.390625 7.625 2.203125 
L 7.625 11.71875 
Q 11.71875 9.328125 16.59375 8.109375 
Q 21.484375 6.890625 26.8125 6.890625 
Q 36.078125 6.890625 40.9375 10.546875 
Q 45.796875 14.203125 45.796875 21.1875 
Q 45.796875 27.640625 41.28125 31.265625 
Q 36.765625 34.90625 28.71875 34.90625 
L 20.21875 34.90625 
L 20.21875 43.015625 
L 29.109375 43.015625 
Q 36.375 43.015625 40.234375 45.921875 
Q 44.09375 48.828125 44.09375 54.296875 
Q 44.09375 59.90625 40.109375 62.90625 
Q 36.140625 65.921875 28.71875 65.921875 
Q 24.65625 65.921875 20.015625 65.03125 
Q 15.375 64.15625 9.8125 62.3125 
L 9.8125 71.09375 
Q 15.4375 72.65625 20.34375 73.4375 
Q 25.25 74.21875 29.59375 74.21875 
Q 40.828125 74.21875 47.359375 69.109375 
Q 53.90625 64.015625 53.90625 55.328125 
Q 53.90625 49.265625 50.4375 45.09375 
Q 46.96875 40.921875 40.578125 39.3125 
z
" id="DejaVuSans-51"/>
       </defs>
       <use xlink:href="#DejaVuSans-48"/>
       <use x="63.623047" xlink:href="#DejaVuSans-46"/>
       <use x="95.410156" xlink:href="#DejaVuSans-48"/>
       <use x="159.033203" xlink:href="#DejaVuSans-48"/>
       <use x="222.65625" xlink:href="#DejaVuSans-51"/>
      </g>
     </g>
    </g>
    <g id="ytick_3">
     <g id="line2d_9">
      <path clip-path="url(#p1ad947d467)" d="M 57.38508 353.039655 
L 566.789988 353.039655 
" style="fill:none;stroke:#ffffff;stroke-linecap:round;"/>
     </g>
     <g id="text_9">
      <!-- 0.004 -->
      <g style="fill:#262626;" transform="translate(12.894142 357.218796)scale(0.11 -0.11)">
       <use xlink:href="#DejaVuSans-48"/>
       <use x="63.623047" xlink:href="#DejaVuSans-46"/>
       <use x="95.410156" xlink:href="#DejaVuSans-48"/>
       <use x="159.033203" xlink:href="#DejaVuSans-48"/>
       <use x="222.65625" xlink:href="#DejaVuSans-52"/>
      </g>
     </g>
    </g>
    <g id="ytick_4">
     <g id="line2d_10">
      <path clip-path="url(#p1ad947d467)" d="M 57.38508 289.551338 
L 566.789988 289.551338 
" style="fill:none;stroke:#ffffff;stroke-linecap:round;"/>
     </g>
     <g id="text_10">
      <!-- 0.005 -->
      <g style="fill:#262626;" transform="translate(12.894142 293.730479)scale(0.11 -0.11)">
       <defs>
        <path d="M 10.796875 72.90625 
L 49.515625 72.90625 
L 49.515625 64.59375 
L 19.828125 64.59375 
L 19.828125 46.734375 
Q 21.96875 47.46875 24.109375 47.828125 
Q 26.265625 48.1875 28.421875 48.1875 
Q 40.625 48.1875 47.75 41.5 
Q 54.890625 34.8125 54.890625 23.390625 
Q 54.890625 11.625 47.5625 5.09375 
Q 40.234375 -1.421875 26.90625 -1.421875 
Q 22.3125 -1.421875 17.546875 -0.640625 
Q 12.796875 0.140625 7.71875 1.703125 
L 7.71875 11.625 
Q 12.109375 9.234375 16.796875 8.0625 
Q 21.484375 6.890625 26.703125 6.890625 
Q 35.15625 6.890625 40.078125 11.328125 
Q 45.015625 15.765625 45.015625 23.390625 
Q 45.015625 31 40.078125 35.4375 
Q 35.15625 39.890625 26.703125 39.890625 
Q 22.75 39.890625 18.8125 39.015625 
Q 14.890625 38.140625 10.796875 36.28125 
z
" id="DejaVuSans-53"/>
       </defs>
       <use xlink:href="#DejaVuSans-48"/>
       <use x="63.623047" xlink:href="#DejaVuSans-46"/>
       <use x="95.410156" xlink:href="#DejaVuSans-48"/>
       <use x="159.033203" xlink:href="#DejaVuSans-48"/>
       <use x="222.65625" xlink:href="#DejaVuSans-53"/>
      </g>
     </g>
    </g>
    <g id="ytick_5">
     <g id="line2d_11">
      <path clip-path="url(#p1ad947d467)" d="M 57.38508 226.063021 
L 566.789988 226.063021 
" style="fill:none;stroke:#ffffff;stroke-linecap:round;"/>
     </g>
     <g id="text_11">
      <!-- 0.006 -->
      <g style="fill:#262626;" transform="translate(12.894142 230.242162)scale(0.11 -0.11)">
       <use xlink:href="#DejaVuSans-48"/>
       <use x="63.623047" xlink:href="#DejaVuSans-46"/>
       <use x="95.410156" xlink:href="#DejaVuSans-48"/>
       <use x="159.033203" xlink:href="#DejaVuSans-48"/>
       <use x="222.65625" xlink:href="#DejaVuSans-54"/>
      </g>
     </g>
    </g>
    <g id="ytick_6">
     <g id="line2d_12">
      <path clip-path="url(#p1ad947d467)" d="M 57.38508 162.574705 
L 566.789988 162.574705 
" style="fill:none;stroke:#ffffff;stroke-linecap:round;"/>
     </g>
     <g id="text_12">
      <!-- 0.007 -->
      <g style="fill:#262626;" transform="translate(12.894142 166.753845)scale(0.11 -0.11)">
       <defs>
        <path d="M 8.203125 72.90625 
L 55.078125 72.90625 
L 55.078125 68.703125 
L 28.609375 0 
L 18.3125 0 
L 43.21875 64.59375 
L 8.203125 64.59375 
z
" id="DejaVuSans-55"/>
       </defs>
       <use xlink:href="#DejaVuSans-48"/>
       <use x="63.623047" xlink:href="#DejaVuSans-46"/>
       <use x="95.410156" xlink:href="#DejaVuSans-48"/>
       <use x="159.033203" xlink:href="#DejaVuSans-48"/>
       <use x="222.65625" xlink:href="#DejaVuSans-55"/>
      </g>
     </g>
    </g>
    <g id="ytick_7">
     <g id="line2d_13">
      <path clip-path="url(#p1ad947d467)" d="M 57.38508 99.086388 
L 566.789988 99.086388 
" style="fill:none;stroke:#ffffff;stroke-linecap:round;"/>
     </g>
     <g id="text_13">
      <!-- 0.008 -->
      <g style="fill:#262626;" transform="translate(12.894142 103.265529)scale(0.11 -0.11)">
       <use xlink:href="#DejaVuSans-48"/>
       <use x="63.623047" xlink:href="#DejaVuSans-46"/>
       <use x="95.410156" xlink:href="#DejaVuSans-48"/>
       <use x="159.033203" xlink:href="#DejaVuSans-48"/>
       <use x="222.65625" xlink:href="#DejaVuSans-56"/>
      </g>
     </g>
    </g>
    <g id="ytick_8">
     <g id="line2d_14">
      <path clip-path="url(#p1ad947d467)" d="M 57.38508 35.598071 
L 566.789988 35.598071 
" style="fill:none;stroke:#ffffff;stroke-linecap:round;"/>
     </g>
     <g id="text_14">
      <!-- 0.009 -->
      <g style="fill:#262626;" transform="translate(12.894142 39.777212)scale(0.11 -0.11)">
       <defs>
        <path d="M 10.984375 1.515625 
L 10.984375 10.5 
Q 14.703125 8.734375 18.5 7.8125 
Q 22.3125 6.890625 25.984375 6.890625 
Q 35.75 6.890625 40.890625 13.453125 
Q 46.046875 20.015625 46.78125 33.40625 
Q 43.953125 29.203125 39.59375 26.953125 
Q 35.25 24.703125 29.984375 24.703125 
Q 19.046875 24.703125 12.671875 31.3125 
Q 6.296875 37.9375 6.296875 49.421875 
Q 6.296875 60.640625 12.9375 67.421875 
Q 19.578125 74.21875 30.609375 74.21875 
Q 43.265625 74.21875 49.921875 64.515625 
Q 56.59375 54.828125 56.59375 36.375 
Q 56.59375 19.140625 48.40625 8.859375 
Q 40.234375 -1.421875 26.421875 -1.421875 
Q 22.703125 -1.421875 18.890625 -0.6875 
Q 15.09375 0.046875 10.984375 1.515625 
z
M 30.609375 32.421875 
Q 37.25 32.421875 41.125 36.953125 
Q 45.015625 41.5 45.015625 49.421875 
Q 45.015625 57.28125 41.125 61.84375 
Q 37.25 66.40625 30.609375 66.40625 
Q 23.96875 66.40625 20.09375 61.84375 
Q 16.21875 57.28125 16.21875 49.421875 
Q 16.21875 41.5 20.09375 36.953125 
Q 23.96875 32.421875 30.609375 32.421875 
z
" id="DejaVuSans-57"/>
       </defs>
       <use xlink:href="#DejaVuSans-48"/>
       <use x="63.623047" xlink:href="#DejaVuSans-46"/>
       <use x="95.410156" xlink:href="#DejaVuSans-48"/>
       <use x="159.033203" xlink:href="#DejaVuSans-48"/>
       <use x="222.65625" xlink:href="#DejaVuSans-57"/>
      </g>
     </g>
    </g>
   </g>
   <g id="PathCollection_1">
    <defs>
     <path d="M -0 3 
L 3 -3 
L -3 -3 
z
" id="m66a57aabb3" style="stroke:#4c72b0;"/>
    </defs>
    <g clip-path="url(#p1ad947d467)">
     <use style="fill:#4c72b0;stroke:#4c72b0;" x="520.934466" xlink:href="#m66a57aabb3" y="398.11636"/>
    </g>
   </g>
   <g id="PathCollection_2">
    <defs>
     <path d="M -0 3 
L 3 -3 
L -3 -3 
z
" id="m40ff1ddeb4" style="stroke:#dd8452;"/>
    </defs>
    <g clip-path="url(#p1ad947d467)">
     <use style="fill:#dd8452;stroke:#dd8452;" x="543.63522" xlink:href="#m40ff1ddeb4" y="386.546489"/>
    </g>
   </g>
   <g id="PathCollection_3">
    <g clip-path="url(#p1ad947d467)">
     <use style="fill:#dd8452;stroke:#dd8452;" x="530.014768" xlink:href="#m40ff1ddeb4" y="514.780805"/>
    </g>
   </g>
   <g id="line2d_15">
    <path clip-path="url(#p1ad947d467)" d="M 80.539848 49.565501 
L 85.079999 89.563141 
L 89.62015 113.053818 
L 94.160301 126.386364 
L 98.700451 148.607275 
L 103.240602 161.304938 
L 107.780753 173.367719 
L 112.320903 175.272368 
L 116.861054 180.986317 
L 121.401205 190.509564 
L 125.941355 195.588629 
L 130.481506 194.318863 
L 135.021657 196.858396 
L 139.561808 198.763045 
L 144.101958 198.128162 
L 148.642109 210.190942 
L 153.18226 205.74676 
L 157.72241 213.365358 
L 162.262561 215.904891 
L 166.802712 216.539774 
L 171.342862 218.444423 
L 175.883013 217.80954 
L 180.423164 226.063021 
L 184.963315 226.697905 
L 189.503465 224.793255 
L 194.043616 226.697905 
L 198.583767 229.87232 
L 203.123917 229.237437 
L 207.664068 232.411853 
L 212.204219 240.030451 
L 216.744369 239.395568 
L 221.28452 245.7444 
L 225.824671 243.204867 
L 230.364821 248.283932 
L 234.904972 246.379283 
L 239.445123 249.553699 
L 243.985274 250.188582 
L 248.525424 259.711829 
L 253.065575 256.537414 
L 257.605726 259.076946 
L 262.145876 259.076946 
L 266.686027 267.965311 
L 271.226178 266.695544 
L 275.766328 269.86996 
L 280.306479 273.044376 
L 284.84663 273.679259 
L 289.386781 280.028091 
L 293.926931 285.107156 
L 298.467082 287.646689 
L 303.007233 287.646689 
L 307.547383 288.281572 
L 312.087534 293.360637 
L 316.627685 295.90017 
L 321.167835 299.074586 
L 325.707986 300.979235 
L 330.248137 303.518768 
L 334.788288 310.502483 
L 339.328438 311.137366 
L 343.868589 311.137366 
L 348.40874 318.121081 
L 352.94889 321.93038 
L 357.489041 324.469912 
L 362.029192 326.374562 
L 366.569342 325.739679 
L 371.109493 331.453627 
L 375.649644 338.437342 
L 380.189795 340.976875 
L 384.729945 341.611758 
L 389.270096 337.167576 
L 393.810247 342.246641 
L 398.350397 347.96059 
L 402.890548 354.309421 
L 407.430699 356.214071 
L 411.970849 358.753603 
L 416.511 364.467552 
L 421.051151 367.641968 
L 425.591301 365.102435 
L 430.131452 370.1815 
L 434.671603 368.911734 
L 439.211754 372.721033 
L 443.751904 375.260566 
L 448.292055 379.069865 
L 452.832206 380.339631 
L 457.372356 384.14893 
L 461.912507 383.514047 
L 466.452658 384.14893 
L 470.992808 389.227995 
L 475.532959 386.05358 
L 480.07311 393.037294 
L 484.613261 387.958229 
L 489.153411 391.767528 
L 493.693562 390.497762 
L 498.233713 397.481477 
L 502.773863 393.672178 
L 507.314014 396.846593 
L 511.854165 394.307061 
L 516.394315 396.846593 
L 520.934466 398.11636 
L 525.474617 396.846593 
L 530.014768 394.307061 
L 534.554918 398.11636 
L 539.095069 392.402411 
" style="fill:none;stroke:#4c72b0;stroke-linecap:round;stroke-width:1.5;"/>
   </g>
   <g id="line2d_16">
    <path clip-path="url(#p1ad947d467)" d="M 80.539848 39.997463 
L 85.079999 85.280543 
L 89.62015 113.8887 
L 94.160301 128.683409 
L 98.700451 146.940275 
L 103.240602 159.872064 
L 107.780753 168.556829 
L 112.320903 175.165902 
L 116.861054 180.811128 
L 121.401205 185.313615 
L 125.941355 189.0255 
L 130.481506 192.102408 
L 135.021657 195.007254 
L 139.561808 197.122207 
L 144.101958 199.976025 
L 148.642109 202.479094 
L 153.18226 204.465828 
L 157.72241 206.552696 
L 162.262561 208.6662 
L 166.802712 210.44093 
L 171.342862 212.596741 
L 175.883013 214.544864 
L 180.423164 216.459727 
L 184.963315 218.630468 
L 189.503465 220.735694 
L 194.043616 222.345694 
L 198.583767 224.521696 
L 203.123917 226.657995 
L 207.664068 228.653893 
L 212.204219 230.837967 
L 216.744369 232.90547 
L 221.28452 235.178295 
L 225.824671 237.538748 
L 230.364821 239.798595 
L 234.904972 242.084162 
L 239.445123 244.270364 
L 243.985274 246.499376 
L 248.525424 249.085136 
L 253.065575 251.181967 
L 257.605726 253.946294 
L 262.145876 256.302667 
L 266.686027 259.08491 
L 271.226178 261.177454 
L 275.766328 264.181605 
L 280.306479 267.101233 
L 284.84663 269.66074 
L 289.386781 272.093034 
L 293.926931 274.788034 
L 298.467082 277.640551 
L 303.007233 280.595537 
L 307.547383 283.436938 
L 312.087534 286.036594 
L 316.627685 289.020523 
L 321.167835 292.028517 
L 325.707986 294.708971 
L 330.248137 297.658104 
L 334.788288 300.624709 
L 339.328438 303.382207 
L 343.868589 306.795702 
L 348.40874 309.439999 
L 352.94889 312.54656 
L 357.489041 315.770993 
L 362.029192 318.434891 
L 366.569342 321.603951 
L 371.109493 324.551753 
L 375.649644 327.50461 
L 380.189795 330.237363 
L 384.729945 333.572365 
L 389.270096 336.073573 
L 393.810247 339.034117 
L 398.350397 342.00421 
L 402.890548 344.552484 
L 407.430699 347.678468 
L 411.970849 350.24513 
L 416.511 353.029207 
L 421.051151 355.500998 
L 425.591301 358.069848 
L 430.131452 360.811825 
L 434.671603 362.755011 
L 439.211754 365.239589 
L 443.751904 367.246071 
L 448.292055 369.483153 
L 452.832206 371.631455 
L 457.372356 373.585032 
L 461.912507 375.101713 
L 466.452658 376.688223 
L 470.992808 378.24545 
L 475.532959 379.680268 
L 480.07311 381.212321 
L 484.613261 382.000514 
L 489.153411 383.142676 
L 493.693562 383.724896 
L 498.233713 384.507368 
L 502.773863 385.025138 
L 507.314014 385.589767 
L 511.854165 385.794394 
L 516.394315 385.960441 
L 520.934466 386.12427 
L 525.474617 386.092799 
L 530.014768 386.348336 
L 534.554918 386.119436 
L 539.095069 386.317382 
L 543.63522 386.546489 
" style="fill:none;stroke:#dd8452;stroke-linecap:round;stroke-width:1.5;"/>
   </g>
   <g id="line2d_17">
    <path clip-path="url(#p1ad947d467)" d="M 80.539848 280.320739 
L 85.079999 326.554776 
L 89.62015 337.266808 
L 94.160301 347.407691 
L 98.700451 361.896264 
L 103.240602 373.998308 
L 107.780753 369.588919 
L 112.320903 377.457731 
L 116.861054 371.436835 
L 121.401205 389.081 
L 125.941355 396.207164 
L 130.481506 377.310709 
L 135.021657 391.157121 
L 139.561808 398.708475 
L 144.101958 405.417267 
L 148.642109 396.947832 
L 153.18226 389.327047 
L 157.72241 407.925496 
L 162.262561 394.706152 
L 166.802712 411.581889 
L 171.342862 415.294321 
L 175.883013 414.771378 
L 180.423164 402.744396 
L 184.963315 419.509682 
L 189.503465 426.625291 
L 194.043616 386.501108 
L 198.583767 420.230187 
L 203.123917 422.917397 
L 207.664068 427.448443 
L 212.204219 416.227791 
L 216.744369 431.462472 
L 221.28452 431.144747 
L 225.824671 422.124785 
L 230.364821 428.780717 
L 234.904972 433.878905 
L 239.445123 440.382479 
L 243.985274 443.643881 
L 248.525424 439.026065 
L 253.065575 441.705973 
L 257.605726 440.305893 
L 262.145876 451.304489 
L 266.686027 449.209817 
L 271.226178 447.877246 
L 275.766328 446.787944 
L 280.306479 457.687589 
L 284.84663 451.559301 
L 289.386781 458.893063 
L 293.926931 457.330973 
L 298.467082 454.464812 
L 303.007233 457.542282 
L 307.547383 467.794178 
L 312.087534 467.879678 
L 316.627685 464.889895 
L 321.167835 468.508534 
L 325.707986 467.727837 
L 330.248137 474.937577 
L 334.788288 474.988442 
L 339.328438 474.728146 
L 343.868589 481.141534 
L 348.40874 479.390219 
L 352.94889 480.577083 
L 357.489041 481.338919 
L 362.029192 484.299581 
L 366.569342 488.330677 
L 371.109493 486.131983 
L 375.649644 486.825342 
L 380.189795 490.490818 
L 384.729945 490.27064 
L 389.270096 495.263424 
L 393.810247 494.258801 
L 398.350397 495.93727 
L 402.890548 498.365166 
L 407.430699 496.884266 
L 411.970849 499.477248 
L 416.511 502.212314 
L 421.051151 503.566703 
L 425.591301 504.0455 
L 430.131452 505.998316 
L 434.671603 506.520432 
L 439.211754 506.974189 
L 443.751904 507.205461 
L 448.292055 508.888394 
L 452.832206 509.890978 
L 457.372356 510.299568 
L 461.912507 510.665719 
L 466.452658 512.16404 
L 470.992808 512.270744 
L 475.532959 512.143832 
L 480.07311 513.063703 
L 484.613261 513.426691 
L 489.153411 513.537844 
L 493.693562 514.230205 
L 498.233713 514.100574 
L 502.773863 514.413664 
L 507.314014 514.548994 
L 511.854165 514.247108 
L 516.394315 514.621891 
L 520.934466 514.542453 
L 525.474617 514.659098 
L 530.014768 514.780805 
L 534.554918 514.176176 
L 539.095069 514.489141 
L 543.63522 514.314824 
" style="fill:none;stroke:#dd8452;stroke-dasharray:5.55,2.4;stroke-dashoffset:0;stroke-width:1.5;"/>
   </g>
   <g id="patch_3">
    <path d="M 57.38508 538.519973 
L 57.38508 16.258296 
" style="fill:none;stroke:#ffffff;stroke-linecap:square;stroke-linejoin:miter;stroke-width:1.25;"/>
   </g>
   <g id="patch_4">
    <path d="M 566.789988 538.519973 
L 566.789988 16.258296 
" style="fill:none;stroke:#ffffff;stroke-linecap:square;stroke-linejoin:miter;stroke-width:1.25;"/>
   </g>
   <g id="patch_5">
    <path d="M 57.38508 538.519973 
L 566.789988 538.519973 
" style="fill:none;stroke:#ffffff;stroke-linecap:square;stroke-linejoin:miter;stroke-width:1.25;"/>
   </g>
   <g id="patch_6">
    <path d="M 57.38508 16.258296 
L 566.789988 16.258296 
" style="fill:none;stroke:#ffffff;stroke-linecap:square;stroke-linejoin:miter;stroke-width:1.25;"/>
   </g>
   <g id="text_15">
    <!-- 0.0033 -->
    <g style="fill:#4c72b0;" transform="translate(489.442904 396.244641)scale(0.09 -0.09)">
     <use xlink:href="#DejaVuSans-48"/>
     <use x="63.623047" xlink:href="#DejaVuSans-46"/>
     <use x="95.410156" xlink:href="#DejaVuSans-48"/>
     <use x="159.033203" xlink:href="#DejaVuSans-48"/>
     <use x="222.65625" xlink:href="#DejaVuSans-51"/>
     <use x="286.279297" xlink:href="#DejaVuSans-51"/>
    </g>
   </g>
   <g id="text_16">
    <!-- 0.0035 -->
    <g style="fill:#dd8452;" transform="translate(512.143657 384.67477)scale(0.09 -0.09)">
     <use xlink:href="#DejaVuSans-48"/>
     <use x="63.623047" xlink:href="#DejaVuSans-46"/>
     <use x="95.410156" xlink:href="#DejaVuSans-48"/>
     <use x="159.033203" xlink:href="#DejaVuSans-48"/>
     <use x="222.65625" xlink:href="#DejaVuSans-51"/>
     <use x="286.279297" xlink:href="#DejaVuSans-53"/>
    </g>
   </g>
   <g id="text_17">
    <!-- 0.0015 -->
    <g style="fill:#dd8452;" transform="translate(498.523205 512.909087)scale(0.09 -0.09)">
     <use xlink:href="#DejaVuSans-48"/>
     <use x="63.623047" xlink:href="#DejaVuSans-46"/>
     <use x="95.410156" xlink:href="#DejaVuSans-48"/>
     <use x="159.033203" xlink:href="#DejaVuSans-48"/>
     <use x="222.65625" xlink:href="#DejaVuSans-49"/>
     <use x="286.279297" xlink:href="#DejaVuSans-53"/>
    </g>
   </g>
   <g id="legend_1">
    <g id="line2d_18">
     <path d="M 129.440301 30.666577 
L 151.440301 30.666577 
" style="fill:none;stroke:#4c72b0;stroke-linecap:round;stroke-width:1.5;"/>
    </g>
    <g id="line2d_19"/>
    <g id="text_18">
     <!-- timm, resnet50 loss -->
     <g style="fill:#262626;" transform="translate(160.240301 34.516577)scale(0.11 -0.11)">
      <defs>
       <path d="M 18.3125 70.21875 
L 18.3125 54.6875 
L 36.8125 54.6875 
L 36.8125 47.703125 
L 18.3125 47.703125 
L 18.3125 18.015625 
Q 18.3125 11.328125 20.140625 9.421875 
Q 21.96875 7.515625 27.59375 7.515625 
L 36.8125 7.515625 
L 36.8125 0 
L 27.59375 0 
Q 17.1875 0 13.234375 3.875 
Q 9.28125 7.765625 9.28125 18.015625 
L 9.28125 47.703125 
L 2.6875 47.703125 
L 2.6875 54.6875 
L 9.28125 54.6875 
L 9.28125 70.21875 
z
" id="DejaVuSans-116"/>
       <path d="M 9.421875 54.6875 
L 18.40625 54.6875 
L 18.40625 0 
L 9.421875 0 
z
M 9.421875 75.984375 
L 18.40625 75.984375 
L 18.40625 64.59375 
L 9.421875 64.59375 
z
" id="DejaVuSans-105"/>
       <path d="M 52 44.1875 
Q 55.375 50.25 60.0625 53.125 
Q 64.75 56 71.09375 56 
Q 79.640625 56 84.28125 50.015625 
Q 88.921875 44.046875 88.921875 33.015625 
L 88.921875 0 
L 79.890625 0 
L 79.890625 32.71875 
Q 79.890625 40.578125 77.09375 44.375 
Q 74.3125 48.1875 68.609375 48.1875 
Q 61.625 48.1875 57.5625 43.546875 
Q 53.515625 38.921875 53.515625 30.90625 
L 53.515625 0 
L 44.484375 0 
L 44.484375 32.71875 
Q 44.484375 40.625 41.703125 44.40625 
Q 38.921875 48.1875 33.109375 48.1875 
Q 26.21875 48.1875 22.15625 43.53125 
Q 18.109375 38.875 18.109375 30.90625 
L 18.109375 0 
L 9.078125 0 
L 9.078125 54.6875 
L 18.109375 54.6875 
L 18.109375 46.1875 
Q 21.1875 51.21875 25.484375 53.609375 
Q 29.78125 56 35.6875 56 
Q 41.65625 56 45.828125 52.96875 
Q 50 49.953125 52 44.1875 
z
" id="DejaVuSans-109"/>
       <path d="M 11.71875 12.40625 
L 22.015625 12.40625 
L 22.015625 4 
L 14.015625 -11.625 
L 7.71875 -11.625 
L 11.71875 4 
z
" id="DejaVuSans-44"/>
       <path id="DejaVuSans-32"/>
       <path d="M 41.109375 46.296875 
Q 39.59375 47.171875 37.8125 47.578125 
Q 36.03125 48 33.890625 48 
Q 26.265625 48 22.1875 43.046875 
Q 18.109375 38.09375 18.109375 28.8125 
L 18.109375 0 
L 9.078125 0 
L 9.078125 54.6875 
L 18.109375 54.6875 
L 18.109375 46.1875 
Q 20.953125 51.171875 25.484375 53.578125 
Q 30.03125 56 36.53125 56 
Q 37.453125 56 38.578125 55.875 
Q 39.703125 55.765625 41.0625 55.515625 
z
" id="DejaVuSans-114"/>
       <path d="M 56.203125 29.59375 
L 56.203125 25.203125 
L 14.890625 25.203125 
Q 15.484375 15.921875 20.484375 11.0625 
Q 25.484375 6.203125 34.421875 6.203125 
Q 39.59375 6.203125 44.453125 7.46875 
Q 49.3125 8.734375 54.109375 11.28125 
L 54.109375 2.78125 
Q 49.265625 0.734375 44.1875 -0.34375 
Q 39.109375 -1.421875 33.890625 -1.421875 
Q 20.796875 -1.421875 13.15625 6.1875 
Q 5.515625 13.8125 5.515625 26.8125 
Q 5.515625 40.234375 12.765625 48.109375 
Q 20.015625 56 32.328125 56 
Q 43.359375 56 49.78125 48.890625 
Q 56.203125 41.796875 56.203125 29.59375 
z
M 47.21875 32.234375 
Q 47.125 39.59375 43.09375 43.984375 
Q 39.0625 48.390625 32.421875 48.390625 
Q 24.90625 48.390625 20.390625 44.140625 
Q 15.875 39.890625 15.1875 32.171875 
z
" id="DejaVuSans-101"/>
       <path d="M 44.28125 53.078125 
L 44.28125 44.578125 
Q 40.484375 46.53125 36.375 47.5 
Q 32.28125 48.484375 27.875 48.484375 
Q 21.1875 48.484375 17.84375 46.4375 
Q 14.5 44.390625 14.5 40.28125 
Q 14.5 37.15625 16.890625 35.375 
Q 19.28125 33.59375 26.515625 31.984375 
L 29.59375 31.296875 
Q 39.15625 29.25 43.1875 25.515625 
Q 47.21875 21.78125 47.21875 15.09375 
Q 47.21875 7.46875 41.1875 3.015625 
Q 35.15625 -1.421875 24.609375 -1.421875 
Q 20.21875 -1.421875 15.453125 -0.5625 
Q 10.6875 0.296875 5.421875 2 
L 5.421875 11.28125 
Q 10.40625 8.6875 15.234375 7.390625 
Q 20.0625 6.109375 24.8125 6.109375 
Q 31.15625 6.109375 34.5625 8.28125 
Q 37.984375 10.453125 37.984375 14.40625 
Q 37.984375 18.0625 35.515625 20.015625 
Q 33.0625 21.96875 24.703125 23.78125 
L 21.578125 24.515625 
Q 13.234375 26.265625 9.515625 29.90625 
Q 5.8125 33.546875 5.8125 39.890625 
Q 5.8125 47.609375 11.28125 51.796875 
Q 16.75 56 26.8125 56 
Q 31.78125 56 36.171875 55.265625 
Q 40.578125 54.546875 44.28125 53.078125 
z
" id="DejaVuSans-115"/>
       <path d="M 54.890625 33.015625 
L 54.890625 0 
L 45.90625 0 
L 45.90625 32.71875 
Q 45.90625 40.484375 42.875 44.328125 
Q 39.84375 48.1875 33.796875 48.1875 
Q 26.515625 48.1875 22.3125 43.546875 
Q 18.109375 38.921875 18.109375 30.90625 
L 18.109375 0 
L 9.078125 0 
L 9.078125 54.6875 
L 18.109375 54.6875 
L 18.109375 46.1875 
Q 21.34375 51.125 25.703125 53.5625 
Q 30.078125 56 35.796875 56 
Q 45.21875 56 50.046875 50.171875 
Q 54.890625 44.34375 54.890625 33.015625 
z
" id="DejaVuSans-110"/>
       <path d="M 9.421875 75.984375 
L 18.40625 75.984375 
L 18.40625 0 
L 9.421875 0 
z
" id="DejaVuSans-108"/>
       <path d="M 30.609375 48.390625 
Q 23.390625 48.390625 19.1875 42.75 
Q 14.984375 37.109375 14.984375 27.296875 
Q 14.984375 17.484375 19.15625 11.84375 
Q 23.34375 6.203125 30.609375 6.203125 
Q 37.796875 6.203125 41.984375 11.859375 
Q 46.1875 17.53125 46.1875 27.296875 
Q 46.1875 37.015625 41.984375 42.703125 
Q 37.796875 48.390625 30.609375 48.390625 
z
M 30.609375 56 
Q 42.328125 56 49.015625 48.375 
Q 55.71875 40.765625 55.71875 27.296875 
Q 55.71875 13.875 49.015625 6.21875 
Q 42.328125 -1.421875 30.609375 -1.421875 
Q 18.84375 -1.421875 12.171875 6.21875 
Q 5.515625 13.875 5.515625 27.296875 
Q 5.515625 40.765625 12.171875 48.375 
Q 18.84375 56 30.609375 56 
z
" id="DejaVuSans-111"/>
      </defs>
      <use xlink:href="#DejaVuSans-116"/>
      <use x="39.208984" xlink:href="#DejaVuSans-105"/>
      <use x="66.992188" xlink:href="#DejaVuSans-109"/>
      <use x="164.404297" xlink:href="#DejaVuSans-109"/>
      <use x="261.816406" xlink:href="#DejaVuSans-44"/>
      <use x="293.603516" xlink:href="#DejaVuSans-32"/>
      <use x="325.390625" xlink:href="#DejaVuSans-114"/>
      <use x="364.253906" xlink:href="#DejaVuSans-101"/>
      <use x="425.777344" xlink:href="#DejaVuSans-115"/>
      <use x="477.876953" xlink:href="#DejaVuSans-110"/>
      <use x="541.255859" xlink:href="#DejaVuSans-101"/>
      <use x="602.779297" xlink:href="#DejaVuSans-116"/>
      <use x="641.988281" xlink:href="#DejaVuSans-53"/>
      <use x="705.611328" xlink:href="#DejaVuSans-48"/>
      <use x="769.234375" xlink:href="#DejaVuSans-32"/>
      <use x="801.021484" xlink:href="#DejaVuSans-108"/>
      <use x="828.804688" xlink:href="#DejaVuSans-111"/>
      <use x="889.986328" xlink:href="#DejaVuSans-115"/>
      <use x="942.085938" xlink:href="#DejaVuSans-115"/>
     </g>
    </g>
    <g id="line2d_20">
     <path d="M 129.440301 46.812515 
L 151.440301 46.812515 
" style="fill:none;stroke:#dd8452;stroke-linecap:round;stroke-width:1.5;"/>
    </g>
    <g id="line2d_21"/>
    <g id="text_19">
     <!-- aotnet, BCE, mixup, timm_cutmix, AA, lamb no bn, global clip 1 loss -->
     <g style="fill:#262626;" transform="translate(160.240301 50.662515)scale(0.11 -0.11)">
      <defs>
       <path d="M 34.28125 27.484375 
Q 23.390625 27.484375 19.1875 25 
Q 14.984375 22.515625 14.984375 16.5 
Q 14.984375 11.71875 18.140625 8.90625 
Q 21.296875 6.109375 26.703125 6.109375 
Q 34.1875 6.109375 38.703125 11.40625 
Q 43.21875 16.703125 43.21875 25.484375 
L 43.21875 27.484375 
z
M 52.203125 31.203125 
L 52.203125 0 
L 43.21875 0 
L 43.21875 8.296875 
Q 40.140625 3.328125 35.546875 0.953125 
Q 30.953125 -1.421875 24.3125 -1.421875 
Q 15.921875 -1.421875 10.953125 3.296875 
Q 6 8.015625 6 15.921875 
Q 6 25.140625 12.171875 29.828125 
Q 18.359375 34.515625 30.609375 34.515625 
L 43.21875 34.515625 
L 43.21875 35.40625 
Q 43.21875 41.609375 39.140625 45 
Q 35.0625 48.390625 27.6875 48.390625 
Q 23 48.390625 18.546875 47.265625 
Q 14.109375 46.140625 10.015625 43.890625 
L 10.015625 52.203125 
Q 14.9375 54.109375 19.578125 55.046875 
Q 24.21875 56 28.609375 56 
Q 40.484375 56 46.34375 49.84375 
Q 52.203125 43.703125 52.203125 31.203125 
z
" id="DejaVuSans-97"/>
       <path d="M 19.671875 34.8125 
L 19.671875 8.109375 
L 35.5 8.109375 
Q 43.453125 8.109375 47.28125 11.40625 
Q 51.125 14.703125 51.125 21.484375 
Q 51.125 28.328125 47.28125 31.5625 
Q 43.453125 34.8125 35.5 34.8125 
z
M 19.671875 64.796875 
L 19.671875 42.828125 
L 34.28125 42.828125 
Q 41.5 42.828125 45.03125 45.53125 
Q 48.578125 48.25 48.578125 53.8125 
Q 48.578125 59.328125 45.03125 62.0625 
Q 41.5 64.796875 34.28125 64.796875 
z
M 9.8125 72.90625 
L 35.015625 72.90625 
Q 46.296875 72.90625 52.390625 68.21875 
Q 58.5 63.53125 58.5 54.890625 
Q 58.5 48.1875 55.375 44.234375 
Q 52.25 40.28125 46.1875 39.3125 
Q 53.46875 37.75 57.5 32.78125 
Q 61.53125 27.828125 61.53125 20.40625 
Q 61.53125 10.640625 54.890625 5.3125 
Q 48.25 0 35.984375 0 
L 9.8125 0 
z
" id="DejaVuSans-66"/>
       <path d="M 64.40625 67.28125 
L 64.40625 56.890625 
Q 59.421875 61.53125 53.78125 63.8125 
Q 48.140625 66.109375 41.796875 66.109375 
Q 29.296875 66.109375 22.65625 58.46875 
Q 16.015625 50.828125 16.015625 36.375 
Q 16.015625 21.96875 22.65625 14.328125 
Q 29.296875 6.6875 41.796875 6.6875 
Q 48.140625 6.6875 53.78125 8.984375 
Q 59.421875 11.28125 64.40625 15.921875 
L 64.40625 5.609375 
Q 59.234375 2.09375 53.4375 0.328125 
Q 47.65625 -1.421875 41.21875 -1.421875 
Q 24.65625 -1.421875 15.125 8.703125 
Q 5.609375 18.84375 5.609375 36.375 
Q 5.609375 53.953125 15.125 64.078125 
Q 24.65625 74.21875 41.21875 74.21875 
Q 47.75 74.21875 53.53125 72.484375 
Q 59.328125 70.75 64.40625 67.28125 
z
" id="DejaVuSans-67"/>
       <path d="M 9.8125 72.90625 
L 55.90625 72.90625 
L 55.90625 64.59375 
L 19.671875 64.59375 
L 19.671875 43.015625 
L 54.390625 43.015625 
L 54.390625 34.71875 
L 19.671875 34.71875 
L 19.671875 8.296875 
L 56.78125 8.296875 
L 56.78125 0 
L 9.8125 0 
z
" id="DejaVuSans-69"/>
       <path d="M 54.890625 54.6875 
L 35.109375 28.078125 
L 55.90625 0 
L 45.3125 0 
L 29.390625 21.484375 
L 13.484375 0 
L 2.875 0 
L 24.125 28.609375 
L 4.6875 54.6875 
L 15.28125 54.6875 
L 29.78125 35.203125 
L 44.28125 54.6875 
z
" id="DejaVuSans-120"/>
       <path d="M 8.5 21.578125 
L 8.5 54.6875 
L 17.484375 54.6875 
L 17.484375 21.921875 
Q 17.484375 14.15625 20.5 10.265625 
Q 23.53125 6.390625 29.59375 6.390625 
Q 36.859375 6.390625 41.078125 11.03125 
Q 45.3125 15.671875 45.3125 23.6875 
L 45.3125 54.6875 
L 54.296875 54.6875 
L 54.296875 0 
L 45.3125 0 
L 45.3125 8.40625 
Q 42.046875 3.421875 37.71875 1 
Q 33.40625 -1.421875 27.6875 -1.421875 
Q 18.265625 -1.421875 13.375 4.4375 
Q 8.5 10.296875 8.5 21.578125 
z
M 31.109375 56 
z
" id="DejaVuSans-117"/>
       <path d="M 18.109375 8.203125 
L 18.109375 -20.796875 
L 9.078125 -20.796875 
L 9.078125 54.6875 
L 18.109375 54.6875 
L 18.109375 46.390625 
Q 20.953125 51.265625 25.265625 53.625 
Q 29.59375 56 35.59375 56 
Q 45.5625 56 51.78125 48.09375 
Q 58.015625 40.1875 58.015625 27.296875 
Q 58.015625 14.40625 51.78125 6.484375 
Q 45.5625 -1.421875 35.59375 -1.421875 
Q 29.59375 -1.421875 25.265625 0.953125 
Q 20.953125 3.328125 18.109375 8.203125 
z
M 48.6875 27.296875 
Q 48.6875 37.203125 44.609375 42.84375 
Q 40.53125 48.484375 33.40625 48.484375 
Q 26.265625 48.484375 22.1875 42.84375 
Q 18.109375 37.203125 18.109375 27.296875 
Q 18.109375 17.390625 22.1875 11.75 
Q 26.265625 6.109375 33.40625 6.109375 
Q 40.53125 6.109375 44.609375 11.75 
Q 48.6875 17.390625 48.6875 27.296875 
z
" id="DejaVuSans-112"/>
       <path d="M 50.984375 -16.609375 
L 50.984375 -23.578125 
L -0.984375 -23.578125 
L -0.984375 -16.609375 
z
" id="DejaVuSans-95"/>
       <path d="M 48.78125 52.59375 
L 48.78125 44.1875 
Q 44.96875 46.296875 41.140625 47.34375 
Q 37.3125 48.390625 33.40625 48.390625 
Q 24.65625 48.390625 19.8125 42.84375 
Q 14.984375 37.3125 14.984375 27.296875 
Q 14.984375 17.28125 19.8125 11.734375 
Q 24.65625 6.203125 33.40625 6.203125 
Q 37.3125 6.203125 41.140625 7.25 
Q 44.96875 8.296875 48.78125 10.40625 
L 48.78125 2.09375 
Q 45.015625 0.34375 40.984375 -0.53125 
Q 36.96875 -1.421875 32.421875 -1.421875 
Q 20.0625 -1.421875 12.78125 6.34375 
Q 5.515625 14.109375 5.515625 27.296875 
Q 5.515625 40.671875 12.859375 48.328125 
Q 20.21875 56 33.015625 56 
Q 37.15625 56 41.109375 55.140625 
Q 45.0625 54.296875 48.78125 52.59375 
z
" id="DejaVuSans-99"/>
       <path d="M 34.1875 63.1875 
L 20.796875 26.90625 
L 47.609375 26.90625 
z
M 28.609375 72.90625 
L 39.796875 72.90625 
L 67.578125 0 
L 57.328125 0 
L 50.6875 18.703125 
L 17.828125 18.703125 
L 11.1875 0 
L 0.78125 0 
z
" id="DejaVuSans-65"/>
       <path d="M 48.6875 27.296875 
Q 48.6875 37.203125 44.609375 42.84375 
Q 40.53125 48.484375 33.40625 48.484375 
Q 26.265625 48.484375 22.1875 42.84375 
Q 18.109375 37.203125 18.109375 27.296875 
Q 18.109375 17.390625 22.1875 11.75 
Q 26.265625 6.109375 33.40625 6.109375 
Q 40.53125 6.109375 44.609375 11.75 
Q 48.6875 17.390625 48.6875 27.296875 
z
M 18.109375 46.390625 
Q 20.953125 51.265625 25.265625 53.625 
Q 29.59375 56 35.59375 56 
Q 45.5625 56 51.78125 48.09375 
Q 58.015625 40.1875 58.015625 27.296875 
Q 58.015625 14.40625 51.78125 6.484375 
Q 45.5625 -1.421875 35.59375 -1.421875 
Q 29.59375 -1.421875 25.265625 0.953125 
Q 20.953125 3.328125 18.109375 8.203125 
L 18.109375 0 
L 9.078125 0 
L 9.078125 75.984375 
L 18.109375 75.984375 
z
" id="DejaVuSans-98"/>
       <path d="M 45.40625 27.984375 
Q 45.40625 37.75 41.375 43.109375 
Q 37.359375 48.484375 30.078125 48.484375 
Q 22.859375 48.484375 18.828125 43.109375 
Q 14.796875 37.75 14.796875 27.984375 
Q 14.796875 18.265625 18.828125 12.890625 
Q 22.859375 7.515625 30.078125 7.515625 
Q 37.359375 7.515625 41.375 12.890625 
Q 45.40625 18.265625 45.40625 27.984375 
z
M 54.390625 6.78125 
Q 54.390625 -7.171875 48.1875 -13.984375 
Q 42 -20.796875 29.203125 -20.796875 
Q 24.46875 -20.796875 20.265625 -20.09375 
Q 16.0625 -19.390625 12.109375 -17.921875 
L 12.109375 -9.1875 
Q 16.0625 -11.328125 19.921875 -12.34375 
Q 23.78125 -13.375 27.78125 -13.375 
Q 36.625 -13.375 41.015625 -8.765625 
Q 45.40625 -4.15625 45.40625 5.171875 
L 45.40625 9.625 
Q 42.625 4.78125 38.28125 2.390625 
Q 33.9375 0 27.875 0 
Q 17.828125 0 11.671875 7.65625 
Q 5.515625 15.328125 5.515625 27.984375 
Q 5.515625 40.671875 11.671875 48.328125 
Q 17.828125 56 27.875 56 
Q 33.9375 56 38.28125 53.609375 
Q 42.625 51.21875 45.40625 46.390625 
L 45.40625 54.6875 
L 54.390625 54.6875 
z
" id="DejaVuSans-103"/>
      </defs>
      <use xlink:href="#DejaVuSans-97"/>
      <use x="61.279297" xlink:href="#DejaVuSans-111"/>
      <use x="122.460938" xlink:href="#DejaVuSans-116"/>
      <use x="161.669922" xlink:href="#DejaVuSans-110"/>
      <use x="225.048828" xlink:href="#DejaVuSans-101"/>
      <use x="286.572266" xlink:href="#DejaVuSans-116"/>
      <use x="325.78125" xlink:href="#DejaVuSans-44"/>
      <use x="357.568359" xlink:href="#DejaVuSans-32"/>
      <use x="389.355469" xlink:href="#DejaVuSans-66"/>
      <use x="456.208984" xlink:href="#DejaVuSans-67"/>
      <use x="526.033203" xlink:href="#DejaVuSans-69"/>
      <use x="589.216797" xlink:href="#DejaVuSans-44"/>
      <use x="621.003906" xlink:href="#DejaVuSans-32"/>
      <use x="652.791016" xlink:href="#DejaVuSans-109"/>
      <use x="750.203125" xlink:href="#DejaVuSans-105"/>
      <use x="777.986328" xlink:href="#DejaVuSans-120"/>
      <use x="837.166016" xlink:href="#DejaVuSans-117"/>
      <use x="900.544922" xlink:href="#DejaVuSans-112"/>
      <use x="964.021484" xlink:href="#DejaVuSans-44"/>
      <use x="995.808594" xlink:href="#DejaVuSans-32"/>
      <use x="1027.595703" xlink:href="#DejaVuSans-116"/>
      <use x="1066.804688" xlink:href="#DejaVuSans-105"/>
      <use x="1094.587891" xlink:href="#DejaVuSans-109"/>
      <use x="1192" xlink:href="#DejaVuSans-109"/>
      <use x="1289.412109" xlink:href="#DejaVuSans-95"/>
      <use x="1339.412109" xlink:href="#DejaVuSans-99"/>
      <use x="1394.392578" xlink:href="#DejaVuSans-117"/>
      <use x="1457.771484" xlink:href="#DejaVuSans-116"/>
      <use x="1496.980469" xlink:href="#DejaVuSans-109"/>
      <use x="1594.392578" xlink:href="#DejaVuSans-105"/>
      <use x="1622.175781" xlink:href="#DejaVuSans-120"/>
      <use x="1681.355469" xlink:href="#DejaVuSans-44"/>
      <use x="1713.142578" xlink:href="#DejaVuSans-32"/>
      <use x="1744.929688" xlink:href="#DejaVuSans-65"/>
      <use x="1816.087891" xlink:href="#DejaVuSans-65"/>
      <use x="1884.496094" xlink:href="#DejaVuSans-44"/>
      <use x="1916.283203" xlink:href="#DejaVuSans-32"/>
      <use x="1948.070312" xlink:href="#DejaVuSans-108"/>
      <use x="1975.853516" xlink:href="#DejaVuSans-97"/>
      <use x="2037.132812" xlink:href="#DejaVuSans-109"/>
      <use x="2134.544922" xlink:href="#DejaVuSans-98"/>
      <use x="2198.021484" xlink:href="#DejaVuSans-32"/>
      <use x="2229.808594" xlink:href="#DejaVuSans-110"/>
      <use x="2293.1875" xlink:href="#DejaVuSans-111"/>
      <use x="2354.369141" xlink:href="#DejaVuSans-32"/>
      <use x="2386.15625" xlink:href="#DejaVuSans-98"/>
      <use x="2449.632812" xlink:href="#DejaVuSans-110"/>
      <use x="2513.011719" xlink:href="#DejaVuSans-44"/>
      <use x="2544.798828" xlink:href="#DejaVuSans-32"/>
      <use x="2576.585938" xlink:href="#DejaVuSans-103"/>
      <use x="2640.0625" xlink:href="#DejaVuSans-108"/>
      <use x="2667.845703" xlink:href="#DejaVuSans-111"/>
      <use x="2729.027344" xlink:href="#DejaVuSans-98"/>
      <use x="2792.503906" xlink:href="#DejaVuSans-97"/>
      <use x="2853.783203" xlink:href="#DejaVuSans-108"/>
      <use x="2881.566406" xlink:href="#DejaVuSans-32"/>
      <use x="2913.353516" xlink:href="#DejaVuSans-99"/>
      <use x="2968.333984" xlink:href="#DejaVuSans-108"/>
      <use x="2996.117188" xlink:href="#DejaVuSans-105"/>
      <use x="3023.900391" xlink:href="#DejaVuSans-112"/>
      <use x="3087.376953" xlink:href="#DejaVuSans-32"/>
      <use x="3119.164062" xlink:href="#DejaVuSans-49"/>
      <use x="3182.787109" xlink:href="#DejaVuSans-32"/>
      <use x="3214.574219" xlink:href="#DejaVuSans-108"/>
      <use x="3242.357422" xlink:href="#DejaVuSans-111"/>
      <use x="3303.539062" xlink:href="#DejaVuSans-115"/>
      <use x="3355.638672" xlink:href="#DejaVuSans-115"/>
     </g>
    </g>
    <g id="line2d_22">
     <path d="M 129.440301 63.26439 
L 151.440301 63.26439 
" style="fill:none;stroke:#dd8452;stroke-dasharray:5.55,2.4;stroke-dashoffset:0;stroke-width:1.5;"/>
    </g>
    <g id="line2d_23"/>
    <g id="text_20">
     <!-- aotnet, BCE, mixup, timm_cutmix, AA, lamb no bn, global clip 1 val_loss -->
     <g style="fill:#262626;" transform="translate(160.240301 67.11439)scale(0.11 -0.11)">
      <defs>
       <path d="M 2.984375 54.6875 
L 12.5 54.6875 
L 29.59375 8.796875 
L 46.6875 54.6875 
L 56.203125 54.6875 
L 35.6875 0 
L 23.484375 0 
z
" id="DejaVuSans-118"/>
      </defs>
      <use xlink:href="#DejaVuSans-97"/>
      <use x="61.279297" xlink:href="#DejaVuSans-111"/>
      <use x="122.460938" xlink:href="#DejaVuSans-116"/>
      <use x="161.669922" xlink:href="#DejaVuSans-110"/>
      <use x="225.048828" xlink:href="#DejaVuSans-101"/>
      <use x="286.572266" xlink:href="#DejaVuSans-116"/>
      <use x="325.78125" xlink:href="#DejaVuSans-44"/>
      <use x="357.568359" xlink:href="#DejaVuSans-32"/>
      <use x="389.355469" xlink:href="#DejaVuSans-66"/>
      <use x="456.208984" xlink:href="#DejaVuSans-67"/>
      <use x="526.033203" xlink:href="#DejaVuSans-69"/>
      <use x="589.216797" xlink:href="#DejaVuSans-44"/>
      <use x="621.003906" xlink:href="#DejaVuSans-32"/>
      <use x="652.791016" xlink:href="#DejaVuSans-109"/>
      <use x="750.203125" xlink:href="#DejaVuSans-105"/>
      <use x="777.986328" xlink:href="#DejaVuSans-120"/>
      <use x="837.166016" xlink:href="#DejaVuSans-117"/>
      <use x="900.544922" xlink:href="#DejaVuSans-112"/>
      <use x="964.021484" xlink:href="#DejaVuSans-44"/>
      <use x="995.808594" xlink:href="#DejaVuSans-32"/>
      <use x="1027.595703" xlink:href="#DejaVuSans-116"/>
      <use x="1066.804688" xlink:href="#DejaVuSans-105"/>
      <use x="1094.587891" xlink:href="#DejaVuSans-109"/>
      <use x="1192" xlink:href="#DejaVuSans-109"/>
      <use x="1289.412109" xlink:href="#DejaVuSans-95"/>
      <use x="1339.412109" xlink:href="#DejaVuSans-99"/>
      <use x="1394.392578" xlink:href="#DejaVuSans-117"/>
      <use x="1457.771484" xlink:href="#DejaVuSans-116"/>
      <use x="1496.980469" xlink:href="#DejaVuSans-109"/>
      <use x="1594.392578" xlink:href="#DejaVuSans-105"/>
      <use x="1622.175781" xlink:href="#DejaVuSans-120"/>
      <use x="1681.355469" xlink:href="#DejaVuSans-44"/>
      <use x="1713.142578" xlink:href="#DejaVuSans-32"/>
      <use x="1744.929688" xlink:href="#DejaVuSans-65"/>
      <use x="1816.087891" xlink:href="#DejaVuSans-65"/>
      <use x="1884.496094" xlink:href="#DejaVuSans-44"/>
      <use x="1916.283203" xlink:href="#DejaVuSans-32"/>
      <use x="1948.070312" xlink:href="#DejaVuSans-108"/>
      <use x="1975.853516" xlink:href="#DejaVuSans-97"/>
      <use x="2037.132812" xlink:href="#DejaVuSans-109"/>
      <use x="2134.544922" xlink:href="#DejaVuSans-98"/>
      <use x="2198.021484" xlink:href="#DejaVuSans-32"/>
      <use x="2229.808594" xlink:href="#DejaVuSans-110"/>
      <use x="2293.1875" xlink:href="#DejaVuSans-111"/>
      <use x="2354.369141" xlink:href="#DejaVuSans-32"/>
      <use x="2386.15625" xlink:href="#DejaVuSans-98"/>
      <use x="2449.632812" xlink:href="#DejaVuSans-110"/>
      <use x="2513.011719" xlink:href="#DejaVuSans-44"/>
      <use x="2544.798828" xlink:href="#DejaVuSans-32"/>
      <use x="2576.585938" xlink:href="#DejaVuSans-103"/>
      <use x="2640.0625" xlink:href="#DejaVuSans-108"/>
      <use x="2667.845703" xlink:href="#DejaVuSans-111"/>
      <use x="2729.027344" xlink:href="#DejaVuSans-98"/>
      <use x="2792.503906" xlink:href="#DejaVuSans-97"/>
      <use x="2853.783203" xlink:href="#DejaVuSans-108"/>
      <use x="2881.566406" xlink:href="#DejaVuSans-32"/>
      <use x="2913.353516" xlink:href="#DejaVuSans-99"/>
      <use x="2968.333984" xlink:href="#DejaVuSans-108"/>
      <use x="2996.117188" xlink:href="#DejaVuSans-105"/>
      <use x="3023.900391" xlink:href="#DejaVuSans-112"/>
      <use x="3087.376953" xlink:href="#DejaVuSans-32"/>
      <use x="3119.164062" xlink:href="#DejaVuSans-49"/>
      <use x="3182.787109" xlink:href="#DejaVuSans-32"/>
      <use x="3214.574219" xlink:href="#DejaVuSans-118"/>
      <use x="3273.753906" xlink:href="#DejaVuSans-97"/>
      <use x="3335.033203" xlink:href="#DejaVuSans-108"/>
      <use x="3362.816406" xlink:href="#DejaVuSans-95"/>
      <use x="3412.816406" xlink:href="#DejaVuSans-108"/>
      <use x="3440.599609" xlink:href="#DejaVuSans-111"/>
      <use x="3501.78125" xlink:href="#DejaVuSans-115"/>
      <use x="3553.880859" xlink:href="#DejaVuSans-115"/>
     </g>
    </g>
   </g>
  </g>
  <g id="axes_2">
   <g id="patch_7">
    <path d="M 631.150086 538.519973 
L 1140.554994 538.519973 
L 1140.554994 16.258296 
L 631.150086 16.258296 
z
" style="fill:#eaeaf2;"/>
   </g>
   <g id="matplotlib.axis_3">
    <g id="xtick_7">
     <g id="line2d_24">
      <path clip-path="url(#p329a47e99e)" d="M 645.224553 538.519973 
L 645.224553 16.258296 
" style="fill:none;stroke:#ffffff;stroke-linecap:round;"/>
     </g>
     <g id="text_21">
      <!-- 0 -->
      <g style="fill:#262626;" transform="translate(641.725178 559.878254)scale(0.11 -0.11)">
       <use xlink:href="#DejaVuSans-48"/>
      </g>
     </g>
    </g>
    <g id="xtick_8">
     <g id="line2d_25">
      <path clip-path="url(#p329a47e99e)" d="M 736.027567 538.519973 
L 736.027567 16.258296 
" style="fill:none;stroke:#ffffff;stroke-linecap:round;"/>
     </g>
     <g id="text_22">
      <!-- 20 -->
      <g style="fill:#262626;" transform="translate(729.028817 559.878254)scale(0.11 -0.11)">
       <use xlink:href="#DejaVuSans-50"/>
       <use x="63.623047" xlink:href="#DejaVuSans-48"/>
      </g>
     </g>
    </g>
    <g id="xtick_9">
     <g id="line2d_26">
      <path clip-path="url(#p329a47e99e)" d="M 826.830581 538.519973 
L 826.830581 16.258296 
" style="fill:none;stroke:#ffffff;stroke-linecap:round;"/>
     </g>
     <g id="text_23">
      <!-- 40 -->
      <g style="fill:#262626;" transform="translate(819.831831 559.878254)scale(0.11 -0.11)">
       <use xlink:href="#DejaVuSans-52"/>
       <use x="63.623047" xlink:href="#DejaVuSans-48"/>
      </g>
     </g>
    </g>
    <g id="xtick_10">
     <g id="line2d_27">
      <path clip-path="url(#p329a47e99e)" d="M 917.633595 538.519973 
L 917.633595 16.258296 
" style="fill:none;stroke:#ffffff;stroke-linecap:round;"/>
     </g>
     <g id="text_24">
      <!-- 60 -->
      <g style="fill:#262626;" transform="translate(910.634845 559.878254)scale(0.11 -0.11)">
       <use xlink:href="#DejaVuSans-54"/>
       <use x="63.623047" xlink:href="#DejaVuSans-48"/>
      </g>
     </g>
    </g>
    <g id="xtick_11">
     <g id="line2d_28">
      <path clip-path="url(#p329a47e99e)" d="M 1008.436609 538.519973 
L 1008.436609 16.258296 
" style="fill:none;stroke:#ffffff;stroke-linecap:round;"/>
     </g>
     <g id="text_25">
      <!-- 80 -->
      <g style="fill:#262626;" transform="translate(1001.437859 559.878254)scale(0.11 -0.11)">
       <use xlink:href="#DejaVuSans-56"/>
       <use x="63.623047" xlink:href="#DejaVuSans-48"/>
      </g>
     </g>
    </g>
    <g id="xtick_12">
     <g id="line2d_29">
      <path clip-path="url(#p329a47e99e)" d="M 1099.239623 538.519973 
L 1099.239623 16.258296 
" style="fill:none;stroke:#ffffff;stroke-linecap:round;"/>
     </g>
     <g id="text_26">
      <!-- 100 -->
      <g style="fill:#262626;" transform="translate(1088.741498 559.878254)scale(0.11 -0.11)">
       <use xlink:href="#DejaVuSans-49"/>
       <use x="63.623047" xlink:href="#DejaVuSans-48"/>
       <use x="127.246094" xlink:href="#DejaVuSans-48"/>
      </g>
     </g>
    </g>
   </g>
   <g id="matplotlib.axis_4">
    <g id="ytick_9">
     <g id="line2d_30">
      <path clip-path="url(#p329a47e99e)" d="M 631.150086 507.835696 
L 1140.554994 507.835696 
" style="fill:none;stroke:#ffffff;stroke-linecap:round;"/>
     </g>
     <g id="text_27">
      <!-- 0.1 -->
      <g style="fill:#262626;" transform="translate(600.656648 512.014837)scale(0.11 -0.11)">
       <use xlink:href="#DejaVuSans-48"/>
       <use x="63.623047" xlink:href="#DejaVuSans-46"/>
       <use x="95.410156" xlink:href="#DejaVuSans-49"/>
      </g>
     </g>
    </g>
    <g id="ytick_10">
     <g id="line2d_31">
      <path clip-path="url(#p329a47e99e)" d="M 631.150086 437.73917 
L 1140.554994 437.73917 
" style="fill:none;stroke:#ffffff;stroke-linecap:round;"/>
     </g>
     <g id="text_28">
      <!-- 0.2 -->
      <g style="fill:#262626;" transform="translate(600.656648 441.91831)scale(0.11 -0.11)">
       <use xlink:href="#DejaVuSans-48"/>
       <use x="63.623047" xlink:href="#DejaVuSans-46"/>
       <use x="95.410156" xlink:href="#DejaVuSans-50"/>
      </g>
     </g>
    </g>
    <g id="ytick_11">
     <g id="line2d_32">
      <path clip-path="url(#p329a47e99e)" d="M 631.150086 367.642643 
L 1140.554994 367.642643 
" style="fill:none;stroke:#ffffff;stroke-linecap:round;"/>
     </g>
     <g id="text_29">
      <!-- 0.3 -->
      <g style="fill:#262626;" transform="translate(600.656648 371.821784)scale(0.11 -0.11)">
       <use xlink:href="#DejaVuSans-48"/>
       <use x="63.623047" xlink:href="#DejaVuSans-46"/>
       <use x="95.410156" xlink:href="#DejaVuSans-51"/>
      </g>
     </g>
    </g>
    <g id="ytick_12">
     <g id="line2d_33">
      <path clip-path="url(#p329a47e99e)" d="M 631.150086 297.546117 
L 1140.554994 297.546117 
" style="fill:none;stroke:#ffffff;stroke-linecap:round;"/>
     </g>
     <g id="text_30">
      <!-- 0.4 -->
      <g style="fill:#262626;" transform="translate(600.656648 301.725257)scale(0.11 -0.11)">
       <use xlink:href="#DejaVuSans-48"/>
       <use x="63.623047" xlink:href="#DejaVuSans-46"/>
       <use x="95.410156" xlink:href="#DejaVuSans-52"/>
      </g>
     </g>
    </g>
    <g id="ytick_13">
     <g id="line2d_34">
      <path clip-path="url(#p329a47e99e)" d="M 631.150086 227.44959 
L 1140.554994 227.44959 
" style="fill:none;stroke:#ffffff;stroke-linecap:round;"/>
     </g>
     <g id="text_31">
      <!-- 0.5 -->
      <g style="fill:#262626;" transform="translate(600.656648 231.628731)scale(0.11 -0.11)">
       <use xlink:href="#DejaVuSans-48"/>
       <use x="63.623047" xlink:href="#DejaVuSans-46"/>
       <use x="95.410156" xlink:href="#DejaVuSans-53"/>
      </g>
     </g>
    </g>
    <g id="ytick_14">
     <g id="line2d_35">
      <path clip-path="url(#p329a47e99e)" d="M 631.150086 157.353064 
L 1140.554994 157.353064 
" style="fill:none;stroke:#ffffff;stroke-linecap:round;"/>
     </g>
     <g id="text_32">
      <!-- 0.6 -->
      <g style="fill:#262626;" transform="translate(600.656648 161.532204)scale(0.11 -0.11)">
       <use xlink:href="#DejaVuSans-48"/>
       <use x="63.623047" xlink:href="#DejaVuSans-46"/>
       <use x="95.410156" xlink:href="#DejaVuSans-54"/>
      </g>
     </g>
    </g>
    <g id="ytick_15">
     <g id="line2d_36">
      <path clip-path="url(#p329a47e99e)" d="M 631.150086 87.256537 
L 1140.554994 87.256537 
" style="fill:none;stroke:#ffffff;stroke-linecap:round;"/>
     </g>
     <g id="text_33">
      <!-- 0.7 -->
      <g style="fill:#262626;" transform="translate(600.656648 91.435678)scale(0.11 -0.11)">
       <use xlink:href="#DejaVuSans-48"/>
       <use x="63.623047" xlink:href="#DejaVuSans-46"/>
       <use x="95.410156" xlink:href="#DejaVuSans-55"/>
      </g>
     </g>
    </g>
    <g id="ytick_16">
     <g id="line2d_37">
      <path clip-path="url(#p329a47e99e)" d="M 631.150086 17.160011 
L 1140.554994 17.160011 
" style="fill:none;stroke:#ffffff;stroke-linecap:round;"/>
     </g>
     <g id="text_34">
      <!-- 0.8 -->
      <g style="fill:#262626;" transform="translate(600.656648 21.339151)scale(0.11 -0.11)">
       <use xlink:href="#DejaVuSans-48"/>
       <use x="63.623047" xlink:href="#DejaVuSans-46"/>
       <use x="95.410156" xlink:href="#DejaVuSans-56"/>
      </g>
     </g>
    </g>
   </g>
   <g id="PathCollection_4">
    <g clip-path="url(#p329a47e99e)">
     <use style="fill:#4c72b0;stroke:#4c72b0;" x="1081.07902" xlink:href="#m66a57aabb3" y="42.579815"/>
    </g>
   </g>
   <g id="PathCollection_5">
    <g clip-path="url(#p329a47e99e)">
     <use style="fill:#dd8452;stroke:#dd8452;" x="1094.699472" xlink:href="#m40ff1ddeb4" y="135.035172"/>
    </g>
   </g>
   <g id="PathCollection_6">
    <g clip-path="url(#p329a47e99e)">
     <use style="fill:#dd8452;stroke:#dd8452;" x="1112.860075" xlink:href="#m40ff1ddeb4" y="39.997463"/>
    </g>
   </g>
   <g id="line2d_38">
    <path clip-path="url(#p329a47e99e)" d="M 654.304854 475.776349 
L 658.845005 406.663978 
L 663.385156 357.487759 
L 667.925306 352.086822 
L 672.465457 311.889268 
L 677.005608 326.692953 
L 681.545759 277.997597 
L 686.085909 283.907436 
L 690.62606 290.298136 
L 695.166211 273.939008 
L 699.706361 306.728061 
L 704.246512 272.185894 
L 708.786663 267.350636 
L 713.326813 267.74598 
L 717.866964 243.18626 
L 722.407115 264.522241 
L 726.947266 242.917791 
L 731.487416 241.405108 
L 736.027567 257.467026 
L 740.567718 255.261088 
L 745.107868 252.730603 
L 749.648019 233.995905 
L 754.18817 225.696476 
L 758.72832 241.249493 
L 763.268471 227.082284 
L 767.808622 237.530873 
L 772.348773 236.01819 
L 776.888923 227.392812 
L 781.429074 210.62362 
L 785.969225 210.793955 
L 790.509375 208.163933 
L 795.049526 195.551465 
L 799.589677 220.50723 
L 804.129827 193.911206 
L 808.669978 209.591799 
L 813.210129 192.313706 
L 817.750279 194.646519 
L 822.29043 186.544762 
L 826.830581 205.830419 
L 831.370732 168.771788 
L 835.910882 182.543652 
L 840.451033 167.018674 
L 844.991184 162.381088 
L 849.531334 174.964816 
L 854.071485 178.937887 
L 858.611636 160.048275 
L 863.151786 163.243275 
L 867.691937 147.35099 
L 872.232088 132.872553 
L 876.772239 148.538425 
L 881.312389 158.464094 
L 885.85254 157.700742 
L 890.392691 138.938005 
L 894.932841 134.866098 
L 899.472992 121.391443 
L 904.013143 118.719363 
L 908.553293 114.859147 
L 913.093444 111.012951 
L 917.633595 113.586895 
L 922.173746 109.571065 
L 926.713896 105.583975 
L 931.254047 105.44238 
L 935.794198 97.100192 
L 940.334348 92.872671 
L 944.874499 96.888501 
L 949.41465 85.916292 
L 953.9548 88.956378 
L 958.494951 83.710354 
L 963.035102 82.438102 
L 967.575253 75.919826 
L 972.115403 74.646873 
L 976.655554 73.587014 
L 981.195705 70.024007 
L 985.735855 69.203878 
L 990.276006 63.901076 
L 994.816157 61.313813 
L 999.356307 61.017304 
L 1003.896458 59.631496 
L 1008.436609 58.514157 
L 1012.976759 56.520612 
L 1017.51691 54.499028 
L 1022.057061 54.583845 
L 1026.597212 51.614556 
L 1031.137362 51.557778 
L 1035.677513 49.295763 
L 1040.217664 48.702046 
L 1044.757814 47.49989 
L 1049.297965 46.679761 
L 1053.838116 46.072024 
L 1058.378266 44.063759 
L 1062.918417 44.813791 
L 1067.458568 44.417746 
L 1071.998719 44.177315 
L 1076.538869 43.329147 
L 1081.07902 42.579815 
L 1085.619171 42.749449 
L 1090.159321 42.975159 
L 1094.699472 42.805526 
L 1099.239623 42.720709 
L 1103.779773 44.03572 
L 1108.319924 42.70669 
L 1112.860075 43.286388 
" style="fill:none;stroke:#4c72b0;stroke-dasharray:5.55,2.4;stroke-dashoffset:0;stroke-width:1.5;"/>
   </g>
   <g id="line2d_39">
    <path clip-path="url(#p329a47e99e)" d="M 654.304854 514.780805 
L 658.845005 471.061809 
L 663.385156 437.845531 
L 667.925306 418.67026 
L 672.465457 396.415182 
L 677.005608 381.639929 
L 681.545759 371.843024 
L 686.085909 364.298104 
L 690.62606 357.93934 
L 695.166211 352.563239 
L 699.706361 348.316974 
L 704.246512 345.170421 
L 708.786663 341.730609 
L 713.326813 338.764612 
L 717.866964 335.720924 
L 722.407115 333.0274 
L 726.947266 330.866247 
L 731.487416 328.023357 
L 736.027567 325.705714 
L 740.567718 323.656158 
L 745.107868 321.068235 
L 749.648019 319.090897 
L 754.18817 316.893081 
L 758.72832 314.629607 
L 763.268471 312.520973 
L 767.808622 310.536532 
L 772.348773 307.896613 
L 776.888923 305.779768 
L 781.429074 303.347771 
L 785.969225 301.122046 
L 790.509375 298.847083 
L 795.049526 296.190765 
L 799.589677 293.554146 
L 804.129827 291.301076 
L 808.669978 288.194465 
L 813.210129 285.869156 
L 817.750279 283.620451 
L 822.29043 281.035808 
L 826.830581 278.25419 
L 831.370732 275.349485 
L 835.910882 273.170805 
L 840.451033 270.197705 
L 844.991184 267.56656 
L 849.531334 264.372963 
L 854.071485 261.624163 
L 858.611636 258.758857 
L 863.151786 255.844836 
L 867.691937 252.85751 
L 872.232088 250.091768 
L 876.772239 246.373466 
L 881.312389 243.721514 
L 885.85254 240.94046 
L 890.392691 237.472738 
L 894.932841 234.358482 
L 899.472992 231.211929 
L 904.013143 228.242652 
L 908.553293 224.518334 
L 913.093444 221.862037 
L 917.633595 218.589097 
L 922.173746 215.690931 
L 926.713896 212.164675 
L 931.254047 208.780139 
L 935.794198 206.001257 
L 940.334348 202.862392 
L 944.874499 199.524358 
L 949.41465 196.659574 
L 953.9548 193.558981 
L 958.494951 190.188107 
L 963.035102 187.304731 
L 967.575253 184.599175 
L 972.115403 181.50514 
L 976.655554 178.449419 
L 981.195705 175.31164 
L 985.735855 172.307894 
L 990.276006 170.003935 
L 994.816157 166.65111 
L 999.356307 164.485027 
L 1003.896458 162.147141 
L 1008.436609 159.31244 
L 1012.976759 156.845995 
L 1017.51691 155.362736 
L 1022.057061 152.657179 
L 1026.597212 150.341688 
L 1031.137362 148.748461 
L 1035.677513 146.874008 
L 1040.217664 145.914345 
L 1044.757814 143.755908 
L 1049.297965 142.052129 
L 1053.838116 140.810154 
L 1058.378266 140.269594 
L 1062.918417 138.728301 
L 1067.458568 138.198688 
L 1071.998719 137.646095 
L 1076.538869 136.934276 
L 1081.07902 136.416152 
L 1085.619171 135.935214 
L 1090.159321 135.453189 
L 1094.699472 135.035172 
L 1099.239623 135.57686 
L 1103.779773 135.458119 
L 1108.319924 135.68244 
L 1112.860075 135.175263 
L 1117.400226 135.295633 
" style="fill:none;stroke:#dd8452;stroke-linecap:round;stroke-width:1.5;"/>
   </g>
   <g id="line2d_40">
    <path clip-path="url(#p329a47e99e)" d="M 654.304854 440.879495 
L 658.845005 369.927793 
L 663.385156 344.300504 
L 667.925306 333.337414 
L 672.465457 308.046585 
L 677.005608 289.456976 
L 681.545759 294.20952 
L 686.085909 281.900587 
L 690.62606 289.527085 
L 695.166211 248.128071 
L 699.706361 249.922535 
L 704.246512 278.199478 
L 708.786663 253.146988 
L 713.326813 243.58581 
L 717.866964 234.963948 
L 722.407115 254.240495 
L 726.947266 260.310847 
L 731.487416 228.543098 
L 736.027567 249.333739 
L 740.567718 225.192509 
L 745.107868 217.706186 
L 749.648019 221.154939 
L 754.18817 237.739759 
L 758.72832 214.355576 
L 763.268471 200.588598 
L 767.808622 265.105442 
L 772.348773 209.841371 
L 776.888923 205.158914 
L 781.429074 198.163265 
L 785.969225 216.150018 
L 790.509375 190.452663 
L 795.049526 192.583608 
L 799.589677 208.285203 
L 804.129827 195.036976 
L 808.669978 187.774974 
L 813.210129 177.050181 
L 817.750279 168.82087 
L 822.29043 175.914621 
L 826.830581 168.919013 
L 831.370732 178.53624 
L 835.910882 157.871797 
L 840.451033 161.657011 
L 844.991184 159.722352 
L 849.531334 161.292515 
L 854.071485 144.483353 
L 858.611636 157.016628 
L 863.151786 143.165546 
L 867.691937 142.91319 
L 872.232088 150.679903 
L 876.772239 140.137358 
L 881.312389 127.169521 
L 885.85254 127.071378 
L 890.392691 130.506093 
L 894.932841 125.164754 
L 899.472992 120.482297 
L 904.013143 115.211025 
L 908.553293 113.262369 
L 913.093444 109.44912 
L 917.633595 102.243188 
L 922.173746 105.327446 
L 926.713896 104.009638 
L 931.254047 98.191622 
L 935.794198 94.182087 
L 940.334348 87.929467 
L 944.874499 91.181976 
L 949.41465 89.135135 
L 953.9548 81.985273 
L 958.494951 86.331268 
L 963.035102 75.886907 
L 967.575253 75.760729 
L 972.115403 72.157763 
L 976.655554 68.288445 
L 981.195705 68.232333 
L 985.735855 66.325709 
L 990.276006 62.105933 
L 994.816157 60.115162 
L 999.356307 57.759938 
L 1003.896458 56.414095 
L 1008.436609 53.48405 
L 1012.976759 51.829782 
L 1017.51691 53.399945 
L 1022.057061 50.596079 
L 1026.597212 49.572658 
L 1031.137362 46.951039 
L 1035.677513 46.081832 
L 1040.217664 45.226663 
L 1044.757814 44.721993 
L 1049.297965 44.175208 
L 1053.838116 43.263969 
L 1058.378266 42.226552 
L 1062.918417 41.848018 
L 1067.458568 41.301275 
L 1071.998719 41.259201 
L 1076.538869 40.656388 
L 1081.07902 40.516172 
L 1085.619171 40.235781 
L 1090.159321 40.235781 
L 1094.699472 40.333924 
L 1099.239623 40.095606 
L 1103.779773 40.375997 
L 1108.319924 40.025498 
L 1112.860075 39.997463 
L 1117.400226 40.123641 
" style="fill:none;stroke:#dd8452;stroke-dasharray:5.55,2.4;stroke-dashoffset:0;stroke-width:1.5;"/>
   </g>
   <g id="patch_8">
    <path d="M 631.150086 538.519973 
L 631.150086 16.258296 
" style="fill:none;stroke:#ffffff;stroke-linecap:square;stroke-linejoin:miter;stroke-width:1.25;"/>
   </g>
   <g id="patch_9">
    <path d="M 1140.554994 538.519973 
L 1140.554994 16.258296 
" style="fill:none;stroke:#ffffff;stroke-linecap:square;stroke-linejoin:miter;stroke-width:1.25;"/>
   </g>
   <g id="patch_10">
    <path d="M 631.150086 538.519973 
L 1140.554994 538.519973 
" style="fill:none;stroke:#ffffff;stroke-linecap:square;stroke-linejoin:miter;stroke-width:1.25;"/>
   </g>
   <g id="patch_11">
    <path d="M 631.150086 16.258296 
L 1140.554994 16.258296 
" style="fill:none;stroke:#ffffff;stroke-linecap:square;stroke-linejoin:miter;stroke-width:1.25;"/>
   </g>
   <g id="text_35">
    <!-- 0.7637 -->
    <g style="fill:#4c72b0;" transform="translate(1049.587457 40.708096)scale(0.09 -0.09)">
     <use xlink:href="#DejaVuSans-48"/>
     <use x="63.623047" xlink:href="#DejaVuSans-46"/>
     <use x="95.410156" xlink:href="#DejaVuSans-55"/>
     <use x="159.033203" xlink:href="#DejaVuSans-54"/>
     <use x="222.65625" xlink:href="#DejaVuSans-51"/>
     <use x="286.279297" xlink:href="#DejaVuSans-55"/>
    </g>
   </g>
   <g id="text_36">
    <!-- 0.6318 -->
    <g style="fill:#dd8452;" transform="translate(1063.20791 133.163453)scale(0.09 -0.09)">
     <use xlink:href="#DejaVuSans-48"/>
     <use x="63.623047" xlink:href="#DejaVuSans-46"/>
     <use x="95.410156" xlink:href="#DejaVuSans-54"/>
     <use x="159.033203" xlink:href="#DejaVuSans-51"/>
     <use x="222.65625" xlink:href="#DejaVuSans-49"/>
     <use x="286.279297" xlink:href="#DejaVuSans-56"/>
    </g>
   </g>
   <g id="text_37">
    <!-- 0.7674 -->
    <g style="fill:#dd8452;" transform="translate(1081.368512 38.125745)scale(0.09 -0.09)">
     <use xlink:href="#DejaVuSans-48"/>
     <use x="63.623047" xlink:href="#DejaVuSans-46"/>
     <use x="95.410156" xlink:href="#DejaVuSans-55"/>
     <use x="159.033203" xlink:href="#DejaVuSans-54"/>
     <use x="222.65625" xlink:href="#DejaVuSans-55"/>
     <use x="286.279297" xlink:href="#DejaVuSans-52"/>
    </g>
   </g>
   <g id="legend_2">
    <g id="line2d_41">
     <path d="M 674.821869 489.272629 
L 696.821869 489.272629 
" style="fill:none;stroke:#4c72b0;stroke-dasharray:5.55,2.4;stroke-dashoffset:0;stroke-width:1.5;"/>
    </g>
    <g id="line2d_42"/>
    <g id="text_38">
     <!-- timm, resnet50 val_accuracy -->
     <g style="fill:#262626;" transform="translate(705.621869 493.122629)scale(0.11 -0.11)">
      <defs>
       <path d="M 32.171875 -5.078125 
Q 28.375 -14.84375 24.75 -17.8125 
Q 21.140625 -20.796875 15.09375 -20.796875 
L 7.90625 -20.796875 
L 7.90625 -13.28125 
L 13.1875 -13.28125 
Q 16.890625 -13.28125 18.9375 -11.515625 
Q 21 -9.765625 23.484375 -3.21875 
L 25.09375 0.875 
L 2.984375 54.6875 
L 12.5 54.6875 
L 29.59375 11.921875 
L 46.6875 54.6875 
L 56.203125 54.6875 
z
" id="DejaVuSans-121"/>
      </defs>
      <use xlink:href="#DejaVuSans-116"/>
      <use x="39.208984" xlink:href="#DejaVuSans-105"/>
      <use x="66.992188" xlink:href="#DejaVuSans-109"/>
      <use x="164.404297" xlink:href="#DejaVuSans-109"/>
      <use x="261.816406" xlink:href="#DejaVuSans-44"/>
      <use x="293.603516" xlink:href="#DejaVuSans-32"/>
      <use x="325.390625" xlink:href="#DejaVuSans-114"/>
      <use x="364.253906" xlink:href="#DejaVuSans-101"/>
      <use x="425.777344" xlink:href="#DejaVuSans-115"/>
      <use x="477.876953" xlink:href="#DejaVuSans-110"/>
      <use x="541.255859" xlink:href="#DejaVuSans-101"/>
      <use x="602.779297" xlink:href="#DejaVuSans-116"/>
      <use x="641.988281" xlink:href="#DejaVuSans-53"/>
      <use x="705.611328" xlink:href="#DejaVuSans-48"/>
      <use x="769.234375" xlink:href="#DejaVuSans-32"/>
      <use x="801.021484" xlink:href="#DejaVuSans-118"/>
      <use x="860.201172" xlink:href="#DejaVuSans-97"/>
      <use x="921.480469" xlink:href="#DejaVuSans-108"/>
      <use x="949.263672" xlink:href="#DejaVuSans-95"/>
      <use x="999.263672" xlink:href="#DejaVuSans-97"/>
      <use x="1060.542969" xlink:href="#DejaVuSans-99"/>
      <use x="1115.523438" xlink:href="#DejaVuSans-99"/>
      <use x="1170.503906" xlink:href="#DejaVuSans-117"/>
      <use x="1233.882812" xlink:href="#DejaVuSans-114"/>
      <use x="1274.996094" xlink:href="#DejaVuSans-97"/>
      <use x="1336.275391" xlink:href="#DejaVuSans-99"/>
      <use x="1391.255859" xlink:href="#DejaVuSans-121"/>
     </g>
    </g>
    <g id="line2d_43">
     <path d="M 674.821869 505.724504 
L 696.821869 505.724504 
" style="fill:none;stroke:#dd8452;stroke-linecap:round;stroke-width:1.5;"/>
    </g>
    <g id="line2d_44"/>
    <g id="text_39">
     <!-- aotnet, BCE, mixup, timm_cutmix, AA, lamb no bn, global clip 1 accuracy -->
     <g style="fill:#262626;" transform="translate(705.621869 509.574504)scale(0.11 -0.11)">
      <use xlink:href="#DejaVuSans-97"/>
      <use x="61.279297" xlink:href="#DejaVuSans-111"/>
      <use x="122.460938" xlink:href="#DejaVuSans-116"/>
      <use x="161.669922" xlink:href="#DejaVuSans-110"/>
      <use x="225.048828" xlink:href="#DejaVuSans-101"/>
      <use x="286.572266" xlink:href="#DejaVuSans-116"/>
      <use x="325.78125" xlink:href="#DejaVuSans-44"/>
      <use x="357.568359" xlink:href="#DejaVuSans-32"/>
      <use x="389.355469" xlink:href="#DejaVuSans-66"/>
      <use x="456.208984" xlink:href="#DejaVuSans-67"/>
      <use x="526.033203" xlink:href="#DejaVuSans-69"/>
      <use x="589.216797" xlink:href="#DejaVuSans-44"/>
      <use x="621.003906" xlink:href="#DejaVuSans-32"/>
      <use x="652.791016" xlink:href="#DejaVuSans-109"/>
      <use x="750.203125" xlink:href="#DejaVuSans-105"/>
      <use x="777.986328" xlink:href="#DejaVuSans-120"/>
      <use x="837.166016" xlink:href="#DejaVuSans-117"/>
      <use x="900.544922" xlink:href="#DejaVuSans-112"/>
      <use x="964.021484" xlink:href="#DejaVuSans-44"/>
      <use x="995.808594" xlink:href="#DejaVuSans-32"/>
      <use x="1027.595703" xlink:href="#DejaVuSans-116"/>
      <use x="1066.804688" xlink:href="#DejaVuSans-105"/>
      <use x="1094.587891" xlink:href="#DejaVuSans-109"/>
      <use x="1192" xlink:href="#DejaVuSans-109"/>
      <use x="1289.412109" xlink:href="#DejaVuSans-95"/>
      <use x="1339.412109" xlink:href="#DejaVuSans-99"/>
      <use x="1394.392578" xlink:href="#DejaVuSans-117"/>
      <use x="1457.771484" xlink:href="#DejaVuSans-116"/>
      <use x="1496.980469" xlink:href="#DejaVuSans-109"/>
      <use x="1594.392578" xlink:href="#DejaVuSans-105"/>
      <use x="1622.175781" xlink:href="#DejaVuSans-120"/>
      <use x="1681.355469" xlink:href="#DejaVuSans-44"/>
      <use x="1713.142578" xlink:href="#DejaVuSans-32"/>
      <use x="1744.929688" xlink:href="#DejaVuSans-65"/>
      <use x="1816.087891" xlink:href="#DejaVuSans-65"/>
      <use x="1884.496094" xlink:href="#DejaVuSans-44"/>
      <use x="1916.283203" xlink:href="#DejaVuSans-32"/>
      <use x="1948.070312" xlink:href="#DejaVuSans-108"/>
      <use x="1975.853516" xlink:href="#DejaVuSans-97"/>
      <use x="2037.132812" xlink:href="#DejaVuSans-109"/>
      <use x="2134.544922" xlink:href="#DejaVuSans-98"/>
      <use x="2198.021484" xlink:href="#DejaVuSans-32"/>
      <use x="2229.808594" xlink:href="#DejaVuSans-110"/>
      <use x="2293.1875" xlink:href="#DejaVuSans-111"/>
      <use x="2354.369141" xlink:href="#DejaVuSans-32"/>
      <use x="2386.15625" xlink:href="#DejaVuSans-98"/>
      <use x="2449.632812" xlink:href="#DejaVuSans-110"/>
      <use x="2513.011719" xlink:href="#DejaVuSans-44"/>
      <use x="2544.798828" xlink:href="#DejaVuSans-32"/>
      <use x="2576.585938" xlink:href="#DejaVuSans-103"/>
      <use x="2640.0625" xlink:href="#DejaVuSans-108"/>
      <use x="2667.845703" xlink:href="#DejaVuSans-111"/>
      <use x="2729.027344" xlink:href="#DejaVuSans-98"/>
      <use x="2792.503906" xlink:href="#DejaVuSans-97"/>
      <use x="2853.783203" xlink:href="#DejaVuSans-108"/>
      <use x="2881.566406" xlink:href="#DejaVuSans-32"/>
      <use x="2913.353516" xlink:href="#DejaVuSans-99"/>
      <use x="2968.333984" xlink:href="#DejaVuSans-108"/>
      <use x="2996.117188" xlink:href="#DejaVuSans-105"/>
      <use x="3023.900391" xlink:href="#DejaVuSans-112"/>
      <use x="3087.376953" xlink:href="#DejaVuSans-32"/>
      <use x="3119.164062" xlink:href="#DejaVuSans-49"/>
      <use x="3182.787109" xlink:href="#DejaVuSans-32"/>
      <use x="3214.574219" xlink:href="#DejaVuSans-97"/>
      <use x="3275.853516" xlink:href="#DejaVuSans-99"/>
      <use x="3330.833984" xlink:href="#DejaVuSans-99"/>
      <use x="3385.814453" xlink:href="#DejaVuSans-117"/>
      <use x="3449.193359" xlink:href="#DejaVuSans-114"/>
      <use x="3490.306641" xlink:href="#DejaVuSans-97"/>
      <use x="3551.585938" xlink:href="#DejaVuSans-99"/>
      <use x="3606.566406" xlink:href="#DejaVuSans-121"/>
     </g>
    </g>
    <g id="line2d_45">
     <path d="M 674.821869 522.176379 
L 696.821869 522.176379 
" style="fill:none;stroke:#dd8452;stroke-dasharray:5.55,2.4;stroke-dashoffset:0;stroke-width:1.5;"/>
    </g>
    <g id="line2d_46"/>
    <g id="text_40">
     <!-- aotnet, BCE, mixup, timm_cutmix, AA, lamb no bn, global clip 1 val_accuracy -->
     <g style="fill:#262626;" transform="translate(705.621869 526.026379)scale(0.11 -0.11)">
      <use xlink:href="#DejaVuSans-97"/>
      <use x="61.279297" xlink:href="#DejaVuSans-111"/>
      <use x="122.460938" xlink:href="#DejaVuSans-116"/>
      <use x="161.669922" xlink:href="#DejaVuSans-110"/>
      <use x="225.048828" xlink:href="#DejaVuSans-101"/>
      <use x="286.572266" xlink:href="#DejaVuSans-116"/>
      <use x="325.78125" xlink:href="#DejaVuSans-44"/>
      <use x="357.568359" xlink:href="#DejaVuSans-32"/>
      <use x="389.355469" xlink:href="#DejaVuSans-66"/>
      <use x="456.208984" xlink:href="#DejaVuSans-67"/>
      <use x="526.033203" xlink:href="#DejaVuSans-69"/>
      <use x="589.216797" xlink:href="#DejaVuSans-44"/>
      <use x="621.003906" xlink:href="#DejaVuSans-32"/>
      <use x="652.791016" xlink:href="#DejaVuSans-109"/>
      <use x="750.203125" xlink:href="#DejaVuSans-105"/>
      <use x="777.986328" xlink:href="#DejaVuSans-120"/>
      <use x="837.166016" xlink:href="#DejaVuSans-117"/>
      <use x="900.544922" xlink:href="#DejaVuSans-112"/>
      <use x="964.021484" xlink:href="#DejaVuSans-44"/>
      <use x="995.808594" xlink:href="#DejaVuSans-32"/>
      <use x="1027.595703" xlink:href="#DejaVuSans-116"/>
      <use x="1066.804688" xlink:href="#DejaVuSans-105"/>
      <use x="1094.587891" xlink:href="#DejaVuSans-109"/>
      <use x="1192" xlink:href="#DejaVuSans-109"/>
      <use x="1289.412109" xlink:href="#DejaVuSans-95"/>
      <use x="1339.412109" xlink:href="#DejaVuSans-99"/>
      <use x="1394.392578" xlink:href="#DejaVuSans-117"/>
      <use x="1457.771484" xlink:href="#DejaVuSans-116"/>
      <use x="1496.980469" xlink:href="#DejaVuSans-109"/>
      <use x="1594.392578" xlink:href="#DejaVuSans-105"/>
      <use x="1622.175781" xlink:href="#DejaVuSans-120"/>
      <use x="1681.355469" xlink:href="#DejaVuSans-44"/>
      <use x="1713.142578" xlink:href="#DejaVuSans-32"/>
      <use x="1744.929688" xlink:href="#DejaVuSans-65"/>
      <use x="1816.087891" xlink:href="#DejaVuSans-65"/>
      <use x="1884.496094" xlink:href="#DejaVuSans-44"/>
      <use x="1916.283203" xlink:href="#DejaVuSans-32"/>
      <use x="1948.070312" xlink:href="#DejaVuSans-108"/>
      <use x="1975.853516" xlink:href="#DejaVuSans-97"/>
      <use x="2037.132812" xlink:href="#DejaVuSans-109"/>
      <use x="2134.544922" xlink:href="#DejaVuSans-98"/>
      <use x="2198.021484" xlink:href="#DejaVuSans-32"/>
      <use x="2229.808594" xlink:href="#DejaVuSans-110"/>
      <use x="2293.1875" xlink:href="#DejaVuSans-111"/>
      <use x="2354.369141" xlink:href="#DejaVuSans-32"/>
      <use x="2386.15625" xlink:href="#DejaVuSans-98"/>
      <use x="2449.632812" xlink:href="#DejaVuSans-110"/>
      <use x="2513.011719" xlink:href="#DejaVuSans-44"/>
      <use x="2544.798828" xlink:href="#DejaVuSans-32"/>
      <use x="2576.585938" xlink:href="#DejaVuSans-103"/>
      <use x="2640.0625" xlink:href="#DejaVuSans-108"/>
      <use x="2667.845703" xlink:href="#DejaVuSans-111"/>
      <use x="2729.027344" xlink:href="#DejaVuSans-98"/>
      <use x="2792.503906" xlink:href="#DejaVuSans-97"/>
      <use x="2853.783203" xlink:href="#DejaVuSans-108"/>
      <use x="2881.566406" xlink:href="#DejaVuSans-32"/>
      <use x="2913.353516" xlink:href="#DejaVuSans-99"/>
      <use x="2968.333984" xlink:href="#DejaVuSans-108"/>
      <use x="2996.117188" xlink:href="#DejaVuSans-105"/>
      <use x="3023.900391" xlink:href="#DejaVuSans-112"/>
      <use x="3087.376953" xlink:href="#DejaVuSans-32"/>
      <use x="3119.164062" xlink:href="#DejaVuSans-49"/>
      <use x="3182.787109" xlink:href="#DejaVuSans-32"/>
      <use x="3214.574219" xlink:href="#DejaVuSans-118"/>
      <use x="3273.753906" xlink:href="#DejaVuSans-97"/>
      <use x="3335.033203" xlink:href="#DejaVuSans-108"/>
      <use x="3362.816406" xlink:href="#DejaVuSans-95"/>
      <use x="3412.816406" xlink:href="#DejaVuSans-97"/>
      <use x="3474.095703" xlink:href="#DejaVuSans-99"/>
      <use x="3529.076172" xlink:href="#DejaVuSans-99"/>
      <use x="3584.056641" xlink:href="#DejaVuSans-117"/>
      <use x="3647.435547" xlink:href="#DejaVuSans-114"/>
      <use x="3688.548828" xlink:href="#DejaVuSans-97"/>
      <use x="3749.828125" xlink:href="#DejaVuSans-99"/>
      <use x="3804.808594" xlink:href="#DejaVuSans-121"/>
     </g>
    </g>
   </g>
  </g>
  <g id="axes_3">
   <g id="patch_12">
    <path d="M 1204.915092 538.519973 
L 1714.32 538.519973 
L 1714.32 16.258296 
L 1204.915092 16.258296 
z
" style="fill:#eaeaf2;"/>
   </g>
   <g id="matplotlib.axis_5">
    <g id="xtick_13">
     <g id="line2d_47">
      <path clip-path="url(#p9f08f069e9)" d="M 1218.989559 538.519973 
L 1218.989559 16.258296 
" style="fill:none;stroke:#ffffff;stroke-linecap:round;"/>
     </g>
     <g id="text_41">
      <!-- 0 -->
      <g style="fill:#262626;" transform="translate(1215.490184 559.878254)scale(0.11 -0.11)">
       <use xlink:href="#DejaVuSans-48"/>
      </g>
     </g>
    </g>
    <g id="xtick_14">
     <g id="line2d_48">
      <path clip-path="url(#p9f08f069e9)" d="M 1309.792573 538.519973 
L 1309.792573 16.258296 
" style="fill:none;stroke:#ffffff;stroke-linecap:round;"/>
     </g>
     <g id="text_42">
      <!-- 20 -->
      <g style="fill:#262626;" transform="translate(1302.793823 559.878254)scale(0.11 -0.11)">
       <use xlink:href="#DejaVuSans-50"/>
       <use x="63.623047" xlink:href="#DejaVuSans-48"/>
      </g>
     </g>
    </g>
    <g id="xtick_15">
     <g id="line2d_49">
      <path clip-path="url(#p9f08f069e9)" d="M 1400.595587 538.519973 
L 1400.595587 16.258296 
" style="fill:none;stroke:#ffffff;stroke-linecap:round;"/>
     </g>
     <g id="text_43">
      <!-- 40 -->
      <g style="fill:#262626;" transform="translate(1393.596837 559.878254)scale(0.11 -0.11)">
       <use xlink:href="#DejaVuSans-52"/>
       <use x="63.623047" xlink:href="#DejaVuSans-48"/>
      </g>
     </g>
    </g>
    <g id="xtick_16">
     <g id="line2d_50">
      <path clip-path="url(#p9f08f069e9)" d="M 1491.398601 538.519973 
L 1491.398601 16.258296 
" style="fill:none;stroke:#ffffff;stroke-linecap:round;"/>
     </g>
     <g id="text_44">
      <!-- 60 -->
      <g style="fill:#262626;" transform="translate(1484.399851 559.878254)scale(0.11 -0.11)">
       <use xlink:href="#DejaVuSans-54"/>
       <use x="63.623047" xlink:href="#DejaVuSans-48"/>
      </g>
     </g>
    </g>
    <g id="xtick_17">
     <g id="line2d_51">
      <path clip-path="url(#p9f08f069e9)" d="M 1582.201615 538.519973 
L 1582.201615 16.258296 
" style="fill:none;stroke:#ffffff;stroke-linecap:round;"/>
     </g>
     <g id="text_45">
      <!-- 80 -->
      <g style="fill:#262626;" transform="translate(1575.202865 559.878254)scale(0.11 -0.11)">
       <use xlink:href="#DejaVuSans-56"/>
       <use x="63.623047" xlink:href="#DejaVuSans-48"/>
      </g>
     </g>
    </g>
    <g id="xtick_18">
     <g id="line2d_52">
      <path clip-path="url(#p9f08f069e9)" d="M 1673.004629 538.519973 
L 1673.004629 16.258296 
" style="fill:none;stroke:#ffffff;stroke-linecap:round;"/>
     </g>
     <g id="text_46">
      <!-- 100 -->
      <g style="fill:#262626;" transform="translate(1662.506504 559.878254)scale(0.11 -0.11)">
       <use xlink:href="#DejaVuSans-49"/>
       <use x="63.623047" xlink:href="#DejaVuSans-48"/>
       <use x="127.246094" xlink:href="#DejaVuSans-48"/>
      </g>
     </g>
    </g>
   </g>
   <g id="matplotlib.axis_6">
    <g id="ytick_17">
     <g id="line2d_53">
      <path clip-path="url(#p9f08f069e9)" d="M 1204.915092 514.900266 
L 1714.32 514.900266 
" style="fill:none;stroke:#ffffff;stroke-linecap:round;"/>
     </g>
     <g id="text_47">
      <!-- 0.0000 -->
      <g style="fill:#262626;" transform="translate(1153.425404 519.079407)scale(0.11 -0.11)">
       <use xlink:href="#DejaVuSans-48"/>
       <use x="63.623047" xlink:href="#DejaVuSans-46"/>
       <use x="95.410156" xlink:href="#DejaVuSans-48"/>
       <use x="159.033203" xlink:href="#DejaVuSans-48"/>
       <use x="222.65625" xlink:href="#DejaVuSans-48"/>
       <use x="286.279297" xlink:href="#DejaVuSans-48"/>
      </g>
     </g>
    </g>
    <g id="ytick_18">
     <g id="line2d_54">
      <path clip-path="url(#p9f08f069e9)" d="M 1204.915092 455.16982 
L 1714.32 455.16982 
" style="fill:none;stroke:#ffffff;stroke-linecap:round;"/>
     </g>
     <g id="text_48">
      <!-- 0.0005 -->
      <g style="fill:#262626;" transform="translate(1153.425404 459.348961)scale(0.11 -0.11)">
       <use xlink:href="#DejaVuSans-48"/>
       <use x="63.623047" xlink:href="#DejaVuSans-46"/>
       <use x="95.410156" xlink:href="#DejaVuSans-48"/>
       <use x="159.033203" xlink:href="#DejaVuSans-48"/>
       <use x="222.65625" xlink:href="#DejaVuSans-48"/>
       <use x="286.279297" xlink:href="#DejaVuSans-53"/>
      </g>
     </g>
    </g>
    <g id="ytick_19">
     <g id="line2d_55">
      <path clip-path="url(#p9f08f069e9)" d="M 1204.915092 395.439374 
L 1714.32 395.439374 
" style="fill:none;stroke:#ffffff;stroke-linecap:round;"/>
     </g>
     <g id="text_49">
      <!-- 0.0010 -->
      <g style="fill:#262626;" transform="translate(1153.425404 399.618514)scale(0.11 -0.11)">
       <use xlink:href="#DejaVuSans-48"/>
       <use x="63.623047" xlink:href="#DejaVuSans-46"/>
       <use x="95.410156" xlink:href="#DejaVuSans-48"/>
       <use x="159.033203" xlink:href="#DejaVuSans-48"/>
       <use x="222.65625" xlink:href="#DejaVuSans-49"/>
       <use x="286.279297" xlink:href="#DejaVuSans-48"/>
      </g>
     </g>
    </g>
    <g id="ytick_20">
     <g id="line2d_56">
      <path clip-path="url(#p9f08f069e9)" d="M 1204.915092 335.708927 
L 1714.32 335.708927 
" style="fill:none;stroke:#ffffff;stroke-linecap:round;"/>
     </g>
     <g id="text_50">
      <!-- 0.0015 -->
      <g style="fill:#262626;" transform="translate(1153.425404 339.888068)scale(0.11 -0.11)">
       <use xlink:href="#DejaVuSans-48"/>
       <use x="63.623047" xlink:href="#DejaVuSans-46"/>
       <use x="95.410156" xlink:href="#DejaVuSans-48"/>
       <use x="159.033203" xlink:href="#DejaVuSans-48"/>
       <use x="222.65625" xlink:href="#DejaVuSans-49"/>
       <use x="286.279297" xlink:href="#DejaVuSans-53"/>
      </g>
     </g>
    </g>
    <g id="ytick_21">
     <g id="line2d_57">
      <path clip-path="url(#p9f08f069e9)" d="M 1204.915092 275.978481 
L 1714.32 275.978481 
" style="fill:none;stroke:#ffffff;stroke-linecap:round;"/>
     </g>
     <g id="text_51">
      <!-- 0.0020 -->
      <g style="fill:#262626;" transform="translate(1153.425404 280.157621)scale(0.11 -0.11)">
       <use xlink:href="#DejaVuSans-48"/>
       <use x="63.623047" xlink:href="#DejaVuSans-46"/>
       <use x="95.410156" xlink:href="#DejaVuSans-48"/>
       <use x="159.033203" xlink:href="#DejaVuSans-48"/>
       <use x="222.65625" xlink:href="#DejaVuSans-50"/>
       <use x="286.279297" xlink:href="#DejaVuSans-48"/>
      </g>
     </g>
    </g>
    <g id="ytick_22">
     <g id="line2d_58">
      <path clip-path="url(#p9f08f069e9)" d="M 1204.915092 216.248034 
L 1714.32 216.248034 
" style="fill:none;stroke:#ffffff;stroke-linecap:round;"/>
     </g>
     <g id="text_52">
      <!-- 0.0025 -->
      <g style="fill:#262626;" transform="translate(1153.425404 220.427175)scale(0.11 -0.11)">
       <use xlink:href="#DejaVuSans-48"/>
       <use x="63.623047" xlink:href="#DejaVuSans-46"/>
       <use x="95.410156" xlink:href="#DejaVuSans-48"/>
       <use x="159.033203" xlink:href="#DejaVuSans-48"/>
       <use x="222.65625" xlink:href="#DejaVuSans-50"/>
       <use x="286.279297" xlink:href="#DejaVuSans-53"/>
      </g>
     </g>
    </g>
    <g id="ytick_23">
     <g id="line2d_59">
      <path clip-path="url(#p9f08f069e9)" d="M 1204.915092 156.517588 
L 1714.32 156.517588 
" style="fill:none;stroke:#ffffff;stroke-linecap:round;"/>
     </g>
     <g id="text_53">
      <!-- 0.0030 -->
      <g style="fill:#262626;" transform="translate(1153.425404 160.696729)scale(0.11 -0.11)">
       <use xlink:href="#DejaVuSans-48"/>
       <use x="63.623047" xlink:href="#DejaVuSans-46"/>
       <use x="95.410156" xlink:href="#DejaVuSans-48"/>
       <use x="159.033203" xlink:href="#DejaVuSans-48"/>
       <use x="222.65625" xlink:href="#DejaVuSans-51"/>
       <use x="286.279297" xlink:href="#DejaVuSans-48"/>
      </g>
     </g>
    </g>
    <g id="ytick_24">
     <g id="line2d_60">
      <path clip-path="url(#p9f08f069e9)" d="M 1204.915092 96.787142 
L 1714.32 96.787142 
" style="fill:none;stroke:#ffffff;stroke-linecap:round;"/>
     </g>
     <g id="text_54">
      <!-- 0.0035 -->
      <g style="fill:#262626;" transform="translate(1153.425404 100.966282)scale(0.11 -0.11)">
       <use xlink:href="#DejaVuSans-48"/>
       <use x="63.623047" xlink:href="#DejaVuSans-46"/>
       <use x="95.410156" xlink:href="#DejaVuSans-48"/>
       <use x="159.033203" xlink:href="#DejaVuSans-48"/>
       <use x="222.65625" xlink:href="#DejaVuSans-51"/>
       <use x="286.279297" xlink:href="#DejaVuSans-53"/>
      </g>
     </g>
    </g>
    <g id="ytick_25">
     <g id="line2d_61">
      <path clip-path="url(#p9f08f069e9)" d="M 1204.915092 37.056695 
L 1714.32 37.056695 
" style="fill:none;stroke:#ffffff;stroke-linecap:round;"/>
     </g>
     <g id="text_55">
      <!-- 0.0040 -->
      <g style="fill:#262626;" transform="translate(1153.425404 41.235836)scale(0.11 -0.11)">
       <use xlink:href="#DejaVuSans-48"/>
       <use x="63.623047" xlink:href="#DejaVuSans-46"/>
       <use x="95.410156" xlink:href="#DejaVuSans-48"/>
       <use x="159.033203" xlink:href="#DejaVuSans-48"/>
       <use x="222.65625" xlink:href="#DejaVuSans-52"/>
       <use x="286.279297" xlink:href="#DejaVuSans-48"/>
      </g>
     </g>
    </g>
   </g>
   <g id="PathCollection_7">
    <g clip-path="url(#p9f08f069e9)">
     <use style="fill:#dd8452;stroke:#dd8452;" x="1241.690312" xlink:href="#m40ff1ddeb4" y="39.997463"/>
    </g>
   </g>
   <g id="line2d_62">
    <path clip-path="url(#p9f08f069e9)" d="M 1228.06986 316.59519 
L 1232.610011 223.415694 
L 1237.150162 130.236183 
L 1241.690312 39.997463 
L 1246.230463 41.287595 
L 1250.770614 42.809252 
L 1255.310764 44.560988 
L 1259.850915 46.541022 
L 1264.391066 48.747408 
L 1268.931217 51.178003 
L 1273.471367 53.830417 
L 1278.011518 56.701978 
L 1282.551669 59.78985 
L 1287.091819 63.091085 
L 1291.63197 66.602316 
L 1296.172121 70.320095 
L 1300.712271 74.240834 
L 1305.252422 78.360556 
L 1309.792573 82.675283 
L 1314.332724 87.180675 
L 1318.872874 91.872339 
L 1323.413025 96.745658 
L 1327.953176 101.795791 
L 1332.493326 107.01776 
L 1337.033477 112.406363 
L 1341.573628 117.956428 
L 1346.113778 123.662335 
L 1350.653929 129.518494 
L 1355.19408 135.519148 
L 1359.734231 141.658345 
L 1364.274381 147.930075 
L 1368.814532 154.328082 
L 1373.354683 160.84608 
L 1377.894833 167.477614 
L 1382.434984 174.216233 
L 1386.975135 181.055178 
L 1391.515285 187.987773 
L 1396.055436 195.007093 
L 1400.595587 202.106323 
L 1405.135738 209.278342 
L 1409.675888 216.516142 
L 1414.216039 223.812602 
L 1418.75619 231.160462 
L 1423.29634 238.552464 
L 1427.836491 245.98143 
L 1432.376642 253.439824 
L 1436.916792 260.920469 
L 1441.456943 268.415912 
L 1445.997094 275.918752 
L 1450.537244 283.421579 
L 1455.077395 290.916994 
L 1459.617546 298.397625 
L 1464.157697 305.856103 
L 1468.697847 313.285014 
L 1473.237998 320.677015 
L 1477.778149 328.024875 
L 1482.318299 335.321308 
L 1486.85845 342.559093 
L 1491.398601 349.73121 
L 1495.938751 356.83037 
L 1500.478902 363.849732 
L 1505.019053 370.782313 
L 1509.559204 377.621258 
L 1514.099354 384.359807 
L 1518.639505 390.991453 
L 1523.179656 397.50945 
L 1527.719806 403.907457 
L 1532.259957 410.179174 
L 1536.800108 416.318343 
L 1541.340258 422.318983 
L 1545.880409 428.175191 
L 1550.42056 433.881098 
L 1554.960711 439.431079 
L 1559.500861 444.819724 
L 1564.041012 450.041686 
L 1568.581163 455.091826 
L 1573.121313 459.965138 
L 1577.661464 464.656809 
L 1582.201615 469.162226 
L 1586.741765 473.476925 
L 1591.281916 477.596671 
L 1595.822067 481.517375 
L 1600.362217 485.23514 
L 1604.902368 488.746413 
L 1609.442519 492.047613 
L 1613.98267 495.135523 
L 1618.52282 498.007086 
L 1623.062971 500.659464 
L 1627.603122 503.090055 
L 1632.143272 505.296493 
L 1636.683423 507.276529 
L 1641.223574 509.028229 
L 1645.763724 510.549896 
L 1650.303875 511.840022 
L 1654.844026 512.897312 
L 1659.384177 513.72074 
L 1663.924327 514.309466 
L 1668.464478 514.662935 
L 1673.004629 514.780805 
L 1677.544779 514.780805 
L 1682.08493 514.780805 
L 1686.625081 514.780805 
L 1691.165231 514.780805 
" style="fill:none;stroke:#dd8452;stroke-linecap:round;stroke-width:1.5;"/>
   </g>
   <g id="patch_13">
    <path d="M 1204.915092 538.519973 
L 1204.915092 16.258296 
" style="fill:none;stroke:#ffffff;stroke-linecap:square;stroke-linejoin:miter;stroke-width:1.25;"/>
   </g>
   <g id="patch_14">
    <path d="M 1714.32 538.519973 
L 1714.32 16.258296 
" style="fill:none;stroke:#ffffff;stroke-linecap:square;stroke-linejoin:miter;stroke-width:1.25;"/>
   </g>
   <g id="patch_15">
    <path d="M 1204.915092 538.519973 
L 1714.32 538.519973 
" style="fill:none;stroke:#ffffff;stroke-linecap:square;stroke-linejoin:miter;stroke-width:1.25;"/>
   </g>
   <g id="patch_16">
    <path d="M 1204.915092 16.258296 
L 1714.32 16.258296 
" style="fill:none;stroke:#ffffff;stroke-linecap:square;stroke-linejoin:miter;stroke-width:1.25;"/>
   </g>
   <g id="text_56">
    <!-- 0.0040 -->
    <g style="fill:#dd8452;" transform="translate(1210.19875 38.125745)scale(0.09 -0.09)">
     <use xlink:href="#DejaVuSans-48"/>
     <use x="63.623047" xlink:href="#DejaVuSans-46"/>
     <use x="95.410156" xlink:href="#DejaVuSans-48"/>
     <use x="159.033203" xlink:href="#DejaVuSans-48"/>
     <use x="222.65625" xlink:href="#DejaVuSans-52"/>
     <use x="286.279297" xlink:href="#DejaVuSans-48"/>
    </g>
   </g>
   <g id="legend_3">
    <g id="line2d_63">
     <path d="M 1312.447031 30.666577 
L 1334.447031 30.666577 
" style="fill:none;stroke:#dd8452;stroke-linecap:round;stroke-width:1.5;"/>
    </g>
    <g id="line2d_64"/>
    <g id="text_57">
     <!-- aotnet, BCE, mixup, timm_cutmix, AA, lamb no bn, global clip 1 lr -->
     <g style="fill:#262626;" transform="translate(1343.247031 34.516577)scale(0.11 -0.11)">
      <use xlink:href="#DejaVuSans-97"/>
      <use x="61.279297" xlink:href="#DejaVuSans-111"/>
      <use x="122.460938" xlink:href="#DejaVuSans-116"/>
      <use x="161.669922" xlink:href="#DejaVuSans-110"/>
      <use x="225.048828" xlink:href="#DejaVuSans-101"/>
      <use x="286.572266" xlink:href="#DejaVuSans-116"/>
      <use x="325.78125" xlink:href="#DejaVuSans-44"/>
      <use x="357.568359" xlink:href="#DejaVuSans-32"/>
      <use x="389.355469" xlink:href="#DejaVuSans-66"/>
      <use x="456.208984" xlink:href="#DejaVuSans-67"/>
      <use x="526.033203" xlink:href="#DejaVuSans-69"/>
      <use x="589.216797" xlink:href="#DejaVuSans-44"/>
      <use x="621.003906" xlink:href="#DejaVuSans-32"/>
      <use x="652.791016" xlink:href="#DejaVuSans-109"/>
      <use x="750.203125" xlink:href="#DejaVuSans-105"/>
      <use x="777.986328" xlink:href="#DejaVuSans-120"/>
      <use x="837.166016" xlink:href="#DejaVuSans-117"/>
      <use x="900.544922" xlink:href="#DejaVuSans-112"/>
      <use x="964.021484" xlink:href="#DejaVuSans-44"/>
      <use x="995.808594" xlink:href="#DejaVuSans-32"/>
      <use x="1027.595703" xlink:href="#DejaVuSans-116"/>
      <use x="1066.804688" xlink:href="#DejaVuSans-105"/>
      <use x="1094.587891" xlink:href="#DejaVuSans-109"/>
      <use x="1192" xlink:href="#DejaVuSans-109"/>
      <use x="1289.412109" xlink:href="#DejaVuSans-95"/>
      <use x="1339.412109" xlink:href="#DejaVuSans-99"/>
      <use x="1394.392578" xlink:href="#DejaVuSans-117"/>
      <use x="1457.771484" xlink:href="#DejaVuSans-116"/>
      <use x="1496.980469" xlink:href="#DejaVuSans-109"/>
      <use x="1594.392578" xlink:href="#DejaVuSans-105"/>
      <use x="1622.175781" xlink:href="#DejaVuSans-120"/>
      <use x="1681.355469" xlink:href="#DejaVuSans-44"/>
      <use x="1713.142578" xlink:href="#DejaVuSans-32"/>
      <use x="1744.929688" xlink:href="#DejaVuSans-65"/>
      <use x="1816.087891" xlink:href="#DejaVuSans-65"/>
      <use x="1884.496094" xlink:href="#DejaVuSans-44"/>
      <use x="1916.283203" xlink:href="#DejaVuSans-32"/>
      <use x="1948.070312" xlink:href="#DejaVuSans-108"/>
      <use x="1975.853516" xlink:href="#DejaVuSans-97"/>
      <use x="2037.132812" xlink:href="#DejaVuSans-109"/>
      <use x="2134.544922" xlink:href="#DejaVuSans-98"/>
      <use x="2198.021484" xlink:href="#DejaVuSans-32"/>
      <use x="2229.808594" xlink:href="#DejaVuSans-110"/>
      <use x="2293.1875" xlink:href="#DejaVuSans-111"/>
      <use x="2354.369141" xlink:href="#DejaVuSans-32"/>
      <use x="2386.15625" xlink:href="#DejaVuSans-98"/>
      <use x="2449.632812" xlink:href="#DejaVuSans-110"/>
      <use x="2513.011719" xlink:href="#DejaVuSans-44"/>
      <use x="2544.798828" xlink:href="#DejaVuSans-32"/>
      <use x="2576.585938" xlink:href="#DejaVuSans-103"/>
      <use x="2640.0625" xlink:href="#DejaVuSans-108"/>
      <use x="2667.845703" xlink:href="#DejaVuSans-111"/>
      <use x="2729.027344" xlink:href="#DejaVuSans-98"/>
      <use x="2792.503906" xlink:href="#DejaVuSans-97"/>
      <use x="2853.783203" xlink:href="#DejaVuSans-108"/>
      <use x="2881.566406" xlink:href="#DejaVuSans-32"/>
      <use x="2913.353516" xlink:href="#DejaVuSans-99"/>
      <use x="2968.333984" xlink:href="#DejaVuSans-108"/>
      <use x="2996.117188" xlink:href="#DejaVuSans-105"/>
      <use x="3023.900391" xlink:href="#DejaVuSans-112"/>
      <use x="3087.376953" xlink:href="#DejaVuSans-32"/>
      <use x="3119.164062" xlink:href="#DejaVuSans-49"/>
      <use x="3182.787109" xlink:href="#DejaVuSans-32"/>
      <use x="3214.574219" xlink:href="#DejaVuSans-108"/>
      <use x="3242.357422" xlink:href="#DejaVuSans-114"/>
     </g>
    </g>
   </g>
  </g>
 </g>
 <defs>
  <clipPath id="p1ad947d467">
   <rect height="522.261676" width="509.404908" x="57.38508" y="16.258296"/>
  </clipPath>
  <clipPath id="p329a47e99e">
   <rect height="522.261676" width="509.404908" x="631.150086" y="16.258296"/>
  </clipPath>
  <clipPath id="p9f08f069e9">
   <rect height="522.261676" width="509.404908" x="1204.915092" y="16.258296"/>
  </clipPath>
 </defs>
</svg>
