<?xml version="1.0" encoding="utf-8" standalone="no"?>
<!DOCTYPE svg PUBLIC "-//W3C//DTD SVG 1.1//EN"
  "http://www.w3.org/Graphics/SVG/1.1/DTD/svg11.dtd">
<!-- Created with matplotlib (https://matplotlib.org/) -->
<svg height="431.28pt" version="1.1" viewBox="0 0 1152 431.28" width="1152pt" xmlns="http://www.w3.org/2000/svg" xmlns:xlink="http://www.w3.org/1999/xlink">
 <metadata>
  <rdf:RDF xmlns:cc="http://creativecommons.org/ns#" xmlns:dc="http://purl.org/dc/elements/1.1/" xmlns:rdf="http://www.w3.org/1999/02/22-rdf-syntax-ns#">
   <cc:Work>
    <dc:type rdf:resource="http://purl.org/dc/dcmitype/StillImage"/>
    <dc:date>2021-11-10T17:55:58.930508</dc:date>
    <dc:format>image/svg+xml</dc:format>
    <dc:creator>
     <cc:Agent>
      <dc:title>Matplotlib v3.3.2, https://matplotlib.org/</dc:title>
     </cc:Agent>
    </dc:creator>
   </cc:Work>
  </rdf:RDF>
 </metadata>
 <defs>
  <style type="text/css">*{stroke-linecap:butt;stroke-linejoin:round;}</style>
 </defs>
 <g id="figure_1">
  <g id="patch_1">
   <path d="M 0 431.28 
L 1152 431.28 
L 1152 0 
L 0 0 
z
" style="fill:#ffffff;"/>
  </g>
  <g id="axes_1">
   <g id="patch_2">
    <path d="M 17.304452 409.93562 
L 372.768865 409.93562 
L 372.768865 6.4692 
L 17.304452 6.4692 
z
" style="fill:#eaeaf2;"/>
   </g>
   <g id="matplotlib.axis_1">
    <g id="xtick_1">
     <g id="line2d_1">
      <path clip-path="url(#p5b4a7e7c7a)" d="M 33.461926 409.93562 
L 33.461926 6.4692 
" style="fill:none;stroke:#ffffff;stroke-linecap:round;stroke-width:0.5;"/>
     </g>
     <g id="text_1">
      <!-- 0 -->
      <g style="fill:#262626;" transform="translate(31.712238 423.61476)scale(0.055 -0.055)">
       <defs>
        <path d="M 31.78125 66.40625 
Q 24.171875 66.40625 20.328125 58.90625 
Q 16.5 51.421875 16.5 36.375 
Q 16.5 21.390625 20.328125 13.890625 
Q 24.171875 6.390625 31.78125 6.390625 
Q 39.453125 6.390625 43.28125 13.890625 
Q 47.125 21.390625 47.125 36.375 
Q 47.125 51.421875 43.28125 58.90625 
Q 39.453125 66.40625 31.78125 66.40625 
z
M 31.78125 74.21875 
Q 44.046875 74.21875 50.515625 64.515625 
Q 56.984375 54.828125 56.984375 36.375 
Q 56.984375 17.96875 50.515625 8.265625 
Q 44.046875 -1.421875 31.78125 -1.421875 
Q 19.53125 -1.421875 13.0625 8.265625 
Q 6.59375 17.96875 6.59375 36.375 
Q 6.59375 54.828125 13.0625 64.515625 
Q 19.53125 74.21875 31.78125 74.21875 
z
" id="DejaVuSans-48"/>
       </defs>
       <use xlink:href="#DejaVuSans-48"/>
      </g>
     </g>
    </g>
    <g id="xtick_2">
     <g id="line2d_2">
      <path clip-path="url(#p5b4a7e7c7a)" d="M 95.606054 409.93562 
L 95.606054 6.4692 
" style="fill:none;stroke:#ffffff;stroke-linecap:round;stroke-width:0.5;"/>
     </g>
     <g id="text_2">
      <!-- 20 -->
      <g style="fill:#262626;" transform="translate(92.106679 423.61476)scale(0.055 -0.055)">
       <defs>
        <path d="M 19.1875 8.296875 
L 53.609375 8.296875 
L 53.609375 0 
L 7.328125 0 
L 7.328125 8.296875 
Q 12.9375 14.109375 22.625 23.890625 
Q 32.328125 33.6875 34.8125 36.53125 
Q 39.546875 41.84375 41.421875 45.53125 
Q 43.3125 49.21875 43.3125 52.78125 
Q 43.3125 58.59375 39.234375 62.25 
Q 35.15625 65.921875 28.609375 65.921875 
Q 23.96875 65.921875 18.8125 64.3125 
Q 13.671875 62.703125 7.8125 59.421875 
L 7.8125 69.390625 
Q 13.765625 71.78125 18.9375 73 
Q 24.125 74.21875 28.421875 74.21875 
Q 39.75 74.21875 46.484375 68.546875 
Q 53.21875 62.890625 53.21875 53.421875 
Q 53.21875 48.921875 51.53125 44.890625 
Q 49.859375 40.875 45.40625 35.40625 
Q 44.1875 33.984375 37.640625 27.21875 
Q 31.109375 20.453125 19.1875 8.296875 
z
" id="DejaVuSans-50"/>
       </defs>
       <use xlink:href="#DejaVuSans-50"/>
       <use x="63.623047" xlink:href="#DejaVuSans-48"/>
      </g>
     </g>
    </g>
    <g id="xtick_3">
     <g id="line2d_3">
      <path clip-path="url(#p5b4a7e7c7a)" d="M 157.750182 409.93562 
L 157.750182 6.4692 
" style="fill:none;stroke:#ffffff;stroke-linecap:round;stroke-width:0.5;"/>
     </g>
     <g id="text_3">
      <!-- 40 -->
      <g style="fill:#262626;" transform="translate(154.250807 423.61476)scale(0.055 -0.055)">
       <defs>
        <path d="M 37.796875 64.3125 
L 12.890625 25.390625 
L 37.796875 25.390625 
z
M 35.203125 72.90625 
L 47.609375 72.90625 
L 47.609375 25.390625 
L 58.015625 25.390625 
L 58.015625 17.1875 
L 47.609375 17.1875 
L 47.609375 0 
L 37.796875 0 
L 37.796875 17.1875 
L 4.890625 17.1875 
L 4.890625 26.703125 
z
" id="DejaVuSans-52"/>
       </defs>
       <use xlink:href="#DejaVuSans-52"/>
       <use x="63.623047" xlink:href="#DejaVuSans-48"/>
      </g>
     </g>
    </g>
    <g id="xtick_4">
     <g id="line2d_4">
      <path clip-path="url(#p5b4a7e7c7a)" d="M 219.89431 409.93562 
L 219.89431 6.4692 
" style="fill:none;stroke:#ffffff;stroke-linecap:round;stroke-width:0.5;"/>
     </g>
     <g id="text_4">
      <!-- 60 -->
      <g style="fill:#262626;" transform="translate(216.394935 423.61476)scale(0.055 -0.055)">
       <defs>
        <path d="M 33.015625 40.375 
Q 26.375 40.375 22.484375 35.828125 
Q 18.609375 31.296875 18.609375 23.390625 
Q 18.609375 15.53125 22.484375 10.953125 
Q 26.375 6.390625 33.015625 6.390625 
Q 39.65625 6.390625 43.53125 10.953125 
Q 47.40625 15.53125 47.40625 23.390625 
Q 47.40625 31.296875 43.53125 35.828125 
Q 39.65625 40.375 33.015625 40.375 
z
M 52.59375 71.296875 
L 52.59375 62.3125 
Q 48.875 64.0625 45.09375 64.984375 
Q 41.3125 65.921875 37.59375 65.921875 
Q 27.828125 65.921875 22.671875 59.328125 
Q 17.53125 52.734375 16.796875 39.40625 
Q 19.671875 43.65625 24.015625 45.921875 
Q 28.375 48.1875 33.59375 48.1875 
Q 44.578125 48.1875 50.953125 41.515625 
Q 57.328125 34.859375 57.328125 23.390625 
Q 57.328125 12.15625 50.6875 5.359375 
Q 44.046875 -1.421875 33.015625 -1.421875 
Q 20.359375 -1.421875 13.671875 8.265625 
Q 6.984375 17.96875 6.984375 36.375 
Q 6.984375 53.65625 15.1875 63.9375 
Q 23.390625 74.21875 37.203125 74.21875 
Q 40.921875 74.21875 44.703125 73.484375 
Q 48.484375 72.75 52.59375 71.296875 
z
" id="DejaVuSans-54"/>
       </defs>
       <use xlink:href="#DejaVuSans-54"/>
       <use x="63.623047" xlink:href="#DejaVuSans-48"/>
      </g>
     </g>
    </g>
    <g id="xtick_5">
     <g id="line2d_5">
      <path clip-path="url(#p5b4a7e7c7a)" d="M 282.038438 409.93562 
L 282.038438 6.4692 
" style="fill:none;stroke:#ffffff;stroke-linecap:round;stroke-width:0.5;"/>
     </g>
     <g id="text_5">
      <!-- 80 -->
      <g style="fill:#262626;" transform="translate(278.539063 423.61476)scale(0.055 -0.055)">
       <defs>
        <path d="M 31.78125 34.625 
Q 24.75 34.625 20.71875 30.859375 
Q 16.703125 27.09375 16.703125 20.515625 
Q 16.703125 13.921875 20.71875 10.15625 
Q 24.75 6.390625 31.78125 6.390625 
Q 38.8125 6.390625 42.859375 10.171875 
Q 46.921875 13.96875 46.921875 20.515625 
Q 46.921875 27.09375 42.890625 30.859375 
Q 38.875 34.625 31.78125 34.625 
z
M 21.921875 38.8125 
Q 15.578125 40.375 12.03125 44.71875 
Q 8.5 49.078125 8.5 55.328125 
Q 8.5 64.0625 14.71875 69.140625 
Q 20.953125 74.21875 31.78125 74.21875 
Q 42.671875 74.21875 48.875 69.140625 
Q 55.078125 64.0625 55.078125 55.328125 
Q 55.078125 49.078125 51.53125 44.71875 
Q 48 40.375 41.703125 38.8125 
Q 48.828125 37.15625 52.796875 32.3125 
Q 56.78125 27.484375 56.78125 20.515625 
Q 56.78125 9.90625 50.3125 4.234375 
Q 43.84375 -1.421875 31.78125 -1.421875 
Q 19.734375 -1.421875 13.25 4.234375 
Q 6.78125 9.90625 6.78125 20.515625 
Q 6.78125 27.484375 10.78125 32.3125 
Q 14.796875 37.15625 21.921875 38.8125 
z
M 18.3125 54.390625 
Q 18.3125 48.734375 21.84375 45.5625 
Q 25.390625 42.390625 31.78125 42.390625 
Q 38.140625 42.390625 41.71875 45.5625 
Q 45.3125 48.734375 45.3125 54.390625 
Q 45.3125 60.0625 41.71875 63.234375 
Q 38.140625 66.40625 31.78125 66.40625 
Q 25.390625 66.40625 21.84375 63.234375 
Q 18.3125 60.0625 18.3125 54.390625 
z
" id="DejaVuSans-56"/>
       </defs>
       <use xlink:href="#DejaVuSans-56"/>
       <use x="63.623047" xlink:href="#DejaVuSans-48"/>
      </g>
     </g>
    </g>
    <g id="xtick_6">
     <g id="line2d_6">
      <path clip-path="url(#p5b4a7e7c7a)" d="M 344.182566 409.93562 
L 344.182566 6.4692 
" style="fill:none;stroke:#ffffff;stroke-linecap:round;stroke-width:0.5;"/>
     </g>
     <g id="text_6">
      <!-- 100 -->
      <g style="fill:#262626;" transform="translate(338.933504 423.61476)scale(0.055 -0.055)">
       <defs>
        <path d="M 12.40625 8.296875 
L 28.515625 8.296875 
L 28.515625 63.921875 
L 10.984375 60.40625 
L 10.984375 69.390625 
L 28.421875 72.90625 
L 38.28125 72.90625 
L 38.28125 8.296875 
L 54.390625 8.296875 
L 54.390625 0 
L 12.40625 0 
z
" id="DejaVuSans-49"/>
       </defs>
       <use xlink:href="#DejaVuSans-49"/>
       <use x="63.623047" xlink:href="#DejaVuSans-48"/>
       <use x="127.246094" xlink:href="#DejaVuSans-48"/>
      </g>
     </g>
    </g>
   </g>
   <g id="matplotlib.axis_2">
    <g id="ytick_1">
     <g id="line2d_7">
      <path clip-path="url(#p5b4a7e7c7a)" d="M 17.304452 390.137579 
L 372.768865 390.137579 
" style="fill:none;stroke:#ffffff;stroke-linecap:round;stroke-width:0.5;"/>
     </g>
     <g id="text_7">
      <!-- 1 -->
      <g style="fill:#262626;" transform="translate(4.305077 392.227149)scale(0.055 -0.055)">
       <use xlink:href="#DejaVuSans-49"/>
      </g>
     </g>
    </g>
    <g id="ytick_2">
     <g id="line2d_8">
      <path clip-path="url(#p5b4a7e7c7a)" d="M 17.304452 325.224022 
L 372.768865 325.224022 
" style="fill:none;stroke:#ffffff;stroke-linecap:round;stroke-width:0.5;"/>
     </g>
     <g id="text_8">
      <!-- 2 -->
      <g style="fill:#262626;" transform="translate(4.305077 327.313592)scale(0.055 -0.055)">
       <use xlink:href="#DejaVuSans-50"/>
      </g>
     </g>
    </g>
    <g id="ytick_3">
     <g id="line2d_9">
      <path clip-path="url(#p5b4a7e7c7a)" d="M 17.304452 260.310465 
L 372.768865 260.310465 
" style="fill:none;stroke:#ffffff;stroke-linecap:round;stroke-width:0.5;"/>
     </g>
     <g id="text_9">
      <!-- 3 -->
      <g style="fill:#262626;" transform="translate(4.305077 262.400035)scale(0.055 -0.055)">
       <defs>
        <path d="M 40.578125 39.3125 
Q 47.65625 37.796875 51.625 33 
Q 55.609375 28.21875 55.609375 21.1875 
Q 55.609375 10.40625 48.1875 4.484375 
Q 40.765625 -1.421875 27.09375 -1.421875 
Q 22.515625 -1.421875 17.65625 -0.515625 
Q 12.796875 0.390625 7.625 2.203125 
L 7.625 11.71875 
Q 11.71875 9.328125 16.59375 8.109375 
Q 21.484375 6.890625 26.8125 6.890625 
Q 36.078125 6.890625 40.9375 10.546875 
Q 45.796875 14.203125 45.796875 21.1875 
Q 45.796875 27.640625 41.28125 31.265625 
Q 36.765625 34.90625 28.71875 34.90625 
L 20.21875 34.90625 
L 20.21875 43.015625 
L 29.109375 43.015625 
Q 36.375 43.015625 40.234375 45.921875 
Q 44.09375 48.828125 44.09375 54.296875 
Q 44.09375 59.90625 40.109375 62.90625 
Q 36.140625 65.921875 28.71875 65.921875 
Q 24.65625 65.921875 20.015625 65.03125 
Q 15.375 64.15625 9.8125 62.3125 
L 9.8125 71.09375 
Q 15.4375 72.65625 20.34375 73.4375 
Q 25.25 74.21875 29.59375 74.21875 
Q 40.828125 74.21875 47.359375 69.109375 
Q 53.90625 64.015625 53.90625 55.328125 
Q 53.90625 49.265625 50.4375 45.09375 
Q 46.96875 40.921875 40.578125 39.3125 
z
" id="DejaVuSans-51"/>
       </defs>
       <use xlink:href="#DejaVuSans-51"/>
      </g>
     </g>
    </g>
    <g id="ytick_4">
     <g id="line2d_10">
      <path clip-path="url(#p5b4a7e7c7a)" d="M 17.304452 195.396908 
L 372.768865 195.396908 
" style="fill:none;stroke:#ffffff;stroke-linecap:round;stroke-width:0.5;"/>
     </g>
     <g id="text_10">
      <!-- 4 -->
      <g style="fill:#262626;" transform="translate(4.305077 197.486478)scale(0.055 -0.055)">
       <use xlink:href="#DejaVuSans-52"/>
      </g>
     </g>
    </g>
    <g id="ytick_5">
     <g id="line2d_11">
      <path clip-path="url(#p5b4a7e7c7a)" d="M 17.304452 130.483351 
L 372.768865 130.483351 
" style="fill:none;stroke:#ffffff;stroke-linecap:round;stroke-width:0.5;"/>
     </g>
     <g id="text_11">
      <!-- 5 -->
      <g style="fill:#262626;" transform="translate(4.305077 132.572921)scale(0.055 -0.055)">
       <defs>
        <path d="M 10.796875 72.90625 
L 49.515625 72.90625 
L 49.515625 64.59375 
L 19.828125 64.59375 
L 19.828125 46.734375 
Q 21.96875 47.46875 24.109375 47.828125 
Q 26.265625 48.1875 28.421875 48.1875 
Q 40.625 48.1875 47.75 41.5 
Q 54.890625 34.8125 54.890625 23.390625 
Q 54.890625 11.625 47.5625 5.09375 
Q 40.234375 -1.421875 26.90625 -1.421875 
Q 22.3125 -1.421875 17.546875 -0.640625 
Q 12.796875 0.140625 7.71875 1.703125 
L 7.71875 11.625 
Q 12.109375 9.234375 16.796875 8.0625 
Q 21.484375 6.890625 26.703125 6.890625 
Q 35.15625 6.890625 40.078125 11.328125 
Q 45.015625 15.765625 45.015625 23.390625 
Q 45.015625 31 40.078125 35.4375 
Q 35.15625 39.890625 26.703125 39.890625 
Q 22.75 39.890625 18.8125 39.015625 
Q 14.890625 38.140625 10.796875 36.28125 
z
" id="DejaVuSans-53"/>
       </defs>
       <use xlink:href="#DejaVuSans-53"/>
      </g>
     </g>
    </g>
    <g id="ytick_6">
     <g id="line2d_12">
      <path clip-path="url(#p5b4a7e7c7a)" d="M 17.304452 65.569794 
L 372.768865 65.569794 
" style="fill:none;stroke:#ffffff;stroke-linecap:round;stroke-width:0.5;"/>
     </g>
     <g id="text_12">
      <!-- 6 -->
      <g style="fill:#262626;" transform="translate(4.305077 67.659364)scale(0.055 -0.055)">
       <use xlink:href="#DejaVuSans-54"/>
      </g>
     </g>
    </g>
   </g>
   <g id="PathCollection_1">
    <defs>
     <path d="M -0 1.5 
L 1.5 -1.5 
L -1.5 -1.5 
z
" id="m3f6986cf8e" style="stroke:#4c72b0;"/>
    </defs>
    <g clip-path="url(#p5b4a7e7c7a)">
     <use style="fill:#4c72b0;stroke:#4c72b0;" x="344.182566" xlink:href="#m3f6986cf8e" y="324.004466"/>
    </g>
   </g>
   <g id="PathCollection_2">
    <g clip-path="url(#p5b4a7e7c7a)">
     <use style="fill:#4c72b0;stroke:#4c72b0;" x="347.289773" xlink:href="#m3f6986cf8e" y="391.596237"/>
    </g>
   </g>
   <g id="line2d_13">
    <path clip-path="url(#p5b4a7e7c7a)" d="M 33.461926 24.808583 
L 36.569132 48.971205 
L 39.676338 88.21701 
L 42.783545 128.686456 
L 45.890751 152.364413 
L 48.997958 169.679507 
L 52.105164 181.29977 
L 55.21237 187.192485 
L 58.319577 190.901359 
L 61.426783 193.561538 
L 64.53399 196.109528 
L 67.641196 197.9659 
L 70.748403 199.933532 
L 73.855609 201.421963 
L 76.962815 202.889501 
L 80.070022 204.058247 
L 83.177228 205.380289 
L 86.284435 206.385927 
L 89.391641 207.5604 
L 92.498847 210.396161 
L 95.606054 209.695845 
L 98.71326 211.98601 
L 101.820467 214.359006 
L 104.927673 215.182299 
L 108.034879 214.547202 
L 111.142086 215.97207 
L 114.249292 217.569596 
L 117.356499 218.377567 
L 120.463705 219.224168 
L 123.570911 221.045903 
L 126.678118 221.934801 
L 129.785324 223.881246 
L 132.892531 224.95978 
L 135.999737 224.532362 
L 139.106943 226.84811 
L 142.21415 228.072092 
L 145.321356 230.099372 
L 148.428563 230.250919 
L 151.535769 231.36641 
L 154.642975 233.804965 
L 157.750182 235.501804 
L 160.857388 236.982713 
L 163.964595 237.520617 
L 167.071801 238.608885 
L 170.179008 241.265196 
L 173.286214 243.048642 
L 176.39342 243.552467 
L 179.500627 245.818736 
L 182.607833 247.687102 
L 185.71504 249.062182 
L 188.822246 250.920968 
L 191.929452 252.313397 
L 195.036659 253.161964 
L 198.143865 255.56322 
L 201.251072 256.99592 
L 204.358278 258.411657 
L 207.465484 260.592387 
L 210.572691 261.604974 
L 213.679897 263.082262 
L 216.787104 266.668344 
L 219.89431 267.877051 
L 223.001516 270.209204 
L 226.108723 271.549679 
L 229.215929 271.583944 
L 232.323136 274.536461 
L 235.430342 275.998025 
L 238.537548 277.751693 
L 241.644755 280.900903 
L 244.751961 281.367538 
L 247.859168 282.60938 
L 250.966374 286.030884 
L 254.07358 287.346271 
L 257.180787 288.6208 
L 260.287993 290.632108 
L 263.3952 292.173995 
L 266.502406 294.199556 
L 269.609613 295.507824 
L 272.716819 297.156097 
L 275.824025 298.578412 
L 278.931232 301.07163 
L 282.038438 302.513322 
L 285.145645 303.053393 
L 288.252851 304.762335 
L 291.360057 306.71641 
L 294.467264 308.920804 
L 297.57447 309.209055 
L 300.681677 311.526041 
L 303.788883 313.04462 
L 306.896089 312.789349 
L 310.003296 316.302228 
L 313.110502 315.796607 
L 316.217709 316.866953 
L 319.324915 317.01508 
L 322.432121 318.444436 
L 325.539328 319.086684 
L 328.646534 320.892246 
L 331.753741 321.715818 
L 334.860947 321.575523 
L 337.968153 321.688517 
L 341.07536 321.843964 
L 344.182566 324.004466 
L 347.289773 322.269896 
L 350.396979 322.742226 
L 353.504185 322.638006 
L 356.611392 323.662418 
" style="fill:none;stroke:#4c72b0;stroke-linecap:round;stroke-width:0.75;"/>
   </g>
   <g id="line2d_14">
    <path clip-path="url(#p5b4a7e7c7a)" d="M 33.461926 69.22255 
L 36.569132 93.699749 
L 39.676338 174.476014 
L 42.783545 213.946957 
L 45.890751 229.64857 
L 48.997958 255.319804 
L 52.105164 259.673742 
L 55.21237 267.095824 
L 58.319577 272.372013 
L 61.426783 271.388738 
L 64.53399 275.460863 
L 67.641196 281.379594 
L 70.748403 287.255687 
L 73.855609 288.010728 
L 76.962815 291.049558 
L 80.070022 277.642228 
L 83.177228 289.607557 
L 86.284435 289.473437 
L 89.391641 297.131366 
L 92.498847 289.634564 
L 95.606054 299.874206 
L 98.71326 294.664226 
L 101.820467 299.318395 
L 104.927673 295.684041 
L 108.034879 290.50147 
L 111.142086 304.115722 
L 114.249292 305.43747 
L 117.356499 306.146035 
L 120.463705 301.218333 
L 123.570911 311.142098 
L 126.678118 306.082457 
L 129.785324 305.679168 
L 132.892531 312.399417 
L 135.999737 308.87134 
L 139.106943 308.886322 
L 142.21415 313.638225 
L 145.321356 309.200001 
L 148.428563 323.862143 
L 151.535769 320.182319 
L 154.642975 325.701328 
L 157.750182 316.795328 
L 160.857388 328.014971 
L 163.964595 320.212622 
L 167.071801 326.907265 
L 170.179008 325.034217 
L 173.286214 329.301881 
L 176.39342 332.312768 
L 179.500627 331.144997 
L 182.607833 334.784544 
L 185.71504 341.242943 
L 188.822246 336.02353 
L 191.929452 340.171738 
L 195.036659 343.48606 
L 198.143865 344.532386 
L 201.251072 346.339101 
L 204.358278 343.255133 
L 207.465484 345.20349 
L 210.572691 349.51996 
L 213.679897 350.19094 
L 216.787104 351.593352 
L 219.89431 356.001071 
L 223.001516 356.448863 
L 226.108723 356.134851 
L 229.215929 357.208633 
L 232.323136 360.966088 
L 235.430342 359.817206 
L 238.537548 362.28464 
L 241.644755 364.730817 
L 244.751961 362.496089 
L 247.859168 367.517169 
L 250.966374 367.864 
L 254.07358 369.8107 
L 257.180787 369.779291 
L 260.287993 371.094995 
L 263.3952 373.969773 
L 266.502406 374.489547 
L 269.609613 377.029698 
L 272.716819 377.478852 
L 275.824025 376.926206 
L 278.931232 379.775285 
L 282.038438 381.163071 
L 285.145645 381.311198 
L 288.252851 381.835514 
L 291.360057 383.794604 
L 294.467264 383.987349 
L 297.57447 381.633684 
L 300.681677 385.765015 
L 303.788883 386.643312 
L 306.896089 387.280769 
L 310.003296 386.688287 
L 313.110502 387.066326 
L 316.217709 388.877134 
L 319.324915 388.656128 
L 322.432121 389.361714 
L 325.539328 388.30248 
L 328.646534 389.837604 
L 331.753741 389.314967 
L 334.860947 390.8905 
L 337.968153 390.556109 
L 341.07536 390.763259 
L 344.182566 391.295062 
L 347.289773 391.596237 
L 350.396979 390.977951 
L 353.504185 390.107671 
L 356.611392 391.286291 
" style="fill:none;stroke:#4c72b0;stroke-dasharray:2.775,1.2;stroke-dashoffset:0;stroke-width:0.75;"/>
   </g>
   <g id="patch_3">
    <path d="M 17.304452 409.93562 
L 17.304452 6.4692 
" style="fill:none;stroke:#ffffff;stroke-linecap:square;stroke-linejoin:miter;stroke-width:0.625;"/>
   </g>
   <g id="patch_4">
    <path d="M 372.768865 409.93562 
L 372.768865 6.4692 
" style="fill:none;stroke:#ffffff;stroke-linecap:square;stroke-linejoin:miter;stroke-width:0.625;"/>
   </g>
   <g id="patch_5">
    <path d="M 17.304452 409.93562 
L 372.768865 409.93562 
" style="fill:none;stroke:#ffffff;stroke-linecap:square;stroke-linejoin:miter;stroke-width:0.625;"/>
   </g>
   <g id="patch_6">
    <path d="M 17.304452 6.4692 
L 372.768865 6.4692 
" style="fill:none;stroke:#ffffff;stroke-linecap:square;stroke-linejoin:miter;stroke-width:0.625;"/>
   </g>
   <g id="text_13">
    <!-- 2.0188 -->
    <g style="fill:#262626;" transform="translate(312.691004 322.132747)scale(0.09 -0.09)">
     <defs>
      <path d="M 10.6875 12.40625 
L 21 12.40625 
L 21 0 
L 10.6875 0 
z
" id="DejaVuSans-46"/>
     </defs>
     <use xlink:href="#DejaVuSans-50"/>
     <use x="63.623047" xlink:href="#DejaVuSans-46"/>
     <use x="95.410156" xlink:href="#DejaVuSans-48"/>
     <use x="159.033203" xlink:href="#DejaVuSans-49"/>
     <use x="222.65625" xlink:href="#DejaVuSans-56"/>
     <use x="286.279297" xlink:href="#DejaVuSans-56"/>
    </g>
   </g>
   <g id="text_14">
    <!-- 0.9775 -->
    <g style="fill:#262626;" transform="translate(315.79821 389.724518)scale(0.09 -0.09)">
     <defs>
      <path d="M 10.984375 1.515625 
L 10.984375 10.5 
Q 14.703125 8.734375 18.5 7.8125 
Q 22.3125 6.890625 25.984375 6.890625 
Q 35.75 6.890625 40.890625 13.453125 
Q 46.046875 20.015625 46.78125 33.40625 
Q 43.953125 29.203125 39.59375 26.953125 
Q 35.25 24.703125 29.984375 24.703125 
Q 19.046875 24.703125 12.671875 31.3125 
Q 6.296875 37.9375 6.296875 49.421875 
Q 6.296875 60.640625 12.9375 67.421875 
Q 19.578125 74.21875 30.609375 74.21875 
Q 43.265625 74.21875 49.921875 64.515625 
Q 56.59375 54.828125 56.59375 36.375 
Q 56.59375 19.140625 48.40625 8.859375 
Q 40.234375 -1.421875 26.421875 -1.421875 
Q 22.703125 -1.421875 18.890625 -0.6875 
Q 15.09375 0.046875 10.984375 1.515625 
z
M 30.609375 32.421875 
Q 37.25 32.421875 41.125 36.953125 
Q 45.015625 41.5 45.015625 49.421875 
Q 45.015625 57.28125 41.125 61.84375 
Q 37.25 66.40625 30.609375 66.40625 
Q 23.96875 66.40625 20.09375 61.84375 
Q 16.21875 57.28125 16.21875 49.421875 
Q 16.21875 41.5 20.09375 36.953125 
Q 23.96875 32.421875 30.609375 32.421875 
z
" id="DejaVuSans-57"/>
      <path d="M 8.203125 72.90625 
L 55.078125 72.90625 
L 55.078125 68.703125 
L 28.609375 0 
L 18.3125 0 
L 43.21875 64.59375 
L 8.203125 64.59375 
z
" id="DejaVuSans-55"/>
     </defs>
     <use xlink:href="#DejaVuSans-48"/>
     <use x="63.623047" xlink:href="#DejaVuSans-46"/>
     <use x="95.410156" xlink:href="#DejaVuSans-57"/>
     <use x="159.033203" xlink:href="#DejaVuSans-55"/>
     <use x="222.65625" xlink:href="#DejaVuSans-55"/>
     <use x="286.279297" xlink:href="#DejaVuSans-53"/>
    </g>
   </g>
   <g id="legend_1">
    <g id="line2d_15">
     <path d="M 114.662459 13.673341 
L 125.662459 13.673341 
" style="fill:none;stroke:#4c72b0;stroke-linecap:round;stroke-width:0.75;"/>
    </g>
    <g id="line2d_16"/>
    <g id="text_15">
     <!-- aotnet50, randaug_6_mixup_0.1_cutmix_1.0_RRC_0.08_LAMB_lr0.008_wd0.02 loss -->
     <g style="fill:#262626;" transform="translate(130.062459 15.598341)scale(0.055 -0.055)">
      <defs>
       <path d="M 34.28125 27.484375 
Q 23.390625 27.484375 19.1875 25 
Q 14.984375 22.515625 14.984375 16.5 
Q 14.984375 11.71875 18.140625 8.90625 
Q 21.296875 6.109375 26.703125 6.109375 
Q 34.1875 6.109375 38.703125 11.40625 
Q 43.21875 16.703125 43.21875 25.484375 
L 43.21875 27.484375 
z
M 52.203125 31.203125 
L 52.203125 0 
L 43.21875 0 
L 43.21875 8.296875 
Q 40.140625 3.328125 35.546875 0.953125 
Q 30.953125 -1.421875 24.3125 -1.421875 
Q 15.921875 -1.421875 10.953125 3.296875 
Q 6 8.015625 6 15.921875 
Q 6 25.140625 12.171875 29.828125 
Q 18.359375 34.515625 30.609375 34.515625 
L 43.21875 34.515625 
L 43.21875 35.40625 
Q 43.21875 41.609375 39.140625 45 
Q 35.0625 48.390625 27.6875 48.390625 
Q 23 48.390625 18.546875 47.265625 
Q 14.109375 46.140625 10.015625 43.890625 
L 10.015625 52.203125 
Q 14.9375 54.109375 19.578125 55.046875 
Q 24.21875 56 28.609375 56 
Q 40.484375 56 46.34375 49.84375 
Q 52.203125 43.703125 52.203125 31.203125 
z
" id="DejaVuSans-97"/>
       <path d="M 30.609375 48.390625 
Q 23.390625 48.390625 19.1875 42.75 
Q 14.984375 37.109375 14.984375 27.296875 
Q 14.984375 17.484375 19.15625 11.84375 
Q 23.34375 6.203125 30.609375 6.203125 
Q 37.796875 6.203125 41.984375 11.859375 
Q 46.1875 17.53125 46.1875 27.296875 
Q 46.1875 37.015625 41.984375 42.703125 
Q 37.796875 48.390625 30.609375 48.390625 
z
M 30.609375 56 
Q 42.328125 56 49.015625 48.375 
Q 55.71875 40.765625 55.71875 27.296875 
Q 55.71875 13.875 49.015625 6.21875 
Q 42.328125 -1.421875 30.609375 -1.421875 
Q 18.84375 -1.421875 12.171875 6.21875 
Q 5.515625 13.875 5.515625 27.296875 
Q 5.515625 40.765625 12.171875 48.375 
Q 18.84375 56 30.609375 56 
z
" id="DejaVuSans-111"/>
       <path d="M 18.3125 70.21875 
L 18.3125 54.6875 
L 36.8125 54.6875 
L 36.8125 47.703125 
L 18.3125 47.703125 
L 18.3125 18.015625 
Q 18.3125 11.328125 20.140625 9.421875 
Q 21.96875 7.515625 27.59375 7.515625 
L 36.8125 7.515625 
L 36.8125 0 
L 27.59375 0 
Q 17.1875 0 13.234375 3.875 
Q 9.28125 7.765625 9.28125 18.015625 
L 9.28125 47.703125 
L 2.6875 47.703125 
L 2.6875 54.6875 
L 9.28125 54.6875 
L 9.28125 70.21875 
z
" id="DejaVuSans-116"/>
       <path d="M 54.890625 33.015625 
L 54.890625 0 
L 45.90625 0 
L 45.90625 32.71875 
Q 45.90625 40.484375 42.875 44.328125 
Q 39.84375 48.1875 33.796875 48.1875 
Q 26.515625 48.1875 22.3125 43.546875 
Q 18.109375 38.921875 18.109375 30.90625 
L 18.109375 0 
L 9.078125 0 
L 9.078125 54.6875 
L 18.109375 54.6875 
L 18.109375 46.1875 
Q 21.34375 51.125 25.703125 53.5625 
Q 30.078125 56 35.796875 56 
Q 45.21875 56 50.046875 50.171875 
Q 54.890625 44.34375 54.890625 33.015625 
z
" id="DejaVuSans-110"/>
       <path d="M 56.203125 29.59375 
L 56.203125 25.203125 
L 14.890625 25.203125 
Q 15.484375 15.921875 20.484375 11.0625 
Q 25.484375 6.203125 34.421875 6.203125 
Q 39.59375 6.203125 44.453125 7.46875 
Q 49.3125 8.734375 54.109375 11.28125 
L 54.109375 2.78125 
Q 49.265625 0.734375 44.1875 -0.34375 
Q 39.109375 -1.421875 33.890625 -1.421875 
Q 20.796875 -1.421875 13.15625 6.1875 
Q 5.515625 13.8125 5.515625 26.8125 
Q 5.515625 40.234375 12.765625 48.109375 
Q 20.015625 56 32.328125 56 
Q 43.359375 56 49.78125 48.890625 
Q 56.203125 41.796875 56.203125 29.59375 
z
M 47.21875 32.234375 
Q 47.125 39.59375 43.09375 43.984375 
Q 39.0625 48.390625 32.421875 48.390625 
Q 24.90625 48.390625 20.390625 44.140625 
Q 15.875 39.890625 15.1875 32.171875 
z
" id="DejaVuSans-101"/>
       <path d="M 11.71875 12.40625 
L 22.015625 12.40625 
L 22.015625 4 
L 14.015625 -11.625 
L 7.71875 -11.625 
L 11.71875 4 
z
" id="DejaVuSans-44"/>
       <path id="DejaVuSans-32"/>
       <path d="M 41.109375 46.296875 
Q 39.59375 47.171875 37.8125 47.578125 
Q 36.03125 48 33.890625 48 
Q 26.265625 48 22.1875 43.046875 
Q 18.109375 38.09375 18.109375 28.8125 
L 18.109375 0 
L 9.078125 0 
L 9.078125 54.6875 
L 18.109375 54.6875 
L 18.109375 46.1875 
Q 20.953125 51.171875 25.484375 53.578125 
Q 30.03125 56 36.53125 56 
Q 37.453125 56 38.578125 55.875 
Q 39.703125 55.765625 41.0625 55.515625 
z
" id="DejaVuSans-114"/>
       <path d="M 45.40625 46.390625 
L 45.40625 75.984375 
L 54.390625 75.984375 
L 54.390625 0 
L 45.40625 0 
L 45.40625 8.203125 
Q 42.578125 3.328125 38.25 0.953125 
Q 33.9375 -1.421875 27.875 -1.421875 
Q 17.96875 -1.421875 11.734375 6.484375 
Q 5.515625 14.40625 5.515625 27.296875 
Q 5.515625 40.1875 11.734375 48.09375 
Q 17.96875 56 27.875 56 
Q 33.9375 56 38.25 53.625 
Q 42.578125 51.265625 45.40625 46.390625 
z
M 14.796875 27.296875 
Q 14.796875 17.390625 18.875 11.75 
Q 22.953125 6.109375 30.078125 6.109375 
Q 37.203125 6.109375 41.296875 11.75 
Q 45.40625 17.390625 45.40625 27.296875 
Q 45.40625 37.203125 41.296875 42.84375 
Q 37.203125 48.484375 30.078125 48.484375 
Q 22.953125 48.484375 18.875 42.84375 
Q 14.796875 37.203125 14.796875 27.296875 
z
" id="DejaVuSans-100"/>
       <path d="M 8.5 21.578125 
L 8.5 54.6875 
L 17.484375 54.6875 
L 17.484375 21.921875 
Q 17.484375 14.15625 20.5 10.265625 
Q 23.53125 6.390625 29.59375 6.390625 
Q 36.859375 6.390625 41.078125 11.03125 
Q 45.3125 15.671875 45.3125 23.6875 
L 45.3125 54.6875 
L 54.296875 54.6875 
L 54.296875 0 
L 45.3125 0 
L 45.3125 8.40625 
Q 42.046875 3.421875 37.71875 1 
Q 33.40625 -1.421875 27.6875 -1.421875 
Q 18.265625 -1.421875 13.375 4.4375 
Q 8.5 10.296875 8.5 21.578125 
z
M 31.109375 56 
z
" id="DejaVuSans-117"/>
       <path d="M 45.40625 27.984375 
Q 45.40625 37.75 41.375 43.109375 
Q 37.359375 48.484375 30.078125 48.484375 
Q 22.859375 48.484375 18.828125 43.109375 
Q 14.796875 37.75 14.796875 27.984375 
Q 14.796875 18.265625 18.828125 12.890625 
Q 22.859375 7.515625 30.078125 7.515625 
Q 37.359375 7.515625 41.375 12.890625 
Q 45.40625 18.265625 45.40625 27.984375 
z
M 54.390625 6.78125 
Q 54.390625 -7.171875 48.1875 -13.984375 
Q 42 -20.796875 29.203125 -20.796875 
Q 24.46875 -20.796875 20.265625 -20.09375 
Q 16.0625 -19.390625 12.109375 -17.921875 
L 12.109375 -9.1875 
Q 16.0625 -11.328125 19.921875 -12.34375 
Q 23.78125 -13.375 27.78125 -13.375 
Q 36.625 -13.375 41.015625 -8.765625 
Q 45.40625 -4.15625 45.40625 5.171875 
L 45.40625 9.625 
Q 42.625 4.78125 38.28125 2.390625 
Q 33.9375 0 27.875 0 
Q 17.828125 0 11.671875 7.65625 
Q 5.515625 15.328125 5.515625 27.984375 
Q 5.515625 40.671875 11.671875 48.328125 
Q 17.828125 56 27.875 56 
Q 33.9375 56 38.28125 53.609375 
Q 42.625 51.21875 45.40625 46.390625 
L 45.40625 54.6875 
L 54.390625 54.6875 
z
" id="DejaVuSans-103"/>
       <path d="M 50.984375 -16.609375 
L 50.984375 -23.578125 
L -0.984375 -23.578125 
L -0.984375 -16.609375 
z
" id="DejaVuSans-95"/>
       <path d="M 52 44.1875 
Q 55.375 50.25 60.0625 53.125 
Q 64.75 56 71.09375 56 
Q 79.640625 56 84.28125 50.015625 
Q 88.921875 44.046875 88.921875 33.015625 
L 88.921875 0 
L 79.890625 0 
L 79.890625 32.71875 
Q 79.890625 40.578125 77.09375 44.375 
Q 74.3125 48.1875 68.609375 48.1875 
Q 61.625 48.1875 57.5625 43.546875 
Q 53.515625 38.921875 53.515625 30.90625 
L 53.515625 0 
L 44.484375 0 
L 44.484375 32.71875 
Q 44.484375 40.625 41.703125 44.40625 
Q 38.921875 48.1875 33.109375 48.1875 
Q 26.21875 48.1875 22.15625 43.53125 
Q 18.109375 38.875 18.109375 30.90625 
L 18.109375 0 
L 9.078125 0 
L 9.078125 54.6875 
L 18.109375 54.6875 
L 18.109375 46.1875 
Q 21.1875 51.21875 25.484375 53.609375 
Q 29.78125 56 35.6875 56 
Q 41.65625 56 45.828125 52.96875 
Q 50 49.953125 52 44.1875 
z
" id="DejaVuSans-109"/>
       <path d="M 9.421875 54.6875 
L 18.40625 54.6875 
L 18.40625 0 
L 9.421875 0 
z
M 9.421875 75.984375 
L 18.40625 75.984375 
L 18.40625 64.59375 
L 9.421875 64.59375 
z
" id="DejaVuSans-105"/>
       <path d="M 54.890625 54.6875 
L 35.109375 28.078125 
L 55.90625 0 
L 45.3125 0 
L 29.390625 21.484375 
L 13.484375 0 
L 2.875 0 
L 24.125 28.609375 
L 4.6875 54.6875 
L 15.28125 54.6875 
L 29.78125 35.203125 
L 44.28125 54.6875 
z
" id="DejaVuSans-120"/>
       <path d="M 18.109375 8.203125 
L 18.109375 -20.796875 
L 9.078125 -20.796875 
L 9.078125 54.6875 
L 18.109375 54.6875 
L 18.109375 46.390625 
Q 20.953125 51.265625 25.265625 53.625 
Q 29.59375 56 35.59375 56 
Q 45.5625 56 51.78125 48.09375 
Q 58.015625 40.1875 58.015625 27.296875 
Q 58.015625 14.40625 51.78125 6.484375 
Q 45.5625 -1.421875 35.59375 -1.421875 
Q 29.59375 -1.421875 25.265625 0.953125 
Q 20.953125 3.328125 18.109375 8.203125 
z
M 48.6875 27.296875 
Q 48.6875 37.203125 44.609375 42.84375 
Q 40.53125 48.484375 33.40625 48.484375 
Q 26.265625 48.484375 22.1875 42.84375 
Q 18.109375 37.203125 18.109375 27.296875 
Q 18.109375 17.390625 22.1875 11.75 
Q 26.265625 6.109375 33.40625 6.109375 
Q 40.53125 6.109375 44.609375 11.75 
Q 48.6875 17.390625 48.6875 27.296875 
z
" id="DejaVuSans-112"/>
       <path d="M 48.78125 52.59375 
L 48.78125 44.1875 
Q 44.96875 46.296875 41.140625 47.34375 
Q 37.3125 48.390625 33.40625 48.390625 
Q 24.65625 48.390625 19.8125 42.84375 
Q 14.984375 37.3125 14.984375 27.296875 
Q 14.984375 17.28125 19.8125 11.734375 
Q 24.65625 6.203125 33.40625 6.203125 
Q 37.3125 6.203125 41.140625 7.25 
Q 44.96875 8.296875 48.78125 10.40625 
L 48.78125 2.09375 
Q 45.015625 0.34375 40.984375 -0.53125 
Q 36.96875 -1.421875 32.421875 -1.421875 
Q 20.0625 -1.421875 12.78125 6.34375 
Q 5.515625 14.109375 5.515625 27.296875 
Q 5.515625 40.671875 12.859375 48.328125 
Q 20.21875 56 33.015625 56 
Q 37.15625 56 41.109375 55.140625 
Q 45.0625 54.296875 48.78125 52.59375 
z
" id="DejaVuSans-99"/>
       <path d="M 44.390625 34.1875 
Q 47.5625 33.109375 50.5625 29.59375 
Q 53.5625 26.078125 56.59375 19.921875 
L 66.609375 0 
L 56 0 
L 46.6875 18.703125 
Q 43.0625 26.03125 39.671875 28.421875 
Q 36.28125 30.8125 30.421875 30.8125 
L 19.671875 30.8125 
L 19.671875 0 
L 9.8125 0 
L 9.8125 72.90625 
L 32.078125 72.90625 
Q 44.578125 72.90625 50.734375 67.671875 
Q 56.890625 62.453125 56.890625 51.90625 
Q 56.890625 45.015625 53.6875 40.46875 
Q 50.484375 35.9375 44.390625 34.1875 
z
M 19.671875 64.796875 
L 19.671875 38.921875 
L 32.078125 38.921875 
Q 39.203125 38.921875 42.84375 42.21875 
Q 46.484375 45.515625 46.484375 51.90625 
Q 46.484375 58.296875 42.84375 61.546875 
Q 39.203125 64.796875 32.078125 64.796875 
z
" id="DejaVuSans-82"/>
       <path d="M 64.40625 67.28125 
L 64.40625 56.890625 
Q 59.421875 61.53125 53.78125 63.8125 
Q 48.140625 66.109375 41.796875 66.109375 
Q 29.296875 66.109375 22.65625 58.46875 
Q 16.015625 50.828125 16.015625 36.375 
Q 16.015625 21.96875 22.65625 14.328125 
Q 29.296875 6.6875 41.796875 6.6875 
Q 48.140625 6.6875 53.78125 8.984375 
Q 59.421875 11.28125 64.40625 15.921875 
L 64.40625 5.609375 
Q 59.234375 2.09375 53.4375 0.328125 
Q 47.65625 -1.421875 41.21875 -1.421875 
Q 24.65625 -1.421875 15.125 8.703125 
Q 5.609375 18.84375 5.609375 36.375 
Q 5.609375 53.953125 15.125 64.078125 
Q 24.65625 74.21875 41.21875 74.21875 
Q 47.75 74.21875 53.53125 72.484375 
Q 59.328125 70.75 64.40625 67.28125 
z
" id="DejaVuSans-67"/>
       <path d="M 9.8125 72.90625 
L 19.671875 72.90625 
L 19.671875 8.296875 
L 55.171875 8.296875 
L 55.171875 0 
L 9.8125 0 
z
" id="DejaVuSans-76"/>
       <path d="M 34.1875 63.1875 
L 20.796875 26.90625 
L 47.609375 26.90625 
z
M 28.609375 72.90625 
L 39.796875 72.90625 
L 67.578125 0 
L 57.328125 0 
L 50.6875 18.703125 
L 17.828125 18.703125 
L 11.1875 0 
L 0.78125 0 
z
" id="DejaVuSans-65"/>
       <path d="M 9.8125 72.90625 
L 24.515625 72.90625 
L 43.109375 23.296875 
L 61.8125 72.90625 
L 76.515625 72.90625 
L 76.515625 0 
L 66.890625 0 
L 66.890625 64.015625 
L 48.09375 14.015625 
L 38.1875 14.015625 
L 19.390625 64.015625 
L 19.390625 0 
L 9.8125 0 
z
" id="DejaVuSans-77"/>
       <path d="M 19.671875 34.8125 
L 19.671875 8.109375 
L 35.5 8.109375 
Q 43.453125 8.109375 47.28125 11.40625 
Q 51.125 14.703125 51.125 21.484375 
Q 51.125 28.328125 47.28125 31.5625 
Q 43.453125 34.8125 35.5 34.8125 
z
M 19.671875 64.796875 
L 19.671875 42.828125 
L 34.28125 42.828125 
Q 41.5 42.828125 45.03125 45.53125 
Q 48.578125 48.25 48.578125 53.8125 
Q 48.578125 59.328125 45.03125 62.0625 
Q 41.5 64.796875 34.28125 64.796875 
z
M 9.8125 72.90625 
L 35.015625 72.90625 
Q 46.296875 72.90625 52.390625 68.21875 
Q 58.5 63.53125 58.5 54.890625 
Q 58.5 48.1875 55.375 44.234375 
Q 52.25 40.28125 46.1875 39.3125 
Q 53.46875 37.75 57.5 32.78125 
Q 61.53125 27.828125 61.53125 20.40625 
Q 61.53125 10.640625 54.890625 5.3125 
Q 48.25 0 35.984375 0 
L 9.8125 0 
z
" id="DejaVuSans-66"/>
       <path d="M 9.421875 75.984375 
L 18.40625 75.984375 
L 18.40625 0 
L 9.421875 0 
z
" id="DejaVuSans-108"/>
       <path d="M 4.203125 54.6875 
L 13.1875 54.6875 
L 24.421875 12.015625 
L 35.59375 54.6875 
L 46.1875 54.6875 
L 57.421875 12.015625 
L 68.609375 54.6875 
L 77.59375 54.6875 
L 63.28125 0 
L 52.6875 0 
L 40.921875 44.828125 
L 29.109375 0 
L 18.5 0 
z
" id="DejaVuSans-119"/>
       <path d="M 44.28125 53.078125 
L 44.28125 44.578125 
Q 40.484375 46.53125 36.375 47.5 
Q 32.28125 48.484375 27.875 48.484375 
Q 21.1875 48.484375 17.84375 46.4375 
Q 14.5 44.390625 14.5 40.28125 
Q 14.5 37.15625 16.890625 35.375 
Q 19.28125 33.59375 26.515625 31.984375 
L 29.59375 31.296875 
Q 39.15625 29.25 43.1875 25.515625 
Q 47.21875 21.78125 47.21875 15.09375 
Q 47.21875 7.46875 41.1875 3.015625 
Q 35.15625 -1.421875 24.609375 -1.421875 
Q 20.21875 -1.421875 15.453125 -0.5625 
Q 10.6875 0.296875 5.421875 2 
L 5.421875 11.28125 
Q 10.40625 8.6875 15.234375 7.390625 
Q 20.0625 6.109375 24.8125 6.109375 
Q 31.15625 6.109375 34.5625 8.28125 
Q 37.984375 10.453125 37.984375 14.40625 
Q 37.984375 18.0625 35.515625 20.015625 
Q 33.0625 21.96875 24.703125 23.78125 
L 21.578125 24.515625 
Q 13.234375 26.265625 9.515625 29.90625 
Q 5.8125 33.546875 5.8125 39.890625 
Q 5.8125 47.609375 11.28125 51.796875 
Q 16.75 56 26.8125 56 
Q 31.78125 56 36.171875 55.265625 
Q 40.578125 54.546875 44.28125 53.078125 
z
" id="DejaVuSans-115"/>
      </defs>
      <use xlink:href="#DejaVuSans-97"/>
      <use x="61.279297" xlink:href="#DejaVuSans-111"/>
      <use x="122.460938" xlink:href="#DejaVuSans-116"/>
      <use x="161.669922" xlink:href="#DejaVuSans-110"/>
      <use x="225.048828" xlink:href="#DejaVuSans-101"/>
      <use x="286.572266" xlink:href="#DejaVuSans-116"/>
      <use x="325.78125" xlink:href="#DejaVuSans-53"/>
      <use x="389.404297" xlink:href="#DejaVuSans-48"/>
      <use x="453.027344" xlink:href="#DejaVuSans-44"/>
      <use x="484.814453" xlink:href="#DejaVuSans-32"/>
      <use x="516.601562" xlink:href="#DejaVuSans-114"/>
      <use x="557.714844" xlink:href="#DejaVuSans-97"/>
      <use x="618.994141" xlink:href="#DejaVuSans-110"/>
      <use x="682.373047" xlink:href="#DejaVuSans-100"/>
      <use x="745.849609" xlink:href="#DejaVuSans-97"/>
      <use x="807.128906" xlink:href="#DejaVuSans-117"/>
      <use x="870.507812" xlink:href="#DejaVuSans-103"/>
      <use x="933.984375" xlink:href="#DejaVuSans-95"/>
      <use x="983.984375" xlink:href="#DejaVuSans-54"/>
      <use x="1047.607422" xlink:href="#DejaVuSans-95"/>
      <use x="1097.607422" xlink:href="#DejaVuSans-109"/>
      <use x="1195.019531" xlink:href="#DejaVuSans-105"/>
      <use x="1222.802734" xlink:href="#DejaVuSans-120"/>
      <use x="1281.982422" xlink:href="#DejaVuSans-117"/>
      <use x="1345.361328" xlink:href="#DejaVuSans-112"/>
      <use x="1408.837891" xlink:href="#DejaVuSans-95"/>
      <use x="1458.837891" xlink:href="#DejaVuSans-48"/>
      <use x="1522.460938" xlink:href="#DejaVuSans-46"/>
      <use x="1554.248047" xlink:href="#DejaVuSans-49"/>
      <use x="1617.871094" xlink:href="#DejaVuSans-95"/>
      <use x="1667.871094" xlink:href="#DejaVuSans-99"/>
      <use x="1722.851562" xlink:href="#DejaVuSans-117"/>
      <use x="1786.230469" xlink:href="#DejaVuSans-116"/>
      <use x="1825.439453" xlink:href="#DejaVuSans-109"/>
      <use x="1922.851562" xlink:href="#DejaVuSans-105"/>
      <use x="1950.634766" xlink:href="#DejaVuSans-120"/>
      <use x="2009.814453" xlink:href="#DejaVuSans-95"/>
      <use x="2059.814453" xlink:href="#DejaVuSans-49"/>
      <use x="2123.4375" xlink:href="#DejaVuSans-46"/>
      <use x="2155.224609" xlink:href="#DejaVuSans-48"/>
      <use x="2218.847656" xlink:href="#DejaVuSans-95"/>
      <use x="2268.847656" xlink:href="#DejaVuSans-82"/>
      <use x="2338.330078" xlink:href="#DejaVuSans-82"/>
      <use x="2402.8125" xlink:href="#DejaVuSans-67"/>
      <use x="2472.636719" xlink:href="#DejaVuSans-95"/>
      <use x="2522.636719" xlink:href="#DejaVuSans-48"/>
      <use x="2586.259766" xlink:href="#DejaVuSans-46"/>
      <use x="2618.046875" xlink:href="#DejaVuSans-48"/>
      <use x="2681.669922" xlink:href="#DejaVuSans-56"/>
      <use x="2745.292969" xlink:href="#DejaVuSans-95"/>
      <use x="2795.292969" xlink:href="#DejaVuSans-76"/>
      <use x="2853.255859" xlink:href="#DejaVuSans-65"/>
      <use x="2921.664062" xlink:href="#DejaVuSans-77"/>
      <use x="3007.943359" xlink:href="#DejaVuSans-66"/>
      <use x="3076.546875" xlink:href="#DejaVuSans-95"/>
      <use x="3126.546875" xlink:href="#DejaVuSans-108"/>
      <use x="3154.330078" xlink:href="#DejaVuSans-114"/>
      <use x="3195.443359" xlink:href="#DejaVuSans-48"/>
      <use x="3259.066406" xlink:href="#DejaVuSans-46"/>
      <use x="3290.853516" xlink:href="#DejaVuSans-48"/>
      <use x="3354.476562" xlink:href="#DejaVuSans-48"/>
      <use x="3418.099609" xlink:href="#DejaVuSans-56"/>
      <use x="3481.722656" xlink:href="#DejaVuSans-95"/>
      <use x="3531.722656" xlink:href="#DejaVuSans-119"/>
      <use x="3613.509766" xlink:href="#DejaVuSans-100"/>
      <use x="3676.986328" xlink:href="#DejaVuSans-48"/>
      <use x="3740.609375" xlink:href="#DejaVuSans-46"/>
      <use x="3772.396484" xlink:href="#DejaVuSans-48"/>
      <use x="3836.019531" xlink:href="#DejaVuSans-50"/>
      <use x="3899.642578" xlink:href="#DejaVuSans-32"/>
      <use x="3931.429688" xlink:href="#DejaVuSans-108"/>
      <use x="3959.212891" xlink:href="#DejaVuSans-111"/>
      <use x="4020.394531" xlink:href="#DejaVuSans-115"/>
      <use x="4072.494141" xlink:href="#DejaVuSans-115"/>
     </g>
    </g>
    <g id="line2d_17">
     <path d="M 114.662459 21.899278 
L 125.662459 21.899278 
" style="fill:none;stroke:#4c72b0;stroke-dasharray:2.775,1.2;stroke-dashoffset:0;stroke-width:0.75;"/>
    </g>
    <g id="line2d_18"/>
    <g id="text_16">
     <!-- aotnet50, randaug_6_mixup_0.1_cutmix_1.0_RRC_0.08_LAMB_lr0.008_wd0.02 val_loss -->
     <g style="fill:#262626;" transform="translate(130.062459 23.824278)scale(0.055 -0.055)">
      <defs>
       <path d="M 2.984375 54.6875 
L 12.5 54.6875 
L 29.59375 8.796875 
L 46.6875 54.6875 
L 56.203125 54.6875 
L 35.6875 0 
L 23.484375 0 
z
" id="DejaVuSans-118"/>
      </defs>
      <use xlink:href="#DejaVuSans-97"/>
      <use x="61.279297" xlink:href="#DejaVuSans-111"/>
      <use x="122.460938" xlink:href="#DejaVuSans-116"/>
      <use x="161.669922" xlink:href="#DejaVuSans-110"/>
      <use x="225.048828" xlink:href="#DejaVuSans-101"/>
      <use x="286.572266" xlink:href="#DejaVuSans-116"/>
      <use x="325.78125" xlink:href="#DejaVuSans-53"/>
      <use x="389.404297" xlink:href="#DejaVuSans-48"/>
      <use x="453.027344" xlink:href="#DejaVuSans-44"/>
      <use x="484.814453" xlink:href="#DejaVuSans-32"/>
      <use x="516.601562" xlink:href="#DejaVuSans-114"/>
      <use x="557.714844" xlink:href="#DejaVuSans-97"/>
      <use x="618.994141" xlink:href="#DejaVuSans-110"/>
      <use x="682.373047" xlink:href="#DejaVuSans-100"/>
      <use x="745.849609" xlink:href="#DejaVuSans-97"/>
      <use x="807.128906" xlink:href="#DejaVuSans-117"/>
      <use x="870.507812" xlink:href="#DejaVuSans-103"/>
      <use x="933.984375" xlink:href="#DejaVuSans-95"/>
      <use x="983.984375" xlink:href="#DejaVuSans-54"/>
      <use x="1047.607422" xlink:href="#DejaVuSans-95"/>
      <use x="1097.607422" xlink:href="#DejaVuSans-109"/>
      <use x="1195.019531" xlink:href="#DejaVuSans-105"/>
      <use x="1222.802734" xlink:href="#DejaVuSans-120"/>
      <use x="1281.982422" xlink:href="#DejaVuSans-117"/>
      <use x="1345.361328" xlink:href="#DejaVuSans-112"/>
      <use x="1408.837891" xlink:href="#DejaVuSans-95"/>
      <use x="1458.837891" xlink:href="#DejaVuSans-48"/>
      <use x="1522.460938" xlink:href="#DejaVuSans-46"/>
      <use x="1554.248047" xlink:href="#DejaVuSans-49"/>
      <use x="1617.871094" xlink:href="#DejaVuSans-95"/>
      <use x="1667.871094" xlink:href="#DejaVuSans-99"/>
      <use x="1722.851562" xlink:href="#DejaVuSans-117"/>
      <use x="1786.230469" xlink:href="#DejaVuSans-116"/>
      <use x="1825.439453" xlink:href="#DejaVuSans-109"/>
      <use x="1922.851562" xlink:href="#DejaVuSans-105"/>
      <use x="1950.634766" xlink:href="#DejaVuSans-120"/>
      <use x="2009.814453" xlink:href="#DejaVuSans-95"/>
      <use x="2059.814453" xlink:href="#DejaVuSans-49"/>
      <use x="2123.4375" xlink:href="#DejaVuSans-46"/>
      <use x="2155.224609" xlink:href="#DejaVuSans-48"/>
      <use x="2218.847656" xlink:href="#DejaVuSans-95"/>
      <use x="2268.847656" xlink:href="#DejaVuSans-82"/>
      <use x="2338.330078" xlink:href="#DejaVuSans-82"/>
      <use x="2402.8125" xlink:href="#DejaVuSans-67"/>
      <use x="2472.636719" xlink:href="#DejaVuSans-95"/>
      <use x="2522.636719" xlink:href="#DejaVuSans-48"/>
      <use x="2586.259766" xlink:href="#DejaVuSans-46"/>
      <use x="2618.046875" xlink:href="#DejaVuSans-48"/>
      <use x="2681.669922" xlink:href="#DejaVuSans-56"/>
      <use x="2745.292969" xlink:href="#DejaVuSans-95"/>
      <use x="2795.292969" xlink:href="#DejaVuSans-76"/>
      <use x="2853.255859" xlink:href="#DejaVuSans-65"/>
      <use x="2921.664062" xlink:href="#DejaVuSans-77"/>
      <use x="3007.943359" xlink:href="#DejaVuSans-66"/>
      <use x="3076.546875" xlink:href="#DejaVuSans-95"/>
      <use x="3126.546875" xlink:href="#DejaVuSans-108"/>
      <use x="3154.330078" xlink:href="#DejaVuSans-114"/>
      <use x="3195.443359" xlink:href="#DejaVuSans-48"/>
      <use x="3259.066406" xlink:href="#DejaVuSans-46"/>
      <use x="3290.853516" xlink:href="#DejaVuSans-48"/>
      <use x="3354.476562" xlink:href="#DejaVuSans-48"/>
      <use x="3418.099609" xlink:href="#DejaVuSans-56"/>
      <use x="3481.722656" xlink:href="#DejaVuSans-95"/>
      <use x="3531.722656" xlink:href="#DejaVuSans-119"/>
      <use x="3613.509766" xlink:href="#DejaVuSans-100"/>
      <use x="3676.986328" xlink:href="#DejaVuSans-48"/>
      <use x="3740.609375" xlink:href="#DejaVuSans-46"/>
      <use x="3772.396484" xlink:href="#DejaVuSans-48"/>
      <use x="3836.019531" xlink:href="#DejaVuSans-50"/>
      <use x="3899.642578" xlink:href="#DejaVuSans-32"/>
      <use x="3931.429688" xlink:href="#DejaVuSans-118"/>
      <use x="3990.609375" xlink:href="#DejaVuSans-97"/>
      <use x="4051.888672" xlink:href="#DejaVuSans-108"/>
      <use x="4079.671875" xlink:href="#DejaVuSans-95"/>
      <use x="4129.671875" xlink:href="#DejaVuSans-108"/>
      <use x="4157.455078" xlink:href="#DejaVuSans-111"/>
      <use x="4218.636719" xlink:href="#DejaVuSans-115"/>
      <use x="4270.736328" xlink:href="#DejaVuSans-115"/>
     </g>
    </g>
   </g>
  </g>
  <g id="axes_2">
   <g id="patch_7">
    <path d="M 404.04002 409.93562 
L 759.504433 409.93562 
L 759.504433 6.4692 
L 404.04002 6.4692 
z
" style="fill:#eaeaf2;"/>
   </g>
   <g id="matplotlib.axis_3">
    <g id="xtick_7">
     <g id="line2d_19">
      <path clip-path="url(#pac63c71c5b)" d="M 420.197493 409.93562 
L 420.197493 6.4692 
" style="fill:none;stroke:#ffffff;stroke-linecap:round;stroke-width:0.5;"/>
     </g>
     <g id="text_17">
      <!-- 0 -->
      <g style="fill:#262626;" transform="translate(418.447806 423.61476)scale(0.055 -0.055)">
       <use xlink:href="#DejaVuSans-48"/>
      </g>
     </g>
    </g>
    <g id="xtick_8">
     <g id="line2d_20">
      <path clip-path="url(#pac63c71c5b)" d="M 482.341621 409.93562 
L 482.341621 6.4692 
" style="fill:none;stroke:#ffffff;stroke-linecap:round;stroke-width:0.5;"/>
     </g>
     <g id="text_18">
      <!-- 20 -->
      <g style="fill:#262626;" transform="translate(478.842246 423.61476)scale(0.055 -0.055)">
       <use xlink:href="#DejaVuSans-50"/>
       <use x="63.623047" xlink:href="#DejaVuSans-48"/>
      </g>
     </g>
    </g>
    <g id="xtick_9">
     <g id="line2d_21">
      <path clip-path="url(#pac63c71c5b)" d="M 544.485749 409.93562 
L 544.485749 6.4692 
" style="fill:none;stroke:#ffffff;stroke-linecap:round;stroke-width:0.5;"/>
     </g>
     <g id="text_19">
      <!-- 40 -->
      <g style="fill:#262626;" transform="translate(540.986374 423.61476)scale(0.055 -0.055)">
       <use xlink:href="#DejaVuSans-52"/>
       <use x="63.623047" xlink:href="#DejaVuSans-48"/>
      </g>
     </g>
    </g>
    <g id="xtick_10">
     <g id="line2d_22">
      <path clip-path="url(#pac63c71c5b)" d="M 606.629877 409.93562 
L 606.629877 6.4692 
" style="fill:none;stroke:#ffffff;stroke-linecap:round;stroke-width:0.5;"/>
     </g>
     <g id="text_20">
      <!-- 60 -->
      <g style="fill:#262626;" transform="translate(603.130502 423.61476)scale(0.055 -0.055)">
       <use xlink:href="#DejaVuSans-54"/>
       <use x="63.623047" xlink:href="#DejaVuSans-48"/>
      </g>
     </g>
    </g>
    <g id="xtick_11">
     <g id="line2d_23">
      <path clip-path="url(#pac63c71c5b)" d="M 668.774006 409.93562 
L 668.774006 6.4692 
" style="fill:none;stroke:#ffffff;stroke-linecap:round;stroke-width:0.5;"/>
     </g>
     <g id="text_21">
      <!-- 80 -->
      <g style="fill:#262626;" transform="translate(665.274631 423.61476)scale(0.055 -0.055)">
       <use xlink:href="#DejaVuSans-56"/>
       <use x="63.623047" xlink:href="#DejaVuSans-48"/>
      </g>
     </g>
    </g>
    <g id="xtick_12">
     <g id="line2d_24">
      <path clip-path="url(#pac63c71c5b)" d="M 730.918134 409.93562 
L 730.918134 6.4692 
" style="fill:none;stroke:#ffffff;stroke-linecap:round;stroke-width:0.5;"/>
     </g>
     <g id="text_22">
      <!-- 100 -->
      <g style="fill:#262626;" transform="translate(725.669071 423.61476)scale(0.055 -0.055)">
       <use xlink:href="#DejaVuSans-49"/>
       <use x="63.623047" xlink:href="#DejaVuSans-48"/>
       <use x="127.246094" xlink:href="#DejaVuSans-48"/>
      </g>
     </g>
    </g>
   </g>
   <g id="matplotlib.axis_4">
    <g id="ytick_7">
     <g id="line2d_25">
      <path clip-path="url(#pac63c71c5b)" d="M 404.04002 397.508233 
L 759.504433 397.508233 
" style="fill:none;stroke:#ffffff;stroke-linecap:round;stroke-width:0.5;"/>
     </g>
     <g id="text_23">
      <!-- 0.0 -->
      <g style="fill:#262626;" transform="translate(385.793301 399.597803)scale(0.055 -0.055)">
       <use xlink:href="#DejaVuSans-48"/>
       <use x="63.623047" xlink:href="#DejaVuSans-46"/>
       <use x="95.410156" xlink:href="#DejaVuSans-48"/>
      </g>
     </g>
    </g>
    <g id="ytick_8">
     <g id="line2d_26">
      <path clip-path="url(#pac63c71c5b)" d="M 404.04002 347.772507 
L 759.504433 347.772507 
" style="fill:none;stroke:#ffffff;stroke-linecap:round;stroke-width:0.5;"/>
     </g>
     <g id="text_24">
      <!-- 0.1 -->
      <g style="fill:#262626;" transform="translate(385.793301 349.862077)scale(0.055 -0.055)">
       <use xlink:href="#DejaVuSans-48"/>
       <use x="63.623047" xlink:href="#DejaVuSans-46"/>
       <use x="95.410156" xlink:href="#DejaVuSans-49"/>
      </g>
     </g>
    </g>
    <g id="ytick_9">
     <g id="line2d_27">
      <path clip-path="url(#pac63c71c5b)" d="M 404.04002 298.03678 
L 759.504433 298.03678 
" style="fill:none;stroke:#ffffff;stroke-linecap:round;stroke-width:0.5;"/>
     </g>
     <g id="text_25">
      <!-- 0.2 -->
      <g style="fill:#262626;" transform="translate(385.793301 300.126351)scale(0.055 -0.055)">
       <use xlink:href="#DejaVuSans-48"/>
       <use x="63.623047" xlink:href="#DejaVuSans-46"/>
       <use x="95.410156" xlink:href="#DejaVuSans-50"/>
      </g>
     </g>
    </g>
    <g id="ytick_10">
     <g id="line2d_28">
      <path clip-path="url(#pac63c71c5b)" d="M 404.04002 248.301054 
L 759.504433 248.301054 
" style="fill:none;stroke:#ffffff;stroke-linecap:round;stroke-width:0.5;"/>
     </g>
     <g id="text_26">
      <!-- 0.3 -->
      <g style="fill:#262626;" transform="translate(385.793301 250.390625)scale(0.055 -0.055)">
       <use xlink:href="#DejaVuSans-48"/>
       <use x="63.623047" xlink:href="#DejaVuSans-46"/>
       <use x="95.410156" xlink:href="#DejaVuSans-51"/>
      </g>
     </g>
    </g>
    <g id="ytick_11">
     <g id="line2d_29">
      <path clip-path="url(#pac63c71c5b)" d="M 404.04002 198.565328 
L 759.504433 198.565328 
" style="fill:none;stroke:#ffffff;stroke-linecap:round;stroke-width:0.5;"/>
     </g>
     <g id="text_27">
      <!-- 0.4 -->
      <g style="fill:#262626;" transform="translate(385.793301 200.654898)scale(0.055 -0.055)">
       <use xlink:href="#DejaVuSans-48"/>
       <use x="63.623047" xlink:href="#DejaVuSans-46"/>
       <use x="95.410156" xlink:href="#DejaVuSans-52"/>
      </g>
     </g>
    </g>
    <g id="ytick_12">
     <g id="line2d_30">
      <path clip-path="url(#pac63c71c5b)" d="M 404.04002 148.829602 
L 759.504433 148.829602 
" style="fill:none;stroke:#ffffff;stroke-linecap:round;stroke-width:0.5;"/>
     </g>
     <g id="text_28">
      <!-- 0.5 -->
      <g style="fill:#262626;" transform="translate(385.793301 150.919172)scale(0.055 -0.055)">
       <use xlink:href="#DejaVuSans-48"/>
       <use x="63.623047" xlink:href="#DejaVuSans-46"/>
       <use x="95.410156" xlink:href="#DejaVuSans-53"/>
      </g>
     </g>
    </g>
    <g id="ytick_13">
     <g id="line2d_31">
      <path clip-path="url(#pac63c71c5b)" d="M 404.04002 99.093876 
L 759.504433 99.093876 
" style="fill:none;stroke:#ffffff;stroke-linecap:round;stroke-width:0.5;"/>
     </g>
     <g id="text_29">
      <!-- 0.6 -->
      <g style="fill:#262626;" transform="translate(385.793301 101.183446)scale(0.055 -0.055)">
       <use xlink:href="#DejaVuSans-48"/>
       <use x="63.623047" xlink:href="#DejaVuSans-46"/>
       <use x="95.410156" xlink:href="#DejaVuSans-54"/>
      </g>
     </g>
    </g>
    <g id="ytick_14">
     <g id="line2d_32">
      <path clip-path="url(#pac63c71c5b)" d="M 404.04002 49.35815 
L 759.504433 49.35815 
" style="fill:none;stroke:#ffffff;stroke-linecap:round;stroke-width:0.5;"/>
     </g>
     <g id="text_30">
      <!-- 0.7 -->
      <g style="fill:#262626;" transform="translate(385.793301 51.44772)scale(0.055 -0.055)">
       <use xlink:href="#DejaVuSans-48"/>
       <use x="63.623047" xlink:href="#DejaVuSans-46"/>
       <use x="95.410156" xlink:href="#DejaVuSans-55"/>
      </g>
     </g>
    </g>
   </g>
   <g id="PathCollection_3">
    <g clip-path="url(#pac63c71c5b)">
     <use style="fill:#4c72b0;stroke:#4c72b0;" x="730.918134" xlink:href="#m3f6986cf8e" y="73.995625"/>
    </g>
   </g>
   <g id="PathCollection_4">
    <g clip-path="url(#pac63c71c5b)">
     <use style="fill:#4c72b0;stroke:#4c72b0;" x="737.132546" xlink:href="#m3f6986cf8e" y="24.808583"/>
    </g>
   </g>
   <g id="line2d_33">
    <path clip-path="url(#pac63c71c5b)" d="M 420.197493 391.596237 
L 423.304699 383.638394 
L 426.411906 363.244358 
L 429.519112 329.983997 
L 432.626319 304.86122 
L 435.733525 283.189202 
L 438.840731 268.178808 
L 441.947938 259.930201 
L 445.055144 254.845865 
L 448.162351 251.070555 
L 451.269557 247.868634 
L 454.376764 245.498636 
L 457.48397 243.132507 
L 460.591176 240.937205 
L 463.698383 239.198434 
L 466.805589 237.788468 
L 469.912796 236.201092 
L 473.020002 234.772094 
L 476.127208 233.376106 
L 479.234415 231.240197 
L 482.341621 231.271636 
L 485.448828 229.169893 
L 488.556034 226.377531 
L 491.66324 225.21873 
L 494.770447 225.187277 
L 497.877653 223.90969 
L 500.98486 221.104521 
L 504.092066 220.731056 
L 507.199272 219.448043 
L 510.306479 217.552036 
L 513.413685 216.691002 
L 516.520892 214.324488 
L 519.628098 212.516999 
L 522.735304 212.056586 
L 525.842511 208.362414 
L 528.949717 207.947816 
L 532.056924 205.785109 
L 535.16413 204.608848 
L 538.271336 202.995074 
L 541.378543 200.96436 
L 544.485749 198.238773 
L 547.592956 196.483296 
L 550.700162 195.732512 
L 553.807369 193.089989 
L 556.914575 190.447081 
L 560.021781 188.48003 
L 563.128988 187.54484 
L 566.236194 184.729577 
L 569.343401 182.469828 
L 572.450607 180.434845 
L 575.557813 178.17975 
L 578.66502 176.318309 
L 581.772226 174.531779 
L 584.879433 171.615576 
L 587.986639 169.074764 
L 591.093845 167.526979 
L 594.201052 164.824678 
L 597.308258 162.264449 
L 600.415465 160.809452 
L 603.522671 156.80899 
L 606.629877 155.223941 
L 609.737084 151.593431 
L 612.84429 149.920649 
L 615.951497 149.070866 
L 619.058703 145.380192 
L 622.165909 143.643362 
L 625.273116 140.786166 
L 628.380322 136.536851 
L 631.487529 134.879202 
L 634.594735 134.107459 
L 637.701941 129.798765 
L 640.809148 127.269204 
L 643.916354 126.238128 
L 647.023561 123.114218 
L 650.130767 121.363811 
L 653.237974 117.585403 
L 656.34518 116.085346 
L 659.452386 113.418766 
L 662.559593 111.10078 
L 665.666799 108.87908 
L 668.774006 106.320407 
L 671.881212 104.90386 
L 674.988418 102.618097 
L 678.095625 99.929373 
L 681.202831 96.790344 
L 684.310038 96.782963 
L 687.417244 93.159449 
L 690.52445 90.793319 
L 693.631657 90.74983 
L 696.738863 86.176378 
L 699.84607 86.270323 
L 702.953276 84.995062 
L 706.060482 83.682924 
L 709.167689 82.403781 
L 712.274895 81.442222 
L 715.382102 79.132002 
L 718.489308 77.730959 
L 721.596514 78.250751 
L 724.703721 77.852859 
L 727.810927 77.701048 
L 730.918134 73.995625 
L 734.02534 76.862544 
L 737.132546 75.531759 
L 740.239753 77.055473 
L 743.346959 75.058154 
" style="fill:none;stroke:#4c72b0;stroke-linecap:round;stroke-width:0.75;"/>
   </g>
   <g id="line2d_34">
    <path clip-path="url(#pac63c71c5b)" d="M 420.197493 378.38982 
L 423.304699 367.547431 
L 426.411906 316.627998 
L 429.519112 277.774445 
L 432.626319 260.76482 
L 435.733525 228.128249 
L 438.840731 221.881437 
L 441.947938 211.715448 
L 445.055144 204.473935 
L 448.162351 204.066096 
L 451.269557 199.042784 
L 454.376764 192.577149 
L 457.48397 183.80377 
L 460.591176 182.411161 
L 463.698383 180.222796 
L 466.805589 194.487001 
L 469.912796 181.714863 
L 473.020002 182.082904 
L 476.127208 171.6782 
L 479.234415 181.108094 
L 482.341621 165.321969 
L 485.448828 173.80689 
L 488.556034 165.998375 
L 491.66324 171.419564 
L 494.770447 177.208809 
L 497.877653 159.333793 
L 500.98486 159.463104 
L 504.092066 156.06117 
L 507.199272 163.770212 
L 510.306479 147.914467 
L 513.413685 156.389427 
L 516.520892 154.250791 
L 519.628098 149.396588 
L 522.735304 151.664534 
L 525.842511 153.763386 
L 528.949717 143.060249 
L 532.056924 150.252048 
L 535.16413 132.078599 
L 538.271336 133.312059 
L 541.378543 129.890249 
L 544.485749 140.225316 
L 547.592956 126.299315 
L 550.700162 134.306761 
L 553.807369 127.075208 
L 556.914575 130.795423 
L 560.021781 123.046598 
L 563.128988 118.898638 
L 566.236194 120.718977 
L 569.343401 116.630692 
L 572.450607 105.609258 
L 575.557813 114.203583 
L 578.66502 105.290962 
L 581.772226 102.227231 
L 584.879433 99.29281 
L 587.986639 97.203919 
L 591.093845 102.396325 
L 594.201052 96.328567 
L 597.308258 92.429297 
L 600.415465 90.15139 
L 603.522671 87.187147 
L 606.629877 82.492092 
L 609.737084 81.417794 
L 612.84429 81.835579 
L 615.951497 79.149848 
L 619.058703 72.94282 
L 622.165909 74.6637 
L 625.273116 72.525065 
L 628.380322 66.825348 
L 631.487529 70.694765 
L 634.594735 64.706604 
L 637.701941 60.916723 
L 640.809148 61.155453 
L 643.916354 58.519467 
L 647.023561 60.38952 
L 650.130767 52.58102 
L 653.237974 51.994142 
L 656.34518 50.293182 
L 659.452386 47.836251 
L 662.559593 48.164478 
L 665.666799 43.180979 
L 668.774006 42.922358 
L 671.881212 41.639153 
L 674.988418 41.698857 
L 678.095625 38.376505 
L 681.202831 36.665585 
L 684.310038 37.22264 
L 687.417244 33.343233 
L 690.52445 33.611814 
L 693.631657 32.149585 
L 696.738863 31.154883 
L 699.84607 29.871678 
L 702.953276 29.314652 
L 706.060482 28.966503 
L 709.167689 27.862383 
L 712.274895 27.892205 
L 715.382102 26.957179 
L 718.489308 26.439936 
L 721.596514 26.280773 
L 724.703721 26.051975 
L 727.810927 25.335786 
L 730.918134 24.89811 
L 734.02534 24.818543 
L 737.132546 24.808583 
L 740.239753 24.977706 
L 743.346959 24.997598 
" style="fill:none;stroke:#4c72b0;stroke-dasharray:2.775,1.2;stroke-dashoffset:0;stroke-width:0.75;"/>
   </g>
   <g id="patch_8">
    <path d="M 404.04002 409.93562 
L 404.04002 6.4692 
" style="fill:none;stroke:#ffffff;stroke-linecap:square;stroke-linejoin:miter;stroke-width:0.625;"/>
   </g>
   <g id="patch_9">
    <path d="M 759.504433 409.93562 
L 759.504433 6.4692 
" style="fill:none;stroke:#ffffff;stroke-linecap:square;stroke-linejoin:miter;stroke-width:0.625;"/>
   </g>
   <g id="patch_10">
    <path d="M 404.04002 409.93562 
L 759.504433 409.93562 
" style="fill:none;stroke:#ffffff;stroke-linecap:square;stroke-linejoin:miter;stroke-width:0.625;"/>
   </g>
   <g id="patch_11">
    <path d="M 404.04002 6.4692 
L 759.504433 6.4692 
" style="fill:none;stroke:#ffffff;stroke-linecap:square;stroke-linejoin:miter;stroke-width:0.625;"/>
   </g>
   <g id="text_31">
    <!-- 0.6505 -->
    <g style="fill:#262626;" transform="translate(699.426571 72.123906)scale(0.09 -0.09)">
     <use xlink:href="#DejaVuSans-48"/>
     <use x="63.623047" xlink:href="#DejaVuSans-46"/>
     <use x="95.410156" xlink:href="#DejaVuSans-54"/>
     <use x="159.033203" xlink:href="#DejaVuSans-53"/>
     <use x="222.65625" xlink:href="#DejaVuSans-48"/>
     <use x="286.279297" xlink:href="#DejaVuSans-53"/>
    </g>
   </g>
   <g id="text_32">
    <!-- 0.7494 -->
    <g style="fill:#262626;" transform="translate(705.640984 22.936864)scale(0.09 -0.09)">
     <use xlink:href="#DejaVuSans-48"/>
     <use x="63.623047" xlink:href="#DejaVuSans-46"/>
     <use x="95.410156" xlink:href="#DejaVuSans-55"/>
     <use x="159.033203" xlink:href="#DejaVuSans-52"/>
     <use x="222.65625" xlink:href="#DejaVuSans-57"/>
     <use x="286.279297" xlink:href="#DejaVuSans-52"/>
    </g>
   </g>
   <g id="legend_2">
    <g id="line2d_35">
     <path d="M 408.99002 13.673341 
L 419.99002 13.673341 
" style="fill:none;stroke:#4c72b0;stroke-linecap:round;stroke-width:0.75;"/>
    </g>
    <g id="line2d_36"/>
    <g id="text_33">
     <!-- aotnet50, randaug_6_mixup_0.1_cutmix_1.0_RRC_0.08_LAMB_lr0.008_wd0.02 accuracy -->
     <g style="fill:#262626;" transform="translate(424.39002 15.598341)scale(0.055 -0.055)">
      <defs>
       <path d="M 32.171875 -5.078125 
Q 28.375 -14.84375 24.75 -17.8125 
Q 21.140625 -20.796875 15.09375 -20.796875 
L 7.90625 -20.796875 
L 7.90625 -13.28125 
L 13.1875 -13.28125 
Q 16.890625 -13.28125 18.9375 -11.515625 
Q 21 -9.765625 23.484375 -3.21875 
L 25.09375 0.875 
L 2.984375 54.6875 
L 12.5 54.6875 
L 29.59375 11.921875 
L 46.6875 54.6875 
L 56.203125 54.6875 
z
" id="DejaVuSans-121"/>
      </defs>
      <use xlink:href="#DejaVuSans-97"/>
      <use x="61.279297" xlink:href="#DejaVuSans-111"/>
      <use x="122.460938" xlink:href="#DejaVuSans-116"/>
      <use x="161.669922" xlink:href="#DejaVuSans-110"/>
      <use x="225.048828" xlink:href="#DejaVuSans-101"/>
      <use x="286.572266" xlink:href="#DejaVuSans-116"/>
      <use x="325.78125" xlink:href="#DejaVuSans-53"/>
      <use x="389.404297" xlink:href="#DejaVuSans-48"/>
      <use x="453.027344" xlink:href="#DejaVuSans-44"/>
      <use x="484.814453" xlink:href="#DejaVuSans-32"/>
      <use x="516.601562" xlink:href="#DejaVuSans-114"/>
      <use x="557.714844" xlink:href="#DejaVuSans-97"/>
      <use x="618.994141" xlink:href="#DejaVuSans-110"/>
      <use x="682.373047" xlink:href="#DejaVuSans-100"/>
      <use x="745.849609" xlink:href="#DejaVuSans-97"/>
      <use x="807.128906" xlink:href="#DejaVuSans-117"/>
      <use x="870.507812" xlink:href="#DejaVuSans-103"/>
      <use x="933.984375" xlink:href="#DejaVuSans-95"/>
      <use x="983.984375" xlink:href="#DejaVuSans-54"/>
      <use x="1047.607422" xlink:href="#DejaVuSans-95"/>
      <use x="1097.607422" xlink:href="#DejaVuSans-109"/>
      <use x="1195.019531" xlink:href="#DejaVuSans-105"/>
      <use x="1222.802734" xlink:href="#DejaVuSans-120"/>
      <use x="1281.982422" xlink:href="#DejaVuSans-117"/>
      <use x="1345.361328" xlink:href="#DejaVuSans-112"/>
      <use x="1408.837891" xlink:href="#DejaVuSans-95"/>
      <use x="1458.837891" xlink:href="#DejaVuSans-48"/>
      <use x="1522.460938" xlink:href="#DejaVuSans-46"/>
      <use x="1554.248047" xlink:href="#DejaVuSans-49"/>
      <use x="1617.871094" xlink:href="#DejaVuSans-95"/>
      <use x="1667.871094" xlink:href="#DejaVuSans-99"/>
      <use x="1722.851562" xlink:href="#DejaVuSans-117"/>
      <use x="1786.230469" xlink:href="#DejaVuSans-116"/>
      <use x="1825.439453" xlink:href="#DejaVuSans-109"/>
      <use x="1922.851562" xlink:href="#DejaVuSans-105"/>
      <use x="1950.634766" xlink:href="#DejaVuSans-120"/>
      <use x="2009.814453" xlink:href="#DejaVuSans-95"/>
      <use x="2059.814453" xlink:href="#DejaVuSans-49"/>
      <use x="2123.4375" xlink:href="#DejaVuSans-46"/>
      <use x="2155.224609" xlink:href="#DejaVuSans-48"/>
      <use x="2218.847656" xlink:href="#DejaVuSans-95"/>
      <use x="2268.847656" xlink:href="#DejaVuSans-82"/>
      <use x="2338.330078" xlink:href="#DejaVuSans-82"/>
      <use x="2402.8125" xlink:href="#DejaVuSans-67"/>
      <use x="2472.636719" xlink:href="#DejaVuSans-95"/>
      <use x="2522.636719" xlink:href="#DejaVuSans-48"/>
      <use x="2586.259766" xlink:href="#DejaVuSans-46"/>
      <use x="2618.046875" xlink:href="#DejaVuSans-48"/>
      <use x="2681.669922" xlink:href="#DejaVuSans-56"/>
      <use x="2745.292969" xlink:href="#DejaVuSans-95"/>
      <use x="2795.292969" xlink:href="#DejaVuSans-76"/>
      <use x="2853.255859" xlink:href="#DejaVuSans-65"/>
      <use x="2921.664062" xlink:href="#DejaVuSans-77"/>
      <use x="3007.943359" xlink:href="#DejaVuSans-66"/>
      <use x="3076.546875" xlink:href="#DejaVuSans-95"/>
      <use x="3126.546875" xlink:href="#DejaVuSans-108"/>
      <use x="3154.330078" xlink:href="#DejaVuSans-114"/>
      <use x="3195.443359" xlink:href="#DejaVuSans-48"/>
      <use x="3259.066406" xlink:href="#DejaVuSans-46"/>
      <use x="3290.853516" xlink:href="#DejaVuSans-48"/>
      <use x="3354.476562" xlink:href="#DejaVuSans-48"/>
      <use x="3418.099609" xlink:href="#DejaVuSans-56"/>
      <use x="3481.722656" xlink:href="#DejaVuSans-95"/>
      <use x="3531.722656" xlink:href="#DejaVuSans-119"/>
      <use x="3613.509766" xlink:href="#DejaVuSans-100"/>
      <use x="3676.986328" xlink:href="#DejaVuSans-48"/>
      <use x="3740.609375" xlink:href="#DejaVuSans-46"/>
      <use x="3772.396484" xlink:href="#DejaVuSans-48"/>
      <use x="3836.019531" xlink:href="#DejaVuSans-50"/>
      <use x="3899.642578" xlink:href="#DejaVuSans-32"/>
      <use x="3931.429688" xlink:href="#DejaVuSans-97"/>
      <use x="3992.708984" xlink:href="#DejaVuSans-99"/>
      <use x="4047.689453" xlink:href="#DejaVuSans-99"/>
      <use x="4102.669922" xlink:href="#DejaVuSans-117"/>
      <use x="4166.048828" xlink:href="#DejaVuSans-114"/>
      <use x="4207.162109" xlink:href="#DejaVuSans-97"/>
      <use x="4268.441406" xlink:href="#DejaVuSans-99"/>
      <use x="4323.421875" xlink:href="#DejaVuSans-121"/>
     </g>
    </g>
    <g id="line2d_37">
     <path d="M 408.99002 21.899278 
L 419.99002 21.899278 
" style="fill:none;stroke:#4c72b0;stroke-dasharray:2.775,1.2;stroke-dashoffset:0;stroke-width:0.75;"/>
    </g>
    <g id="line2d_38"/>
    <g id="text_34">
     <!-- aotnet50, randaug_6_mixup_0.1_cutmix_1.0_RRC_0.08_LAMB_lr0.008_wd0.02 val_accuracy -->
     <g style="fill:#262626;" transform="translate(424.39002 23.824278)scale(0.055 -0.055)">
      <use xlink:href="#DejaVuSans-97"/>
      <use x="61.279297" xlink:href="#DejaVuSans-111"/>
      <use x="122.460938" xlink:href="#DejaVuSans-116"/>
      <use x="161.669922" xlink:href="#DejaVuSans-110"/>
      <use x="225.048828" xlink:href="#DejaVuSans-101"/>
      <use x="286.572266" xlink:href="#DejaVuSans-116"/>
      <use x="325.78125" xlink:href="#DejaVuSans-53"/>
      <use x="389.404297" xlink:href="#DejaVuSans-48"/>
      <use x="453.027344" xlink:href="#DejaVuSans-44"/>
      <use x="484.814453" xlink:href="#DejaVuSans-32"/>
      <use x="516.601562" xlink:href="#DejaVuSans-114"/>
      <use x="557.714844" xlink:href="#DejaVuSans-97"/>
      <use x="618.994141" xlink:href="#DejaVuSans-110"/>
      <use x="682.373047" xlink:href="#DejaVuSans-100"/>
      <use x="745.849609" xlink:href="#DejaVuSans-97"/>
      <use x="807.128906" xlink:href="#DejaVuSans-117"/>
      <use x="870.507812" xlink:href="#DejaVuSans-103"/>
      <use x="933.984375" xlink:href="#DejaVuSans-95"/>
      <use x="983.984375" xlink:href="#DejaVuSans-54"/>
      <use x="1047.607422" xlink:href="#DejaVuSans-95"/>
      <use x="1097.607422" xlink:href="#DejaVuSans-109"/>
      <use x="1195.019531" xlink:href="#DejaVuSans-105"/>
      <use x="1222.802734" xlink:href="#DejaVuSans-120"/>
      <use x="1281.982422" xlink:href="#DejaVuSans-117"/>
      <use x="1345.361328" xlink:href="#DejaVuSans-112"/>
      <use x="1408.837891" xlink:href="#DejaVuSans-95"/>
      <use x="1458.837891" xlink:href="#DejaVuSans-48"/>
      <use x="1522.460938" xlink:href="#DejaVuSans-46"/>
      <use x="1554.248047" xlink:href="#DejaVuSans-49"/>
      <use x="1617.871094" xlink:href="#DejaVuSans-95"/>
      <use x="1667.871094" xlink:href="#DejaVuSans-99"/>
      <use x="1722.851562" xlink:href="#DejaVuSans-117"/>
      <use x="1786.230469" xlink:href="#DejaVuSans-116"/>
      <use x="1825.439453" xlink:href="#DejaVuSans-109"/>
      <use x="1922.851562" xlink:href="#DejaVuSans-105"/>
      <use x="1950.634766" xlink:href="#DejaVuSans-120"/>
      <use x="2009.814453" xlink:href="#DejaVuSans-95"/>
      <use x="2059.814453" xlink:href="#DejaVuSans-49"/>
      <use x="2123.4375" xlink:href="#DejaVuSans-46"/>
      <use x="2155.224609" xlink:href="#DejaVuSans-48"/>
      <use x="2218.847656" xlink:href="#DejaVuSans-95"/>
      <use x="2268.847656" xlink:href="#DejaVuSans-82"/>
      <use x="2338.330078" xlink:href="#DejaVuSans-82"/>
      <use x="2402.8125" xlink:href="#DejaVuSans-67"/>
      <use x="2472.636719" xlink:href="#DejaVuSans-95"/>
      <use x="2522.636719" xlink:href="#DejaVuSans-48"/>
      <use x="2586.259766" xlink:href="#DejaVuSans-46"/>
      <use x="2618.046875" xlink:href="#DejaVuSans-48"/>
      <use x="2681.669922" xlink:href="#DejaVuSans-56"/>
      <use x="2745.292969" xlink:href="#DejaVuSans-95"/>
      <use x="2795.292969" xlink:href="#DejaVuSans-76"/>
      <use x="2853.255859" xlink:href="#DejaVuSans-65"/>
      <use x="2921.664062" xlink:href="#DejaVuSans-77"/>
      <use x="3007.943359" xlink:href="#DejaVuSans-66"/>
      <use x="3076.546875" xlink:href="#DejaVuSans-95"/>
      <use x="3126.546875" xlink:href="#DejaVuSans-108"/>
      <use x="3154.330078" xlink:href="#DejaVuSans-114"/>
      <use x="3195.443359" xlink:href="#DejaVuSans-48"/>
      <use x="3259.066406" xlink:href="#DejaVuSans-46"/>
      <use x="3290.853516" xlink:href="#DejaVuSans-48"/>
      <use x="3354.476562" xlink:href="#DejaVuSans-48"/>
      <use x="3418.099609" xlink:href="#DejaVuSans-56"/>
      <use x="3481.722656" xlink:href="#DejaVuSans-95"/>
      <use x="3531.722656" xlink:href="#DejaVuSans-119"/>
      <use x="3613.509766" xlink:href="#DejaVuSans-100"/>
      <use x="3676.986328" xlink:href="#DejaVuSans-48"/>
      <use x="3740.609375" xlink:href="#DejaVuSans-46"/>
      <use x="3772.396484" xlink:href="#DejaVuSans-48"/>
      <use x="3836.019531" xlink:href="#DejaVuSans-50"/>
      <use x="3899.642578" xlink:href="#DejaVuSans-32"/>
      <use x="3931.429688" xlink:href="#DejaVuSans-118"/>
      <use x="3990.609375" xlink:href="#DejaVuSans-97"/>
      <use x="4051.888672" xlink:href="#DejaVuSans-108"/>
      <use x="4079.671875" xlink:href="#DejaVuSans-95"/>
      <use x="4129.671875" xlink:href="#DejaVuSans-97"/>
      <use x="4190.951172" xlink:href="#DejaVuSans-99"/>
      <use x="4245.931641" xlink:href="#DejaVuSans-99"/>
      <use x="4300.912109" xlink:href="#DejaVuSans-117"/>
      <use x="4364.291016" xlink:href="#DejaVuSans-114"/>
      <use x="4405.404297" xlink:href="#DejaVuSans-97"/>
      <use x="4466.683594" xlink:href="#DejaVuSans-99"/>
      <use x="4521.664062" xlink:href="#DejaVuSans-121"/>
     </g>
    </g>
   </g>
  </g>
  <g id="axes_3">
   <g id="patch_12">
    <path d="M 790.775587 409.93562 
L 1146.24 409.93562 
L 1146.24 6.4692 
L 790.775587 6.4692 
z
" style="fill:#eaeaf2;"/>
   </g>
   <g id="matplotlib.axis_5">
    <g id="xtick_13">
     <g id="line2d_39">
      <path clip-path="url(#p4a048c3d18)" d="M 806.93306 409.93562 
L 806.93306 6.4692 
" style="fill:none;stroke:#ffffff;stroke-linecap:round;stroke-width:0.5;"/>
     </g>
     <g id="text_35">
      <!-- 0 -->
      <g style="fill:#262626;" transform="translate(805.183373 423.61476)scale(0.055 -0.055)">
       <use xlink:href="#DejaVuSans-48"/>
      </g>
     </g>
    </g>
    <g id="xtick_14">
     <g id="line2d_40">
      <path clip-path="url(#p4a048c3d18)" d="M 869.077189 409.93562 
L 869.077189 6.4692 
" style="fill:none;stroke:#ffffff;stroke-linecap:round;stroke-width:0.5;"/>
     </g>
     <g id="text_36">
      <!-- 20 -->
      <g style="fill:#262626;" transform="translate(865.577814 423.61476)scale(0.055 -0.055)">
       <use xlink:href="#DejaVuSans-50"/>
       <use x="63.623047" xlink:href="#DejaVuSans-48"/>
      </g>
     </g>
    </g>
    <g id="xtick_15">
     <g id="line2d_41">
      <path clip-path="url(#p4a048c3d18)" d="M 931.221317 409.93562 
L 931.221317 6.4692 
" style="fill:none;stroke:#ffffff;stroke-linecap:round;stroke-width:0.5;"/>
     </g>
     <g id="text_37">
      <!-- 40 -->
      <g style="fill:#262626;" transform="translate(927.721942 423.61476)scale(0.055 -0.055)">
       <use xlink:href="#DejaVuSans-52"/>
       <use x="63.623047" xlink:href="#DejaVuSans-48"/>
      </g>
     </g>
    </g>
    <g id="xtick_16">
     <g id="line2d_42">
      <path clip-path="url(#p4a048c3d18)" d="M 993.365445 409.93562 
L 993.365445 6.4692 
" style="fill:none;stroke:#ffffff;stroke-linecap:round;stroke-width:0.5;"/>
     </g>
     <g id="text_38">
      <!-- 60 -->
      <g style="fill:#262626;" transform="translate(989.86607 423.61476)scale(0.055 -0.055)">
       <use xlink:href="#DejaVuSans-54"/>
       <use x="63.623047" xlink:href="#DejaVuSans-48"/>
      </g>
     </g>
    </g>
    <g id="xtick_17">
     <g id="line2d_43">
      <path clip-path="url(#p4a048c3d18)" d="M 1055.509573 409.93562 
L 1055.509573 6.4692 
" style="fill:none;stroke:#ffffff;stroke-linecap:round;stroke-width:0.5;"/>
     </g>
     <g id="text_39">
      <!-- 80 -->
      <g style="fill:#262626;" transform="translate(1052.010198 423.61476)scale(0.055 -0.055)">
       <use xlink:href="#DejaVuSans-56"/>
       <use x="63.623047" xlink:href="#DejaVuSans-48"/>
      </g>
     </g>
    </g>
    <g id="xtick_18">
     <g id="line2d_44">
      <path clip-path="url(#p4a048c3d18)" d="M 1117.653701 409.93562 
L 1117.653701 6.4692 
" style="fill:none;stroke:#ffffff;stroke-linecap:round;stroke-width:0.5;"/>
     </g>
     <g id="text_40">
      <!-- 100 -->
      <g style="fill:#262626;" transform="translate(1112.404639 423.61476)scale(0.055 -0.055)">
       <use xlink:href="#DejaVuSans-49"/>
       <use x="63.623047" xlink:href="#DejaVuSans-48"/>
       <use x="127.246094" xlink:href="#DejaVuSans-48"/>
      </g>
     </g>
    </g>
   </g>
   <g id="matplotlib.axis_6">
    <g id="ytick_15">
     <g id="line2d_45">
      <path clip-path="url(#p4a048c3d18)" d="M 790.775587 391.68796 
L 1146.24 391.68796 
" style="fill:none;stroke:#ffffff;stroke-linecap:round;stroke-width:0.5;"/>
     </g>
     <g id="text_41">
      <!-- 0.0000 -->
      <g style="fill:#262626;" transform="translate(762.030743 393.777531)scale(0.055 -0.055)">
       <use xlink:href="#DejaVuSans-48"/>
       <use x="63.623047" xlink:href="#DejaVuSans-46"/>
       <use x="95.410156" xlink:href="#DejaVuSans-48"/>
       <use x="159.033203" xlink:href="#DejaVuSans-48"/>
       <use x="222.65625" xlink:href="#DejaVuSans-48"/>
       <use x="286.279297" xlink:href="#DejaVuSans-48"/>
      </g>
     </g>
    </g>
    <g id="ytick_16">
     <g id="line2d_46">
      <path clip-path="url(#p4a048c3d18)" d="M 790.775587 345.826204 
L 1146.24 345.826204 
" style="fill:none;stroke:#ffffff;stroke-linecap:round;stroke-width:0.5;"/>
     </g>
     <g id="text_42">
      <!-- 0.0005 -->
      <g style="fill:#262626;" transform="translate(762.030743 347.915774)scale(0.055 -0.055)">
       <use xlink:href="#DejaVuSans-48"/>
       <use x="63.623047" xlink:href="#DejaVuSans-46"/>
       <use x="95.410156" xlink:href="#DejaVuSans-48"/>
       <use x="159.033203" xlink:href="#DejaVuSans-48"/>
       <use x="222.65625" xlink:href="#DejaVuSans-48"/>
       <use x="286.279297" xlink:href="#DejaVuSans-53"/>
      </g>
     </g>
    </g>
    <g id="ytick_17">
     <g id="line2d_47">
      <path clip-path="url(#p4a048c3d18)" d="M 790.775587 299.964447 
L 1146.24 299.964447 
" style="fill:none;stroke:#ffffff;stroke-linecap:round;stroke-width:0.5;"/>
     </g>
     <g id="text_43">
      <!-- 0.0010 -->
      <g style="fill:#262626;" transform="translate(762.030743 302.054017)scale(0.055 -0.055)">
       <use xlink:href="#DejaVuSans-48"/>
       <use x="63.623047" xlink:href="#DejaVuSans-46"/>
       <use x="95.410156" xlink:href="#DejaVuSans-48"/>
       <use x="159.033203" xlink:href="#DejaVuSans-48"/>
       <use x="222.65625" xlink:href="#DejaVuSans-49"/>
       <use x="286.279297" xlink:href="#DejaVuSans-48"/>
      </g>
     </g>
    </g>
    <g id="ytick_18">
     <g id="line2d_48">
      <path clip-path="url(#p4a048c3d18)" d="M 790.775587 254.10269 
L 1146.24 254.10269 
" style="fill:none;stroke:#ffffff;stroke-linecap:round;stroke-width:0.5;"/>
     </g>
     <g id="text_44">
      <!-- 0.0015 -->
      <g style="fill:#262626;" transform="translate(762.030743 256.192261)scale(0.055 -0.055)">
       <use xlink:href="#DejaVuSans-48"/>
       <use x="63.623047" xlink:href="#DejaVuSans-46"/>
       <use x="95.410156" xlink:href="#DejaVuSans-48"/>
       <use x="159.033203" xlink:href="#DejaVuSans-48"/>
       <use x="222.65625" xlink:href="#DejaVuSans-49"/>
       <use x="286.279297" xlink:href="#DejaVuSans-53"/>
      </g>
     </g>
    </g>
    <g id="ytick_19">
     <g id="line2d_49">
      <path clip-path="url(#p4a048c3d18)" d="M 790.775587 208.240934 
L 1146.24 208.240934 
" style="fill:none;stroke:#ffffff;stroke-linecap:round;stroke-width:0.5;"/>
     </g>
     <g id="text_45">
      <!-- 0.0020 -->
      <g style="fill:#262626;" transform="translate(762.030743 210.330504)scale(0.055 -0.055)">
       <use xlink:href="#DejaVuSans-48"/>
       <use x="63.623047" xlink:href="#DejaVuSans-46"/>
       <use x="95.410156" xlink:href="#DejaVuSans-48"/>
       <use x="159.033203" xlink:href="#DejaVuSans-48"/>
       <use x="222.65625" xlink:href="#DejaVuSans-50"/>
       <use x="286.279297" xlink:href="#DejaVuSans-48"/>
      </g>
     </g>
    </g>
    <g id="ytick_20">
     <g id="line2d_50">
      <path clip-path="url(#p4a048c3d18)" d="M 790.775587 162.379177 
L 1146.24 162.379177 
" style="fill:none;stroke:#ffffff;stroke-linecap:round;stroke-width:0.5;"/>
     </g>
     <g id="text_46">
      <!-- 0.0025 -->
      <g style="fill:#262626;" transform="translate(762.030743 164.468747)scale(0.055 -0.055)">
       <use xlink:href="#DejaVuSans-48"/>
       <use x="63.623047" xlink:href="#DejaVuSans-46"/>
       <use x="95.410156" xlink:href="#DejaVuSans-48"/>
       <use x="159.033203" xlink:href="#DejaVuSans-48"/>
       <use x="222.65625" xlink:href="#DejaVuSans-50"/>
       <use x="286.279297" xlink:href="#DejaVuSans-53"/>
      </g>
     </g>
    </g>
    <g id="ytick_21">
     <g id="line2d_51">
      <path clip-path="url(#p4a048c3d18)" d="M 790.775587 116.51742 
L 1146.24 116.51742 
" style="fill:none;stroke:#ffffff;stroke-linecap:round;stroke-width:0.5;"/>
     </g>
     <g id="text_47">
      <!-- 0.0030 -->
      <g style="fill:#262626;" transform="translate(762.030743 118.606991)scale(0.055 -0.055)">
       <use xlink:href="#DejaVuSans-48"/>
       <use x="63.623047" xlink:href="#DejaVuSans-46"/>
       <use x="95.410156" xlink:href="#DejaVuSans-48"/>
       <use x="159.033203" xlink:href="#DejaVuSans-48"/>
       <use x="222.65625" xlink:href="#DejaVuSans-51"/>
       <use x="286.279297" xlink:href="#DejaVuSans-48"/>
      </g>
     </g>
    </g>
    <g id="ytick_22">
     <g id="line2d_52">
      <path clip-path="url(#p4a048c3d18)" d="M 790.775587 70.655664 
L 1146.24 70.655664 
" style="fill:none;stroke:#ffffff;stroke-linecap:round;stroke-width:0.5;"/>
     </g>
     <g id="text_48">
      <!-- 0.0035 -->
      <g style="fill:#262626;" transform="translate(762.030743 72.745234)scale(0.055 -0.055)">
       <use xlink:href="#DejaVuSans-48"/>
       <use x="63.623047" xlink:href="#DejaVuSans-46"/>
       <use x="95.410156" xlink:href="#DejaVuSans-48"/>
       <use x="159.033203" xlink:href="#DejaVuSans-48"/>
       <use x="222.65625" xlink:href="#DejaVuSans-51"/>
       <use x="286.279297" xlink:href="#DejaVuSans-53"/>
      </g>
     </g>
    </g>
    <g id="ytick_23">
     <g id="line2d_53">
      <path clip-path="url(#p4a048c3d18)" d="M 790.775587 24.793907 
L 1146.24 24.793907 
" style="fill:none;stroke:#ffffff;stroke-linecap:round;stroke-width:0.5;"/>
     </g>
     <g id="text_49">
      <!-- 0.0040 -->
      <g style="fill:#262626;" transform="translate(762.030743 26.883477)scale(0.055 -0.055)">
       <use xlink:href="#DejaVuSans-48"/>
       <use x="63.623047" xlink:href="#DejaVuSans-46"/>
       <use x="95.410156" xlink:href="#DejaVuSans-48"/>
       <use x="159.033203" xlink:href="#DejaVuSans-48"/>
       <use x="222.65625" xlink:href="#DejaVuSans-52"/>
       <use x="286.279297" xlink:href="#DejaVuSans-48"/>
      </g>
     </g>
    </g>
   </g>
   <g id="PathCollection_5">
    <g clip-path="url(#p4a048c3d18)">
     <use style="fill:#4c72b0;stroke:#4c72b0;" x="1130.082527" xlink:href="#m3f6986cf8e" y="391.596237"/>
    </g>
   </g>
   <g id="line2d_54">
    <path clip-path="url(#p4a048c3d18)" d="M 806.93306 318.250428 
L 810.040267 244.889959 
L 813.147473 171.5295 
L 816.25468 98.169031 
L 819.361886 24.808583 
L 822.469092 24.884354 
L 825.576299 25.155747 
L 828.683505 25.607726 
L 831.790712 26.239908 
L 834.897918 27.051694 
L 838.005124 28.04223 
L 841.112331 29.210576 
L 844.219537 30.555494 
L 847.326744 32.075746 
L 850.43395 33.769835 
L 853.541157 35.636033 
L 856.648363 37.672546 
L 859.755569 39.877344 
L 862.862776 42.248228 
L 865.969982 44.782891 
L 869.077189 47.478836 
L 872.184395 50.333391 
L 875.291601 53.343718 
L 878.398808 56.506869 
L 881.506014 59.819725 
L 884.613221 63.278998 
L 887.720427 66.881293 
L 890.827633 70.623043 
L 893.93484 74.500575 
L 897.042046 78.510065 
L 900.149253 82.647479 
L 903.256459 86.908843 
L 906.363665 91.289886 
L 909.470872 95.786294 
L 912.578078 100.393647 
L 915.685285 105.107375 
L 918.792491 109.922842 
L 921.899697 114.835267 
L 925.006904 119.839885 
L 928.11411 124.931657 
L 931.221317 130.105586 
L 934.328523 135.356632 
L 937.435729 140.679519 
L 940.542936 146.069016 
L 943.650142 151.519911 
L 946.757349 157.026653 
L 949.864555 162.583944 
L 952.971762 168.186211 
L 956.078968 173.827987 
L 959.186174 179.503676 
L 962.293381 185.207683 
L 965.400587 190.934371 
L 968.507794 196.678058 
L 971.615 202.43317 
L 974.722206 208.193899 
L 977.829413 213.954692 
L 980.936619 219.709772 
L 984.043826 225.453481 
L 987.151032 231.180179 
L 990.258238 236.884175 
L 993.365445 242.559875 
L 996.472651 248.201672 
L 999.579858 253.803982 
L 1002.687064 259.361263 
L 1005.79427 264.868036 
L 1008.901477 270.3189 
L 1012.008683 275.708471 
L 1015.11589 281.031412 
L 1018.223096 286.282458 
L 1021.330302 291.456462 
L 1024.437509 296.548244 
L 1027.544715 301.552863 
L 1030.651922 306.465356 
L 1033.759128 311.280904 
L 1036.866334 315.994648 
L 1039.973541 320.602038 
L 1043.080747 325.098495 
L 1046.187954 329.479586 
L 1049.29516 333.740976 
L 1052.402367 337.87848 
L 1055.509573 341.887987 
L 1058.616779 345.765566 
L 1061.723986 349.507375 
L 1064.831192 353.109726 
L 1067.938399 356.569042 
L 1071.045605 359.881963 
L 1074.152811 363.045196 
L 1077.260018 366.055595 
L 1080.367224 368.910196 
L 1083.474431 371.606182 
L 1086.581637 374.140915 
L 1089.688843 376.511884 
L 1092.79605 378.716758 
L 1095.903256 380.753308 
L 1099.010463 382.619587 
L 1102.117669 384.313729 
L 1105.224875 385.834068 
L 1108.332082 387.179099 
L 1111.439288 388.347486 
L 1114.546495 389.338082 
L 1117.653701 390.149926 
L 1120.760907 390.782185 
L 1123.868114 391.234271 
L 1126.97532 391.505702 
L 1130.082527 391.596237 
" style="fill:none;stroke:#4c72b0;stroke-linecap:round;stroke-width:0.75;"/>
   </g>
   <g id="patch_13">
    <path d="M 790.775587 409.93562 
L 790.775587 6.4692 
" style="fill:none;stroke:#ffffff;stroke-linecap:square;stroke-linejoin:miter;stroke-width:0.625;"/>
   </g>
   <g id="patch_14">
    <path d="M 1146.24 409.93562 
L 1146.24 6.4692 
" style="fill:none;stroke:#ffffff;stroke-linecap:square;stroke-linejoin:miter;stroke-width:0.625;"/>
   </g>
   <g id="patch_15">
    <path d="M 790.775587 409.93562 
L 1146.24 409.93562 
" style="fill:none;stroke:#ffffff;stroke-linecap:square;stroke-linejoin:miter;stroke-width:0.625;"/>
   </g>
   <g id="patch_16">
    <path d="M 790.775587 6.4692 
L 1146.24 6.4692 
" style="fill:none;stroke:#ffffff;stroke-linecap:square;stroke-linejoin:miter;stroke-width:0.625;"/>
   </g>
   <g id="text_50">
    <!-- 0.0000 -->
    <g style="fill:#262626;" transform="translate(1098.590964 389.724518)scale(0.09 -0.09)">
     <use xlink:href="#DejaVuSans-48"/>
     <use x="63.623047" xlink:href="#DejaVuSans-46"/>
     <use x="95.410156" xlink:href="#DejaVuSans-48"/>
     <use x="159.033203" xlink:href="#DejaVuSans-48"/>
     <use x="222.65625" xlink:href="#DejaVuSans-48"/>
     <use x="286.279297" xlink:href="#DejaVuSans-48"/>
    </g>
   </g>
   <g id="legend_3">
    <g id="line2d_55">
     <path d="M 905.871953 13.673341 
L 916.871953 13.673341 
" style="fill:none;stroke:#4c72b0;stroke-linecap:round;stroke-width:0.75;"/>
    </g>
    <g id="line2d_56"/>
    <g id="text_51">
     <!-- aotnet50, randaug_6_mixup_0.1_cutmix_1.0_RRC_0.08_LAMB_lr0.008_wd0.02 lr -->
     <g style="fill:#262626;" transform="translate(921.271953 15.598341)scale(0.055 -0.055)">
      <use xlink:href="#DejaVuSans-97"/>
      <use x="61.279297" xlink:href="#DejaVuSans-111"/>
      <use x="122.460938" xlink:href="#DejaVuSans-116"/>
      <use x="161.669922" xlink:href="#DejaVuSans-110"/>
      <use x="225.048828" xlink:href="#DejaVuSans-101"/>
      <use x="286.572266" xlink:href="#DejaVuSans-116"/>
      <use x="325.78125" xlink:href="#DejaVuSans-53"/>
      <use x="389.404297" xlink:href="#DejaVuSans-48"/>
      <use x="453.027344" xlink:href="#DejaVuSans-44"/>
      <use x="484.814453" xlink:href="#DejaVuSans-32"/>
      <use x="516.601562" xlink:href="#DejaVuSans-114"/>
      <use x="557.714844" xlink:href="#DejaVuSans-97"/>
      <use x="618.994141" xlink:href="#DejaVuSans-110"/>
      <use x="682.373047" xlink:href="#DejaVuSans-100"/>
      <use x="745.849609" xlink:href="#DejaVuSans-97"/>
      <use x="807.128906" xlink:href="#DejaVuSans-117"/>
      <use x="870.507812" xlink:href="#DejaVuSans-103"/>
      <use x="933.984375" xlink:href="#DejaVuSans-95"/>
      <use x="983.984375" xlink:href="#DejaVuSans-54"/>
      <use x="1047.607422" xlink:href="#DejaVuSans-95"/>
      <use x="1097.607422" xlink:href="#DejaVuSans-109"/>
      <use x="1195.019531" xlink:href="#DejaVuSans-105"/>
      <use x="1222.802734" xlink:href="#DejaVuSans-120"/>
      <use x="1281.982422" xlink:href="#DejaVuSans-117"/>
      <use x="1345.361328" xlink:href="#DejaVuSans-112"/>
      <use x="1408.837891" xlink:href="#DejaVuSans-95"/>
      <use x="1458.837891" xlink:href="#DejaVuSans-48"/>
      <use x="1522.460938" xlink:href="#DejaVuSans-46"/>
      <use x="1554.248047" xlink:href="#DejaVuSans-49"/>
      <use x="1617.871094" xlink:href="#DejaVuSans-95"/>
      <use x="1667.871094" xlink:href="#DejaVuSans-99"/>
      <use x="1722.851562" xlink:href="#DejaVuSans-117"/>
      <use x="1786.230469" xlink:href="#DejaVuSans-116"/>
      <use x="1825.439453" xlink:href="#DejaVuSans-109"/>
      <use x="1922.851562" xlink:href="#DejaVuSans-105"/>
      <use x="1950.634766" xlink:href="#DejaVuSans-120"/>
      <use x="2009.814453" xlink:href="#DejaVuSans-95"/>
      <use x="2059.814453" xlink:href="#DejaVuSans-49"/>
      <use x="2123.4375" xlink:href="#DejaVuSans-46"/>
      <use x="2155.224609" xlink:href="#DejaVuSans-48"/>
      <use x="2218.847656" xlink:href="#DejaVuSans-95"/>
      <use x="2268.847656" xlink:href="#DejaVuSans-82"/>
      <use x="2338.330078" xlink:href="#DejaVuSans-82"/>
      <use x="2402.8125" xlink:href="#DejaVuSans-67"/>
      <use x="2472.636719" xlink:href="#DejaVuSans-95"/>
      <use x="2522.636719" xlink:href="#DejaVuSans-48"/>
      <use x="2586.259766" xlink:href="#DejaVuSans-46"/>
      <use x="2618.046875" xlink:href="#DejaVuSans-48"/>
      <use x="2681.669922" xlink:href="#DejaVuSans-56"/>
      <use x="2745.292969" xlink:href="#DejaVuSans-95"/>
      <use x="2795.292969" xlink:href="#DejaVuSans-76"/>
      <use x="2853.255859" xlink:href="#DejaVuSans-65"/>
      <use x="2921.664062" xlink:href="#DejaVuSans-77"/>
      <use x="3007.943359" xlink:href="#DejaVuSans-66"/>
      <use x="3076.546875" xlink:href="#DejaVuSans-95"/>
      <use x="3126.546875" xlink:href="#DejaVuSans-108"/>
      <use x="3154.330078" xlink:href="#DejaVuSans-114"/>
      <use x="3195.443359" xlink:href="#DejaVuSans-48"/>
      <use x="3259.066406" xlink:href="#DejaVuSans-46"/>
      <use x="3290.853516" xlink:href="#DejaVuSans-48"/>
      <use x="3354.476562" xlink:href="#DejaVuSans-48"/>
      <use x="3418.099609" xlink:href="#DejaVuSans-56"/>
      <use x="3481.722656" xlink:href="#DejaVuSans-95"/>
      <use x="3531.722656" xlink:href="#DejaVuSans-119"/>
      <use x="3613.509766" xlink:href="#DejaVuSans-100"/>
      <use x="3676.986328" xlink:href="#DejaVuSans-48"/>
      <use x="3740.609375" xlink:href="#DejaVuSans-46"/>
      <use x="3772.396484" xlink:href="#DejaVuSans-48"/>
      <use x="3836.019531" xlink:href="#DejaVuSans-50"/>
      <use x="3899.642578" xlink:href="#DejaVuSans-32"/>
      <use x="3931.429688" xlink:href="#DejaVuSans-108"/>
      <use x="3959.212891" xlink:href="#DejaVuSans-114"/>
     </g>
    </g>
   </g>
  </g>
 </g>
 <defs>
  <clipPath id="p5b4a7e7c7a">
   <rect height="403.46642" width="355.464413" x="17.304452" y="6.4692"/>
  </clipPath>
  <clipPath id="pac63c71c5b">
   <rect height="403.46642" width="355.464413" x="404.04002" y="6.4692"/>
  </clipPath>
  <clipPath id="p4a048c3d18">
   <rect height="403.46642" width="355.464413" x="790.775587" y="6.4692"/>
  </clipPath>
 </defs>
</svg>
