<?xml version="1.0" encoding="utf-8" standalone="no"?>
<!DOCTYPE svg PUBLIC "-//W3C//DTD SVG 1.1//EN"
  "http://www.w3.org/Graphics/SVG/1.1/DTD/svg11.dtd">
<!-- Created with matplotlib (https://matplotlib.org/) -->
<svg height="431.28pt" version="1.1" viewBox="0 0 1152 431.28" width="1152pt" xmlns="http://www.w3.org/2000/svg" xmlns:xlink="http://www.w3.org/1999/xlink">
 <metadata>
  <rdf:RDF xmlns:cc="http://creativecommons.org/ns#" xmlns:dc="http://purl.org/dc/elements/1.1/" xmlns:rdf="http://www.w3.org/1999/02/22-rdf-syntax-ns#">
   <cc:Work>
    <dc:type rdf:resource="http://purl.org/dc/dcmitype/StillImage"/>
    <dc:date>2021-11-10T18:08:25.779230</dc:date>
    <dc:format>image/svg+xml</dc:format>
    <dc:creator>
     <cc:Agent>
      <dc:title>Matplotlib v3.3.2, https://matplotlib.org/</dc:title>
     </cc:Agent>
    </dc:creator>
   </cc:Work>
  </rdf:RDF>
 </metadata>
 <defs>
  <style type="text/css">*{stroke-linecap:butt;stroke-linejoin:round;}</style>
 </defs>
 <g id="figure_1">
  <g id="patch_1">
   <path d="M 0 431.28 
L 1152 431.28 
L 1152 0 
L 0 0 
z
" style="fill:#ffffff;"/>
  </g>
  <g id="axes_1">
   <g id="patch_2">
    <path d="M 22.086233 404.153268 
L 353.951097 404.153268 
L 353.951097 9.05688 
L 22.086233 9.05688 
z
" style="fill:#eaeaf2;"/>
   </g>
   <g id="matplotlib.axis_1">
    <g id="xtick_1">
     <g id="line2d_1">
      <path clip-path="url(#p1feed18802)" d="M 37.171 404.153268 
L 37.171 9.05688 
" style="fill:none;stroke:#ffffff;stroke-linecap:round;stroke-width:0.7;"/>
     </g>
     <g id="text_1">
      <!-- 0 -->
      <g style="fill:#262626;" transform="translate(34.721437 420.904065)scale(0.077 -0.077)">
       <defs>
        <path d="M 31.78125 66.40625 
Q 24.171875 66.40625 20.328125 58.90625 
Q 16.5 51.421875 16.5 36.375 
Q 16.5 21.390625 20.328125 13.890625 
Q 24.171875 6.390625 31.78125 6.390625 
Q 39.453125 6.390625 43.28125 13.890625 
Q 47.125 21.390625 47.125 36.375 
Q 47.125 51.421875 43.28125 58.90625 
Q 39.453125 66.40625 31.78125 66.40625 
z
M 31.78125 74.21875 
Q 44.046875 74.21875 50.515625 64.515625 
Q 56.984375 54.828125 56.984375 36.375 
Q 56.984375 17.96875 50.515625 8.265625 
Q 44.046875 -1.421875 31.78125 -1.421875 
Q 19.53125 -1.421875 13.0625 8.265625 
Q 6.59375 17.96875 6.59375 36.375 
Q 6.59375 54.828125 13.0625 64.515625 
Q 19.53125 74.21875 31.78125 74.21875 
z
" id="DejaVuSans-48"/>
       </defs>
       <use xlink:href="#DejaVuSans-48"/>
      </g>
     </g>
    </g>
    <g id="xtick_2">
     <g id="line2d_2">
      <path clip-path="url(#p1feed18802)" d="M 95.189333 404.153268 
L 95.189333 9.05688 
" style="fill:none;stroke:#ffffff;stroke-linecap:round;stroke-width:0.7;"/>
     </g>
     <g id="text_2">
      <!-- 20 -->
      <g style="fill:#262626;" transform="translate(90.290208 420.904065)scale(0.077 -0.077)">
       <defs>
        <path d="M 19.1875 8.296875 
L 53.609375 8.296875 
L 53.609375 0 
L 7.328125 0 
L 7.328125 8.296875 
Q 12.9375 14.109375 22.625 23.890625 
Q 32.328125 33.6875 34.8125 36.53125 
Q 39.546875 41.84375 41.421875 45.53125 
Q 43.3125 49.21875 43.3125 52.78125 
Q 43.3125 58.59375 39.234375 62.25 
Q 35.15625 65.921875 28.609375 65.921875 
Q 23.96875 65.921875 18.8125 64.3125 
Q 13.671875 62.703125 7.8125 59.421875 
L 7.8125 69.390625 
Q 13.765625 71.78125 18.9375 73 
Q 24.125 74.21875 28.421875 74.21875 
Q 39.75 74.21875 46.484375 68.546875 
Q 53.21875 62.890625 53.21875 53.421875 
Q 53.21875 48.921875 51.53125 44.890625 
Q 49.859375 40.875 45.40625 35.40625 
Q 44.1875 33.984375 37.640625 27.21875 
Q 31.109375 20.453125 19.1875 8.296875 
z
" id="DejaVuSans-50"/>
       </defs>
       <use xlink:href="#DejaVuSans-50"/>
       <use x="63.623047" xlink:href="#DejaVuSans-48"/>
      </g>
     </g>
    </g>
    <g id="xtick_3">
     <g id="line2d_3">
      <path clip-path="url(#p1feed18802)" d="M 153.207665 404.153268 
L 153.207665 9.05688 
" style="fill:none;stroke:#ffffff;stroke-linecap:round;stroke-width:0.7;"/>
     </g>
     <g id="text_3">
      <!-- 40 -->
      <g style="fill:#262626;" transform="translate(148.30854 420.904065)scale(0.077 -0.077)">
       <defs>
        <path d="M 37.796875 64.3125 
L 12.890625 25.390625 
L 37.796875 25.390625 
z
M 35.203125 72.90625 
L 47.609375 72.90625 
L 47.609375 25.390625 
L 58.015625 25.390625 
L 58.015625 17.1875 
L 47.609375 17.1875 
L 47.609375 0 
L 37.796875 0 
L 37.796875 17.1875 
L 4.890625 17.1875 
L 4.890625 26.703125 
z
" id="DejaVuSans-52"/>
       </defs>
       <use xlink:href="#DejaVuSans-52"/>
       <use x="63.623047" xlink:href="#DejaVuSans-48"/>
      </g>
     </g>
    </g>
    <g id="xtick_4">
     <g id="line2d_4">
      <path clip-path="url(#p1feed18802)" d="M 211.225998 404.153268 
L 211.225998 9.05688 
" style="fill:none;stroke:#ffffff;stroke-linecap:round;stroke-width:0.7;"/>
     </g>
     <g id="text_4">
      <!-- 60 -->
      <g style="fill:#262626;" transform="translate(206.326873 420.904065)scale(0.077 -0.077)">
       <defs>
        <path d="M 33.015625 40.375 
Q 26.375 40.375 22.484375 35.828125 
Q 18.609375 31.296875 18.609375 23.390625 
Q 18.609375 15.53125 22.484375 10.953125 
Q 26.375 6.390625 33.015625 6.390625 
Q 39.65625 6.390625 43.53125 10.953125 
Q 47.40625 15.53125 47.40625 23.390625 
Q 47.40625 31.296875 43.53125 35.828125 
Q 39.65625 40.375 33.015625 40.375 
z
M 52.59375 71.296875 
L 52.59375 62.3125 
Q 48.875 64.0625 45.09375 64.984375 
Q 41.3125 65.921875 37.59375 65.921875 
Q 27.828125 65.921875 22.671875 59.328125 
Q 17.53125 52.734375 16.796875 39.40625 
Q 19.671875 43.65625 24.015625 45.921875 
Q 28.375 48.1875 33.59375 48.1875 
Q 44.578125 48.1875 50.953125 41.515625 
Q 57.328125 34.859375 57.328125 23.390625 
Q 57.328125 12.15625 50.6875 5.359375 
Q 44.046875 -1.421875 33.015625 -1.421875 
Q 20.359375 -1.421875 13.671875 8.265625 
Q 6.984375 17.96875 6.984375 36.375 
Q 6.984375 53.65625 15.1875 63.9375 
Q 23.390625 74.21875 37.203125 74.21875 
Q 40.921875 74.21875 44.703125 73.484375 
Q 48.484375 72.75 52.59375 71.296875 
z
" id="DejaVuSans-54"/>
       </defs>
       <use xlink:href="#DejaVuSans-54"/>
       <use x="63.623047" xlink:href="#DejaVuSans-48"/>
      </g>
     </g>
    </g>
    <g id="xtick_5">
     <g id="line2d_5">
      <path clip-path="url(#p1feed18802)" d="M 269.244331 404.153268 
L 269.244331 9.05688 
" style="fill:none;stroke:#ffffff;stroke-linecap:round;stroke-width:0.7;"/>
     </g>
     <g id="text_5">
      <!-- 80 -->
      <g style="fill:#262626;" transform="translate(264.345206 420.904065)scale(0.077 -0.077)">
       <defs>
        <path d="M 31.78125 34.625 
Q 24.75 34.625 20.71875 30.859375 
Q 16.703125 27.09375 16.703125 20.515625 
Q 16.703125 13.921875 20.71875 10.15625 
Q 24.75 6.390625 31.78125 6.390625 
Q 38.8125 6.390625 42.859375 10.171875 
Q 46.921875 13.96875 46.921875 20.515625 
Q 46.921875 27.09375 42.890625 30.859375 
Q 38.875 34.625 31.78125 34.625 
z
M 21.921875 38.8125 
Q 15.578125 40.375 12.03125 44.71875 
Q 8.5 49.078125 8.5 55.328125 
Q 8.5 64.0625 14.71875 69.140625 
Q 20.953125 74.21875 31.78125 74.21875 
Q 42.671875 74.21875 48.875 69.140625 
Q 55.078125 64.0625 55.078125 55.328125 
Q 55.078125 49.078125 51.53125 44.71875 
Q 48 40.375 41.703125 38.8125 
Q 48.828125 37.15625 52.796875 32.3125 
Q 56.78125 27.484375 56.78125 20.515625 
Q 56.78125 9.90625 50.3125 4.234375 
Q 43.84375 -1.421875 31.78125 -1.421875 
Q 19.734375 -1.421875 13.25 4.234375 
Q 6.78125 9.90625 6.78125 20.515625 
Q 6.78125 27.484375 10.78125 32.3125 
Q 14.796875 37.15625 21.921875 38.8125 
z
M 18.3125 54.390625 
Q 18.3125 48.734375 21.84375 45.5625 
Q 25.390625 42.390625 31.78125 42.390625 
Q 38.140625 42.390625 41.71875 45.5625 
Q 45.3125 48.734375 45.3125 54.390625 
Q 45.3125 60.0625 41.71875 63.234375 
Q 38.140625 66.40625 31.78125 66.40625 
Q 25.390625 66.40625 21.84375 63.234375 
Q 18.3125 60.0625 18.3125 54.390625 
z
" id="DejaVuSans-56"/>
       </defs>
       <use xlink:href="#DejaVuSans-56"/>
       <use x="63.623047" xlink:href="#DejaVuSans-48"/>
      </g>
     </g>
    </g>
    <g id="xtick_6">
     <g id="line2d_6">
      <path clip-path="url(#p1feed18802)" d="M 327.262664 404.153268 
L 327.262664 9.05688 
" style="fill:none;stroke:#ffffff;stroke-linecap:round;stroke-width:0.7;"/>
     </g>
     <g id="text_6">
      <!-- 100 -->
      <g style="fill:#262626;" transform="translate(319.913976 420.904065)scale(0.077 -0.077)">
       <defs>
        <path d="M 12.40625 8.296875 
L 28.515625 8.296875 
L 28.515625 63.921875 
L 10.984375 60.40625 
L 10.984375 69.390625 
L 28.421875 72.90625 
L 38.28125 72.90625 
L 38.28125 8.296875 
L 54.390625 8.296875 
L 54.390625 0 
L 12.40625 0 
z
" id="DejaVuSans-49"/>
       </defs>
       <use xlink:href="#DejaVuSans-49"/>
       <use x="63.623047" xlink:href="#DejaVuSans-48"/>
       <use x="127.246094" xlink:href="#DejaVuSans-48"/>
      </g>
     </g>
    </g>
   </g>
   <g id="matplotlib.axis_2">
    <g id="ytick_1">
     <g id="line2d_7">
      <path clip-path="url(#p1feed18802)" d="M 22.086233 384.765944 
L 353.951097 384.765944 
" style="fill:none;stroke:#ffffff;stroke-linecap:round;stroke-width:0.7;"/>
     </g>
     <g id="text_7">
      <!-- 1 -->
      <g style="fill:#262626;" transform="translate(6.287108 387.691343)scale(0.077 -0.077)">
       <use xlink:href="#DejaVuSans-49"/>
      </g>
     </g>
    </g>
    <g id="ytick_2">
     <g id="line2d_8">
      <path clip-path="url(#p1feed18802)" d="M 22.086233 321.199038 
L 353.951097 321.199038 
" style="fill:none;stroke:#ffffff;stroke-linecap:round;stroke-width:0.7;"/>
     </g>
     <g id="text_8">
      <!-- 2 -->
      <g style="fill:#262626;" transform="translate(6.287108 324.124437)scale(0.077 -0.077)">
       <use xlink:href="#DejaVuSans-50"/>
      </g>
     </g>
    </g>
    <g id="ytick_3">
     <g id="line2d_9">
      <path clip-path="url(#p1feed18802)" d="M 22.086233 257.632132 
L 353.951097 257.632132 
" style="fill:none;stroke:#ffffff;stroke-linecap:round;stroke-width:0.7;"/>
     </g>
     <g id="text_9">
      <!-- 3 -->
      <g style="fill:#262626;" transform="translate(6.287108 260.557531)scale(0.077 -0.077)">
       <defs>
        <path d="M 40.578125 39.3125 
Q 47.65625 37.796875 51.625 33 
Q 55.609375 28.21875 55.609375 21.1875 
Q 55.609375 10.40625 48.1875 4.484375 
Q 40.765625 -1.421875 27.09375 -1.421875 
Q 22.515625 -1.421875 17.65625 -0.515625 
Q 12.796875 0.390625 7.625 2.203125 
L 7.625 11.71875 
Q 11.71875 9.328125 16.59375 8.109375 
Q 21.484375 6.890625 26.8125 6.890625 
Q 36.078125 6.890625 40.9375 10.546875 
Q 45.796875 14.203125 45.796875 21.1875 
Q 45.796875 27.640625 41.28125 31.265625 
Q 36.765625 34.90625 28.71875 34.90625 
L 20.21875 34.90625 
L 20.21875 43.015625 
L 29.109375 43.015625 
Q 36.375 43.015625 40.234375 45.921875 
Q 44.09375 48.828125 44.09375 54.296875 
Q 44.09375 59.90625 40.109375 62.90625 
Q 36.140625 65.921875 28.71875 65.921875 
Q 24.65625 65.921875 20.015625 65.03125 
Q 15.375 64.15625 9.8125 62.3125 
L 9.8125 71.09375 
Q 15.4375 72.65625 20.34375 73.4375 
Q 25.25 74.21875 29.59375 74.21875 
Q 40.828125 74.21875 47.359375 69.109375 
Q 53.90625 64.015625 53.90625 55.328125 
Q 53.90625 49.265625 50.4375 45.09375 
Q 46.96875 40.921875 40.578125 39.3125 
z
" id="DejaVuSans-51"/>
       </defs>
       <use xlink:href="#DejaVuSans-51"/>
      </g>
     </g>
    </g>
    <g id="ytick_4">
     <g id="line2d_10">
      <path clip-path="url(#p1feed18802)" d="M 22.086233 194.065227 
L 353.951097 194.065227 
" style="fill:none;stroke:#ffffff;stroke-linecap:round;stroke-width:0.7;"/>
     </g>
     <g id="text_10">
      <!-- 4 -->
      <g style="fill:#262626;" transform="translate(6.287108 196.990625)scale(0.077 -0.077)">
       <use xlink:href="#DejaVuSans-52"/>
      </g>
     </g>
    </g>
    <g id="ytick_5">
     <g id="line2d_11">
      <path clip-path="url(#p1feed18802)" d="M 22.086233 130.498321 
L 353.951097 130.498321 
" style="fill:none;stroke:#ffffff;stroke-linecap:round;stroke-width:0.7;"/>
     </g>
     <g id="text_11">
      <!-- 5 -->
      <g style="fill:#262626;" transform="translate(6.287108 133.423719)scale(0.077 -0.077)">
       <defs>
        <path d="M 10.796875 72.90625 
L 49.515625 72.90625 
L 49.515625 64.59375 
L 19.828125 64.59375 
L 19.828125 46.734375 
Q 21.96875 47.46875 24.109375 47.828125 
Q 26.265625 48.1875 28.421875 48.1875 
Q 40.625 48.1875 47.75 41.5 
Q 54.890625 34.8125 54.890625 23.390625 
Q 54.890625 11.625 47.5625 5.09375 
Q 40.234375 -1.421875 26.90625 -1.421875 
Q 22.3125 -1.421875 17.546875 -0.640625 
Q 12.796875 0.140625 7.71875 1.703125 
L 7.71875 11.625 
Q 12.109375 9.234375 16.796875 8.0625 
Q 21.484375 6.890625 26.703125 6.890625 
Q 35.15625 6.890625 40.078125 11.328125 
Q 45.015625 15.765625 45.015625 23.390625 
Q 45.015625 31 40.078125 35.4375 
Q 35.15625 39.890625 26.703125 39.890625 
Q 22.75 39.890625 18.8125 39.015625 
Q 14.890625 38.140625 10.796875 36.28125 
z
" id="DejaVuSans-53"/>
       </defs>
       <use xlink:href="#DejaVuSans-53"/>
      </g>
     </g>
    </g>
    <g id="ytick_6">
     <g id="line2d_12">
      <path clip-path="url(#p1feed18802)" d="M 22.086233 66.931415 
L 353.951097 66.931415 
" style="fill:none;stroke:#ffffff;stroke-linecap:round;stroke-width:0.7;"/>
     </g>
     <g id="text_12">
      <!-- 6 -->
      <g style="fill:#262626;" transform="translate(6.287108 69.856813)scale(0.077 -0.077)">
       <use xlink:href="#DejaVuSans-54"/>
      </g>
     </g>
    </g>
   </g>
   <g id="PathCollection_1">
    <defs>
     <path d="M -0 2.1 
L 2.1 -2.1 
L -2.1 -2.1 
z
" id="me371882d13" style="stroke:#4c72b0;"/>
    </defs>
    <g clip-path="url(#p1feed18802)">
     <use style="fill:#4c72b0;stroke:#4c72b0;" x="327.262664" xlink:href="#me371882d13" y="320.004782"/>
    </g>
   </g>
   <g id="PathCollection_2">
    <g clip-path="url(#p1feed18802)">
     <use style="fill:#4c72b0;stroke:#4c72b0;" x="330.163581" xlink:href="#me371882d13" y="386.194342"/>
    </g>
   </g>
   <g id="line2d_13">
    <path clip-path="url(#p1feed18802)" d="M 37.171 27.015807 
L 40.071916 50.677168 
L 42.972833 89.108807 
L 45.87375 128.738703 
L 48.774666 151.925453 
L 51.675583 168.881341 
L 54.5765 180.260538 
L 57.477416 186.031007 
L 60.378333 189.662939 
L 63.27925 192.267932 
L 66.180166 194.763063 
L 69.081083 196.580923 
L 71.981999 198.507737 
L 74.882916 199.96529 
L 77.783833 201.402383 
L 80.684749 202.546883 
L 83.585666 203.841499 
L 86.486583 204.826275 
L 89.387499 205.976383 
L 92.288416 208.753316 
L 95.189333 208.067528 
L 98.090249 210.310183 
L 100.991166 212.63395 
L 103.892083 213.440164 
L 106.792999 212.818242 
L 109.693916 214.213551 
L 112.594832 215.777935 
L 115.495749 216.569145 
L 118.396666 217.398182 
L 121.297582 219.182125 
L 124.198499 220.052583 
L 127.099416 221.958649 
L 130.000332 223.014807 
L 132.901249 222.596257 
L 135.802166 224.863964 
L 138.703082 226.062554 
L 141.603999 228.047777 
L 144.504916 228.19618 
L 147.405832 229.28853 
L 150.306749 231.676497 
L 153.207665 233.338134 
L 156.108582 234.788321 
L 159.009499 235.315067 
L 161.910415 236.380758 
L 164.811332 238.981963 
L 167.712249 240.72841 
L 170.613165 241.221784 
L 173.514082 243.441038 
L 176.414999 245.270644 
L 179.315915 246.617198 
L 182.216832 248.437423 
L 185.117749 249.800966 
L 188.018665 250.631929 
L 190.919582 252.98337 
L 193.820498 254.386348 
L 196.721415 255.772715 
L 199.622332 257.908206 
L 202.523248 258.899787 
L 205.424165 260.346427 
L 208.325082 263.858116 
L 211.225998 265.041747 
L 214.126915 267.325519 
L 217.027832 268.638185 
L 219.928748 268.67174 
L 222.829665 271.563006 
L 225.730581 272.994249 
L 228.631498 274.711537 
L 231.532415 277.795415 
L 234.433331 278.25237 
L 237.334248 279.468449 
L 240.235165 282.818974 
L 243.136081 284.107073 
L 246.036998 285.355161 
L 248.937915 287.324743 
L 251.838831 288.834644 
L 254.739748 290.818184 
L 257.640665 292.099312 
L 260.541581 293.713391 
L 263.442498 295.106199 
L 266.343414 297.547695 
L 269.244331 298.959478 
L 272.145248 299.488346 
L 275.046164 301.161834 
L 277.947081 303.075372 
L 280.847998 305.234035 
L 283.748914 305.516307 
L 286.649831 307.785226 
L 289.550748 309.272302 
L 292.451664 309.022327 
L 295.352581 312.462329 
L 298.253498 311.967198 
L 301.154414 313.015339 
L 304.055331 313.160393 
L 306.956247 314.560097 
L 309.857164 315.189021 
L 312.758081 316.957126 
L 315.658997 317.763613 
L 318.559914 317.626228 
L 321.460831 317.736878 
L 324.361747 317.889101 
L 327.262664 320.004782 
L 330.163581 318.306196 
L 333.064497 318.768728 
L 335.965414 318.66667 
L 338.866331 319.66983 
" style="fill:none;stroke:#4c72b0;stroke-linecap:round;stroke-width:1.05;"/>
   </g>
   <g id="line2d_14">
    <path clip-path="url(#p1feed18802)" d="M 37.171 70.508393 
L 40.071916 94.477805 
L 42.972833 173.578343 
L 45.87375 212.230449 
L 48.774666 227.606327 
L 51.675583 252.745004 
L 54.5765 257.008619 
L 57.477416 264.276727 
L 60.378333 269.443459 
L 63.27925 268.480583 
L 66.180166 272.468231 
L 69.081083 278.264176 
L 71.981999 284.018367 
L 74.882916 284.757745 
L 77.783833 287.733534 
L 80.684749 274.604342 
L 83.585666 286.321447 
L 86.486583 286.190109 
L 89.387499 293.689172 
L 92.288416 286.347894 
L 95.189333 296.375111 
L 98.090249 291.273214 
L 100.991166 295.830831 
L 103.892083 292.271873 
L 106.792999 287.196816 
L 109.693916 300.528636 
L 112.594832 301.822964 
L 115.495749 302.51683 
L 118.396666 297.691354 
L 121.297582 307.409248 
L 124.198499 302.454571 
L 127.099416 302.059648 
L 130.000332 308.640483 
L 132.901249 305.185598 
L 135.802166 305.200268 
L 138.703082 309.853592 
L 141.603999 305.507441 
L 144.504916 319.865412 
L 147.405832 316.261927 
L 150.306749 321.666442 
L 153.207665 312.945199 
L 156.108582 323.932088 
L 159.009499 316.291601 
L 161.910415 322.847361 
L 164.811332 321.013171 
L 167.712249 325.192301 
L 170.613165 328.140726 
L 173.514082 326.997181 
L 176.414999 330.561224 
L 179.315915 336.885642 
L 182.216832 331.774507 
L 185.117749 335.83666 
L 188.018665 339.082224 
L 190.919582 340.106844 
L 193.820498 341.876078 
L 196.721415 338.856089 
L 199.622332 340.764026 
L 202.523248 344.990949 
L 205.424165 345.64801 
L 208.325082 347.021328 
L 211.225998 351.337608 
L 214.126915 351.776111 
L 217.027832 351.468613 
L 219.928748 352.520119 
L 222.829665 356.199624 
L 225.730581 355.074576 
L 228.631498 357.490822 
L 231.532415 359.886253 
L 234.433331 357.697885 
L 237.334248 362.614801 
L 240.235165 362.954437 
L 243.136081 364.860753 
L 246.036998 364.829994 
L 248.937915 366.118404 
L 251.838831 368.933544 
L 254.739748 369.442535 
L 257.640665 371.92999 
L 260.541581 372.369826 
L 263.442498 371.828645 
L 266.343414 374.618619 
L 269.244331 375.977615 
L 272.145248 376.122669 
L 275.046164 376.636108 
L 277.947081 378.554556 
L 280.847998 378.743303 
L 283.748914 376.438465 
L 286.649831 380.48409 
L 289.550748 381.344166 
L 292.451664 381.9684 
L 295.352581 381.388208 
L 298.253498 381.758405 
L 301.154414 383.531647 
L 304.055331 383.315226 
L 306.956247 384.006175 
L 309.857164 382.968915 
L 312.758081 384.472192 
L 315.658997 383.960397 
L 318.559914 385.503246 
L 321.460831 385.175791 
L 324.361747 385.378644 
L 327.262664 385.899415 
L 330.163581 386.194342 
L 333.064497 385.588882 
L 335.965414 384.736656 
L 338.866331 385.890826 
" style="fill:none;stroke:#4c72b0;stroke-dasharray:3.885,1.68;stroke-dashoffset:0;stroke-width:1.05;"/>
   </g>
   <g id="patch_3">
    <path d="M 22.086233 404.153268 
L 22.086233 9.05688 
" style="fill:none;stroke:#ffffff;stroke-linecap:square;stroke-linejoin:miter;stroke-width:0.875;"/>
   </g>
   <g id="patch_4">
    <path d="M 353.951097 404.153268 
L 353.951097 9.05688 
" style="fill:none;stroke:#ffffff;stroke-linecap:square;stroke-linejoin:miter;stroke-width:0.875;"/>
   </g>
   <g id="patch_5">
    <path d="M 22.086233 404.153268 
L 353.951097 404.153268 
" style="fill:none;stroke:#ffffff;stroke-linecap:square;stroke-linejoin:miter;stroke-width:0.875;"/>
   </g>
   <g id="patch_6">
    <path d="M 22.086233 9.05688 
L 353.951097 9.05688 
" style="fill:none;stroke:#ffffff;stroke-linecap:square;stroke-linejoin:miter;stroke-width:0.875;"/>
   </g>
   <g id="text_13">
    <!-- 2.0188 -->
    <g style="fill:#262626;" transform="translate(295.771101 318.133064)scale(0.09 -0.09)">
     <defs>
      <path d="M 10.6875 12.40625 
L 21 12.40625 
L 21 0 
L 10.6875 0 
z
" id="DejaVuSans-46"/>
     </defs>
     <use xlink:href="#DejaVuSans-50"/>
     <use x="63.623047" xlink:href="#DejaVuSans-46"/>
     <use x="95.410156" xlink:href="#DejaVuSans-48"/>
     <use x="159.033203" xlink:href="#DejaVuSans-49"/>
     <use x="222.65625" xlink:href="#DejaVuSans-56"/>
     <use x="286.279297" xlink:href="#DejaVuSans-56"/>
    </g>
   </g>
   <g id="text_14">
    <!-- 0.9775 -->
    <g style="fill:#262626;" transform="translate(298.672018 384.322623)scale(0.09 -0.09)">
     <defs>
      <path d="M 10.984375 1.515625 
L 10.984375 10.5 
Q 14.703125 8.734375 18.5 7.8125 
Q 22.3125 6.890625 25.984375 6.890625 
Q 35.75 6.890625 40.890625 13.453125 
Q 46.046875 20.015625 46.78125 33.40625 
Q 43.953125 29.203125 39.59375 26.953125 
Q 35.25 24.703125 29.984375 24.703125 
Q 19.046875 24.703125 12.671875 31.3125 
Q 6.296875 37.9375 6.296875 49.421875 
Q 6.296875 60.640625 12.9375 67.421875 
Q 19.578125 74.21875 30.609375 74.21875 
Q 43.265625 74.21875 49.921875 64.515625 
Q 56.59375 54.828125 56.59375 36.375 
Q 56.59375 19.140625 48.40625 8.859375 
Q 40.234375 -1.421875 26.421875 -1.421875 
Q 22.703125 -1.421875 18.890625 -0.6875 
Q 15.09375 0.046875 10.984375 1.515625 
z
M 30.609375 32.421875 
Q 37.25 32.421875 41.125 36.953125 
Q 45.015625 41.5 45.015625 49.421875 
Q 45.015625 57.28125 41.125 61.84375 
Q 37.25 66.40625 30.609375 66.40625 
Q 23.96875 66.40625 20.09375 61.84375 
Q 16.21875 57.28125 16.21875 49.421875 
Q 16.21875 41.5 20.09375 36.953125 
Q 23.96875 32.421875 30.609375 32.421875 
z
" id="DejaVuSans-57"/>
      <path d="M 8.203125 72.90625 
L 55.078125 72.90625 
L 55.078125 68.703125 
L 28.609375 0 
L 18.3125 0 
L 43.21875 64.59375 
L 8.203125 64.59375 
z
" id="DejaVuSans-55"/>
     </defs>
     <use xlink:href="#DejaVuSans-48"/>
     <use x="63.623047" xlink:href="#DejaVuSans-46"/>
     <use x="95.410156" xlink:href="#DejaVuSans-57"/>
     <use x="159.033203" xlink:href="#DejaVuSans-55"/>
     <use x="222.65625" xlink:href="#DejaVuSans-55"/>
     <use x="286.279297" xlink:href="#DejaVuSans-53"/>
    </g>
   </g>
   <g id="legend_1">
    <g id="line2d_15">
     <path d="M 55.980347 19.142677 
L 71.380347 19.142677 
" style="fill:none;stroke:#4c72b0;stroke-linecap:round;stroke-width:1.05;"/>
    </g>
    <g id="line2d_16"/>
    <g id="text_15">
     <!-- aotnet50, randaug_6_mixup_0.1_cutmix_1.0_RRC_0.08_LAMB loss -->
     <g style="fill:#262626;" transform="translate(77.540347 21.837677)scale(0.077 -0.077)">
      <defs>
       <path d="M 34.28125 27.484375 
Q 23.390625 27.484375 19.1875 25 
Q 14.984375 22.515625 14.984375 16.5 
Q 14.984375 11.71875 18.140625 8.90625 
Q 21.296875 6.109375 26.703125 6.109375 
Q 34.1875 6.109375 38.703125 11.40625 
Q 43.21875 16.703125 43.21875 25.484375 
L 43.21875 27.484375 
z
M 52.203125 31.203125 
L 52.203125 0 
L 43.21875 0 
L 43.21875 8.296875 
Q 40.140625 3.328125 35.546875 0.953125 
Q 30.953125 -1.421875 24.3125 -1.421875 
Q 15.921875 -1.421875 10.953125 3.296875 
Q 6 8.015625 6 15.921875 
Q 6 25.140625 12.171875 29.828125 
Q 18.359375 34.515625 30.609375 34.515625 
L 43.21875 34.515625 
L 43.21875 35.40625 
Q 43.21875 41.609375 39.140625 45 
Q 35.0625 48.390625 27.6875 48.390625 
Q 23 48.390625 18.546875 47.265625 
Q 14.109375 46.140625 10.015625 43.890625 
L 10.015625 52.203125 
Q 14.9375 54.109375 19.578125 55.046875 
Q 24.21875 56 28.609375 56 
Q 40.484375 56 46.34375 49.84375 
Q 52.203125 43.703125 52.203125 31.203125 
z
" id="DejaVuSans-97"/>
       <path d="M 30.609375 48.390625 
Q 23.390625 48.390625 19.1875 42.75 
Q 14.984375 37.109375 14.984375 27.296875 
Q 14.984375 17.484375 19.15625 11.84375 
Q 23.34375 6.203125 30.609375 6.203125 
Q 37.796875 6.203125 41.984375 11.859375 
Q 46.1875 17.53125 46.1875 27.296875 
Q 46.1875 37.015625 41.984375 42.703125 
Q 37.796875 48.390625 30.609375 48.390625 
z
M 30.609375 56 
Q 42.328125 56 49.015625 48.375 
Q 55.71875 40.765625 55.71875 27.296875 
Q 55.71875 13.875 49.015625 6.21875 
Q 42.328125 -1.421875 30.609375 -1.421875 
Q 18.84375 -1.421875 12.171875 6.21875 
Q 5.515625 13.875 5.515625 27.296875 
Q 5.515625 40.765625 12.171875 48.375 
Q 18.84375 56 30.609375 56 
z
" id="DejaVuSans-111"/>
       <path d="M 18.3125 70.21875 
L 18.3125 54.6875 
L 36.8125 54.6875 
L 36.8125 47.703125 
L 18.3125 47.703125 
L 18.3125 18.015625 
Q 18.3125 11.328125 20.140625 9.421875 
Q 21.96875 7.515625 27.59375 7.515625 
L 36.8125 7.515625 
L 36.8125 0 
L 27.59375 0 
Q 17.1875 0 13.234375 3.875 
Q 9.28125 7.765625 9.28125 18.015625 
L 9.28125 47.703125 
L 2.6875 47.703125 
L 2.6875 54.6875 
L 9.28125 54.6875 
L 9.28125 70.21875 
z
" id="DejaVuSans-116"/>
       <path d="M 54.890625 33.015625 
L 54.890625 0 
L 45.90625 0 
L 45.90625 32.71875 
Q 45.90625 40.484375 42.875 44.328125 
Q 39.84375 48.1875 33.796875 48.1875 
Q 26.515625 48.1875 22.3125 43.546875 
Q 18.109375 38.921875 18.109375 30.90625 
L 18.109375 0 
L 9.078125 0 
L 9.078125 54.6875 
L 18.109375 54.6875 
L 18.109375 46.1875 
Q 21.34375 51.125 25.703125 53.5625 
Q 30.078125 56 35.796875 56 
Q 45.21875 56 50.046875 50.171875 
Q 54.890625 44.34375 54.890625 33.015625 
z
" id="DejaVuSans-110"/>
       <path d="M 56.203125 29.59375 
L 56.203125 25.203125 
L 14.890625 25.203125 
Q 15.484375 15.921875 20.484375 11.0625 
Q 25.484375 6.203125 34.421875 6.203125 
Q 39.59375 6.203125 44.453125 7.46875 
Q 49.3125 8.734375 54.109375 11.28125 
L 54.109375 2.78125 
Q 49.265625 0.734375 44.1875 -0.34375 
Q 39.109375 -1.421875 33.890625 -1.421875 
Q 20.796875 -1.421875 13.15625 6.1875 
Q 5.515625 13.8125 5.515625 26.8125 
Q 5.515625 40.234375 12.765625 48.109375 
Q 20.015625 56 32.328125 56 
Q 43.359375 56 49.78125 48.890625 
Q 56.203125 41.796875 56.203125 29.59375 
z
M 47.21875 32.234375 
Q 47.125 39.59375 43.09375 43.984375 
Q 39.0625 48.390625 32.421875 48.390625 
Q 24.90625 48.390625 20.390625 44.140625 
Q 15.875 39.890625 15.1875 32.171875 
z
" id="DejaVuSans-101"/>
       <path d="M 11.71875 12.40625 
L 22.015625 12.40625 
L 22.015625 4 
L 14.015625 -11.625 
L 7.71875 -11.625 
L 11.71875 4 
z
" id="DejaVuSans-44"/>
       <path id="DejaVuSans-32"/>
       <path d="M 41.109375 46.296875 
Q 39.59375 47.171875 37.8125 47.578125 
Q 36.03125 48 33.890625 48 
Q 26.265625 48 22.1875 43.046875 
Q 18.109375 38.09375 18.109375 28.8125 
L 18.109375 0 
L 9.078125 0 
L 9.078125 54.6875 
L 18.109375 54.6875 
L 18.109375 46.1875 
Q 20.953125 51.171875 25.484375 53.578125 
Q 30.03125 56 36.53125 56 
Q 37.453125 56 38.578125 55.875 
Q 39.703125 55.765625 41.0625 55.515625 
z
" id="DejaVuSans-114"/>
       <path d="M 45.40625 46.390625 
L 45.40625 75.984375 
L 54.390625 75.984375 
L 54.390625 0 
L 45.40625 0 
L 45.40625 8.203125 
Q 42.578125 3.328125 38.25 0.953125 
Q 33.9375 -1.421875 27.875 -1.421875 
Q 17.96875 -1.421875 11.734375 6.484375 
Q 5.515625 14.40625 5.515625 27.296875 
Q 5.515625 40.1875 11.734375 48.09375 
Q 17.96875 56 27.875 56 
Q 33.9375 56 38.25 53.625 
Q 42.578125 51.265625 45.40625 46.390625 
z
M 14.796875 27.296875 
Q 14.796875 17.390625 18.875 11.75 
Q 22.953125 6.109375 30.078125 6.109375 
Q 37.203125 6.109375 41.296875 11.75 
Q 45.40625 17.390625 45.40625 27.296875 
Q 45.40625 37.203125 41.296875 42.84375 
Q 37.203125 48.484375 30.078125 48.484375 
Q 22.953125 48.484375 18.875 42.84375 
Q 14.796875 37.203125 14.796875 27.296875 
z
" id="DejaVuSans-100"/>
       <path d="M 8.5 21.578125 
L 8.5 54.6875 
L 17.484375 54.6875 
L 17.484375 21.921875 
Q 17.484375 14.15625 20.5 10.265625 
Q 23.53125 6.390625 29.59375 6.390625 
Q 36.859375 6.390625 41.078125 11.03125 
Q 45.3125 15.671875 45.3125 23.6875 
L 45.3125 54.6875 
L 54.296875 54.6875 
L 54.296875 0 
L 45.3125 0 
L 45.3125 8.40625 
Q 42.046875 3.421875 37.71875 1 
Q 33.40625 -1.421875 27.6875 -1.421875 
Q 18.265625 -1.421875 13.375 4.4375 
Q 8.5 10.296875 8.5 21.578125 
z
M 31.109375 56 
z
" id="DejaVuSans-117"/>
       <path d="M 45.40625 27.984375 
Q 45.40625 37.75 41.375 43.109375 
Q 37.359375 48.484375 30.078125 48.484375 
Q 22.859375 48.484375 18.828125 43.109375 
Q 14.796875 37.75 14.796875 27.984375 
Q 14.796875 18.265625 18.828125 12.890625 
Q 22.859375 7.515625 30.078125 7.515625 
Q 37.359375 7.515625 41.375 12.890625 
Q 45.40625 18.265625 45.40625 27.984375 
z
M 54.390625 6.78125 
Q 54.390625 -7.171875 48.1875 -13.984375 
Q 42 -20.796875 29.203125 -20.796875 
Q 24.46875 -20.796875 20.265625 -20.09375 
Q 16.0625 -19.390625 12.109375 -17.921875 
L 12.109375 -9.1875 
Q 16.0625 -11.328125 19.921875 -12.34375 
Q 23.78125 -13.375 27.78125 -13.375 
Q 36.625 -13.375 41.015625 -8.765625 
Q 45.40625 -4.15625 45.40625 5.171875 
L 45.40625 9.625 
Q 42.625 4.78125 38.28125 2.390625 
Q 33.9375 0 27.875 0 
Q 17.828125 0 11.671875 7.65625 
Q 5.515625 15.328125 5.515625 27.984375 
Q 5.515625 40.671875 11.671875 48.328125 
Q 17.828125 56 27.875 56 
Q 33.9375 56 38.28125 53.609375 
Q 42.625 51.21875 45.40625 46.390625 
L 45.40625 54.6875 
L 54.390625 54.6875 
z
" id="DejaVuSans-103"/>
       <path d="M 50.984375 -16.609375 
L 50.984375 -23.578125 
L -0.984375 -23.578125 
L -0.984375 -16.609375 
z
" id="DejaVuSans-95"/>
       <path d="M 52 44.1875 
Q 55.375 50.25 60.0625 53.125 
Q 64.75 56 71.09375 56 
Q 79.640625 56 84.28125 50.015625 
Q 88.921875 44.046875 88.921875 33.015625 
L 88.921875 0 
L 79.890625 0 
L 79.890625 32.71875 
Q 79.890625 40.578125 77.09375 44.375 
Q 74.3125 48.1875 68.609375 48.1875 
Q 61.625 48.1875 57.5625 43.546875 
Q 53.515625 38.921875 53.515625 30.90625 
L 53.515625 0 
L 44.484375 0 
L 44.484375 32.71875 
Q 44.484375 40.625 41.703125 44.40625 
Q 38.921875 48.1875 33.109375 48.1875 
Q 26.21875 48.1875 22.15625 43.53125 
Q 18.109375 38.875 18.109375 30.90625 
L 18.109375 0 
L 9.078125 0 
L 9.078125 54.6875 
L 18.109375 54.6875 
L 18.109375 46.1875 
Q 21.1875 51.21875 25.484375 53.609375 
Q 29.78125 56 35.6875 56 
Q 41.65625 56 45.828125 52.96875 
Q 50 49.953125 52 44.1875 
z
" id="DejaVuSans-109"/>
       <path d="M 9.421875 54.6875 
L 18.40625 54.6875 
L 18.40625 0 
L 9.421875 0 
z
M 9.421875 75.984375 
L 18.40625 75.984375 
L 18.40625 64.59375 
L 9.421875 64.59375 
z
" id="DejaVuSans-105"/>
       <path d="M 54.890625 54.6875 
L 35.109375 28.078125 
L 55.90625 0 
L 45.3125 0 
L 29.390625 21.484375 
L 13.484375 0 
L 2.875 0 
L 24.125 28.609375 
L 4.6875 54.6875 
L 15.28125 54.6875 
L 29.78125 35.203125 
L 44.28125 54.6875 
z
" id="DejaVuSans-120"/>
       <path d="M 18.109375 8.203125 
L 18.109375 -20.796875 
L 9.078125 -20.796875 
L 9.078125 54.6875 
L 18.109375 54.6875 
L 18.109375 46.390625 
Q 20.953125 51.265625 25.265625 53.625 
Q 29.59375 56 35.59375 56 
Q 45.5625 56 51.78125 48.09375 
Q 58.015625 40.1875 58.015625 27.296875 
Q 58.015625 14.40625 51.78125 6.484375 
Q 45.5625 -1.421875 35.59375 -1.421875 
Q 29.59375 -1.421875 25.265625 0.953125 
Q 20.953125 3.328125 18.109375 8.203125 
z
M 48.6875 27.296875 
Q 48.6875 37.203125 44.609375 42.84375 
Q 40.53125 48.484375 33.40625 48.484375 
Q 26.265625 48.484375 22.1875 42.84375 
Q 18.109375 37.203125 18.109375 27.296875 
Q 18.109375 17.390625 22.1875 11.75 
Q 26.265625 6.109375 33.40625 6.109375 
Q 40.53125 6.109375 44.609375 11.75 
Q 48.6875 17.390625 48.6875 27.296875 
z
" id="DejaVuSans-112"/>
       <path d="M 48.78125 52.59375 
L 48.78125 44.1875 
Q 44.96875 46.296875 41.140625 47.34375 
Q 37.3125 48.390625 33.40625 48.390625 
Q 24.65625 48.390625 19.8125 42.84375 
Q 14.984375 37.3125 14.984375 27.296875 
Q 14.984375 17.28125 19.8125 11.734375 
Q 24.65625 6.203125 33.40625 6.203125 
Q 37.3125 6.203125 41.140625 7.25 
Q 44.96875 8.296875 48.78125 10.40625 
L 48.78125 2.09375 
Q 45.015625 0.34375 40.984375 -0.53125 
Q 36.96875 -1.421875 32.421875 -1.421875 
Q 20.0625 -1.421875 12.78125 6.34375 
Q 5.515625 14.109375 5.515625 27.296875 
Q 5.515625 40.671875 12.859375 48.328125 
Q 20.21875 56 33.015625 56 
Q 37.15625 56 41.109375 55.140625 
Q 45.0625 54.296875 48.78125 52.59375 
z
" id="DejaVuSans-99"/>
       <path d="M 44.390625 34.1875 
Q 47.5625 33.109375 50.5625 29.59375 
Q 53.5625 26.078125 56.59375 19.921875 
L 66.609375 0 
L 56 0 
L 46.6875 18.703125 
Q 43.0625 26.03125 39.671875 28.421875 
Q 36.28125 30.8125 30.421875 30.8125 
L 19.671875 30.8125 
L 19.671875 0 
L 9.8125 0 
L 9.8125 72.90625 
L 32.078125 72.90625 
Q 44.578125 72.90625 50.734375 67.671875 
Q 56.890625 62.453125 56.890625 51.90625 
Q 56.890625 45.015625 53.6875 40.46875 
Q 50.484375 35.9375 44.390625 34.1875 
z
M 19.671875 64.796875 
L 19.671875 38.921875 
L 32.078125 38.921875 
Q 39.203125 38.921875 42.84375 42.21875 
Q 46.484375 45.515625 46.484375 51.90625 
Q 46.484375 58.296875 42.84375 61.546875 
Q 39.203125 64.796875 32.078125 64.796875 
z
" id="DejaVuSans-82"/>
       <path d="M 64.40625 67.28125 
L 64.40625 56.890625 
Q 59.421875 61.53125 53.78125 63.8125 
Q 48.140625 66.109375 41.796875 66.109375 
Q 29.296875 66.109375 22.65625 58.46875 
Q 16.015625 50.828125 16.015625 36.375 
Q 16.015625 21.96875 22.65625 14.328125 
Q 29.296875 6.6875 41.796875 6.6875 
Q 48.140625 6.6875 53.78125 8.984375 
Q 59.421875 11.28125 64.40625 15.921875 
L 64.40625 5.609375 
Q 59.234375 2.09375 53.4375 0.328125 
Q 47.65625 -1.421875 41.21875 -1.421875 
Q 24.65625 -1.421875 15.125 8.703125 
Q 5.609375 18.84375 5.609375 36.375 
Q 5.609375 53.953125 15.125 64.078125 
Q 24.65625 74.21875 41.21875 74.21875 
Q 47.75 74.21875 53.53125 72.484375 
Q 59.328125 70.75 64.40625 67.28125 
z
" id="DejaVuSans-67"/>
       <path d="M 9.8125 72.90625 
L 19.671875 72.90625 
L 19.671875 8.296875 
L 55.171875 8.296875 
L 55.171875 0 
L 9.8125 0 
z
" id="DejaVuSans-76"/>
       <path d="M 34.1875 63.1875 
L 20.796875 26.90625 
L 47.609375 26.90625 
z
M 28.609375 72.90625 
L 39.796875 72.90625 
L 67.578125 0 
L 57.328125 0 
L 50.6875 18.703125 
L 17.828125 18.703125 
L 11.1875 0 
L 0.78125 0 
z
" id="DejaVuSans-65"/>
       <path d="M 9.8125 72.90625 
L 24.515625 72.90625 
L 43.109375 23.296875 
L 61.8125 72.90625 
L 76.515625 72.90625 
L 76.515625 0 
L 66.890625 0 
L 66.890625 64.015625 
L 48.09375 14.015625 
L 38.1875 14.015625 
L 19.390625 64.015625 
L 19.390625 0 
L 9.8125 0 
z
" id="DejaVuSans-77"/>
       <path d="M 19.671875 34.8125 
L 19.671875 8.109375 
L 35.5 8.109375 
Q 43.453125 8.109375 47.28125 11.40625 
Q 51.125 14.703125 51.125 21.484375 
Q 51.125 28.328125 47.28125 31.5625 
Q 43.453125 34.8125 35.5 34.8125 
z
M 19.671875 64.796875 
L 19.671875 42.828125 
L 34.28125 42.828125 
Q 41.5 42.828125 45.03125 45.53125 
Q 48.578125 48.25 48.578125 53.8125 
Q 48.578125 59.328125 45.03125 62.0625 
Q 41.5 64.796875 34.28125 64.796875 
z
M 9.8125 72.90625 
L 35.015625 72.90625 
Q 46.296875 72.90625 52.390625 68.21875 
Q 58.5 63.53125 58.5 54.890625 
Q 58.5 48.1875 55.375 44.234375 
Q 52.25 40.28125 46.1875 39.3125 
Q 53.46875 37.75 57.5 32.78125 
Q 61.53125 27.828125 61.53125 20.40625 
Q 61.53125 10.640625 54.890625 5.3125 
Q 48.25 0 35.984375 0 
L 9.8125 0 
z
" id="DejaVuSans-66"/>
       <path d="M 9.421875 75.984375 
L 18.40625 75.984375 
L 18.40625 0 
L 9.421875 0 
z
" id="DejaVuSans-108"/>
       <path d="M 44.28125 53.078125 
L 44.28125 44.578125 
Q 40.484375 46.53125 36.375 47.5 
Q 32.28125 48.484375 27.875 48.484375 
Q 21.1875 48.484375 17.84375 46.4375 
Q 14.5 44.390625 14.5 40.28125 
Q 14.5 37.15625 16.890625 35.375 
Q 19.28125 33.59375 26.515625 31.984375 
L 29.59375 31.296875 
Q 39.15625 29.25 43.1875 25.515625 
Q 47.21875 21.78125 47.21875 15.09375 
Q 47.21875 7.46875 41.1875 3.015625 
Q 35.15625 -1.421875 24.609375 -1.421875 
Q 20.21875 -1.421875 15.453125 -0.5625 
Q 10.6875 0.296875 5.421875 2 
L 5.421875 11.28125 
Q 10.40625 8.6875 15.234375 7.390625 
Q 20.0625 6.109375 24.8125 6.109375 
Q 31.15625 6.109375 34.5625 8.28125 
Q 37.984375 10.453125 37.984375 14.40625 
Q 37.984375 18.0625 35.515625 20.015625 
Q 33.0625 21.96875 24.703125 23.78125 
L 21.578125 24.515625 
Q 13.234375 26.265625 9.515625 29.90625 
Q 5.8125 33.546875 5.8125 39.890625 
Q 5.8125 47.609375 11.28125 51.796875 
Q 16.75 56 26.8125 56 
Q 31.78125 56 36.171875 55.265625 
Q 40.578125 54.546875 44.28125 53.078125 
z
" id="DejaVuSans-115"/>
      </defs>
      <use xlink:href="#DejaVuSans-97"/>
      <use x="61.279297" xlink:href="#DejaVuSans-111"/>
      <use x="122.460938" xlink:href="#DejaVuSans-116"/>
      <use x="161.669922" xlink:href="#DejaVuSans-110"/>
      <use x="225.048828" xlink:href="#DejaVuSans-101"/>
      <use x="286.572266" xlink:href="#DejaVuSans-116"/>
      <use x="325.78125" xlink:href="#DejaVuSans-53"/>
      <use x="389.404297" xlink:href="#DejaVuSans-48"/>
      <use x="453.027344" xlink:href="#DejaVuSans-44"/>
      <use x="484.814453" xlink:href="#DejaVuSans-32"/>
      <use x="516.601562" xlink:href="#DejaVuSans-114"/>
      <use x="557.714844" xlink:href="#DejaVuSans-97"/>
      <use x="618.994141" xlink:href="#DejaVuSans-110"/>
      <use x="682.373047" xlink:href="#DejaVuSans-100"/>
      <use x="745.849609" xlink:href="#DejaVuSans-97"/>
      <use x="807.128906" xlink:href="#DejaVuSans-117"/>
      <use x="870.507812" xlink:href="#DejaVuSans-103"/>
      <use x="933.984375" xlink:href="#DejaVuSans-95"/>
      <use x="983.984375" xlink:href="#DejaVuSans-54"/>
      <use x="1047.607422" xlink:href="#DejaVuSans-95"/>
      <use x="1097.607422" xlink:href="#DejaVuSans-109"/>
      <use x="1195.019531" xlink:href="#DejaVuSans-105"/>
      <use x="1222.802734" xlink:href="#DejaVuSans-120"/>
      <use x="1281.982422" xlink:href="#DejaVuSans-117"/>
      <use x="1345.361328" xlink:href="#DejaVuSans-112"/>
      <use x="1408.837891" xlink:href="#DejaVuSans-95"/>
      <use x="1458.837891" xlink:href="#DejaVuSans-48"/>
      <use x="1522.460938" xlink:href="#DejaVuSans-46"/>
      <use x="1554.248047" xlink:href="#DejaVuSans-49"/>
      <use x="1617.871094" xlink:href="#DejaVuSans-95"/>
      <use x="1667.871094" xlink:href="#DejaVuSans-99"/>
      <use x="1722.851562" xlink:href="#DejaVuSans-117"/>
      <use x="1786.230469" xlink:href="#DejaVuSans-116"/>
      <use x="1825.439453" xlink:href="#DejaVuSans-109"/>
      <use x="1922.851562" xlink:href="#DejaVuSans-105"/>
      <use x="1950.634766" xlink:href="#DejaVuSans-120"/>
      <use x="2009.814453" xlink:href="#DejaVuSans-95"/>
      <use x="2059.814453" xlink:href="#DejaVuSans-49"/>
      <use x="2123.4375" xlink:href="#DejaVuSans-46"/>
      <use x="2155.224609" xlink:href="#DejaVuSans-48"/>
      <use x="2218.847656" xlink:href="#DejaVuSans-95"/>
      <use x="2268.847656" xlink:href="#DejaVuSans-82"/>
      <use x="2338.330078" xlink:href="#DejaVuSans-82"/>
      <use x="2402.8125" xlink:href="#DejaVuSans-67"/>
      <use x="2472.636719" xlink:href="#DejaVuSans-95"/>
      <use x="2522.636719" xlink:href="#DejaVuSans-48"/>
      <use x="2586.259766" xlink:href="#DejaVuSans-46"/>
      <use x="2618.046875" xlink:href="#DejaVuSans-48"/>
      <use x="2681.669922" xlink:href="#DejaVuSans-56"/>
      <use x="2745.292969" xlink:href="#DejaVuSans-95"/>
      <use x="2795.292969" xlink:href="#DejaVuSans-76"/>
      <use x="2853.255859" xlink:href="#DejaVuSans-65"/>
      <use x="2921.664062" xlink:href="#DejaVuSans-77"/>
      <use x="3007.943359" xlink:href="#DejaVuSans-66"/>
      <use x="3076.546875" xlink:href="#DejaVuSans-32"/>
      <use x="3108.333984" xlink:href="#DejaVuSans-108"/>
      <use x="3136.117188" xlink:href="#DejaVuSans-111"/>
      <use x="3197.298828" xlink:href="#DejaVuSans-115"/>
      <use x="3249.398438" xlink:href="#DejaVuSans-115"/>
     </g>
    </g>
    <g id="line2d_17">
     <path d="M 55.980347 30.658989 
L 71.380347 30.658989 
" style="fill:none;stroke:#4c72b0;stroke-dasharray:3.885,1.68;stroke-dashoffset:0;stroke-width:1.05;"/>
    </g>
    <g id="line2d_18"/>
    <g id="text_16">
     <!-- aotnet50, randaug_6_mixup_0.1_cutmix_1.0_RRC_0.08_LAMB val_loss -->
     <g style="fill:#262626;" transform="translate(77.540347 33.353989)scale(0.077 -0.077)">
      <defs>
       <path d="M 2.984375 54.6875 
L 12.5 54.6875 
L 29.59375 8.796875 
L 46.6875 54.6875 
L 56.203125 54.6875 
L 35.6875 0 
L 23.484375 0 
z
" id="DejaVuSans-118"/>
      </defs>
      <use xlink:href="#DejaVuSans-97"/>
      <use x="61.279297" xlink:href="#DejaVuSans-111"/>
      <use x="122.460938" xlink:href="#DejaVuSans-116"/>
      <use x="161.669922" xlink:href="#DejaVuSans-110"/>
      <use x="225.048828" xlink:href="#DejaVuSans-101"/>
      <use x="286.572266" xlink:href="#DejaVuSans-116"/>
      <use x="325.78125" xlink:href="#DejaVuSans-53"/>
      <use x="389.404297" xlink:href="#DejaVuSans-48"/>
      <use x="453.027344" xlink:href="#DejaVuSans-44"/>
      <use x="484.814453" xlink:href="#DejaVuSans-32"/>
      <use x="516.601562" xlink:href="#DejaVuSans-114"/>
      <use x="557.714844" xlink:href="#DejaVuSans-97"/>
      <use x="618.994141" xlink:href="#DejaVuSans-110"/>
      <use x="682.373047" xlink:href="#DejaVuSans-100"/>
      <use x="745.849609" xlink:href="#DejaVuSans-97"/>
      <use x="807.128906" xlink:href="#DejaVuSans-117"/>
      <use x="870.507812" xlink:href="#DejaVuSans-103"/>
      <use x="933.984375" xlink:href="#DejaVuSans-95"/>
      <use x="983.984375" xlink:href="#DejaVuSans-54"/>
      <use x="1047.607422" xlink:href="#DejaVuSans-95"/>
      <use x="1097.607422" xlink:href="#DejaVuSans-109"/>
      <use x="1195.019531" xlink:href="#DejaVuSans-105"/>
      <use x="1222.802734" xlink:href="#DejaVuSans-120"/>
      <use x="1281.982422" xlink:href="#DejaVuSans-117"/>
      <use x="1345.361328" xlink:href="#DejaVuSans-112"/>
      <use x="1408.837891" xlink:href="#DejaVuSans-95"/>
      <use x="1458.837891" xlink:href="#DejaVuSans-48"/>
      <use x="1522.460938" xlink:href="#DejaVuSans-46"/>
      <use x="1554.248047" xlink:href="#DejaVuSans-49"/>
      <use x="1617.871094" xlink:href="#DejaVuSans-95"/>
      <use x="1667.871094" xlink:href="#DejaVuSans-99"/>
      <use x="1722.851562" xlink:href="#DejaVuSans-117"/>
      <use x="1786.230469" xlink:href="#DejaVuSans-116"/>
      <use x="1825.439453" xlink:href="#DejaVuSans-109"/>
      <use x="1922.851562" xlink:href="#DejaVuSans-105"/>
      <use x="1950.634766" xlink:href="#DejaVuSans-120"/>
      <use x="2009.814453" xlink:href="#DejaVuSans-95"/>
      <use x="2059.814453" xlink:href="#DejaVuSans-49"/>
      <use x="2123.4375" xlink:href="#DejaVuSans-46"/>
      <use x="2155.224609" xlink:href="#DejaVuSans-48"/>
      <use x="2218.847656" xlink:href="#DejaVuSans-95"/>
      <use x="2268.847656" xlink:href="#DejaVuSans-82"/>
      <use x="2338.330078" xlink:href="#DejaVuSans-82"/>
      <use x="2402.8125" xlink:href="#DejaVuSans-67"/>
      <use x="2472.636719" xlink:href="#DejaVuSans-95"/>
      <use x="2522.636719" xlink:href="#DejaVuSans-48"/>
      <use x="2586.259766" xlink:href="#DejaVuSans-46"/>
      <use x="2618.046875" xlink:href="#DejaVuSans-48"/>
      <use x="2681.669922" xlink:href="#DejaVuSans-56"/>
      <use x="2745.292969" xlink:href="#DejaVuSans-95"/>
      <use x="2795.292969" xlink:href="#DejaVuSans-76"/>
      <use x="2853.255859" xlink:href="#DejaVuSans-65"/>
      <use x="2921.664062" xlink:href="#DejaVuSans-77"/>
      <use x="3007.943359" xlink:href="#DejaVuSans-66"/>
      <use x="3076.546875" xlink:href="#DejaVuSans-32"/>
      <use x="3108.333984" xlink:href="#DejaVuSans-118"/>
      <use x="3167.513672" xlink:href="#DejaVuSans-97"/>
      <use x="3228.792969" xlink:href="#DejaVuSans-108"/>
      <use x="3256.576172" xlink:href="#DejaVuSans-95"/>
      <use x="3306.576172" xlink:href="#DejaVuSans-108"/>
      <use x="3334.359375" xlink:href="#DejaVuSans-111"/>
      <use x="3395.541016" xlink:href="#DejaVuSans-115"/>
      <use x="3447.640625" xlink:href="#DejaVuSans-115"/>
     </g>
    </g>
   </g>
  </g>
  <g id="axes_2">
   <g id="patch_7">
    <path d="M 417.078685 404.153268 
L 748.943549 404.153268 
L 748.943549 9.05688 
L 417.078685 9.05688 
z
" style="fill:#eaeaf2;"/>
   </g>
   <g id="matplotlib.axis_3">
    <g id="xtick_7">
     <g id="line2d_19">
      <path clip-path="url(#pbcd659a9de)" d="M 432.163451 404.153268 
L 432.163451 9.05688 
" style="fill:none;stroke:#ffffff;stroke-linecap:round;stroke-width:0.7;"/>
     </g>
     <g id="text_17">
      <!-- 0 -->
      <g style="fill:#262626;" transform="translate(429.713889 420.904065)scale(0.077 -0.077)">
       <use xlink:href="#DejaVuSans-48"/>
      </g>
     </g>
    </g>
    <g id="xtick_8">
     <g id="line2d_20">
      <path clip-path="url(#pbcd659a9de)" d="M 490.181784 404.153268 
L 490.181784 9.05688 
" style="fill:none;stroke:#ffffff;stroke-linecap:round;stroke-width:0.7;"/>
     </g>
     <g id="text_18">
      <!-- 20 -->
      <g style="fill:#262626;" transform="translate(485.282659 420.904065)scale(0.077 -0.077)">
       <use xlink:href="#DejaVuSans-50"/>
       <use x="63.623047" xlink:href="#DejaVuSans-48"/>
      </g>
     </g>
    </g>
    <g id="xtick_9">
     <g id="line2d_21">
      <path clip-path="url(#pbcd659a9de)" d="M 548.200117 404.153268 
L 548.200117 9.05688 
" style="fill:none;stroke:#ffffff;stroke-linecap:round;stroke-width:0.7;"/>
     </g>
     <g id="text_19">
      <!-- 40 -->
      <g style="fill:#262626;" transform="translate(543.300992 420.904065)scale(0.077 -0.077)">
       <use xlink:href="#DejaVuSans-52"/>
       <use x="63.623047" xlink:href="#DejaVuSans-48"/>
      </g>
     </g>
    </g>
    <g id="xtick_10">
     <g id="line2d_22">
      <path clip-path="url(#pbcd659a9de)" d="M 606.21845 404.153268 
L 606.21845 9.05688 
" style="fill:none;stroke:#ffffff;stroke-linecap:round;stroke-width:0.7;"/>
     </g>
     <g id="text_20">
      <!-- 60 -->
      <g style="fill:#262626;" transform="translate(601.319325 420.904065)scale(0.077 -0.077)">
       <use xlink:href="#DejaVuSans-54"/>
       <use x="63.623047" xlink:href="#DejaVuSans-48"/>
      </g>
     </g>
    </g>
    <g id="xtick_11">
     <g id="line2d_23">
      <path clip-path="url(#pbcd659a9de)" d="M 664.236783 404.153268 
L 664.236783 9.05688 
" style="fill:none;stroke:#ffffff;stroke-linecap:round;stroke-width:0.7;"/>
     </g>
     <g id="text_21">
      <!-- 80 -->
      <g style="fill:#262626;" transform="translate(659.337658 420.904065)scale(0.077 -0.077)">
       <use xlink:href="#DejaVuSans-56"/>
       <use x="63.623047" xlink:href="#DejaVuSans-48"/>
      </g>
     </g>
    </g>
    <g id="xtick_12">
     <g id="line2d_24">
      <path clip-path="url(#pbcd659a9de)" d="M 722.255115 404.153268 
L 722.255115 9.05688 
" style="fill:none;stroke:#ffffff;stroke-linecap:round;stroke-width:0.7;"/>
     </g>
     <g id="text_22">
      <!-- 100 -->
      <g style="fill:#262626;" transform="translate(714.906428 420.904065)scale(0.077 -0.077)">
       <use xlink:href="#DejaVuSans-49"/>
       <use x="63.623047" xlink:href="#DejaVuSans-48"/>
       <use x="127.246094" xlink:href="#DejaVuSans-48"/>
      </g>
     </g>
    </g>
   </g>
   <g id="matplotlib.axis_4">
    <g id="ytick_7">
     <g id="line2d_25">
      <path clip-path="url(#pbcd659a9de)" d="M 417.078685 391.983691 
L 748.943549 391.983691 
" style="fill:none;stroke:#ffffff;stroke-linecap:round;stroke-width:0.7;"/>
     </g>
     <g id="text_23">
      <!-- 0.0 -->
      <g style="fill:#262626;" transform="translate(393.933278 394.90909)scale(0.077 -0.077)">
       <use xlink:href="#DejaVuSans-48"/>
       <use x="63.623047" xlink:href="#DejaVuSans-46"/>
       <use x="95.410156" xlink:href="#DejaVuSans-48"/>
      </g>
     </g>
    </g>
    <g id="ytick_8">
     <g id="line2d_26">
      <path clip-path="url(#pbcd659a9de)" d="M 417.078685 343.279748 
L 748.943549 343.279748 
" style="fill:none;stroke:#ffffff;stroke-linecap:round;stroke-width:0.7;"/>
     </g>
     <g id="text_24">
      <!-- 0.1 -->
      <g style="fill:#262626;" transform="translate(393.933278 346.205146)scale(0.077 -0.077)">
       <use xlink:href="#DejaVuSans-48"/>
       <use x="63.623047" xlink:href="#DejaVuSans-46"/>
       <use x="95.410156" xlink:href="#DejaVuSans-49"/>
      </g>
     </g>
    </g>
    <g id="ytick_9">
     <g id="line2d_27">
      <path clip-path="url(#pbcd659a9de)" d="M 417.078685 294.575804 
L 748.943549 294.575804 
" style="fill:none;stroke:#ffffff;stroke-linecap:round;stroke-width:0.7;"/>
     </g>
     <g id="text_25">
      <!-- 0.2 -->
      <g style="fill:#262626;" transform="translate(393.933278 297.501202)scale(0.077 -0.077)">
       <use xlink:href="#DejaVuSans-48"/>
       <use x="63.623047" xlink:href="#DejaVuSans-46"/>
       <use x="95.410156" xlink:href="#DejaVuSans-50"/>
      </g>
     </g>
    </g>
    <g id="ytick_10">
     <g id="line2d_28">
      <path clip-path="url(#pbcd659a9de)" d="M 417.078685 245.87186 
L 748.943549 245.87186 
" style="fill:none;stroke:#ffffff;stroke-linecap:round;stroke-width:0.7;"/>
     </g>
     <g id="text_26">
      <!-- 0.3 -->
      <g style="fill:#262626;" transform="translate(393.933278 248.797259)scale(0.077 -0.077)">
       <use xlink:href="#DejaVuSans-48"/>
       <use x="63.623047" xlink:href="#DejaVuSans-46"/>
       <use x="95.410156" xlink:href="#DejaVuSans-51"/>
      </g>
     </g>
    </g>
    <g id="ytick_11">
     <g id="line2d_29">
      <path clip-path="url(#pbcd659a9de)" d="M 417.078685 197.167917 
L 748.943549 197.167917 
" style="fill:none;stroke:#ffffff;stroke-linecap:round;stroke-width:0.7;"/>
     </g>
     <g id="text_27">
      <!-- 0.4 -->
      <g style="fill:#262626;" transform="translate(393.933278 200.093315)scale(0.077 -0.077)">
       <use xlink:href="#DejaVuSans-48"/>
       <use x="63.623047" xlink:href="#DejaVuSans-46"/>
       <use x="95.410156" xlink:href="#DejaVuSans-52"/>
      </g>
     </g>
    </g>
    <g id="ytick_12">
     <g id="line2d_30">
      <path clip-path="url(#pbcd659a9de)" d="M 417.078685 148.463973 
L 748.943549 148.463973 
" style="fill:none;stroke:#ffffff;stroke-linecap:round;stroke-width:0.7;"/>
     </g>
     <g id="text_28">
      <!-- 0.5 -->
      <g style="fill:#262626;" transform="translate(393.933278 151.389371)scale(0.077 -0.077)">
       <use xlink:href="#DejaVuSans-48"/>
       <use x="63.623047" xlink:href="#DejaVuSans-46"/>
       <use x="95.410156" xlink:href="#DejaVuSans-53"/>
      </g>
     </g>
    </g>
    <g id="ytick_13">
     <g id="line2d_31">
      <path clip-path="url(#pbcd659a9de)" d="M 417.078685 99.760029 
L 748.943549 99.760029 
" style="fill:none;stroke:#ffffff;stroke-linecap:round;stroke-width:0.7;"/>
     </g>
     <g id="text_29">
      <!-- 0.6 -->
      <g style="fill:#262626;" transform="translate(393.933278 102.685428)scale(0.077 -0.077)">
       <use xlink:href="#DejaVuSans-48"/>
       <use x="63.623047" xlink:href="#DejaVuSans-46"/>
       <use x="95.410156" xlink:href="#DejaVuSans-54"/>
      </g>
     </g>
    </g>
    <g id="ytick_14">
     <g id="line2d_32">
      <path clip-path="url(#pbcd659a9de)" d="M 417.078685 51.056085 
L 748.943549 51.056085 
" style="fill:none;stroke:#ffffff;stroke-linecap:round;stroke-width:0.7;"/>
     </g>
     <g id="text_30">
      <!-- 0.7 -->
      <g style="fill:#262626;" transform="translate(393.933278 53.981484)scale(0.077 -0.077)">
       <use xlink:href="#DejaVuSans-48"/>
       <use x="63.623047" xlink:href="#DejaVuSans-46"/>
       <use x="95.410156" xlink:href="#DejaVuSans-55"/>
      </g>
     </g>
    </g>
   </g>
   <g id="PathCollection_3">
    <g clip-path="url(#pbcd659a9de)">
     <use style="fill:#4c72b0;stroke:#4c72b0;" x="722.255115" xlink:href="#me371882d13" y="75.182449"/>
    </g>
   </g>
   <g id="PathCollection_4">
    <g clip-path="url(#pbcd659a9de)">
     <use style="fill:#4c72b0;stroke:#4c72b0;" x="728.056949" xlink:href="#me371882d13" y="27.015807"/>
    </g>
   </g>
   <g id="line2d_33">
    <path clip-path="url(#pbcd659a9de)" d="M 432.163451 386.194342 
L 435.064368 378.401586 
L 437.965285 358.430631 
L 440.866201 325.860266 
L 443.767118 301.258669 
L 446.668034 280.036243 
L 449.568951 265.337244 
L 452.469868 257.259756 
L 455.370784 252.280897 
L 458.271701 248.583907 
L 461.172618 245.448411 
L 464.073534 243.127579 
L 466.974451 240.810536 
L 469.875368 238.660776 
L 472.776284 236.958076 
L 475.677201 235.57736 
L 478.578118 234.022916 
L 481.479034 232.623562 
L 484.379951 231.256534 
L 487.280867 229.164936 
L 490.181784 229.195722 
L 493.082701 227.137581 
L 495.983617 224.403147 
L 498.884534 223.268386 
L 501.785451 223.237585 
L 504.686367 221.986502 
L 507.587284 219.239527 
L 510.488201 218.873809 
L 513.389117 217.617414 
L 516.290034 215.760739 
L 519.190951 214.917568 
L 522.091867 212.600148 
L 524.992784 210.830156 
L 527.8937 210.379294 
L 530.794617 206.761759 
L 533.695534 206.355762 
L 536.59645 204.237921 
L 539.497367 203.086062 
L 542.398284 201.505766 
L 545.2992 199.51718 
L 548.200117 196.848136 
L 551.101034 195.129077 
L 554.00195 194.393868 
L 556.902867 191.806165 
L 559.803783 189.218085 
L 562.7047 187.291841 
L 565.605617 186.376052 
L 568.506533 183.619192 
L 571.40745 181.406322 
L 574.308367 179.413556 
L 577.209283 177.205244 
L 580.1102 175.382418 
L 583.011117 173.632951 
L 585.912033 170.777245 
L 588.81295 168.289143 
L 591.713867 166.773468 
L 594.614783 164.127226 
L 597.5157 161.62011 
L 600.416616 160.195298 
L 603.317533 156.277826 
L 606.21845 154.72566 
L 609.119366 151.170466 
L 612.020283 149.532386 
L 614.9212 148.700232 
L 617.822116 145.086122 
L 620.723033 143.385323 
L 623.62395 140.587401 
L 626.524866 136.426239 
L 629.425783 134.802979 
L 632.3267 134.047245 
L 635.227616 129.827936 
L 638.128533 127.350851 
L 641.029449 126.341166 
L 643.930366 123.282062 
L 646.831283 121.567968 
L 649.732199 117.867944 
L 652.633116 116.399006 
L 655.534033 113.787746 
L 658.434949 111.517846 
L 661.335866 109.342236 
L 664.236783 106.836644 
L 667.137699 105.449483 
L 670.038616 103.21114 
L 672.939533 100.578194 
L 675.840449 97.504285 
L 678.741366 97.497057 
L 681.642282 93.948714 
L 684.543199 91.63167 
L 687.444116 91.589083 
L 690.345032 87.110509 
L 693.245949 87.202504 
L 696.146866 85.9537 
L 699.047782 84.668782 
L 701.948699 83.416175 
L 704.849616 82.474564 
L 707.750532 80.212271 
L 710.651449 78.840293 
L 713.552366 79.349301 
L 716.453282 78.959663 
L 719.354199 78.811002 
L 722.255115 75.182449 
L 725.156032 77.989893 
L 728.056949 76.686716 
L 730.957865 78.178819 
L 733.858782 76.222936 
" style="fill:none;stroke:#4c72b0;stroke-linecap:round;stroke-width:1.05;"/>
   </g>
   <g id="line2d_34">
    <path clip-path="url(#pbcd659a9de)" d="M 432.163451 373.261895 
L 435.064368 362.644435 
L 437.965285 312.781342 
L 440.866201 274.733817 
L 443.767118 258.077062 
L 446.668034 226.117546 
L 449.568951 220.000326 
L 452.469868 210.045234 
L 455.370784 202.953947 
L 458.271701 202.55457 
L 461.172618 197.635468 
L 464.073534 191.303964 
L 466.974451 182.712591 
L 469.875368 181.348872 
L 472.776284 179.205906 
L 475.677201 193.174195 
L 478.578118 180.66702 
L 481.479034 181.027425 
L 484.379951 170.83857 
L 487.280867 180.072838 
L 490.181784 164.614201 
L 493.082701 172.9231 
L 495.983617 165.276574 
L 498.884534 170.5853 
L 501.785451 176.254445 
L 504.686367 158.750252 
L 507.587284 158.87688 
L 510.488201 155.54552 
L 513.389117 163.094636 
L 516.290034 147.567823 
L 519.190951 155.866967 
L 522.091867 153.772698 
L 524.992784 149.019197 
L 527.8937 151.240094 
L 530.794617 153.295405 
L 533.695534 142.814307 
L 536.59645 149.85691 
L 539.497367 132.060474 
L 542.398284 133.268347 
L 545.2992 129.917522 
L 548.200117 140.038186 
L 551.101034 126.401083 
L 554.00195 134.242413 
L 556.902867 127.16088 
L 559.803783 130.803919 
L 562.7047 123.215845 
L 565.605617 119.153935 
L 568.506533 120.936511 
L 571.40745 116.933039 
L 574.308367 106.140248 
L 577.209283 114.556281 
L 580.1102 105.828555 
L 583.011117 102.828382 
L 585.912033 99.954837 
L 588.81295 97.90928 
L 591.713867 102.993968 
L 594.614783 97.052088 
L 597.5157 93.233709 
L 600.416616 91.003058 
L 603.317533 88.100309 
L 606.21845 83.502655 
L 609.119366 82.450643 
L 612.020283 82.859761 
L 614.9212 80.229747 
L 617.822116 74.151484 
L 620.723033 75.836665 
L 623.62395 73.742396 
L 626.524866 68.160921 
L 629.425783 71.950067 
L 632.3267 66.086132 
L 635.227616 62.374873 
L 638.128533 62.60865 
L 641.029449 60.027348 
L 643.930366 61.858607 
L 646.831283 54.212096 
L 649.732199 53.637393 
L 652.633116 51.971721 
L 655.534033 49.565759 
L 658.434949 49.887177 
L 661.335866 45.007062 
L 664.236783 44.753806 
L 667.137699 43.497222 
L 670.038616 43.555688 
L 672.939533 40.302258 
L 675.840449 38.626832 
L 678.741366 39.172331 
L 681.642282 35.373403 
L 684.543199 35.636413 
L 687.444116 34.204517 
L 690.345032 33.230451 
L 693.245949 31.973867 
L 696.146866 31.428396 
L 699.047782 31.08747 
L 701.948699 30.006255 
L 704.849616 30.035459 
L 707.750532 29.11983 
L 710.651449 28.613317 
L 713.552366 28.457456 
L 716.453282 28.233404 
L 719.354199 27.532073 
L 722.255115 27.103477 
L 725.156032 27.025561 
L 728.056949 27.015807 
L 730.957865 27.181422 
L 733.858782 27.200901 
" style="fill:none;stroke:#4c72b0;stroke-dasharray:3.885,1.68;stroke-dashoffset:0;stroke-width:1.05;"/>
   </g>
   <g id="patch_8">
    <path d="M 417.078685 404.153268 
L 417.078685 9.05688 
" style="fill:none;stroke:#ffffff;stroke-linecap:square;stroke-linejoin:miter;stroke-width:0.875;"/>
   </g>
   <g id="patch_9">
    <path d="M 748.943549 404.153268 
L 748.943549 9.05688 
" style="fill:none;stroke:#ffffff;stroke-linecap:square;stroke-linejoin:miter;stroke-width:0.875;"/>
   </g>
   <g id="patch_10">
    <path d="M 417.078685 404.153268 
L 748.943549 404.153268 
" style="fill:none;stroke:#ffffff;stroke-linecap:square;stroke-linejoin:miter;stroke-width:0.875;"/>
   </g>
   <g id="patch_11">
    <path d="M 417.078685 9.05688 
L 748.943549 9.05688 
" style="fill:none;stroke:#ffffff;stroke-linecap:square;stroke-linejoin:miter;stroke-width:0.875;"/>
   </g>
   <g id="text_31">
    <!-- 0.6505 -->
    <g style="fill:#262626;" transform="translate(690.763553 73.310731)scale(0.09 -0.09)">
     <use xlink:href="#DejaVuSans-48"/>
     <use x="63.623047" xlink:href="#DejaVuSans-46"/>
     <use x="95.410156" xlink:href="#DejaVuSans-54"/>
     <use x="159.033203" xlink:href="#DejaVuSans-53"/>
     <use x="222.65625" xlink:href="#DejaVuSans-48"/>
     <use x="286.279297" xlink:href="#DejaVuSans-53"/>
    </g>
   </g>
   <g id="text_32">
    <!-- 0.7494 -->
    <g style="fill:#262626;" transform="translate(696.565386 25.144088)scale(0.09 -0.09)">
     <use xlink:href="#DejaVuSans-48"/>
     <use x="63.623047" xlink:href="#DejaVuSans-46"/>
     <use x="95.410156" xlink:href="#DejaVuSans-55"/>
     <use x="159.033203" xlink:href="#DejaVuSans-52"/>
     <use x="222.65625" xlink:href="#DejaVuSans-57"/>
     <use x="286.279297" xlink:href="#DejaVuSans-52"/>
    </g>
   </g>
   <g id="legend_2">
    <g id="line2d_35">
     <path d="M 424.008685 381.19644 
L 439.408685 381.19644 
" style="fill:none;stroke:#4c72b0;stroke-linecap:round;stroke-width:1.05;"/>
    </g>
    <g id="line2d_36"/>
    <g id="text_33">
     <!-- aotnet50, randaug_6_mixup_0.1_cutmix_1.0_RRC_0.08_LAMB accuracy -->
     <g style="fill:#262626;" transform="translate(445.568685 383.89144)scale(0.077 -0.077)">
      <defs>
       <path d="M 32.171875 -5.078125 
Q 28.375 -14.84375 24.75 -17.8125 
Q 21.140625 -20.796875 15.09375 -20.796875 
L 7.90625 -20.796875 
L 7.90625 -13.28125 
L 13.1875 -13.28125 
Q 16.890625 -13.28125 18.9375 -11.515625 
Q 21 -9.765625 23.484375 -3.21875 
L 25.09375 0.875 
L 2.984375 54.6875 
L 12.5 54.6875 
L 29.59375 11.921875 
L 46.6875 54.6875 
L 56.203125 54.6875 
z
" id="DejaVuSans-121"/>
      </defs>
      <use xlink:href="#DejaVuSans-97"/>
      <use x="61.279297" xlink:href="#DejaVuSans-111"/>
      <use x="122.460938" xlink:href="#DejaVuSans-116"/>
      <use x="161.669922" xlink:href="#DejaVuSans-110"/>
      <use x="225.048828" xlink:href="#DejaVuSans-101"/>
      <use x="286.572266" xlink:href="#DejaVuSans-116"/>
      <use x="325.78125" xlink:href="#DejaVuSans-53"/>
      <use x="389.404297" xlink:href="#DejaVuSans-48"/>
      <use x="453.027344" xlink:href="#DejaVuSans-44"/>
      <use x="484.814453" xlink:href="#DejaVuSans-32"/>
      <use x="516.601562" xlink:href="#DejaVuSans-114"/>
      <use x="557.714844" xlink:href="#DejaVuSans-97"/>
      <use x="618.994141" xlink:href="#DejaVuSans-110"/>
      <use x="682.373047" xlink:href="#DejaVuSans-100"/>
      <use x="745.849609" xlink:href="#DejaVuSans-97"/>
      <use x="807.128906" xlink:href="#DejaVuSans-117"/>
      <use x="870.507812" xlink:href="#DejaVuSans-103"/>
      <use x="933.984375" xlink:href="#DejaVuSans-95"/>
      <use x="983.984375" xlink:href="#DejaVuSans-54"/>
      <use x="1047.607422" xlink:href="#DejaVuSans-95"/>
      <use x="1097.607422" xlink:href="#DejaVuSans-109"/>
      <use x="1195.019531" xlink:href="#DejaVuSans-105"/>
      <use x="1222.802734" xlink:href="#DejaVuSans-120"/>
      <use x="1281.982422" xlink:href="#DejaVuSans-117"/>
      <use x="1345.361328" xlink:href="#DejaVuSans-112"/>
      <use x="1408.837891" xlink:href="#DejaVuSans-95"/>
      <use x="1458.837891" xlink:href="#DejaVuSans-48"/>
      <use x="1522.460938" xlink:href="#DejaVuSans-46"/>
      <use x="1554.248047" xlink:href="#DejaVuSans-49"/>
      <use x="1617.871094" xlink:href="#DejaVuSans-95"/>
      <use x="1667.871094" xlink:href="#DejaVuSans-99"/>
      <use x="1722.851562" xlink:href="#DejaVuSans-117"/>
      <use x="1786.230469" xlink:href="#DejaVuSans-116"/>
      <use x="1825.439453" xlink:href="#DejaVuSans-109"/>
      <use x="1922.851562" xlink:href="#DejaVuSans-105"/>
      <use x="1950.634766" xlink:href="#DejaVuSans-120"/>
      <use x="2009.814453" xlink:href="#DejaVuSans-95"/>
      <use x="2059.814453" xlink:href="#DejaVuSans-49"/>
      <use x="2123.4375" xlink:href="#DejaVuSans-46"/>
      <use x="2155.224609" xlink:href="#DejaVuSans-48"/>
      <use x="2218.847656" xlink:href="#DejaVuSans-95"/>
      <use x="2268.847656" xlink:href="#DejaVuSans-82"/>
      <use x="2338.330078" xlink:href="#DejaVuSans-82"/>
      <use x="2402.8125" xlink:href="#DejaVuSans-67"/>
      <use x="2472.636719" xlink:href="#DejaVuSans-95"/>
      <use x="2522.636719" xlink:href="#DejaVuSans-48"/>
      <use x="2586.259766" xlink:href="#DejaVuSans-46"/>
      <use x="2618.046875" xlink:href="#DejaVuSans-48"/>
      <use x="2681.669922" xlink:href="#DejaVuSans-56"/>
      <use x="2745.292969" xlink:href="#DejaVuSans-95"/>
      <use x="2795.292969" xlink:href="#DejaVuSans-76"/>
      <use x="2853.255859" xlink:href="#DejaVuSans-65"/>
      <use x="2921.664062" xlink:href="#DejaVuSans-77"/>
      <use x="3007.943359" xlink:href="#DejaVuSans-66"/>
      <use x="3076.546875" xlink:href="#DejaVuSans-32"/>
      <use x="3108.333984" xlink:href="#DejaVuSans-97"/>
      <use x="3169.613281" xlink:href="#DejaVuSans-99"/>
      <use x="3224.59375" xlink:href="#DejaVuSans-99"/>
      <use x="3279.574219" xlink:href="#DejaVuSans-117"/>
      <use x="3342.953125" xlink:href="#DejaVuSans-114"/>
      <use x="3384.066406" xlink:href="#DejaVuSans-97"/>
      <use x="3445.345703" xlink:href="#DejaVuSans-99"/>
      <use x="3500.326172" xlink:href="#DejaVuSans-121"/>
     </g>
    </g>
    <g id="line2d_37">
     <path d="M 424.008685 392.712753 
L 439.408685 392.712753 
" style="fill:none;stroke:#4c72b0;stroke-dasharray:3.885,1.68;stroke-dashoffset:0;stroke-width:1.05;"/>
    </g>
    <g id="line2d_38"/>
    <g id="text_34">
     <!-- aotnet50, randaug_6_mixup_0.1_cutmix_1.0_RRC_0.08_LAMB val_accuracy -->
     <g style="fill:#262626;" transform="translate(445.568685 395.407753)scale(0.077 -0.077)">
      <use xlink:href="#DejaVuSans-97"/>
      <use x="61.279297" xlink:href="#DejaVuSans-111"/>
      <use x="122.460938" xlink:href="#DejaVuSans-116"/>
      <use x="161.669922" xlink:href="#DejaVuSans-110"/>
      <use x="225.048828" xlink:href="#DejaVuSans-101"/>
      <use x="286.572266" xlink:href="#DejaVuSans-116"/>
      <use x="325.78125" xlink:href="#DejaVuSans-53"/>
      <use x="389.404297" xlink:href="#DejaVuSans-48"/>
      <use x="453.027344" xlink:href="#DejaVuSans-44"/>
      <use x="484.814453" xlink:href="#DejaVuSans-32"/>
      <use x="516.601562" xlink:href="#DejaVuSans-114"/>
      <use x="557.714844" xlink:href="#DejaVuSans-97"/>
      <use x="618.994141" xlink:href="#DejaVuSans-110"/>
      <use x="682.373047" xlink:href="#DejaVuSans-100"/>
      <use x="745.849609" xlink:href="#DejaVuSans-97"/>
      <use x="807.128906" xlink:href="#DejaVuSans-117"/>
      <use x="870.507812" xlink:href="#DejaVuSans-103"/>
      <use x="933.984375" xlink:href="#DejaVuSans-95"/>
      <use x="983.984375" xlink:href="#DejaVuSans-54"/>
      <use x="1047.607422" xlink:href="#DejaVuSans-95"/>
      <use x="1097.607422" xlink:href="#DejaVuSans-109"/>
      <use x="1195.019531" xlink:href="#DejaVuSans-105"/>
      <use x="1222.802734" xlink:href="#DejaVuSans-120"/>
      <use x="1281.982422" xlink:href="#DejaVuSans-117"/>
      <use x="1345.361328" xlink:href="#DejaVuSans-112"/>
      <use x="1408.837891" xlink:href="#DejaVuSans-95"/>
      <use x="1458.837891" xlink:href="#DejaVuSans-48"/>
      <use x="1522.460938" xlink:href="#DejaVuSans-46"/>
      <use x="1554.248047" xlink:href="#DejaVuSans-49"/>
      <use x="1617.871094" xlink:href="#DejaVuSans-95"/>
      <use x="1667.871094" xlink:href="#DejaVuSans-99"/>
      <use x="1722.851562" xlink:href="#DejaVuSans-117"/>
      <use x="1786.230469" xlink:href="#DejaVuSans-116"/>
      <use x="1825.439453" xlink:href="#DejaVuSans-109"/>
      <use x="1922.851562" xlink:href="#DejaVuSans-105"/>
      <use x="1950.634766" xlink:href="#DejaVuSans-120"/>
      <use x="2009.814453" xlink:href="#DejaVuSans-95"/>
      <use x="2059.814453" xlink:href="#DejaVuSans-49"/>
      <use x="2123.4375" xlink:href="#DejaVuSans-46"/>
      <use x="2155.224609" xlink:href="#DejaVuSans-48"/>
      <use x="2218.847656" xlink:href="#DejaVuSans-95"/>
      <use x="2268.847656" xlink:href="#DejaVuSans-82"/>
      <use x="2338.330078" xlink:href="#DejaVuSans-82"/>
      <use x="2402.8125" xlink:href="#DejaVuSans-67"/>
      <use x="2472.636719" xlink:href="#DejaVuSans-95"/>
      <use x="2522.636719" xlink:href="#DejaVuSans-48"/>
      <use x="2586.259766" xlink:href="#DejaVuSans-46"/>
      <use x="2618.046875" xlink:href="#DejaVuSans-48"/>
      <use x="2681.669922" xlink:href="#DejaVuSans-56"/>
      <use x="2745.292969" xlink:href="#DejaVuSans-95"/>
      <use x="2795.292969" xlink:href="#DejaVuSans-76"/>
      <use x="2853.255859" xlink:href="#DejaVuSans-65"/>
      <use x="2921.664062" xlink:href="#DejaVuSans-77"/>
      <use x="3007.943359" xlink:href="#DejaVuSans-66"/>
      <use x="3076.546875" xlink:href="#DejaVuSans-32"/>
      <use x="3108.333984" xlink:href="#DejaVuSans-118"/>
      <use x="3167.513672" xlink:href="#DejaVuSans-97"/>
      <use x="3228.792969" xlink:href="#DejaVuSans-108"/>
      <use x="3256.576172" xlink:href="#DejaVuSans-95"/>
      <use x="3306.576172" xlink:href="#DejaVuSans-97"/>
      <use x="3367.855469" xlink:href="#DejaVuSans-99"/>
      <use x="3422.835938" xlink:href="#DejaVuSans-99"/>
      <use x="3477.816406" xlink:href="#DejaVuSans-117"/>
      <use x="3541.195312" xlink:href="#DejaVuSans-114"/>
      <use x="3582.308594" xlink:href="#DejaVuSans-97"/>
      <use x="3643.587891" xlink:href="#DejaVuSans-99"/>
      <use x="3698.568359" xlink:href="#DejaVuSans-121"/>
     </g>
    </g>
   </g>
  </g>
  <g id="axes_3">
   <g id="patch_12">
    <path d="M 812.071136 404.153268 
L 1143.936 404.153268 
L 1143.936 9.05688 
L 812.071136 9.05688 
z
" style="fill:#eaeaf2;"/>
   </g>
   <g id="matplotlib.axis_5">
    <g id="xtick_13">
     <g id="line2d_39">
      <path clip-path="url(#p5b39c288b1)" d="M 827.155903 404.153268 
L 827.155903 9.05688 
" style="fill:none;stroke:#ffffff;stroke-linecap:round;stroke-width:0.7;"/>
     </g>
     <g id="text_35">
      <!-- 0 -->
      <g style="fill:#262626;" transform="translate(824.70634 420.904065)scale(0.077 -0.077)">
       <use xlink:href="#DejaVuSans-48"/>
      </g>
     </g>
    </g>
    <g id="xtick_14">
     <g id="line2d_40">
      <path clip-path="url(#p5b39c288b1)" d="M 885.174236 404.153268 
L 885.174236 9.05688 
" style="fill:none;stroke:#ffffff;stroke-linecap:round;stroke-width:0.7;"/>
     </g>
     <g id="text_36">
      <!-- 20 -->
      <g style="fill:#262626;" transform="translate(880.275111 420.904065)scale(0.077 -0.077)">
       <use xlink:href="#DejaVuSans-50"/>
       <use x="63.623047" xlink:href="#DejaVuSans-48"/>
      </g>
     </g>
    </g>
    <g id="xtick_15">
     <g id="line2d_41">
      <path clip-path="url(#p5b39c288b1)" d="M 943.192568 404.153268 
L 943.192568 9.05688 
" style="fill:none;stroke:#ffffff;stroke-linecap:round;stroke-width:0.7;"/>
     </g>
     <g id="text_37">
      <!-- 40 -->
      <g style="fill:#262626;" transform="translate(938.293443 420.904065)scale(0.077 -0.077)">
       <use xlink:href="#DejaVuSans-52"/>
       <use x="63.623047" xlink:href="#DejaVuSans-48"/>
      </g>
     </g>
    </g>
    <g id="xtick_16">
     <g id="line2d_42">
      <path clip-path="url(#p5b39c288b1)" d="M 1001.210901 404.153268 
L 1001.210901 9.05688 
" style="fill:none;stroke:#ffffff;stroke-linecap:round;stroke-width:0.7;"/>
     </g>
     <g id="text_38">
      <!-- 60 -->
      <g style="fill:#262626;" transform="translate(996.311776 420.904065)scale(0.077 -0.077)">
       <use xlink:href="#DejaVuSans-54"/>
       <use x="63.623047" xlink:href="#DejaVuSans-48"/>
      </g>
     </g>
    </g>
    <g id="xtick_17">
     <g id="line2d_43">
      <path clip-path="url(#p5b39c288b1)" d="M 1059.229234 404.153268 
L 1059.229234 9.05688 
" style="fill:none;stroke:#ffffff;stroke-linecap:round;stroke-width:0.7;"/>
     </g>
     <g id="text_39">
      <!-- 80 -->
      <g style="fill:#262626;" transform="translate(1054.330109 420.904065)scale(0.077 -0.077)">
       <use xlink:href="#DejaVuSans-56"/>
       <use x="63.623047" xlink:href="#DejaVuSans-48"/>
      </g>
     </g>
    </g>
    <g id="xtick_18">
     <g id="line2d_44">
      <path clip-path="url(#p5b39c288b1)" d="M 1117.247567 404.153268 
L 1117.247567 9.05688 
" style="fill:none;stroke:#ffffff;stroke-linecap:round;stroke-width:0.7;"/>
     </g>
     <g id="text_40">
      <!-- 100 -->
      <g style="fill:#262626;" transform="translate(1109.898879 420.904065)scale(0.077 -0.077)">
       <use xlink:href="#DejaVuSans-49"/>
       <use x="63.623047" xlink:href="#DejaVuSans-48"/>
       <use x="127.246094" xlink:href="#DejaVuSans-48"/>
      </g>
     </g>
    </g>
   </g>
   <g id="matplotlib.axis_6">
    <g id="ytick_15">
     <g id="line2d_45">
      <path clip-path="url(#p5b39c288b1)" d="M 812.071136 386.284162 
L 1143.936 386.284162 
" style="fill:none;stroke:#ffffff;stroke-linecap:round;stroke-width:0.7;"/>
     </g>
     <g id="text_41">
      <!-- 0.0000 -->
      <g style="fill:#262626;" transform="translate(774.228355 389.209561)scale(0.077 -0.077)">
       <use xlink:href="#DejaVuSans-48"/>
       <use x="63.623047" xlink:href="#DejaVuSans-46"/>
       <use x="95.410156" xlink:href="#DejaVuSans-48"/>
       <use x="159.033203" xlink:href="#DejaVuSans-48"/>
       <use x="222.65625" xlink:href="#DejaVuSans-48"/>
       <use x="286.279297" xlink:href="#DejaVuSans-48"/>
      </g>
     </g>
    </g>
    <g id="ytick_16">
     <g id="line2d_46">
      <path clip-path="url(#p5b39c288b1)" d="M 812.071136 341.373821 
L 1143.936 341.373821 
" style="fill:none;stroke:#ffffff;stroke-linecap:round;stroke-width:0.7;"/>
     </g>
     <g id="text_42">
      <!-- 0.0005 -->
      <g style="fill:#262626;" transform="translate(774.228355 344.29922)scale(0.077 -0.077)">
       <use xlink:href="#DejaVuSans-48"/>
       <use x="63.623047" xlink:href="#DejaVuSans-46"/>
       <use x="95.410156" xlink:href="#DejaVuSans-48"/>
       <use x="159.033203" xlink:href="#DejaVuSans-48"/>
       <use x="222.65625" xlink:href="#DejaVuSans-48"/>
       <use x="286.279297" xlink:href="#DejaVuSans-53"/>
      </g>
     </g>
    </g>
    <g id="ytick_17">
     <g id="line2d_47">
      <path clip-path="url(#p5b39c288b1)" d="M 812.071136 296.463481 
L 1143.936 296.463481 
" style="fill:none;stroke:#ffffff;stroke-linecap:round;stroke-width:0.7;"/>
     </g>
     <g id="text_43">
      <!-- 0.0010 -->
      <g style="fill:#262626;" transform="translate(774.228355 299.388879)scale(0.077 -0.077)">
       <use xlink:href="#DejaVuSans-48"/>
       <use x="63.623047" xlink:href="#DejaVuSans-46"/>
       <use x="95.410156" xlink:href="#DejaVuSans-48"/>
       <use x="159.033203" xlink:href="#DejaVuSans-48"/>
       <use x="222.65625" xlink:href="#DejaVuSans-49"/>
       <use x="286.279297" xlink:href="#DejaVuSans-48"/>
      </g>
     </g>
    </g>
    <g id="ytick_18">
     <g id="line2d_48">
      <path clip-path="url(#p5b39c288b1)" d="M 812.071136 251.55314 
L 1143.936 251.55314 
" style="fill:none;stroke:#ffffff;stroke-linecap:round;stroke-width:0.7;"/>
     </g>
     <g id="text_44">
      <!-- 0.0015 -->
      <g style="fill:#262626;" transform="translate(774.228355 254.478538)scale(0.077 -0.077)">
       <use xlink:href="#DejaVuSans-48"/>
       <use x="63.623047" xlink:href="#DejaVuSans-46"/>
       <use x="95.410156" xlink:href="#DejaVuSans-48"/>
       <use x="159.033203" xlink:href="#DejaVuSans-48"/>
       <use x="222.65625" xlink:href="#DejaVuSans-49"/>
       <use x="286.279297" xlink:href="#DejaVuSans-53"/>
      </g>
     </g>
    </g>
    <g id="ytick_19">
     <g id="line2d_49">
      <path clip-path="url(#p5b39c288b1)" d="M 812.071136 206.642799 
L 1143.936 206.642799 
" style="fill:none;stroke:#ffffff;stroke-linecap:round;stroke-width:0.7;"/>
     </g>
     <g id="text_45">
      <!-- 0.0020 -->
      <g style="fill:#262626;" transform="translate(774.228355 209.568197)scale(0.077 -0.077)">
       <use xlink:href="#DejaVuSans-48"/>
       <use x="63.623047" xlink:href="#DejaVuSans-46"/>
       <use x="95.410156" xlink:href="#DejaVuSans-48"/>
       <use x="159.033203" xlink:href="#DejaVuSans-48"/>
       <use x="222.65625" xlink:href="#DejaVuSans-50"/>
       <use x="286.279297" xlink:href="#DejaVuSans-48"/>
      </g>
     </g>
    </g>
    <g id="ytick_20">
     <g id="line2d_50">
      <path clip-path="url(#p5b39c288b1)" d="M 812.071136 161.732458 
L 1143.936 161.732458 
" style="fill:none;stroke:#ffffff;stroke-linecap:round;stroke-width:0.7;"/>
     </g>
     <g id="text_46">
      <!-- 0.0025 -->
      <g style="fill:#262626;" transform="translate(774.228355 164.657857)scale(0.077 -0.077)">
       <use xlink:href="#DejaVuSans-48"/>
       <use x="63.623047" xlink:href="#DejaVuSans-46"/>
       <use x="95.410156" xlink:href="#DejaVuSans-48"/>
       <use x="159.033203" xlink:href="#DejaVuSans-48"/>
       <use x="222.65625" xlink:href="#DejaVuSans-50"/>
       <use x="286.279297" xlink:href="#DejaVuSans-53"/>
      </g>
     </g>
    </g>
    <g id="ytick_21">
     <g id="line2d_51">
      <path clip-path="url(#p5b39c288b1)" d="M 812.071136 116.822117 
L 1143.936 116.822117 
" style="fill:none;stroke:#ffffff;stroke-linecap:round;stroke-width:0.7;"/>
     </g>
     <g id="text_47">
      <!-- 0.0030 -->
      <g style="fill:#262626;" transform="translate(774.228355 119.747516)scale(0.077 -0.077)">
       <use xlink:href="#DejaVuSans-48"/>
       <use x="63.623047" xlink:href="#DejaVuSans-46"/>
       <use x="95.410156" xlink:href="#DejaVuSans-48"/>
       <use x="159.033203" xlink:href="#DejaVuSans-48"/>
       <use x="222.65625" xlink:href="#DejaVuSans-51"/>
       <use x="286.279297" xlink:href="#DejaVuSans-48"/>
      </g>
     </g>
    </g>
    <g id="ytick_22">
     <g id="line2d_52">
      <path clip-path="url(#p5b39c288b1)" d="M 812.071136 71.911776 
L 1143.936 71.911776 
" style="fill:none;stroke:#ffffff;stroke-linecap:round;stroke-width:0.7;"/>
     </g>
     <g id="text_48">
      <!-- 0.0035 -->
      <g style="fill:#262626;" transform="translate(774.228355 74.837175)scale(0.077 -0.077)">
       <use xlink:href="#DejaVuSans-48"/>
       <use x="63.623047" xlink:href="#DejaVuSans-46"/>
       <use x="95.410156" xlink:href="#DejaVuSans-48"/>
       <use x="159.033203" xlink:href="#DejaVuSans-48"/>
       <use x="222.65625" xlink:href="#DejaVuSans-51"/>
       <use x="286.279297" xlink:href="#DejaVuSans-53"/>
      </g>
     </g>
    </g>
    <g id="ytick_23">
     <g id="line2d_53">
      <path clip-path="url(#p5b39c288b1)" d="M 812.071136 27.001436 
L 1143.936 27.001436 
" style="fill:none;stroke:#ffffff;stroke-linecap:round;stroke-width:0.7;"/>
     </g>
     <g id="text_49">
      <!-- 0.0040 -->
      <g style="fill:#262626;" transform="translate(774.228355 29.926834)scale(0.077 -0.077)">
       <use xlink:href="#DejaVuSans-48"/>
       <use x="63.623047" xlink:href="#DejaVuSans-46"/>
       <use x="95.410156" xlink:href="#DejaVuSans-48"/>
       <use x="159.033203" xlink:href="#DejaVuSans-48"/>
       <use x="222.65625" xlink:href="#DejaVuSans-52"/>
       <use x="286.279297" xlink:href="#DejaVuSans-48"/>
      </g>
     </g>
    </g>
   </g>
   <g id="PathCollection_5">
    <g clip-path="url(#p5b39c288b1)">
     <use style="fill:#4c72b0;stroke:#4c72b0;" x="1128.851233" xlink:href="#me371882d13" y="386.194342"/>
    </g>
   </g>
   <g id="line2d_54">
    <path clip-path="url(#p5b39c288b1)" d="M 827.155903 314.370113 
L 830.056819 242.531529 
L 832.957736 170.692955 
L 835.858653 98.85437 
L 838.759569 27.015807 
L 841.660486 27.090006 
L 844.561403 27.355769 
L 847.462319 27.798371 
L 850.363236 28.417438 
L 853.264152 29.212384 
L 856.165069 30.182371 
L 859.065986 31.326479 
L 861.966902 32.643497 
L 864.867819 34.13221 
L 867.768736 35.791155 
L 870.669652 37.618639 
L 873.570569 39.612903 
L 876.471486 41.771962 
L 879.372402 44.093661 
L 882.273319 46.575742 
L 885.174236 49.215759 
L 888.075152 52.011096 
L 890.976069 54.958972 
L 893.876985 58.056502 
L 896.777902 61.300632 
L 899.678819 64.688142 
L 902.579735 68.215706 
L 905.480652 71.879833 
L 908.381569 75.676924 
L 911.282485 79.603236 
L 914.183402 83.654818 
L 917.084319 87.827778 
L 919.985235 92.117935 
L 922.886152 96.521064 
L 925.787069 101.032836 
L 928.687985 105.648776 
L 931.588902 110.364346 
L 934.489818 115.17486 
L 937.390735 120.075656 
L 940.291652 125.061798 
L 943.192568 130.128392 
L 946.093485 135.270503 
L 948.994402 140.482966 
L 951.895318 145.760656 
L 954.796235 151.098471 
L 957.697152 156.490973 
L 960.598068 161.932977 
L 963.498985 167.419024 
L 966.399902 172.943759 
L 969.300818 178.501704 
L 972.201735 184.08738 
L 975.102651 189.695266 
L 978.003568 195.319798 
L 980.904485 200.955519 
L 983.805401 206.59674 
L 986.706318 212.238024 
L 989.607235 217.873713 
L 992.508151 223.498266 
L 995.409068 229.106162 
L 998.309985 234.691828 
L 1001.210901 240.249784 
L 1004.111818 245.77454 
L 1007.012735 251.260628 
L 1009.913651 256.702622 
L 1012.814568 262.095156 
L 1015.715484 267.432939 
L 1018.616401 272.710702 
L 1021.517318 277.923217 
L 1024.418234 283.065328 
L 1027.319151 288.131996 
L 1030.220068 293.118148 
L 1033.120984 298.018944 
L 1036.021901 302.829526 
L 1038.922818 307.545174 
L 1041.823734 312.16113 
L 1044.724651 316.672939 
L 1047.625567 321.076115 
L 1050.526484 325.366319 
L 1053.427401 329.539305 
L 1056.328317 333.590976 
L 1059.229234 337.517304 
L 1062.130151 341.314442 
L 1065.031067 344.978626 
L 1067.931984 348.506245 
L 1070.832901 351.893797 
L 1073.733817 355.137989 
L 1076.634734 358.235601 
L 1079.535651 361.183548 
L 1082.436567 363.978929 
L 1085.337484 366.618986 
L 1088.2384 369.101135 
L 1091.139317 371.422918 
L 1094.040234 373.582051 
L 1096.94115 375.576352 
L 1099.842067 377.403915 
L 1102.742984 379.062911 
L 1105.6439 380.551711 
L 1108.544817 381.868838 
L 1111.445734 383.012987 
L 1114.34665 383.983033 
L 1117.247567 384.778035 
L 1120.148484 385.397178 
L 1123.0494 385.839885 
L 1125.950317 386.105685 
L 1128.851233 386.194342 
" style="fill:none;stroke:#4c72b0;stroke-linecap:round;stroke-width:1.05;"/>
   </g>
   <g id="patch_13">
    <path d="M 812.071136 404.153268 
L 812.071136 9.05688 
" style="fill:none;stroke:#ffffff;stroke-linecap:square;stroke-linejoin:miter;stroke-width:0.875;"/>
   </g>
   <g id="patch_14">
    <path d="M 1143.936 404.153268 
L 1143.936 9.05688 
" style="fill:none;stroke:#ffffff;stroke-linecap:square;stroke-linejoin:miter;stroke-width:0.875;"/>
   </g>
   <g id="patch_15">
    <path d="M 812.071136 404.153268 
L 1143.936 404.153268 
" style="fill:none;stroke:#ffffff;stroke-linecap:square;stroke-linejoin:miter;stroke-width:0.875;"/>
   </g>
   <g id="patch_16">
    <path d="M 812.071136 9.05688 
L 1143.936 9.05688 
" style="fill:none;stroke:#ffffff;stroke-linecap:square;stroke-linejoin:miter;stroke-width:0.875;"/>
   </g>
   <g id="text_50">
    <!-- 0.0000 -->
    <g style="fill:#262626;" transform="translate(1097.359671 384.322623)scale(0.09 -0.09)">
     <use xlink:href="#DejaVuSans-48"/>
     <use x="63.623047" xlink:href="#DejaVuSans-46"/>
     <use x="95.410156" xlink:href="#DejaVuSans-48"/>
     <use x="159.033203" xlink:href="#DejaVuSans-48"/>
     <use x="222.65625" xlink:href="#DejaVuSans-48"/>
     <use x="286.279297" xlink:href="#DejaVuSans-48"/>
    </g>
   </g>
   <g id="legend_3">
    <g id="line2d_55">
     <path d="M 870.798953 19.142677 
L 886.198953 19.142677 
" style="fill:none;stroke:#4c72b0;stroke-linecap:round;stroke-width:1.05;"/>
    </g>
    <g id="line2d_56"/>
    <g id="text_51">
     <!-- aotnet50, randaug_6_mixup_0.1_cutmix_1.0_RRC_0.08_LAMB lr -->
     <g style="fill:#262626;" transform="translate(892.358953 21.837677)scale(0.077 -0.077)">
      <use xlink:href="#DejaVuSans-97"/>
      <use x="61.279297" xlink:href="#DejaVuSans-111"/>
      <use x="122.460938" xlink:href="#DejaVuSans-116"/>
      <use x="161.669922" xlink:href="#DejaVuSans-110"/>
      <use x="225.048828" xlink:href="#DejaVuSans-101"/>
      <use x="286.572266" xlink:href="#DejaVuSans-116"/>
      <use x="325.78125" xlink:href="#DejaVuSans-53"/>
      <use x="389.404297" xlink:href="#DejaVuSans-48"/>
      <use x="453.027344" xlink:href="#DejaVuSans-44"/>
      <use x="484.814453" xlink:href="#DejaVuSans-32"/>
      <use x="516.601562" xlink:href="#DejaVuSans-114"/>
      <use x="557.714844" xlink:href="#DejaVuSans-97"/>
      <use x="618.994141" xlink:href="#DejaVuSans-110"/>
      <use x="682.373047" xlink:href="#DejaVuSans-100"/>
      <use x="745.849609" xlink:href="#DejaVuSans-97"/>
      <use x="807.128906" xlink:href="#DejaVuSans-117"/>
      <use x="870.507812" xlink:href="#DejaVuSans-103"/>
      <use x="933.984375" xlink:href="#DejaVuSans-95"/>
      <use x="983.984375" xlink:href="#DejaVuSans-54"/>
      <use x="1047.607422" xlink:href="#DejaVuSans-95"/>
      <use x="1097.607422" xlink:href="#DejaVuSans-109"/>
      <use x="1195.019531" xlink:href="#DejaVuSans-105"/>
      <use x="1222.802734" xlink:href="#DejaVuSans-120"/>
      <use x="1281.982422" xlink:href="#DejaVuSans-117"/>
      <use x="1345.361328" xlink:href="#DejaVuSans-112"/>
      <use x="1408.837891" xlink:href="#DejaVuSans-95"/>
      <use x="1458.837891" xlink:href="#DejaVuSans-48"/>
      <use x="1522.460938" xlink:href="#DejaVuSans-46"/>
      <use x="1554.248047" xlink:href="#DejaVuSans-49"/>
      <use x="1617.871094" xlink:href="#DejaVuSans-95"/>
      <use x="1667.871094" xlink:href="#DejaVuSans-99"/>
      <use x="1722.851562" xlink:href="#DejaVuSans-117"/>
      <use x="1786.230469" xlink:href="#DejaVuSans-116"/>
      <use x="1825.439453" xlink:href="#DejaVuSans-109"/>
      <use x="1922.851562" xlink:href="#DejaVuSans-105"/>
      <use x="1950.634766" xlink:href="#DejaVuSans-120"/>
      <use x="2009.814453" xlink:href="#DejaVuSans-95"/>
      <use x="2059.814453" xlink:href="#DejaVuSans-49"/>
      <use x="2123.4375" xlink:href="#DejaVuSans-46"/>
      <use x="2155.224609" xlink:href="#DejaVuSans-48"/>
      <use x="2218.847656" xlink:href="#DejaVuSans-95"/>
      <use x="2268.847656" xlink:href="#DejaVuSans-82"/>
      <use x="2338.330078" xlink:href="#DejaVuSans-82"/>
      <use x="2402.8125" xlink:href="#DejaVuSans-67"/>
      <use x="2472.636719" xlink:href="#DejaVuSans-95"/>
      <use x="2522.636719" xlink:href="#DejaVuSans-48"/>
      <use x="2586.259766" xlink:href="#DejaVuSans-46"/>
      <use x="2618.046875" xlink:href="#DejaVuSans-48"/>
      <use x="2681.669922" xlink:href="#DejaVuSans-56"/>
      <use x="2745.292969" xlink:href="#DejaVuSans-95"/>
      <use x="2795.292969" xlink:href="#DejaVuSans-76"/>
      <use x="2853.255859" xlink:href="#DejaVuSans-65"/>
      <use x="2921.664062" xlink:href="#DejaVuSans-77"/>
      <use x="3007.943359" xlink:href="#DejaVuSans-66"/>
      <use x="3076.546875" xlink:href="#DejaVuSans-32"/>
      <use x="3108.333984" xlink:href="#DejaVuSans-108"/>
      <use x="3136.117188" xlink:href="#DejaVuSans-114"/>
     </g>
    </g>
   </g>
  </g>
 </g>
 <defs>
  <clipPath id="p1feed18802">
   <rect height="395.096388" width="331.864864" x="22.086233" y="9.05688"/>
  </clipPath>
  <clipPath id="pbcd659a9de">
   <rect height="395.096388" width="331.864864" x="417.078685" y="9.05688"/>
  </clipPath>
  <clipPath id="p5b39c288b1">
   <rect height="395.096388" width="331.864864" x="812.071136" y="9.05688"/>
  </clipPath>
 </defs>
</svg>
