<?xml version="1.0" encoding="utf-8" standalone="no"?>
<!DOCTYPE svg PUBLIC "-//W3C//DTD SVG 1.1//EN"
  "http://www.w3.org/Graphics/SVG/1.1/DTD/svg11.dtd">
<!-- Created with matplotlib (https://matplotlib.org/) -->
<svg height="431.28pt" version="1.1" viewBox="0 0 1152 431.28" width="1152pt" xmlns="http://www.w3.org/2000/svg" xmlns:xlink="http://www.w3.org/1999/xlink">
 <metadata>
  <rdf:RDF xmlns:cc="http://creativecommons.org/ns#" xmlns:dc="http://purl.org/dc/elements/1.1/" xmlns:rdf="http://www.w3.org/1999/02/22-rdf-syntax-ns#">
   <cc:Work>
    <dc:type rdf:resource="http://purl.org/dc/dcmitype/StillImage"/>
    <dc:date>2021-09-14T14:25:21.256382</dc:date>
    <dc:format>image/svg+xml</dc:format>
    <dc:creator>
     <cc:Agent>
      <dc:title>Matplotlib v3.3.2, https://matplotlib.org/</dc:title>
     </cc:Agent>
    </dc:creator>
   </cc:Work>
  </rdf:RDF>
 </metadata>
 <defs>
  <style type="text/css">*{stroke-linecap:butt;stroke-linejoin:round;}</style>
 </defs>
 <g id="figure_1">
  <g id="patch_1">
   <path d="M 0 431.28 
L 1152 431.28 
L 1152 0 
L 0 0 
z
" style="fill:#ffffff;"/>
  </g>
  <g id="axes_1">
   <g id="patch_2">
    <path d="M 21.971131 409.93562 
L 375.879984 409.93562 
L 375.879984 6.4692 
L 21.971131 6.4692 
z
" style="fill:#eaeaf2;"/>
   </g>
   <g id="matplotlib.axis_1">
    <g id="xtick_1">
     <g id="line2d_1">
      <path clip-path="url(#p003fc4cc56)" d="M 38.057897 409.93562 
L 38.057897 6.4692 
" style="fill:none;stroke:#ffffff;stroke-linecap:round;stroke-width:0.5;"/>
     </g>
     <g id="text_1">
      <!-- 0 -->
      <g style="fill:#262626;" transform="translate(36.308209 423.61476)scale(0.055 -0.055)">
       <defs>
        <path d="M 31.78125 66.40625 
Q 24.171875 66.40625 20.328125 58.90625 
Q 16.5 51.421875 16.5 36.375 
Q 16.5 21.390625 20.328125 13.890625 
Q 24.171875 6.390625 31.78125 6.390625 
Q 39.453125 6.390625 43.28125 13.890625 
Q 47.125 21.390625 47.125 36.375 
Q 47.125 51.421875 43.28125 58.90625 
Q 39.453125 66.40625 31.78125 66.40625 
z
M 31.78125 74.21875 
Q 44.046875 74.21875 50.515625 64.515625 
Q 56.984375 54.828125 56.984375 36.375 
Q 56.984375 17.96875 50.515625 8.265625 
Q 44.046875 -1.421875 31.78125 -1.421875 
Q 19.53125 -1.421875 13.0625 8.265625 
Q 6.59375 17.96875 6.59375 36.375 
Q 6.59375 54.828125 13.0625 64.515625 
Q 19.53125 74.21875 31.78125 74.21875 
z
" id="DejaVuSans-48"/>
       </defs>
       <use xlink:href="#DejaVuSans-48"/>
      </g>
     </g>
    </g>
    <g id="xtick_2">
     <g id="line2d_2">
      <path clip-path="url(#p003fc4cc56)" d="M 101.143254 409.93562 
L 101.143254 6.4692 
" style="fill:none;stroke:#ffffff;stroke-linecap:round;stroke-width:0.5;"/>
     </g>
     <g id="text_2">
      <!-- 10 -->
      <g style="fill:#262626;" transform="translate(97.643879 423.61476)scale(0.055 -0.055)">
       <defs>
        <path d="M 12.40625 8.296875 
L 28.515625 8.296875 
L 28.515625 63.921875 
L 10.984375 60.40625 
L 10.984375 69.390625 
L 28.421875 72.90625 
L 38.28125 72.90625 
L 38.28125 8.296875 
L 54.390625 8.296875 
L 54.390625 0 
L 12.40625 0 
z
" id="DejaVuSans-49"/>
       </defs>
       <use xlink:href="#DejaVuSans-49"/>
       <use x="63.623047" xlink:href="#DejaVuSans-48"/>
      </g>
     </g>
    </g>
    <g id="xtick_3">
     <g id="line2d_3">
      <path clip-path="url(#p003fc4cc56)" d="M 164.228611 409.93562 
L 164.228611 6.4692 
" style="fill:none;stroke:#ffffff;stroke-linecap:round;stroke-width:0.5;"/>
     </g>
     <g id="text_3">
      <!-- 20 -->
      <g style="fill:#262626;" transform="translate(160.729236 423.61476)scale(0.055 -0.055)">
       <defs>
        <path d="M 19.1875 8.296875 
L 53.609375 8.296875 
L 53.609375 0 
L 7.328125 0 
L 7.328125 8.296875 
Q 12.9375 14.109375 22.625 23.890625 
Q 32.328125 33.6875 34.8125 36.53125 
Q 39.546875 41.84375 41.421875 45.53125 
Q 43.3125 49.21875 43.3125 52.78125 
Q 43.3125 58.59375 39.234375 62.25 
Q 35.15625 65.921875 28.609375 65.921875 
Q 23.96875 65.921875 18.8125 64.3125 
Q 13.671875 62.703125 7.8125 59.421875 
L 7.8125 69.390625 
Q 13.765625 71.78125 18.9375 73 
Q 24.125 74.21875 28.421875 74.21875 
Q 39.75 74.21875 46.484375 68.546875 
Q 53.21875 62.890625 53.21875 53.421875 
Q 53.21875 48.921875 51.53125 44.890625 
Q 49.859375 40.875 45.40625 35.40625 
Q 44.1875 33.984375 37.640625 27.21875 
Q 31.109375 20.453125 19.1875 8.296875 
z
" id="DejaVuSans-50"/>
       </defs>
       <use xlink:href="#DejaVuSans-50"/>
       <use x="63.623047" xlink:href="#DejaVuSans-48"/>
      </g>
     </g>
    </g>
    <g id="xtick_4">
     <g id="line2d_4">
      <path clip-path="url(#p003fc4cc56)" d="M 227.313968 409.93562 
L 227.313968 6.4692 
" style="fill:none;stroke:#ffffff;stroke-linecap:round;stroke-width:0.5;"/>
     </g>
     <g id="text_4">
      <!-- 30 -->
      <g style="fill:#262626;" transform="translate(223.814593 423.61476)scale(0.055 -0.055)">
       <defs>
        <path d="M 40.578125 39.3125 
Q 47.65625 37.796875 51.625 33 
Q 55.609375 28.21875 55.609375 21.1875 
Q 55.609375 10.40625 48.1875 4.484375 
Q 40.765625 -1.421875 27.09375 -1.421875 
Q 22.515625 -1.421875 17.65625 -0.515625 
Q 12.796875 0.390625 7.625 2.203125 
L 7.625 11.71875 
Q 11.71875 9.328125 16.59375 8.109375 
Q 21.484375 6.890625 26.8125 6.890625 
Q 36.078125 6.890625 40.9375 10.546875 
Q 45.796875 14.203125 45.796875 21.1875 
Q 45.796875 27.640625 41.28125 31.265625 
Q 36.765625 34.90625 28.71875 34.90625 
L 20.21875 34.90625 
L 20.21875 43.015625 
L 29.109375 43.015625 
Q 36.375 43.015625 40.234375 45.921875 
Q 44.09375 48.828125 44.09375 54.296875 
Q 44.09375 59.90625 40.109375 62.90625 
Q 36.140625 65.921875 28.71875 65.921875 
Q 24.65625 65.921875 20.015625 65.03125 
Q 15.375 64.15625 9.8125 62.3125 
L 9.8125 71.09375 
Q 15.4375 72.65625 20.34375 73.4375 
Q 25.25 74.21875 29.59375 74.21875 
Q 40.828125 74.21875 47.359375 69.109375 
Q 53.90625 64.015625 53.90625 55.328125 
Q 53.90625 49.265625 50.4375 45.09375 
Q 46.96875 40.921875 40.578125 39.3125 
z
" id="DejaVuSans-51"/>
       </defs>
       <use xlink:href="#DejaVuSans-51"/>
       <use x="63.623047" xlink:href="#DejaVuSans-48"/>
      </g>
     </g>
    </g>
    <g id="xtick_5">
     <g id="line2d_5">
      <path clip-path="url(#p003fc4cc56)" d="M 290.399325 409.93562 
L 290.399325 6.4692 
" style="fill:none;stroke:#ffffff;stroke-linecap:round;stroke-width:0.5;"/>
     </g>
     <g id="text_5">
      <!-- 40 -->
      <g style="fill:#262626;" transform="translate(286.89995 423.61476)scale(0.055 -0.055)">
       <defs>
        <path d="M 37.796875 64.3125 
L 12.890625 25.390625 
L 37.796875 25.390625 
z
M 35.203125 72.90625 
L 47.609375 72.90625 
L 47.609375 25.390625 
L 58.015625 25.390625 
L 58.015625 17.1875 
L 47.609375 17.1875 
L 47.609375 0 
L 37.796875 0 
L 37.796875 17.1875 
L 4.890625 17.1875 
L 4.890625 26.703125 
z
" id="DejaVuSans-52"/>
       </defs>
       <use xlink:href="#DejaVuSans-52"/>
       <use x="63.623047" xlink:href="#DejaVuSans-48"/>
      </g>
     </g>
    </g>
    <g id="xtick_6">
     <g id="line2d_6">
      <path clip-path="url(#p003fc4cc56)" d="M 353.484682 409.93562 
L 353.484682 6.4692 
" style="fill:none;stroke:#ffffff;stroke-linecap:round;stroke-width:0.5;"/>
     </g>
     <g id="text_6">
      <!-- 50 -->
      <g style="fill:#262626;" transform="translate(349.985307 423.61476)scale(0.055 -0.055)">
       <defs>
        <path d="M 10.796875 72.90625 
L 49.515625 72.90625 
L 49.515625 64.59375 
L 19.828125 64.59375 
L 19.828125 46.734375 
Q 21.96875 47.46875 24.109375 47.828125 
Q 26.265625 48.1875 28.421875 48.1875 
Q 40.625 48.1875 47.75 41.5 
Q 54.890625 34.8125 54.890625 23.390625 
Q 54.890625 11.625 47.5625 5.09375 
Q 40.234375 -1.421875 26.90625 -1.421875 
Q 22.3125 -1.421875 17.546875 -0.640625 
Q 12.796875 0.140625 7.71875 1.703125 
L 7.71875 11.625 
Q 12.109375 9.234375 16.796875 8.0625 
Q 21.484375 6.890625 26.703125 6.890625 
Q 35.15625 6.890625 40.078125 11.328125 
Q 45.015625 15.765625 45.015625 23.390625 
Q 45.015625 31 40.078125 35.4375 
Q 35.15625 39.890625 26.703125 39.890625 
Q 22.75 39.890625 18.8125 39.015625 
Q 14.890625 38.140625 10.796875 36.28125 
z
" id="DejaVuSans-53"/>
       </defs>
       <use xlink:href="#DejaVuSans-53"/>
       <use x="63.623047" xlink:href="#DejaVuSans-48"/>
      </g>
     </g>
    </g>
   </g>
   <g id="matplotlib.axis_2">
    <g id="ytick_1">
     <g id="line2d_7">
      <path clip-path="url(#p003fc4cc56)" d="M 21.971131 395.593889 
L 375.879984 395.593889 
" style="fill:none;stroke:#ffffff;stroke-linecap:round;stroke-width:0.5;"/>
     </g>
     <g id="text_7">
      <!-- 0.6 -->
      <g style="fill:#262626;" transform="translate(3.724412 397.68346)scale(0.055 -0.055)">
       <defs>
        <path d="M 10.6875 12.40625 
L 21 12.40625 
L 21 0 
L 10.6875 0 
z
" id="DejaVuSans-46"/>
        <path d="M 33.015625 40.375 
Q 26.375 40.375 22.484375 35.828125 
Q 18.609375 31.296875 18.609375 23.390625 
Q 18.609375 15.53125 22.484375 10.953125 
Q 26.375 6.390625 33.015625 6.390625 
Q 39.65625 6.390625 43.53125 10.953125 
Q 47.40625 15.53125 47.40625 23.390625 
Q 47.40625 31.296875 43.53125 35.828125 
Q 39.65625 40.375 33.015625 40.375 
z
M 52.59375 71.296875 
L 52.59375 62.3125 
Q 48.875 64.0625 45.09375 64.984375 
Q 41.3125 65.921875 37.59375 65.921875 
Q 27.828125 65.921875 22.671875 59.328125 
Q 17.53125 52.734375 16.796875 39.40625 
Q 19.671875 43.65625 24.015625 45.921875 
Q 28.375 48.1875 33.59375 48.1875 
Q 44.578125 48.1875 50.953125 41.515625 
Q 57.328125 34.859375 57.328125 23.390625 
Q 57.328125 12.15625 50.6875 5.359375 
Q 44.046875 -1.421875 33.015625 -1.421875 
Q 20.359375 -1.421875 13.671875 8.265625 
Q 6.984375 17.96875 6.984375 36.375 
Q 6.984375 53.65625 15.1875 63.9375 
Q 23.390625 74.21875 37.203125 74.21875 
Q 40.921875 74.21875 44.703125 73.484375 
Q 48.484375 72.75 52.59375 71.296875 
z
" id="DejaVuSans-54"/>
       </defs>
       <use xlink:href="#DejaVuSans-48"/>
       <use x="63.623047" xlink:href="#DejaVuSans-46"/>
       <use x="95.410156" xlink:href="#DejaVuSans-54"/>
      </g>
     </g>
    </g>
    <g id="ytick_2">
     <g id="line2d_8">
      <path clip-path="url(#p003fc4cc56)" d="M 21.971131 349.02116 
L 375.879984 349.02116 
" style="fill:none;stroke:#ffffff;stroke-linecap:round;stroke-width:0.5;"/>
     </g>
     <g id="text_8">
      <!-- 0.8 -->
      <g style="fill:#262626;" transform="translate(3.724412 351.11073)scale(0.055 -0.055)">
       <defs>
        <path d="M 31.78125 34.625 
Q 24.75 34.625 20.71875 30.859375 
Q 16.703125 27.09375 16.703125 20.515625 
Q 16.703125 13.921875 20.71875 10.15625 
Q 24.75 6.390625 31.78125 6.390625 
Q 38.8125 6.390625 42.859375 10.171875 
Q 46.921875 13.96875 46.921875 20.515625 
Q 46.921875 27.09375 42.890625 30.859375 
Q 38.875 34.625 31.78125 34.625 
z
M 21.921875 38.8125 
Q 15.578125 40.375 12.03125 44.71875 
Q 8.5 49.078125 8.5 55.328125 
Q 8.5 64.0625 14.71875 69.140625 
Q 20.953125 74.21875 31.78125 74.21875 
Q 42.671875 74.21875 48.875 69.140625 
Q 55.078125 64.0625 55.078125 55.328125 
Q 55.078125 49.078125 51.53125 44.71875 
Q 48 40.375 41.703125 38.8125 
Q 48.828125 37.15625 52.796875 32.3125 
Q 56.78125 27.484375 56.78125 20.515625 
Q 56.78125 9.90625 50.3125 4.234375 
Q 43.84375 -1.421875 31.78125 -1.421875 
Q 19.734375 -1.421875 13.25 4.234375 
Q 6.78125 9.90625 6.78125 20.515625 
Q 6.78125 27.484375 10.78125 32.3125 
Q 14.796875 37.15625 21.921875 38.8125 
z
M 18.3125 54.390625 
Q 18.3125 48.734375 21.84375 45.5625 
Q 25.390625 42.390625 31.78125 42.390625 
Q 38.140625 42.390625 41.71875 45.5625 
Q 45.3125 48.734375 45.3125 54.390625 
Q 45.3125 60.0625 41.71875 63.234375 
Q 38.140625 66.40625 31.78125 66.40625 
Q 25.390625 66.40625 21.84375 63.234375 
Q 18.3125 60.0625 18.3125 54.390625 
z
" id="DejaVuSans-56"/>
       </defs>
       <use xlink:href="#DejaVuSans-48"/>
       <use x="63.623047" xlink:href="#DejaVuSans-46"/>
       <use x="95.410156" xlink:href="#DejaVuSans-56"/>
      </g>
     </g>
    </g>
    <g id="ytick_3">
     <g id="line2d_9">
      <path clip-path="url(#p003fc4cc56)" d="M 21.971131 302.448431 
L 375.879984 302.448431 
" style="fill:none;stroke:#ffffff;stroke-linecap:round;stroke-width:0.5;"/>
     </g>
     <g id="text_9">
      <!-- 1.0 -->
      <g style="fill:#262626;" transform="translate(3.724412 304.538001)scale(0.055 -0.055)">
       <use xlink:href="#DejaVuSans-49"/>
       <use x="63.623047" xlink:href="#DejaVuSans-46"/>
       <use x="95.410156" xlink:href="#DejaVuSans-48"/>
      </g>
     </g>
    </g>
    <g id="ytick_4">
     <g id="line2d_10">
      <path clip-path="url(#p003fc4cc56)" d="M 21.971131 255.875701 
L 375.879984 255.875701 
" style="fill:none;stroke:#ffffff;stroke-linecap:round;stroke-width:0.5;"/>
     </g>
     <g id="text_10">
      <!-- 1.2 -->
      <g style="fill:#262626;" transform="translate(3.724412 257.965271)scale(0.055 -0.055)">
       <use xlink:href="#DejaVuSans-49"/>
       <use x="63.623047" xlink:href="#DejaVuSans-46"/>
       <use x="95.410156" xlink:href="#DejaVuSans-50"/>
      </g>
     </g>
    </g>
    <g id="ytick_5">
     <g id="line2d_11">
      <path clip-path="url(#p003fc4cc56)" d="M 21.971131 209.302972 
L 375.879984 209.302972 
" style="fill:none;stroke:#ffffff;stroke-linecap:round;stroke-width:0.5;"/>
     </g>
     <g id="text_11">
      <!-- 1.4 -->
      <g style="fill:#262626;" transform="translate(3.724412 211.392542)scale(0.055 -0.055)">
       <use xlink:href="#DejaVuSans-49"/>
       <use x="63.623047" xlink:href="#DejaVuSans-46"/>
       <use x="95.410156" xlink:href="#DejaVuSans-52"/>
      </g>
     </g>
    </g>
    <g id="ytick_6">
     <g id="line2d_12">
      <path clip-path="url(#p003fc4cc56)" d="M 21.971131 162.730242 
L 375.879984 162.730242 
" style="fill:none;stroke:#ffffff;stroke-linecap:round;stroke-width:0.5;"/>
     </g>
     <g id="text_12">
      <!-- 1.6 -->
      <g style="fill:#262626;" transform="translate(3.724412 164.819813)scale(0.055 -0.055)">
       <use xlink:href="#DejaVuSans-49"/>
       <use x="63.623047" xlink:href="#DejaVuSans-46"/>
       <use x="95.410156" xlink:href="#DejaVuSans-54"/>
      </g>
     </g>
    </g>
    <g id="ytick_7">
     <g id="line2d_13">
      <path clip-path="url(#p003fc4cc56)" d="M 21.971131 116.157513 
L 375.879984 116.157513 
" style="fill:none;stroke:#ffffff;stroke-linecap:round;stroke-width:0.5;"/>
     </g>
     <g id="text_13">
      <!-- 1.8 -->
      <g style="fill:#262626;" transform="translate(3.724412 118.247083)scale(0.055 -0.055)">
       <use xlink:href="#DejaVuSans-49"/>
       <use x="63.623047" xlink:href="#DejaVuSans-46"/>
       <use x="95.410156" xlink:href="#DejaVuSans-56"/>
      </g>
     </g>
    </g>
    <g id="ytick_8">
     <g id="line2d_14">
      <path clip-path="url(#p003fc4cc56)" d="M 21.971131 69.584783 
L 375.879984 69.584783 
" style="fill:none;stroke:#ffffff;stroke-linecap:round;stroke-width:0.5;"/>
     </g>
     <g id="text_14">
      <!-- 2.0 -->
      <g style="fill:#262626;" transform="translate(3.724412 71.674354)scale(0.055 -0.055)">
       <use xlink:href="#DejaVuSans-50"/>
       <use x="63.623047" xlink:href="#DejaVuSans-46"/>
       <use x="95.410156" xlink:href="#DejaVuSans-48"/>
      </g>
     </g>
    </g>
    <g id="ytick_9">
     <g id="line2d_15">
      <path clip-path="url(#p003fc4cc56)" d="M 21.971131 23.012054 
L 375.879984 23.012054 
" style="fill:none;stroke:#ffffff;stroke-linecap:round;stroke-width:0.5;"/>
     </g>
     <g id="text_15">
      <!-- 2.2 -->
      <g style="fill:#262626;" transform="translate(3.724412 25.101624)scale(0.055 -0.055)">
       <use xlink:href="#DejaVuSans-50"/>
       <use x="63.623047" xlink:href="#DejaVuSans-46"/>
       <use x="95.410156" xlink:href="#DejaVuSans-50"/>
      </g>
     </g>
    </g>
   </g>
   <g id="PathCollection_1">
    <defs>
     <path d="M -0 1.5 
L 1.5 -1.5 
L -1.5 -1.5 
z
" id="m883057b88e" style="stroke:#4c72b0;"/>
    </defs>
    <g clip-path="url(#p003fc4cc56)">
     <use style="fill:#4c72b0;stroke:#4c72b0;" x="353.484682" xlink:href="#m883057b88e" y="385.967524"/>
    </g>
   </g>
   <g id="PathCollection_2">
    <g clip-path="url(#p003fc4cc56)">
     <use style="fill:#4c72b0;stroke:#4c72b0;" x="359.793218" xlink:href="#m883057b88e" y="391.596237"/>
    </g>
   </g>
   <g id="line2d_16">
    <path clip-path="url(#p003fc4cc56)" d="M 38.057897 24.808583 
L 44.366433 90.79427 
L 50.674968 129.059783 
L 56.983504 152.411333 
L 63.29204 172.256495 
L 69.600575 194.458552 
L 75.909111 211.969417 
L 82.217647 227.708559 
L 88.526183 241.063965 
L 94.834718 251.036208 
L 101.143254 261.180394 
L 107.45179 267.768586 
L 113.760325 275.645014 
L 120.068861 280.258616 
L 126.377397 287.192942 
L 132.685933 290.647835 
L 138.994468 296.626345 
L 145.303004 300.230585 
L 151.61154 304.670732 
L 157.920075 307.473249 
L 164.228611 311.93863 
L 170.537147 315.086905 
L 176.845683 318.476938 
L 183.154218 321.29457 
L 189.462754 324.606849 
L 195.77129 327.331445 
L 202.079825 331.7298 
L 208.388361 333.588785 
L 214.696897 336.388498 
L 221.005433 339.835938 
L 227.313968 343.231051 
L 233.622504 346.131725 
L 239.93104 349.726665 
L 246.239575 353.674179 
L 252.548111 354.494167 
L 258.856647 358.343856 
L 265.165183 361.189913 
L 271.473718 364.800037 
L 277.782254 367.099483 
L 284.09079 369.932479 
L 290.399325 372.425145 
L 296.707861 374.531661 
L 303.016397 376.952776 
L 309.324932 378.911307 
L 315.633468 379.652083 
L 321.942004 381.549265 
L 328.25054 383.155583 
L 334.559075 383.509031 
L 340.867611 385.719077 
L 347.176147 384.659357 
L 353.484682 385.967524 
L 359.793218 385.507022 
" style="fill:none;stroke:#4c72b0;stroke-linecap:round;stroke-width:0.75;"/>
   </g>
   <g id="line2d_17">
    <path clip-path="url(#p003fc4cc56)" d="M 38.057897 87.100923 
L 44.366433 143.493812 
L 50.674968 186.621625 
L 56.983504 184.380128 
L 63.29204 218.521716 
L 69.600575 255.500715 
L 75.909111 259.384603 
L 82.217647 280.622544 
L 88.526183 279.460864 
L 94.834718 309.719562 
L 101.143254 309.548619 
L 107.45179 322.7476 
L 113.760325 320.496304 
L 120.068861 329.191054 
L 126.377397 342.872231 
L 132.685933 339.066805 
L 138.994468 330.335412 
L 145.303004 336.923604 
L 151.61154 330.342463 
L 157.920075 351.177613 
L 164.228611 343.828297 
L 170.537147 351.241169 
L 176.845683 354.315673 
L 183.154218 360.203868 
L 189.462754 362.872098 
L 195.77129 360.125794 
L 202.079825 368.222036 
L 208.388361 363.831536 
L 214.696897 370.528948 
L 221.005433 371.306617 
L 227.313968 372.147064 
L 233.622504 376.679276 
L 239.93104 378.436675 
L 246.239575 376.27475 
L 252.548111 378.461686 
L 258.856647 378.447945 
L 265.165183 380.31945 
L 271.473718 383.738033 
L 277.782254 383.854248 
L 284.09079 385.616672 
L 290.399325 387.000178 
L 296.707861 388.403505 
L 303.016397 388.782075 
L 309.324932 388.944232 
L 315.633468 389.959661 
L 321.942004 390.154283 
L 328.25054 390.807825 
L 334.559075 391.228437 
L 340.867611 391.24383 
L 347.176147 391.314867 
L 353.484682 391.443809 
L 359.793218 391.596237 
" style="fill:none;stroke:#4c72b0;stroke-dasharray:2.775,1.2;stroke-dashoffset:0;stroke-width:0.75;"/>
   </g>
   <g id="patch_3">
    <path d="M 21.971131 409.93562 
L 21.971131 6.4692 
" style="fill:none;stroke:#ffffff;stroke-linecap:square;stroke-linejoin:miter;stroke-width:0.625;"/>
   </g>
   <g id="patch_4">
    <path d="M 375.879984 409.93562 
L 375.879984 6.4692 
" style="fill:none;stroke:#ffffff;stroke-linecap:square;stroke-linejoin:miter;stroke-width:0.625;"/>
   </g>
   <g id="patch_5">
    <path d="M 21.971131 409.93562 
L 375.879984 409.93562 
" style="fill:none;stroke:#ffffff;stroke-linecap:square;stroke-linejoin:miter;stroke-width:0.625;"/>
   </g>
   <g id="patch_6">
    <path d="M 21.971131 6.4692 
L 375.879984 6.4692 
" style="fill:none;stroke:#ffffff;stroke-linecap:square;stroke-linejoin:miter;stroke-width:0.625;"/>
   </g>
   <g id="text_16">
    <!-- 0.6413 -->
    <g style="fill:#262626;" transform="translate(321.99312 384.095806)scale(0.09 -0.09)">
     <use xlink:href="#DejaVuSans-48"/>
     <use x="63.623047" xlink:href="#DejaVuSans-46"/>
     <use x="95.410156" xlink:href="#DejaVuSans-54"/>
     <use x="159.033203" xlink:href="#DejaVuSans-52"/>
     <use x="222.65625" xlink:href="#DejaVuSans-49"/>
     <use x="286.279297" xlink:href="#DejaVuSans-51"/>
    </g>
   </g>
   <g id="text_17">
    <!-- 0.6172 -->
    <g style="fill:#262626;" transform="translate(328.301656 389.724518)scale(0.09 -0.09)">
     <defs>
      <path d="M 8.203125 72.90625 
L 55.078125 72.90625 
L 55.078125 68.703125 
L 28.609375 0 
L 18.3125 0 
L 43.21875 64.59375 
L 8.203125 64.59375 
z
" id="DejaVuSans-55"/>
     </defs>
     <use xlink:href="#DejaVuSans-48"/>
     <use x="63.623047" xlink:href="#DejaVuSans-46"/>
     <use x="95.410156" xlink:href="#DejaVuSans-54"/>
     <use x="159.033203" xlink:href="#DejaVuSans-49"/>
     <use x="222.65625" xlink:href="#DejaVuSans-55"/>
     <use x="286.279297" xlink:href="#DejaVuSans-50"/>
    </g>
   </g>
   <g id="legend_1">
    <g id="line2d_18">
     <path d="M 172.112719 13.673341 
L 183.112719 13.673341 
" style="fill:none;stroke:#4c72b0;stroke-linecap:round;stroke-width:0.75;"/>
    </g>
    <g id="line2d_19"/>
    <g id="text_18">
     <!-- stem_act_first_false, dw_key, batch_size_128, randaug_10 loss -->
     <g style="fill:#262626;" transform="translate(187.512719 15.598341)scale(0.055 -0.055)">
      <defs>
       <path d="M 44.28125 53.078125 
L 44.28125 44.578125 
Q 40.484375 46.53125 36.375 47.5 
Q 32.28125 48.484375 27.875 48.484375 
Q 21.1875 48.484375 17.84375 46.4375 
Q 14.5 44.390625 14.5 40.28125 
Q 14.5 37.15625 16.890625 35.375 
Q 19.28125 33.59375 26.515625 31.984375 
L 29.59375 31.296875 
Q 39.15625 29.25 43.1875 25.515625 
Q 47.21875 21.78125 47.21875 15.09375 
Q 47.21875 7.46875 41.1875 3.015625 
Q 35.15625 -1.421875 24.609375 -1.421875 
Q 20.21875 -1.421875 15.453125 -0.5625 
Q 10.6875 0.296875 5.421875 2 
L 5.421875 11.28125 
Q 10.40625 8.6875 15.234375 7.390625 
Q 20.0625 6.109375 24.8125 6.109375 
Q 31.15625 6.109375 34.5625 8.28125 
Q 37.984375 10.453125 37.984375 14.40625 
Q 37.984375 18.0625 35.515625 20.015625 
Q 33.0625 21.96875 24.703125 23.78125 
L 21.578125 24.515625 
Q 13.234375 26.265625 9.515625 29.90625 
Q 5.8125 33.546875 5.8125 39.890625 
Q 5.8125 47.609375 11.28125 51.796875 
Q 16.75 56 26.8125 56 
Q 31.78125 56 36.171875 55.265625 
Q 40.578125 54.546875 44.28125 53.078125 
z
" id="DejaVuSans-115"/>
       <path d="M 18.3125 70.21875 
L 18.3125 54.6875 
L 36.8125 54.6875 
L 36.8125 47.703125 
L 18.3125 47.703125 
L 18.3125 18.015625 
Q 18.3125 11.328125 20.140625 9.421875 
Q 21.96875 7.515625 27.59375 7.515625 
L 36.8125 7.515625 
L 36.8125 0 
L 27.59375 0 
Q 17.1875 0 13.234375 3.875 
Q 9.28125 7.765625 9.28125 18.015625 
L 9.28125 47.703125 
L 2.6875 47.703125 
L 2.6875 54.6875 
L 9.28125 54.6875 
L 9.28125 70.21875 
z
" id="DejaVuSans-116"/>
       <path d="M 56.203125 29.59375 
L 56.203125 25.203125 
L 14.890625 25.203125 
Q 15.484375 15.921875 20.484375 11.0625 
Q 25.484375 6.203125 34.421875 6.203125 
Q 39.59375 6.203125 44.453125 7.46875 
Q 49.3125 8.734375 54.109375 11.28125 
L 54.109375 2.78125 
Q 49.265625 0.734375 44.1875 -0.34375 
Q 39.109375 -1.421875 33.890625 -1.421875 
Q 20.796875 -1.421875 13.15625 6.1875 
Q 5.515625 13.8125 5.515625 26.8125 
Q 5.515625 40.234375 12.765625 48.109375 
Q 20.015625 56 32.328125 56 
Q 43.359375 56 49.78125 48.890625 
Q 56.203125 41.796875 56.203125 29.59375 
z
M 47.21875 32.234375 
Q 47.125 39.59375 43.09375 43.984375 
Q 39.0625 48.390625 32.421875 48.390625 
Q 24.90625 48.390625 20.390625 44.140625 
Q 15.875 39.890625 15.1875 32.171875 
z
" id="DejaVuSans-101"/>
       <path d="M 52 44.1875 
Q 55.375 50.25 60.0625 53.125 
Q 64.75 56 71.09375 56 
Q 79.640625 56 84.28125 50.015625 
Q 88.921875 44.046875 88.921875 33.015625 
L 88.921875 0 
L 79.890625 0 
L 79.890625 32.71875 
Q 79.890625 40.578125 77.09375 44.375 
Q 74.3125 48.1875 68.609375 48.1875 
Q 61.625 48.1875 57.5625 43.546875 
Q 53.515625 38.921875 53.515625 30.90625 
L 53.515625 0 
L 44.484375 0 
L 44.484375 32.71875 
Q 44.484375 40.625 41.703125 44.40625 
Q 38.921875 48.1875 33.109375 48.1875 
Q 26.21875 48.1875 22.15625 43.53125 
Q 18.109375 38.875 18.109375 30.90625 
L 18.109375 0 
L 9.078125 0 
L 9.078125 54.6875 
L 18.109375 54.6875 
L 18.109375 46.1875 
Q 21.1875 51.21875 25.484375 53.609375 
Q 29.78125 56 35.6875 56 
Q 41.65625 56 45.828125 52.96875 
Q 50 49.953125 52 44.1875 
z
" id="DejaVuSans-109"/>
       <path d="M 50.984375 -16.609375 
L 50.984375 -23.578125 
L -0.984375 -23.578125 
L -0.984375 -16.609375 
z
" id="DejaVuSans-95"/>
       <path d="M 34.28125 27.484375 
Q 23.390625 27.484375 19.1875 25 
Q 14.984375 22.515625 14.984375 16.5 
Q 14.984375 11.71875 18.140625 8.90625 
Q 21.296875 6.109375 26.703125 6.109375 
Q 34.1875 6.109375 38.703125 11.40625 
Q 43.21875 16.703125 43.21875 25.484375 
L 43.21875 27.484375 
z
M 52.203125 31.203125 
L 52.203125 0 
L 43.21875 0 
L 43.21875 8.296875 
Q 40.140625 3.328125 35.546875 0.953125 
Q 30.953125 -1.421875 24.3125 -1.421875 
Q 15.921875 -1.421875 10.953125 3.296875 
Q 6 8.015625 6 15.921875 
Q 6 25.140625 12.171875 29.828125 
Q 18.359375 34.515625 30.609375 34.515625 
L 43.21875 34.515625 
L 43.21875 35.40625 
Q 43.21875 41.609375 39.140625 45 
Q 35.0625 48.390625 27.6875 48.390625 
Q 23 48.390625 18.546875 47.265625 
Q 14.109375 46.140625 10.015625 43.890625 
L 10.015625 52.203125 
Q 14.9375 54.109375 19.578125 55.046875 
Q 24.21875 56 28.609375 56 
Q 40.484375 56 46.34375 49.84375 
Q 52.203125 43.703125 52.203125 31.203125 
z
" id="DejaVuSans-97"/>
       <path d="M 48.78125 52.59375 
L 48.78125 44.1875 
Q 44.96875 46.296875 41.140625 47.34375 
Q 37.3125 48.390625 33.40625 48.390625 
Q 24.65625 48.390625 19.8125 42.84375 
Q 14.984375 37.3125 14.984375 27.296875 
Q 14.984375 17.28125 19.8125 11.734375 
Q 24.65625 6.203125 33.40625 6.203125 
Q 37.3125 6.203125 41.140625 7.25 
Q 44.96875 8.296875 48.78125 10.40625 
L 48.78125 2.09375 
Q 45.015625 0.34375 40.984375 -0.53125 
Q 36.96875 -1.421875 32.421875 -1.421875 
Q 20.0625 -1.421875 12.78125 6.34375 
Q 5.515625 14.109375 5.515625 27.296875 
Q 5.515625 40.671875 12.859375 48.328125 
Q 20.21875 56 33.015625 56 
Q 37.15625 56 41.109375 55.140625 
Q 45.0625 54.296875 48.78125 52.59375 
z
" id="DejaVuSans-99"/>
       <path d="M 37.109375 75.984375 
L 37.109375 68.5 
L 28.515625 68.5 
Q 23.6875 68.5 21.796875 66.546875 
Q 19.921875 64.59375 19.921875 59.515625 
L 19.921875 54.6875 
L 34.71875 54.6875 
L 34.71875 47.703125 
L 19.921875 47.703125 
L 19.921875 0 
L 10.890625 0 
L 10.890625 47.703125 
L 2.296875 47.703125 
L 2.296875 54.6875 
L 10.890625 54.6875 
L 10.890625 58.5 
Q 10.890625 67.625 15.140625 71.796875 
Q 19.390625 75.984375 28.609375 75.984375 
z
" id="DejaVuSans-102"/>
       <path d="M 9.421875 54.6875 
L 18.40625 54.6875 
L 18.40625 0 
L 9.421875 0 
z
M 9.421875 75.984375 
L 18.40625 75.984375 
L 18.40625 64.59375 
L 9.421875 64.59375 
z
" id="DejaVuSans-105"/>
       <path d="M 41.109375 46.296875 
Q 39.59375 47.171875 37.8125 47.578125 
Q 36.03125 48 33.890625 48 
Q 26.265625 48 22.1875 43.046875 
Q 18.109375 38.09375 18.109375 28.8125 
L 18.109375 0 
L 9.078125 0 
L 9.078125 54.6875 
L 18.109375 54.6875 
L 18.109375 46.1875 
Q 20.953125 51.171875 25.484375 53.578125 
Q 30.03125 56 36.53125 56 
Q 37.453125 56 38.578125 55.875 
Q 39.703125 55.765625 41.0625 55.515625 
z
" id="DejaVuSans-114"/>
       <path d="M 9.421875 75.984375 
L 18.40625 75.984375 
L 18.40625 0 
L 9.421875 0 
z
" id="DejaVuSans-108"/>
       <path d="M 11.71875 12.40625 
L 22.015625 12.40625 
L 22.015625 4 
L 14.015625 -11.625 
L 7.71875 -11.625 
L 11.71875 4 
z
" id="DejaVuSans-44"/>
       <path id="DejaVuSans-32"/>
       <path d="M 45.40625 46.390625 
L 45.40625 75.984375 
L 54.390625 75.984375 
L 54.390625 0 
L 45.40625 0 
L 45.40625 8.203125 
Q 42.578125 3.328125 38.25 0.953125 
Q 33.9375 -1.421875 27.875 -1.421875 
Q 17.96875 -1.421875 11.734375 6.484375 
Q 5.515625 14.40625 5.515625 27.296875 
Q 5.515625 40.1875 11.734375 48.09375 
Q 17.96875 56 27.875 56 
Q 33.9375 56 38.25 53.625 
Q 42.578125 51.265625 45.40625 46.390625 
z
M 14.796875 27.296875 
Q 14.796875 17.390625 18.875 11.75 
Q 22.953125 6.109375 30.078125 6.109375 
Q 37.203125 6.109375 41.296875 11.75 
Q 45.40625 17.390625 45.40625 27.296875 
Q 45.40625 37.203125 41.296875 42.84375 
Q 37.203125 48.484375 30.078125 48.484375 
Q 22.953125 48.484375 18.875 42.84375 
Q 14.796875 37.203125 14.796875 27.296875 
z
" id="DejaVuSans-100"/>
       <path d="M 4.203125 54.6875 
L 13.1875 54.6875 
L 24.421875 12.015625 
L 35.59375 54.6875 
L 46.1875 54.6875 
L 57.421875 12.015625 
L 68.609375 54.6875 
L 77.59375 54.6875 
L 63.28125 0 
L 52.6875 0 
L 40.921875 44.828125 
L 29.109375 0 
L 18.5 0 
z
" id="DejaVuSans-119"/>
       <path d="M 9.078125 75.984375 
L 18.109375 75.984375 
L 18.109375 31.109375 
L 44.921875 54.6875 
L 56.390625 54.6875 
L 27.390625 29.109375 
L 57.625 0 
L 45.90625 0 
L 18.109375 26.703125 
L 18.109375 0 
L 9.078125 0 
z
" id="DejaVuSans-107"/>
       <path d="M 32.171875 -5.078125 
Q 28.375 -14.84375 24.75 -17.8125 
Q 21.140625 -20.796875 15.09375 -20.796875 
L 7.90625 -20.796875 
L 7.90625 -13.28125 
L 13.1875 -13.28125 
Q 16.890625 -13.28125 18.9375 -11.515625 
Q 21 -9.765625 23.484375 -3.21875 
L 25.09375 0.875 
L 2.984375 54.6875 
L 12.5 54.6875 
L 29.59375 11.921875 
L 46.6875 54.6875 
L 56.203125 54.6875 
z
" id="DejaVuSans-121"/>
       <path d="M 48.6875 27.296875 
Q 48.6875 37.203125 44.609375 42.84375 
Q 40.53125 48.484375 33.40625 48.484375 
Q 26.265625 48.484375 22.1875 42.84375 
Q 18.109375 37.203125 18.109375 27.296875 
Q 18.109375 17.390625 22.1875 11.75 
Q 26.265625 6.109375 33.40625 6.109375 
Q 40.53125 6.109375 44.609375 11.75 
Q 48.6875 17.390625 48.6875 27.296875 
z
M 18.109375 46.390625 
Q 20.953125 51.265625 25.265625 53.625 
Q 29.59375 56 35.59375 56 
Q 45.5625 56 51.78125 48.09375 
Q 58.015625 40.1875 58.015625 27.296875 
Q 58.015625 14.40625 51.78125 6.484375 
Q 45.5625 -1.421875 35.59375 -1.421875 
Q 29.59375 -1.421875 25.265625 0.953125 
Q 20.953125 3.328125 18.109375 8.203125 
L 18.109375 0 
L 9.078125 0 
L 9.078125 75.984375 
L 18.109375 75.984375 
z
" id="DejaVuSans-98"/>
       <path d="M 54.890625 33.015625 
L 54.890625 0 
L 45.90625 0 
L 45.90625 32.71875 
Q 45.90625 40.484375 42.875 44.328125 
Q 39.84375 48.1875 33.796875 48.1875 
Q 26.515625 48.1875 22.3125 43.546875 
Q 18.109375 38.921875 18.109375 30.90625 
L 18.109375 0 
L 9.078125 0 
L 9.078125 75.984375 
L 18.109375 75.984375 
L 18.109375 46.1875 
Q 21.34375 51.125 25.703125 53.5625 
Q 30.078125 56 35.796875 56 
Q 45.21875 56 50.046875 50.171875 
Q 54.890625 44.34375 54.890625 33.015625 
z
" id="DejaVuSans-104"/>
       <path d="M 5.515625 54.6875 
L 48.1875 54.6875 
L 48.1875 46.484375 
L 14.40625 7.171875 
L 48.1875 7.171875 
L 48.1875 0 
L 4.296875 0 
L 4.296875 8.203125 
L 38.09375 47.515625 
L 5.515625 47.515625 
z
" id="DejaVuSans-122"/>
       <path d="M 54.890625 33.015625 
L 54.890625 0 
L 45.90625 0 
L 45.90625 32.71875 
Q 45.90625 40.484375 42.875 44.328125 
Q 39.84375 48.1875 33.796875 48.1875 
Q 26.515625 48.1875 22.3125 43.546875 
Q 18.109375 38.921875 18.109375 30.90625 
L 18.109375 0 
L 9.078125 0 
L 9.078125 54.6875 
L 18.109375 54.6875 
L 18.109375 46.1875 
Q 21.34375 51.125 25.703125 53.5625 
Q 30.078125 56 35.796875 56 
Q 45.21875 56 50.046875 50.171875 
Q 54.890625 44.34375 54.890625 33.015625 
z
" id="DejaVuSans-110"/>
       <path d="M 8.5 21.578125 
L 8.5 54.6875 
L 17.484375 54.6875 
L 17.484375 21.921875 
Q 17.484375 14.15625 20.5 10.265625 
Q 23.53125 6.390625 29.59375 6.390625 
Q 36.859375 6.390625 41.078125 11.03125 
Q 45.3125 15.671875 45.3125 23.6875 
L 45.3125 54.6875 
L 54.296875 54.6875 
L 54.296875 0 
L 45.3125 0 
L 45.3125 8.40625 
Q 42.046875 3.421875 37.71875 1 
Q 33.40625 -1.421875 27.6875 -1.421875 
Q 18.265625 -1.421875 13.375 4.4375 
Q 8.5 10.296875 8.5 21.578125 
z
M 31.109375 56 
z
" id="DejaVuSans-117"/>
       <path d="M 45.40625 27.984375 
Q 45.40625 37.75 41.375 43.109375 
Q 37.359375 48.484375 30.078125 48.484375 
Q 22.859375 48.484375 18.828125 43.109375 
Q 14.796875 37.75 14.796875 27.984375 
Q 14.796875 18.265625 18.828125 12.890625 
Q 22.859375 7.515625 30.078125 7.515625 
Q 37.359375 7.515625 41.375 12.890625 
Q 45.40625 18.265625 45.40625 27.984375 
z
M 54.390625 6.78125 
Q 54.390625 -7.171875 48.1875 -13.984375 
Q 42 -20.796875 29.203125 -20.796875 
Q 24.46875 -20.796875 20.265625 -20.09375 
Q 16.0625 -19.390625 12.109375 -17.921875 
L 12.109375 -9.1875 
Q 16.0625 -11.328125 19.921875 -12.34375 
Q 23.78125 -13.375 27.78125 -13.375 
Q 36.625 -13.375 41.015625 -8.765625 
Q 45.40625 -4.15625 45.40625 5.171875 
L 45.40625 9.625 
Q 42.625 4.78125 38.28125 2.390625 
Q 33.9375 0 27.875 0 
Q 17.828125 0 11.671875 7.65625 
Q 5.515625 15.328125 5.515625 27.984375 
Q 5.515625 40.671875 11.671875 48.328125 
Q 17.828125 56 27.875 56 
Q 33.9375 56 38.28125 53.609375 
Q 42.625 51.21875 45.40625 46.390625 
L 45.40625 54.6875 
L 54.390625 54.6875 
z
" id="DejaVuSans-103"/>
       <path d="M 30.609375 48.390625 
Q 23.390625 48.390625 19.1875 42.75 
Q 14.984375 37.109375 14.984375 27.296875 
Q 14.984375 17.484375 19.15625 11.84375 
Q 23.34375 6.203125 30.609375 6.203125 
Q 37.796875 6.203125 41.984375 11.859375 
Q 46.1875 17.53125 46.1875 27.296875 
Q 46.1875 37.015625 41.984375 42.703125 
Q 37.796875 48.390625 30.609375 48.390625 
z
M 30.609375 56 
Q 42.328125 56 49.015625 48.375 
Q 55.71875 40.765625 55.71875 27.296875 
Q 55.71875 13.875 49.015625 6.21875 
Q 42.328125 -1.421875 30.609375 -1.421875 
Q 18.84375 -1.421875 12.171875 6.21875 
Q 5.515625 13.875 5.515625 27.296875 
Q 5.515625 40.765625 12.171875 48.375 
Q 18.84375 56 30.609375 56 
z
" id="DejaVuSans-111"/>
      </defs>
      <use xlink:href="#DejaVuSans-115"/>
      <use x="52.099609" xlink:href="#DejaVuSans-116"/>
      <use x="91.308594" xlink:href="#DejaVuSans-101"/>
      <use x="152.832031" xlink:href="#DejaVuSans-109"/>
      <use x="250.244141" xlink:href="#DejaVuSans-95"/>
      <use x="300.244141" xlink:href="#DejaVuSans-97"/>
      <use x="361.523438" xlink:href="#DejaVuSans-99"/>
      <use x="416.503906" xlink:href="#DejaVuSans-116"/>
      <use x="455.712891" xlink:href="#DejaVuSans-95"/>
      <use x="505.712891" xlink:href="#DejaVuSans-102"/>
      <use x="540.917969" xlink:href="#DejaVuSans-105"/>
      <use x="568.701172" xlink:href="#DejaVuSans-114"/>
      <use x="609.814453" xlink:href="#DejaVuSans-115"/>
      <use x="661.914062" xlink:href="#DejaVuSans-116"/>
      <use x="701.123047" xlink:href="#DejaVuSans-95"/>
      <use x="751.123047" xlink:href="#DejaVuSans-102"/>
      <use x="786.328125" xlink:href="#DejaVuSans-97"/>
      <use x="847.607422" xlink:href="#DejaVuSans-108"/>
      <use x="875.390625" xlink:href="#DejaVuSans-115"/>
      <use x="927.490234" xlink:href="#DejaVuSans-101"/>
      <use x="989.013672" xlink:href="#DejaVuSans-44"/>
      <use x="1020.800781" xlink:href="#DejaVuSans-32"/>
      <use x="1052.587891" xlink:href="#DejaVuSans-100"/>
      <use x="1116.064453" xlink:href="#DejaVuSans-119"/>
      <use x="1197.851562" xlink:href="#DejaVuSans-95"/>
      <use x="1247.851562" xlink:href="#DejaVuSans-107"/>
      <use x="1302.136719" xlink:href="#DejaVuSans-101"/>
      <use x="1363.660156" xlink:href="#DejaVuSans-121"/>
      <use x="1422.839844" xlink:href="#DejaVuSans-44"/>
      <use x="1454.626953" xlink:href="#DejaVuSans-32"/>
      <use x="1486.414062" xlink:href="#DejaVuSans-98"/>
      <use x="1549.890625" xlink:href="#DejaVuSans-97"/>
      <use x="1611.169922" xlink:href="#DejaVuSans-116"/>
      <use x="1650.378906" xlink:href="#DejaVuSans-99"/>
      <use x="1705.359375" xlink:href="#DejaVuSans-104"/>
      <use x="1768.738281" xlink:href="#DejaVuSans-95"/>
      <use x="1818.738281" xlink:href="#DejaVuSans-115"/>
      <use x="1870.837891" xlink:href="#DejaVuSans-105"/>
      <use x="1898.621094" xlink:href="#DejaVuSans-122"/>
      <use x="1951.111328" xlink:href="#DejaVuSans-101"/>
      <use x="2012.634766" xlink:href="#DejaVuSans-95"/>
      <use x="2062.634766" xlink:href="#DejaVuSans-49"/>
      <use x="2126.257812" xlink:href="#DejaVuSans-50"/>
      <use x="2189.880859" xlink:href="#DejaVuSans-56"/>
      <use x="2253.503906" xlink:href="#DejaVuSans-44"/>
      <use x="2285.291016" xlink:href="#DejaVuSans-32"/>
      <use x="2317.078125" xlink:href="#DejaVuSans-114"/>
      <use x="2358.191406" xlink:href="#DejaVuSans-97"/>
      <use x="2419.470703" xlink:href="#DejaVuSans-110"/>
      <use x="2482.849609" xlink:href="#DejaVuSans-100"/>
      <use x="2546.326172" xlink:href="#DejaVuSans-97"/>
      <use x="2607.605469" xlink:href="#DejaVuSans-117"/>
      <use x="2670.984375" xlink:href="#DejaVuSans-103"/>
      <use x="2734.460938" xlink:href="#DejaVuSans-95"/>
      <use x="2784.460938" xlink:href="#DejaVuSans-49"/>
      <use x="2848.083984" xlink:href="#DejaVuSans-48"/>
      <use x="2911.707031" xlink:href="#DejaVuSans-32"/>
      <use x="2943.494141" xlink:href="#DejaVuSans-108"/>
      <use x="2971.277344" xlink:href="#DejaVuSans-111"/>
      <use x="3032.458984" xlink:href="#DejaVuSans-115"/>
      <use x="3084.558594" xlink:href="#DejaVuSans-115"/>
     </g>
    </g>
    <g id="line2d_20">
     <path d="M 172.112719 21.899278 
L 183.112719 21.899278 
" style="fill:none;stroke:#4c72b0;stroke-dasharray:2.775,1.2;stroke-dashoffset:0;stroke-width:0.75;"/>
    </g>
    <g id="line2d_21"/>
    <g id="text_19">
     <!-- stem_act_first_false, dw_key, batch_size_128, randaug_10 val_loss -->
     <g style="fill:#262626;" transform="translate(187.512719 23.824278)scale(0.055 -0.055)">
      <defs>
       <path d="M 2.984375 54.6875 
L 12.5 54.6875 
L 29.59375 8.796875 
L 46.6875 54.6875 
L 56.203125 54.6875 
L 35.6875 0 
L 23.484375 0 
z
" id="DejaVuSans-118"/>
      </defs>
      <use xlink:href="#DejaVuSans-115"/>
      <use x="52.099609" xlink:href="#DejaVuSans-116"/>
      <use x="91.308594" xlink:href="#DejaVuSans-101"/>
      <use x="152.832031" xlink:href="#DejaVuSans-109"/>
      <use x="250.244141" xlink:href="#DejaVuSans-95"/>
      <use x="300.244141" xlink:href="#DejaVuSans-97"/>
      <use x="361.523438" xlink:href="#DejaVuSans-99"/>
      <use x="416.503906" xlink:href="#DejaVuSans-116"/>
      <use x="455.712891" xlink:href="#DejaVuSans-95"/>
      <use x="505.712891" xlink:href="#DejaVuSans-102"/>
      <use x="540.917969" xlink:href="#DejaVuSans-105"/>
      <use x="568.701172" xlink:href="#DejaVuSans-114"/>
      <use x="609.814453" xlink:href="#DejaVuSans-115"/>
      <use x="661.914062" xlink:href="#DejaVuSans-116"/>
      <use x="701.123047" xlink:href="#DejaVuSans-95"/>
      <use x="751.123047" xlink:href="#DejaVuSans-102"/>
      <use x="786.328125" xlink:href="#DejaVuSans-97"/>
      <use x="847.607422" xlink:href="#DejaVuSans-108"/>
      <use x="875.390625" xlink:href="#DejaVuSans-115"/>
      <use x="927.490234" xlink:href="#DejaVuSans-101"/>
      <use x="989.013672" xlink:href="#DejaVuSans-44"/>
      <use x="1020.800781" xlink:href="#DejaVuSans-32"/>
      <use x="1052.587891" xlink:href="#DejaVuSans-100"/>
      <use x="1116.064453" xlink:href="#DejaVuSans-119"/>
      <use x="1197.851562" xlink:href="#DejaVuSans-95"/>
      <use x="1247.851562" xlink:href="#DejaVuSans-107"/>
      <use x="1302.136719" xlink:href="#DejaVuSans-101"/>
      <use x="1363.660156" xlink:href="#DejaVuSans-121"/>
      <use x="1422.839844" xlink:href="#DejaVuSans-44"/>
      <use x="1454.626953" xlink:href="#DejaVuSans-32"/>
      <use x="1486.414062" xlink:href="#DejaVuSans-98"/>
      <use x="1549.890625" xlink:href="#DejaVuSans-97"/>
      <use x="1611.169922" xlink:href="#DejaVuSans-116"/>
      <use x="1650.378906" xlink:href="#DejaVuSans-99"/>
      <use x="1705.359375" xlink:href="#DejaVuSans-104"/>
      <use x="1768.738281" xlink:href="#DejaVuSans-95"/>
      <use x="1818.738281" xlink:href="#DejaVuSans-115"/>
      <use x="1870.837891" xlink:href="#DejaVuSans-105"/>
      <use x="1898.621094" xlink:href="#DejaVuSans-122"/>
      <use x="1951.111328" xlink:href="#DejaVuSans-101"/>
      <use x="2012.634766" xlink:href="#DejaVuSans-95"/>
      <use x="2062.634766" xlink:href="#DejaVuSans-49"/>
      <use x="2126.257812" xlink:href="#DejaVuSans-50"/>
      <use x="2189.880859" xlink:href="#DejaVuSans-56"/>
      <use x="2253.503906" xlink:href="#DejaVuSans-44"/>
      <use x="2285.291016" xlink:href="#DejaVuSans-32"/>
      <use x="2317.078125" xlink:href="#DejaVuSans-114"/>
      <use x="2358.191406" xlink:href="#DejaVuSans-97"/>
      <use x="2419.470703" xlink:href="#DejaVuSans-110"/>
      <use x="2482.849609" xlink:href="#DejaVuSans-100"/>
      <use x="2546.326172" xlink:href="#DejaVuSans-97"/>
      <use x="2607.605469" xlink:href="#DejaVuSans-117"/>
      <use x="2670.984375" xlink:href="#DejaVuSans-103"/>
      <use x="2734.460938" xlink:href="#DejaVuSans-95"/>
      <use x="2784.460938" xlink:href="#DejaVuSans-49"/>
      <use x="2848.083984" xlink:href="#DejaVuSans-48"/>
      <use x="2911.707031" xlink:href="#DejaVuSans-32"/>
      <use x="2943.494141" xlink:href="#DejaVuSans-118"/>
      <use x="3002.673828" xlink:href="#DejaVuSans-97"/>
      <use x="3063.953125" xlink:href="#DejaVuSans-108"/>
      <use x="3091.736328" xlink:href="#DejaVuSans-95"/>
      <use x="3141.736328" xlink:href="#DejaVuSans-108"/>
      <use x="3169.519531" xlink:href="#DejaVuSans-111"/>
      <use x="3230.701172" xlink:href="#DejaVuSans-115"/>
      <use x="3282.800781" xlink:href="#DejaVuSans-115"/>
     </g>
    </g>
   </g>
  </g>
  <g id="axes_2">
   <g id="patch_7">
    <path d="M 407.151139 409.93562 
L 761.059992 409.93562 
L 761.059992 6.4692 
L 407.151139 6.4692 
z
" style="fill:#eaeaf2;"/>
   </g>
   <g id="matplotlib.axis_3">
    <g id="xtick_7">
     <g id="line2d_22">
      <path clip-path="url(#p15d3a38f58)" d="M 423.237905 409.93562 
L 423.237905 6.4692 
" style="fill:none;stroke:#ffffff;stroke-linecap:round;stroke-width:0.5;"/>
     </g>
     <g id="text_20">
      <!-- 0 -->
      <g style="fill:#262626;" transform="translate(421.488217 423.61476)scale(0.055 -0.055)">
       <use xlink:href="#DejaVuSans-48"/>
      </g>
     </g>
    </g>
    <g id="xtick_8">
     <g id="line2d_23">
      <path clip-path="url(#p15d3a38f58)" d="M 486.323262 409.93562 
L 486.323262 6.4692 
" style="fill:none;stroke:#ffffff;stroke-linecap:round;stroke-width:0.5;"/>
     </g>
     <g id="text_21">
      <!-- 10 -->
      <g style="fill:#262626;" transform="translate(482.823887 423.61476)scale(0.055 -0.055)">
       <use xlink:href="#DejaVuSans-49"/>
       <use x="63.623047" xlink:href="#DejaVuSans-48"/>
      </g>
     </g>
    </g>
    <g id="xtick_9">
     <g id="line2d_24">
      <path clip-path="url(#p15d3a38f58)" d="M 549.408619 409.93562 
L 549.408619 6.4692 
" style="fill:none;stroke:#ffffff;stroke-linecap:round;stroke-width:0.5;"/>
     </g>
     <g id="text_22">
      <!-- 20 -->
      <g style="fill:#262626;" transform="translate(545.909244 423.61476)scale(0.055 -0.055)">
       <use xlink:href="#DejaVuSans-50"/>
       <use x="63.623047" xlink:href="#DejaVuSans-48"/>
      </g>
     </g>
    </g>
    <g id="xtick_10">
     <g id="line2d_25">
      <path clip-path="url(#p15d3a38f58)" d="M 612.493976 409.93562 
L 612.493976 6.4692 
" style="fill:none;stroke:#ffffff;stroke-linecap:round;stroke-width:0.5;"/>
     </g>
     <g id="text_23">
      <!-- 30 -->
      <g style="fill:#262626;" transform="translate(608.994601 423.61476)scale(0.055 -0.055)">
       <use xlink:href="#DejaVuSans-51"/>
       <use x="63.623047" xlink:href="#DejaVuSans-48"/>
      </g>
     </g>
    </g>
    <g id="xtick_11">
     <g id="line2d_26">
      <path clip-path="url(#p15d3a38f58)" d="M 675.579333 409.93562 
L 675.579333 6.4692 
" style="fill:none;stroke:#ffffff;stroke-linecap:round;stroke-width:0.5;"/>
     </g>
     <g id="text_24">
      <!-- 40 -->
      <g style="fill:#262626;" transform="translate(672.079958 423.61476)scale(0.055 -0.055)">
       <use xlink:href="#DejaVuSans-52"/>
       <use x="63.623047" xlink:href="#DejaVuSans-48"/>
      </g>
     </g>
    </g>
    <g id="xtick_12">
     <g id="line2d_27">
      <path clip-path="url(#p15d3a38f58)" d="M 738.66469 409.93562 
L 738.66469 6.4692 
" style="fill:none;stroke:#ffffff;stroke-linecap:round;stroke-width:0.5;"/>
     </g>
     <g id="text_25">
      <!-- 50 -->
      <g style="fill:#262626;" transform="translate(735.165315 423.61476)scale(0.055 -0.055)">
       <use xlink:href="#DejaVuSans-53"/>
       <use x="63.623047" xlink:href="#DejaVuSans-48"/>
      </g>
     </g>
    </g>
   </g>
   <g id="matplotlib.axis_4">
    <g id="ytick_10">
     <g id="line2d_28">
      <path clip-path="url(#p15d3a38f58)" d="M 407.151139 395.972184 
L 761.059992 395.972184 
" style="fill:none;stroke:#ffffff;stroke-linecap:round;stroke-width:0.5;"/>
     </g>
     <g id="text_26">
      <!-- 0.2 -->
      <g style="fill:#262626;" transform="translate(388.90442 398.061754)scale(0.055 -0.055)">
       <use xlink:href="#DejaVuSans-48"/>
       <use x="63.623047" xlink:href="#DejaVuSans-46"/>
       <use x="95.410156" xlink:href="#DejaVuSans-50"/>
      </g>
     </g>
    </g>
    <g id="ytick_11">
     <g id="line2d_29">
      <path clip-path="url(#p15d3a38f58)" d="M 407.151139 346.470508 
L 761.059992 346.470508 
" style="fill:none;stroke:#ffffff;stroke-linecap:round;stroke-width:0.5;"/>
     </g>
     <g id="text_27">
      <!-- 0.3 -->
      <g style="fill:#262626;" transform="translate(388.90442 348.560078)scale(0.055 -0.055)">
       <use xlink:href="#DejaVuSans-48"/>
       <use x="63.623047" xlink:href="#DejaVuSans-46"/>
       <use x="95.410156" xlink:href="#DejaVuSans-51"/>
      </g>
     </g>
    </g>
    <g id="ytick_12">
     <g id="line2d_30">
      <path clip-path="url(#p15d3a38f58)" d="M 407.151139 296.968832 
L 761.059992 296.968832 
" style="fill:none;stroke:#ffffff;stroke-linecap:round;stroke-width:0.5;"/>
     </g>
     <g id="text_28">
      <!-- 0.4 -->
      <g style="fill:#262626;" transform="translate(388.90442 299.058403)scale(0.055 -0.055)">
       <use xlink:href="#DejaVuSans-48"/>
       <use x="63.623047" xlink:href="#DejaVuSans-46"/>
       <use x="95.410156" xlink:href="#DejaVuSans-52"/>
      </g>
     </g>
    </g>
    <g id="ytick_13">
     <g id="line2d_31">
      <path clip-path="url(#p15d3a38f58)" d="M 407.151139 247.467157 
L 761.059992 247.467157 
" style="fill:none;stroke:#ffffff;stroke-linecap:round;stroke-width:0.5;"/>
     </g>
     <g id="text_29">
      <!-- 0.5 -->
      <g style="fill:#262626;" transform="translate(388.90442 249.556727)scale(0.055 -0.055)">
       <use xlink:href="#DejaVuSans-48"/>
       <use x="63.623047" xlink:href="#DejaVuSans-46"/>
       <use x="95.410156" xlink:href="#DejaVuSans-53"/>
      </g>
     </g>
    </g>
    <g id="ytick_14">
     <g id="line2d_32">
      <path clip-path="url(#p15d3a38f58)" d="M 407.151139 197.965481 
L 761.059992 197.965481 
" style="fill:none;stroke:#ffffff;stroke-linecap:round;stroke-width:0.5;"/>
     </g>
     <g id="text_30">
      <!-- 0.6 -->
      <g style="fill:#262626;" transform="translate(388.90442 200.055051)scale(0.055 -0.055)">
       <use xlink:href="#DejaVuSans-48"/>
       <use x="63.623047" xlink:href="#DejaVuSans-46"/>
       <use x="95.410156" xlink:href="#DejaVuSans-54"/>
      </g>
     </g>
    </g>
    <g id="ytick_15">
     <g id="line2d_33">
      <path clip-path="url(#p15d3a38f58)" d="M 407.151139 148.463805 
L 761.059992 148.463805 
" style="fill:none;stroke:#ffffff;stroke-linecap:round;stroke-width:0.5;"/>
     </g>
     <g id="text_31">
      <!-- 0.7 -->
      <g style="fill:#262626;" transform="translate(388.90442 150.553376)scale(0.055 -0.055)">
       <use xlink:href="#DejaVuSans-48"/>
       <use x="63.623047" xlink:href="#DejaVuSans-46"/>
       <use x="95.410156" xlink:href="#DejaVuSans-55"/>
      </g>
     </g>
    </g>
    <g id="ytick_16">
     <g id="line2d_34">
      <path clip-path="url(#p15d3a38f58)" d="M 407.151139 98.96213 
L 761.059992 98.96213 
" style="fill:none;stroke:#ffffff;stroke-linecap:round;stroke-width:0.5;"/>
     </g>
     <g id="text_32">
      <!-- 0.8 -->
      <g style="fill:#262626;" transform="translate(388.90442 101.0517)scale(0.055 -0.055)">
       <use xlink:href="#DejaVuSans-48"/>
       <use x="63.623047" xlink:href="#DejaVuSans-46"/>
       <use x="95.410156" xlink:href="#DejaVuSans-56"/>
      </g>
     </g>
    </g>
    <g id="ytick_17">
     <g id="line2d_35">
      <path clip-path="url(#p15d3a38f58)" d="M 407.151139 49.460454 
L 761.059992 49.460454 
" style="fill:none;stroke:#ffffff;stroke-linecap:round;stroke-width:0.5;"/>
     </g>
     <g id="text_33">
      <!-- 0.9 -->
      <g style="fill:#262626;" transform="translate(388.90442 51.550024)scale(0.055 -0.055)">
       <defs>
        <path d="M 10.984375 1.515625 
L 10.984375 10.5 
Q 14.703125 8.734375 18.5 7.8125 
Q 22.3125 6.890625 25.984375 6.890625 
Q 35.75 6.890625 40.890625 13.453125 
Q 46.046875 20.015625 46.78125 33.40625 
Q 43.953125 29.203125 39.59375 26.953125 
Q 35.25 24.703125 29.984375 24.703125 
Q 19.046875 24.703125 12.671875 31.3125 
Q 6.296875 37.9375 6.296875 49.421875 
Q 6.296875 60.640625 12.9375 67.421875 
Q 19.578125 74.21875 30.609375 74.21875 
Q 43.265625 74.21875 49.921875 64.515625 
Q 56.59375 54.828125 56.59375 36.375 
Q 56.59375 19.140625 48.40625 8.859375 
Q 40.234375 -1.421875 26.421875 -1.421875 
Q 22.703125 -1.421875 18.890625 -0.6875 
Q 15.09375 0.046875 10.984375 1.515625 
z
M 30.609375 32.421875 
Q 37.25 32.421875 41.125 36.953125 
Q 45.015625 41.5 45.015625 49.421875 
Q 45.015625 57.28125 41.125 61.84375 
Q 37.25 66.40625 30.609375 66.40625 
Q 23.96875 66.40625 20.09375 61.84375 
Q 16.21875 57.28125 16.21875 49.421875 
Q 16.21875 41.5 20.09375 36.953125 
Q 23.96875 32.421875 30.609375 32.421875 
z
" id="DejaVuSans-57"/>
       </defs>
       <use xlink:href="#DejaVuSans-48"/>
       <use x="63.623047" xlink:href="#DejaVuSans-46"/>
       <use x="95.410156" xlink:href="#DejaVuSans-57"/>
      </g>
     </g>
    </g>
   </g>
   <g id="PathCollection_3">
    <g clip-path="url(#p15d3a38f58)">
     <use style="fill:#4c72b0;stroke:#4c72b0;" x="738.66469" xlink:href="#m883057b88e" y="29.5014"/>
    </g>
   </g>
   <g id="PathCollection_4">
    <g clip-path="url(#p15d3a38f58)">
     <use style="fill:#4c72b0;stroke:#4c72b0;" x="744.973226" xlink:href="#m883057b88e" y="24.808583"/>
    </g>
   </g>
   <g id="line2d_36">
    <path clip-path="url(#p15d3a38f58)" d="M 423.237905 391.596237 
L 429.546441 322.729507 
L 435.854976 280.8808 
L 442.163512 254.734002 
L 448.472048 232.74537 
L 454.780583 210.489406 
L 461.089119 193.243028 
L 467.397655 177.491595 
L 473.70619 164.561754 
L 480.014726 155.166353 
L 486.323262 146.077836 
L 492.631798 137.989253 
L 498.940333 132.801484 
L 505.248869 127.197897 
L 511.557405 121.475492 
L 517.86594 117.91137 
L 524.174476 112.703803 
L 530.483012 108.733777 
L 536.791548 105.387463 
L 543.100083 103.42719 
L 549.408619 98.684921 
L 555.717155 96.100936 
L 562.02569 93.061536 
L 568.334226 89.83404 
L 574.642762 86.606515 
L 580.951298 83.794837 
L 587.259833 80.547513 
L 593.568369 78.151624 
L 599.876905 76.626997 
L 606.18544 73.538087 
L 612.493976 69.627455 
L 618.802512 66.776151 
L 625.111048 63.16252 
L 631.419583 59.588513 
L 637.728119 58.954887 
L 644.036655 55.875891 
L 650.34519 52.836491 
L 656.653726 49.450552 
L 662.962262 47.450683 
L 669.270798 44.807303 
L 675.579333 42.639136 
L 681.887869 40.401661 
L 688.196405 38.213695 
L 694.50494 36.0257 
L 700.813476 35.401988 
L 707.122012 33.817937 
L 713.430548 32.105184 
L 719.739083 32.075472 
L 726.047619 29.639987 
L 732.356155 31.184442 
L 738.66469 29.5014 
L 744.973226 29.649901 
" style="fill:none;stroke:#4c72b0;stroke-linecap:round;stroke-width:0.75;"/>
   </g>
   <g id="line2d_37">
    <path clip-path="url(#p15d3a38f58)" d="M 423.237905 324.838265 
L 429.546441 265.436252 
L 435.854976 227.418956 
L 442.163512 222.072773 
L 448.472048 190.688725 
L 454.780583 151.235893 
L 461.089119 142.969099 
L 467.397655 123.762448 
L 473.70619 126.237529 
L 480.014726 96.140503 
L 486.323262 97.823573 
L 492.631798 85.745166 
L 498.940333 89.160788 
L 505.248869 83.022565 
L 511.557405 66.192006 
L 517.86594 70.746148 
L 524.174476 81.092004 
L 530.483012 76.092331 
L 536.791548 77.824882 
L 543.100083 61.588353 
L 549.408619 69.855118 
L 555.717155 61.538843 
L 562.02569 58.964742 
L 568.334226 51.886008 
L 574.642762 51.589007 
L 580.951298 54.806619 
L 587.259833 47.777365 
L 593.568369 50.301957 
L 599.876905 43.421233 
L 606.18544 42.975703 
L 612.493976 44.114253 
L 618.802512 39.213571 
L 625.111048 36.639499 
L 631.419583 39.758091 
L 637.728119 36.193969 
L 644.036655 36.689009 
L 650.34519 32.976387 
L 656.653726 32.926877 
L 662.962262 31.689336 
L 669.270798 29.808255 
L 675.579333 29.659755 
L 681.887869 27.927204 
L 688.196405 26.640154 
L 694.50494 26.739173 
L 700.813476 26.046153 
L 707.122012 26.491653 
L 713.430548 25.105613 
L 719.739083 25.105613 
L 726.047619 24.957112 
L 732.356155 24.907602 
L 738.66469 25.006593 
L 744.973226 24.808583 
" style="fill:none;stroke:#4c72b0;stroke-dasharray:2.775,1.2;stroke-dashoffset:0;stroke-width:0.75;"/>
   </g>
   <g id="patch_8">
    <path d="M 407.151139 409.93562 
L 407.151139 6.4692 
" style="fill:none;stroke:#ffffff;stroke-linecap:square;stroke-linejoin:miter;stroke-width:0.625;"/>
   </g>
   <g id="patch_9">
    <path d="M 761.059992 409.93562 
L 761.059992 6.4692 
" style="fill:none;stroke:#ffffff;stroke-linecap:square;stroke-linejoin:miter;stroke-width:0.625;"/>
   </g>
   <g id="patch_10">
    <path d="M 407.151139 409.93562 
L 761.059992 409.93562 
" style="fill:none;stroke:#ffffff;stroke-linecap:square;stroke-linejoin:miter;stroke-width:0.625;"/>
   </g>
   <g id="patch_11">
    <path d="M 407.151139 6.4692 
L 761.059992 6.4692 
" style="fill:none;stroke:#ffffff;stroke-linecap:square;stroke-linejoin:miter;stroke-width:0.625;"/>
   </g>
   <g id="text_34">
    <!-- 0.9403 -->
    <g style="fill:#262626;" transform="translate(707.173128 27.629682)scale(0.09 -0.09)">
     <use xlink:href="#DejaVuSans-48"/>
     <use x="63.623047" xlink:href="#DejaVuSans-46"/>
     <use x="95.410156" xlink:href="#DejaVuSans-57"/>
     <use x="159.033203" xlink:href="#DejaVuSans-52"/>
     <use x="222.65625" xlink:href="#DejaVuSans-48"/>
     <use x="286.279297" xlink:href="#DejaVuSans-51"/>
    </g>
   </g>
   <g id="text_35">
    <!-- 0.9498 -->
    <g style="fill:#262626;" transform="translate(713.481664 22.936864)scale(0.09 -0.09)">
     <use xlink:href="#DejaVuSans-48"/>
     <use x="63.623047" xlink:href="#DejaVuSans-46"/>
     <use x="95.410156" xlink:href="#DejaVuSans-57"/>
     <use x="159.033203" xlink:href="#DejaVuSans-52"/>
     <use x="222.65625" xlink:href="#DejaVuSans-57"/>
     <use x="286.279297" xlink:href="#DejaVuSans-56"/>
    </g>
   </g>
   <g id="legend_2">
    <g id="line2d_38">
     <path d="M 412.101139 13.673341 
L 423.101139 13.673341 
" style="fill:none;stroke:#4c72b0;stroke-linecap:round;stroke-width:0.75;"/>
    </g>
    <g id="line2d_39"/>
    <g id="text_36">
     <!-- stem_act_first_false, dw_key, batch_size_128, randaug_10 accuracy -->
     <g style="fill:#262626;" transform="translate(427.501139 15.598341)scale(0.055 -0.055)">
      <use xlink:href="#DejaVuSans-115"/>
      <use x="52.099609" xlink:href="#DejaVuSans-116"/>
      <use x="91.308594" xlink:href="#DejaVuSans-101"/>
      <use x="152.832031" xlink:href="#DejaVuSans-109"/>
      <use x="250.244141" xlink:href="#DejaVuSans-95"/>
      <use x="300.244141" xlink:href="#DejaVuSans-97"/>
      <use x="361.523438" xlink:href="#DejaVuSans-99"/>
      <use x="416.503906" xlink:href="#DejaVuSans-116"/>
      <use x="455.712891" xlink:href="#DejaVuSans-95"/>
      <use x="505.712891" xlink:href="#DejaVuSans-102"/>
      <use x="540.917969" xlink:href="#DejaVuSans-105"/>
      <use x="568.701172" xlink:href="#DejaVuSans-114"/>
      <use x="609.814453" xlink:href="#DejaVuSans-115"/>
      <use x="661.914062" xlink:href="#DejaVuSans-116"/>
      <use x="701.123047" xlink:href="#DejaVuSans-95"/>
      <use x="751.123047" xlink:href="#DejaVuSans-102"/>
      <use x="786.328125" xlink:href="#DejaVuSans-97"/>
      <use x="847.607422" xlink:href="#DejaVuSans-108"/>
      <use x="875.390625" xlink:href="#DejaVuSans-115"/>
      <use x="927.490234" xlink:href="#DejaVuSans-101"/>
      <use x="989.013672" xlink:href="#DejaVuSans-44"/>
      <use x="1020.800781" xlink:href="#DejaVuSans-32"/>
      <use x="1052.587891" xlink:href="#DejaVuSans-100"/>
      <use x="1116.064453" xlink:href="#DejaVuSans-119"/>
      <use x="1197.851562" xlink:href="#DejaVuSans-95"/>
      <use x="1247.851562" xlink:href="#DejaVuSans-107"/>
      <use x="1302.136719" xlink:href="#DejaVuSans-101"/>
      <use x="1363.660156" xlink:href="#DejaVuSans-121"/>
      <use x="1422.839844" xlink:href="#DejaVuSans-44"/>
      <use x="1454.626953" xlink:href="#DejaVuSans-32"/>
      <use x="1486.414062" xlink:href="#DejaVuSans-98"/>
      <use x="1549.890625" xlink:href="#DejaVuSans-97"/>
      <use x="1611.169922" xlink:href="#DejaVuSans-116"/>
      <use x="1650.378906" xlink:href="#DejaVuSans-99"/>
      <use x="1705.359375" xlink:href="#DejaVuSans-104"/>
      <use x="1768.738281" xlink:href="#DejaVuSans-95"/>
      <use x="1818.738281" xlink:href="#DejaVuSans-115"/>
      <use x="1870.837891" xlink:href="#DejaVuSans-105"/>
      <use x="1898.621094" xlink:href="#DejaVuSans-122"/>
      <use x="1951.111328" xlink:href="#DejaVuSans-101"/>
      <use x="2012.634766" xlink:href="#DejaVuSans-95"/>
      <use x="2062.634766" xlink:href="#DejaVuSans-49"/>
      <use x="2126.257812" xlink:href="#DejaVuSans-50"/>
      <use x="2189.880859" xlink:href="#DejaVuSans-56"/>
      <use x="2253.503906" xlink:href="#DejaVuSans-44"/>
      <use x="2285.291016" xlink:href="#DejaVuSans-32"/>
      <use x="2317.078125" xlink:href="#DejaVuSans-114"/>
      <use x="2358.191406" xlink:href="#DejaVuSans-97"/>
      <use x="2419.470703" xlink:href="#DejaVuSans-110"/>
      <use x="2482.849609" xlink:href="#DejaVuSans-100"/>
      <use x="2546.326172" xlink:href="#DejaVuSans-97"/>
      <use x="2607.605469" xlink:href="#DejaVuSans-117"/>
      <use x="2670.984375" xlink:href="#DejaVuSans-103"/>
      <use x="2734.460938" xlink:href="#DejaVuSans-95"/>
      <use x="2784.460938" xlink:href="#DejaVuSans-49"/>
      <use x="2848.083984" xlink:href="#DejaVuSans-48"/>
      <use x="2911.707031" xlink:href="#DejaVuSans-32"/>
      <use x="2943.494141" xlink:href="#DejaVuSans-97"/>
      <use x="3004.773438" xlink:href="#DejaVuSans-99"/>
      <use x="3059.753906" xlink:href="#DejaVuSans-99"/>
      <use x="3114.734375" xlink:href="#DejaVuSans-117"/>
      <use x="3178.113281" xlink:href="#DejaVuSans-114"/>
      <use x="3219.226562" xlink:href="#DejaVuSans-97"/>
      <use x="3280.505859" xlink:href="#DejaVuSans-99"/>
      <use x="3335.486328" xlink:href="#DejaVuSans-121"/>
     </g>
    </g>
    <g id="line2d_40">
     <path d="M 412.101139 21.899278 
L 423.101139 21.899278 
" style="fill:none;stroke:#4c72b0;stroke-dasharray:2.775,1.2;stroke-dashoffset:0;stroke-width:0.75;"/>
    </g>
    <g id="line2d_41"/>
    <g id="text_37">
     <!-- stem_act_first_false, dw_key, batch_size_128, randaug_10 val_accuracy -->
     <g style="fill:#262626;" transform="translate(427.501139 23.824278)scale(0.055 -0.055)">
      <use xlink:href="#DejaVuSans-115"/>
      <use x="52.099609" xlink:href="#DejaVuSans-116"/>
      <use x="91.308594" xlink:href="#DejaVuSans-101"/>
      <use x="152.832031" xlink:href="#DejaVuSans-109"/>
      <use x="250.244141" xlink:href="#DejaVuSans-95"/>
      <use x="300.244141" xlink:href="#DejaVuSans-97"/>
      <use x="361.523438" xlink:href="#DejaVuSans-99"/>
      <use x="416.503906" xlink:href="#DejaVuSans-116"/>
      <use x="455.712891" xlink:href="#DejaVuSans-95"/>
      <use x="505.712891" xlink:href="#DejaVuSans-102"/>
      <use x="540.917969" xlink:href="#DejaVuSans-105"/>
      <use x="568.701172" xlink:href="#DejaVuSans-114"/>
      <use x="609.814453" xlink:href="#DejaVuSans-115"/>
      <use x="661.914062" xlink:href="#DejaVuSans-116"/>
      <use x="701.123047" xlink:href="#DejaVuSans-95"/>
      <use x="751.123047" xlink:href="#DejaVuSans-102"/>
      <use x="786.328125" xlink:href="#DejaVuSans-97"/>
      <use x="847.607422" xlink:href="#DejaVuSans-108"/>
      <use x="875.390625" xlink:href="#DejaVuSans-115"/>
      <use x="927.490234" xlink:href="#DejaVuSans-101"/>
      <use x="989.013672" xlink:href="#DejaVuSans-44"/>
      <use x="1020.800781" xlink:href="#DejaVuSans-32"/>
      <use x="1052.587891" xlink:href="#DejaVuSans-100"/>
      <use x="1116.064453" xlink:href="#DejaVuSans-119"/>
      <use x="1197.851562" xlink:href="#DejaVuSans-95"/>
      <use x="1247.851562" xlink:href="#DejaVuSans-107"/>
      <use x="1302.136719" xlink:href="#DejaVuSans-101"/>
      <use x="1363.660156" xlink:href="#DejaVuSans-121"/>
      <use x="1422.839844" xlink:href="#DejaVuSans-44"/>
      <use x="1454.626953" xlink:href="#DejaVuSans-32"/>
      <use x="1486.414062" xlink:href="#DejaVuSans-98"/>
      <use x="1549.890625" xlink:href="#DejaVuSans-97"/>
      <use x="1611.169922" xlink:href="#DejaVuSans-116"/>
      <use x="1650.378906" xlink:href="#DejaVuSans-99"/>
      <use x="1705.359375" xlink:href="#DejaVuSans-104"/>
      <use x="1768.738281" xlink:href="#DejaVuSans-95"/>
      <use x="1818.738281" xlink:href="#DejaVuSans-115"/>
      <use x="1870.837891" xlink:href="#DejaVuSans-105"/>
      <use x="1898.621094" xlink:href="#DejaVuSans-122"/>
      <use x="1951.111328" xlink:href="#DejaVuSans-101"/>
      <use x="2012.634766" xlink:href="#DejaVuSans-95"/>
      <use x="2062.634766" xlink:href="#DejaVuSans-49"/>
      <use x="2126.257812" xlink:href="#DejaVuSans-50"/>
      <use x="2189.880859" xlink:href="#DejaVuSans-56"/>
      <use x="2253.503906" xlink:href="#DejaVuSans-44"/>
      <use x="2285.291016" xlink:href="#DejaVuSans-32"/>
      <use x="2317.078125" xlink:href="#DejaVuSans-114"/>
      <use x="2358.191406" xlink:href="#DejaVuSans-97"/>
      <use x="2419.470703" xlink:href="#DejaVuSans-110"/>
      <use x="2482.849609" xlink:href="#DejaVuSans-100"/>
      <use x="2546.326172" xlink:href="#DejaVuSans-97"/>
      <use x="2607.605469" xlink:href="#DejaVuSans-117"/>
      <use x="2670.984375" xlink:href="#DejaVuSans-103"/>
      <use x="2734.460938" xlink:href="#DejaVuSans-95"/>
      <use x="2784.460938" xlink:href="#DejaVuSans-49"/>
      <use x="2848.083984" xlink:href="#DejaVuSans-48"/>
      <use x="2911.707031" xlink:href="#DejaVuSans-32"/>
      <use x="2943.494141" xlink:href="#DejaVuSans-118"/>
      <use x="3002.673828" xlink:href="#DejaVuSans-97"/>
      <use x="3063.953125" xlink:href="#DejaVuSans-108"/>
      <use x="3091.736328" xlink:href="#DejaVuSans-95"/>
      <use x="3141.736328" xlink:href="#DejaVuSans-97"/>
      <use x="3203.015625" xlink:href="#DejaVuSans-99"/>
      <use x="3257.996094" xlink:href="#DejaVuSans-99"/>
      <use x="3312.976562" xlink:href="#DejaVuSans-117"/>
      <use x="3376.355469" xlink:href="#DejaVuSans-114"/>
      <use x="3417.46875" xlink:href="#DejaVuSans-97"/>
      <use x="3478.748047" xlink:href="#DejaVuSans-99"/>
      <use x="3533.728516" xlink:href="#DejaVuSans-121"/>
     </g>
    </g>
   </g>
  </g>
  <g id="axes_3">
   <g id="patch_12">
    <path d="M 792.331147 409.93562 
L 1146.24 409.93562 
L 1146.24 6.4692 
L 792.331147 6.4692 
z
" style="fill:#eaeaf2;"/>
   </g>
   <g id="matplotlib.axis_5">
    <g id="xtick_13">
     <g id="line2d_42">
      <path clip-path="url(#pe45b57ecc1)" d="M 808.417913 409.93562 
L 808.417913 6.4692 
" style="fill:none;stroke:#ffffff;stroke-linecap:round;stroke-width:0.5;"/>
     </g>
     <g id="text_38">
      <!-- 0 -->
      <g style="fill:#262626;" transform="translate(806.668225 423.61476)scale(0.055 -0.055)">
       <use xlink:href="#DejaVuSans-48"/>
      </g>
     </g>
    </g>
    <g id="xtick_14">
     <g id="line2d_43">
      <path clip-path="url(#pe45b57ecc1)" d="M 871.50327 409.93562 
L 871.50327 6.4692 
" style="fill:none;stroke:#ffffff;stroke-linecap:round;stroke-width:0.5;"/>
     </g>
     <g id="text_39">
      <!-- 10 -->
      <g style="fill:#262626;" transform="translate(868.003895 423.61476)scale(0.055 -0.055)">
       <use xlink:href="#DejaVuSans-49"/>
       <use x="63.623047" xlink:href="#DejaVuSans-48"/>
      </g>
     </g>
    </g>
    <g id="xtick_15">
     <g id="line2d_44">
      <path clip-path="url(#pe45b57ecc1)" d="M 934.588627 409.93562 
L 934.588627 6.4692 
" style="fill:none;stroke:#ffffff;stroke-linecap:round;stroke-width:0.5;"/>
     </g>
     <g id="text_40">
      <!-- 20 -->
      <g style="fill:#262626;" transform="translate(931.089252 423.61476)scale(0.055 -0.055)">
       <use xlink:href="#DejaVuSans-50"/>
       <use x="63.623047" xlink:href="#DejaVuSans-48"/>
      </g>
     </g>
    </g>
    <g id="xtick_16">
     <g id="line2d_45">
      <path clip-path="url(#pe45b57ecc1)" d="M 997.673984 409.93562 
L 997.673984 6.4692 
" style="fill:none;stroke:#ffffff;stroke-linecap:round;stroke-width:0.5;"/>
     </g>
     <g id="text_41">
      <!-- 30 -->
      <g style="fill:#262626;" transform="translate(994.174609 423.61476)scale(0.055 -0.055)">
       <use xlink:href="#DejaVuSans-51"/>
       <use x="63.623047" xlink:href="#DejaVuSans-48"/>
      </g>
     </g>
    </g>
    <g id="xtick_17">
     <g id="line2d_46">
      <path clip-path="url(#pe45b57ecc1)" d="M 1060.759341 409.93562 
L 1060.759341 6.4692 
" style="fill:none;stroke:#ffffff;stroke-linecap:round;stroke-width:0.5;"/>
     </g>
     <g id="text_42">
      <!-- 40 -->
      <g style="fill:#262626;" transform="translate(1057.259966 423.61476)scale(0.055 -0.055)">
       <use xlink:href="#DejaVuSans-52"/>
       <use x="63.623047" xlink:href="#DejaVuSans-48"/>
      </g>
     </g>
    </g>
    <g id="xtick_18">
     <g id="line2d_47">
      <path clip-path="url(#pe45b57ecc1)" d="M 1123.844698 409.93562 
L 1123.844698 6.4692 
" style="fill:none;stroke:#ffffff;stroke-linecap:round;stroke-width:0.5;"/>
     </g>
     <g id="text_43">
      <!-- 50 -->
      <g style="fill:#262626;" transform="translate(1120.345323 423.61476)scale(0.055 -0.055)">
       <use xlink:href="#DejaVuSans-53"/>
       <use x="63.623047" xlink:href="#DejaVuSans-48"/>
      </g>
     </g>
    </g>
   </g>
   <g id="matplotlib.axis_6">
    <g id="ytick_18">
     <g id="line2d_48">
      <path clip-path="url(#pe45b57ecc1)" d="M 792.331147 393.070222 
L 1146.24 393.070222 
" style="fill:none;stroke:#ffffff;stroke-linecap:round;stroke-width:0.5;"/>
     </g>
     <g id="text_44">
      <!-- 0.0000 -->
      <g style="fill:#262626;" transform="translate(763.586303 395.159793)scale(0.055 -0.055)">
       <use xlink:href="#DejaVuSans-48"/>
       <use x="63.623047" xlink:href="#DejaVuSans-46"/>
       <use x="95.410156" xlink:href="#DejaVuSans-48"/>
       <use x="159.033203" xlink:href="#DejaVuSans-48"/>
       <use x="222.65625" xlink:href="#DejaVuSans-48"/>
       <use x="286.279297" xlink:href="#DejaVuSans-48"/>
      </g>
     </g>
    </g>
    <g id="ytick_19">
     <g id="line2d_49">
      <path clip-path="url(#pe45b57ecc1)" d="M 792.331147 319.370958 
L 1146.24 319.370958 
" style="fill:none;stroke:#ffffff;stroke-linecap:round;stroke-width:0.5;"/>
     </g>
     <g id="text_45">
      <!-- 0.0005 -->
      <g style="fill:#262626;" transform="translate(763.586303 321.460529)scale(0.055 -0.055)">
       <use xlink:href="#DejaVuSans-48"/>
       <use x="63.623047" xlink:href="#DejaVuSans-46"/>
       <use x="95.410156" xlink:href="#DejaVuSans-48"/>
       <use x="159.033203" xlink:href="#DejaVuSans-48"/>
       <use x="222.65625" xlink:href="#DejaVuSans-48"/>
       <use x="286.279297" xlink:href="#DejaVuSans-53"/>
      </g>
     </g>
    </g>
    <g id="ytick_20">
     <g id="line2d_50">
      <path clip-path="url(#pe45b57ecc1)" d="M 792.331147 245.671694 
L 1146.24 245.671694 
" style="fill:none;stroke:#ffffff;stroke-linecap:round;stroke-width:0.5;"/>
     </g>
     <g id="text_46">
      <!-- 0.0010 -->
      <g style="fill:#262626;" transform="translate(763.586303 247.761264)scale(0.055 -0.055)">
       <use xlink:href="#DejaVuSans-48"/>
       <use x="63.623047" xlink:href="#DejaVuSans-46"/>
       <use x="95.410156" xlink:href="#DejaVuSans-48"/>
       <use x="159.033203" xlink:href="#DejaVuSans-48"/>
       <use x="222.65625" xlink:href="#DejaVuSans-49"/>
       <use x="286.279297" xlink:href="#DejaVuSans-48"/>
      </g>
     </g>
    </g>
    <g id="ytick_21">
     <g id="line2d_51">
      <path clip-path="url(#pe45b57ecc1)" d="M 792.331147 171.97243 
L 1146.24 171.97243 
" style="fill:none;stroke:#ffffff;stroke-linecap:round;stroke-width:0.5;"/>
     </g>
     <g id="text_47">
      <!-- 0.0015 -->
      <g style="fill:#262626;" transform="translate(763.586303 174.062)scale(0.055 -0.055)">
       <use xlink:href="#DejaVuSans-48"/>
       <use x="63.623047" xlink:href="#DejaVuSans-46"/>
       <use x="95.410156" xlink:href="#DejaVuSans-48"/>
       <use x="159.033203" xlink:href="#DejaVuSans-48"/>
       <use x="222.65625" xlink:href="#DejaVuSans-49"/>
       <use x="286.279297" xlink:href="#DejaVuSans-53"/>
      </g>
     </g>
    </g>
    <g id="ytick_22">
     <g id="line2d_52">
      <path clip-path="url(#pe45b57ecc1)" d="M 792.331147 98.273166 
L 1146.24 98.273166 
" style="fill:none;stroke:#ffffff;stroke-linecap:round;stroke-width:0.5;"/>
     </g>
     <g id="text_48">
      <!-- 0.0020 -->
      <g style="fill:#262626;" transform="translate(763.586303 100.362736)scale(0.055 -0.055)">
       <use xlink:href="#DejaVuSans-48"/>
       <use x="63.623047" xlink:href="#DejaVuSans-46"/>
       <use x="95.410156" xlink:href="#DejaVuSans-48"/>
       <use x="159.033203" xlink:href="#DejaVuSans-48"/>
       <use x="222.65625" xlink:href="#DejaVuSans-50"/>
       <use x="286.279297" xlink:href="#DejaVuSans-48"/>
      </g>
     </g>
    </g>
    <g id="ytick_23">
     <g id="line2d_53">
      <path clip-path="url(#pe45b57ecc1)" d="M 792.331147 24.573902 
L 1146.24 24.573902 
" style="fill:none;stroke:#ffffff;stroke-linecap:round;stroke-width:0.5;"/>
     </g>
     <g id="text_49">
      <!-- 0.0025 -->
      <g style="fill:#262626;" transform="translate(763.586303 26.663472)scale(0.055 -0.055)">
       <use xlink:href="#DejaVuSans-48"/>
       <use x="63.623047" xlink:href="#DejaVuSans-46"/>
       <use x="95.410156" xlink:href="#DejaVuSans-48"/>
       <use x="159.033203" xlink:href="#DejaVuSans-48"/>
       <use x="222.65625" xlink:href="#DejaVuSans-50"/>
       <use x="286.279297" xlink:href="#DejaVuSans-53"/>
      </g>
     </g>
    </g>
   </g>
   <g id="PathCollection_5">
    <g clip-path="url(#pe45b57ecc1)">
     <use style="fill:#4c72b0;stroke:#4c72b0;" x="1130.153234" xlink:href="#m883057b88e" y="391.596237"/>
    </g>
   </g>
   <g id="line2d_54">
    <path clip-path="url(#pe45b57ecc1)" d="M 808.417913 300.075319 
L 814.726448 208.319741 
L 821.034984 116.564162 
L 827.34352 24.808583 
L 833.652056 24.964837 
L 839.960591 26.139847 
L 846.269127 28.094033 
L 852.577663 30.818954 
L 858.886198 34.302939 
L 865.194734 38.53113 
L 871.50327 43.485337 
L 877.811806 49.144385 
L 884.120341 55.48408 
L 890.428877 62.477173 
L 896.737413 70.093805 
L 903.045948 78.301374 
L 909.354484 87.06467 
L 915.66302 96.34618 
L 921.971555 106.106199 
L 928.280091 116.302892 
L 934.588627 126.892604 
L 940.897163 137.830019 
L 947.205698 149.068273 
L 953.514234 160.559199 
L 959.82277 172.253671 
L 966.131305 184.101635 
L 972.439841 196.052212 
L 978.748377 208.054353 
L 985.056913 220.056614 
L 991.365448 232.007637 
L 997.673984 243.8562 
L 1003.98252 255.551582 
L 1010.291055 267.043736 
L 1016.599591 278.283371 
L 1022.908127 289.222441 
L 1029.216663 299.814058 
L 1035.525198 310.01287 
L 1041.833734 319.775231 
L 1048.14227 329.059324 
L 1054.450805 337.825348 
L 1060.759341 346.035805 
L 1067.067877 353.655573 
L 1073.376413 360.651975 
L 1079.684948 366.995042 
L 1085.993484 372.657653 
L 1092.30202 377.615517 
L 1098.610555 381.847454 
L 1104.919091 385.335302 
L 1111.227627 388.064133 
L 1117.536163 390.022264 
L 1123.844698 391.201316 
L 1130.153234 391.596237 
" style="fill:none;stroke:#4c72b0;stroke-linecap:round;stroke-width:0.75;"/>
   </g>
   <g id="patch_13">
    <path d="M 792.331147 409.93562 
L 792.331147 6.4692 
" style="fill:none;stroke:#ffffff;stroke-linecap:square;stroke-linejoin:miter;stroke-width:0.625;"/>
   </g>
   <g id="patch_14">
    <path d="M 1146.24 409.93562 
L 1146.24 6.4692 
" style="fill:none;stroke:#ffffff;stroke-linecap:square;stroke-linejoin:miter;stroke-width:0.625;"/>
   </g>
   <g id="patch_15">
    <path d="M 792.331147 409.93562 
L 1146.24 409.93562 
" style="fill:none;stroke:#ffffff;stroke-linecap:square;stroke-linejoin:miter;stroke-width:0.625;"/>
   </g>
   <g id="patch_16">
    <path d="M 792.331147 6.4692 
L 1146.24 6.4692 
" style="fill:none;stroke:#ffffff;stroke-linecap:square;stroke-linejoin:miter;stroke-width:0.625;"/>
   </g>
   <g id="text_50">
    <!-- 0.0000 -->
    <g style="fill:#262626;" transform="translate(1098.661671 389.724518)scale(0.09 -0.09)">
     <use xlink:href="#DejaVuSans-48"/>
     <use x="63.623047" xlink:href="#DejaVuSans-46"/>
     <use x="95.410156" xlink:href="#DejaVuSans-48"/>
     <use x="159.033203" xlink:href="#DejaVuSans-48"/>
     <use x="222.65625" xlink:href="#DejaVuSans-48"/>
     <use x="286.279297" xlink:href="#DejaVuSans-48"/>
    </g>
   </g>
   <g id="legend_3">
    <g id="line2d_55">
     <path d="M 960.211094 13.673341 
L 971.211094 13.673341 
" style="fill:none;stroke:#4c72b0;stroke-linecap:round;stroke-width:0.75;"/>
    </g>
    <g id="line2d_56"/>
    <g id="text_51">
     <!-- stem_act_first_false, dw_key, batch_size_128, randaug_10 lr -->
     <g style="fill:#262626;" transform="translate(975.611094 15.598341)scale(0.055 -0.055)">
      <use xlink:href="#DejaVuSans-115"/>
      <use x="52.099609" xlink:href="#DejaVuSans-116"/>
      <use x="91.308594" xlink:href="#DejaVuSans-101"/>
      <use x="152.832031" xlink:href="#DejaVuSans-109"/>
      <use x="250.244141" xlink:href="#DejaVuSans-95"/>
      <use x="300.244141" xlink:href="#DejaVuSans-97"/>
      <use x="361.523438" xlink:href="#DejaVuSans-99"/>
      <use x="416.503906" xlink:href="#DejaVuSans-116"/>
      <use x="455.712891" xlink:href="#DejaVuSans-95"/>
      <use x="505.712891" xlink:href="#DejaVuSans-102"/>
      <use x="540.917969" xlink:href="#DejaVuSans-105"/>
      <use x="568.701172" xlink:href="#DejaVuSans-114"/>
      <use x="609.814453" xlink:href="#DejaVuSans-115"/>
      <use x="661.914062" xlink:href="#DejaVuSans-116"/>
      <use x="701.123047" xlink:href="#DejaVuSans-95"/>
      <use x="751.123047" xlink:href="#DejaVuSans-102"/>
      <use x="786.328125" xlink:href="#DejaVuSans-97"/>
      <use x="847.607422" xlink:href="#DejaVuSans-108"/>
      <use x="875.390625" xlink:href="#DejaVuSans-115"/>
      <use x="927.490234" xlink:href="#DejaVuSans-101"/>
      <use x="989.013672" xlink:href="#DejaVuSans-44"/>
      <use x="1020.800781" xlink:href="#DejaVuSans-32"/>
      <use x="1052.587891" xlink:href="#DejaVuSans-100"/>
      <use x="1116.064453" xlink:href="#DejaVuSans-119"/>
      <use x="1197.851562" xlink:href="#DejaVuSans-95"/>
      <use x="1247.851562" xlink:href="#DejaVuSans-107"/>
      <use x="1302.136719" xlink:href="#DejaVuSans-101"/>
      <use x="1363.660156" xlink:href="#DejaVuSans-121"/>
      <use x="1422.839844" xlink:href="#DejaVuSans-44"/>
      <use x="1454.626953" xlink:href="#DejaVuSans-32"/>
      <use x="1486.414062" xlink:href="#DejaVuSans-98"/>
      <use x="1549.890625" xlink:href="#DejaVuSans-97"/>
      <use x="1611.169922" xlink:href="#DejaVuSans-116"/>
      <use x="1650.378906" xlink:href="#DejaVuSans-99"/>
      <use x="1705.359375" xlink:href="#DejaVuSans-104"/>
      <use x="1768.738281" xlink:href="#DejaVuSans-95"/>
      <use x="1818.738281" xlink:href="#DejaVuSans-115"/>
      <use x="1870.837891" xlink:href="#DejaVuSans-105"/>
      <use x="1898.621094" xlink:href="#DejaVuSans-122"/>
      <use x="1951.111328" xlink:href="#DejaVuSans-101"/>
      <use x="2012.634766" xlink:href="#DejaVuSans-95"/>
      <use x="2062.634766" xlink:href="#DejaVuSans-49"/>
      <use x="2126.257812" xlink:href="#DejaVuSans-50"/>
      <use x="2189.880859" xlink:href="#DejaVuSans-56"/>
      <use x="2253.503906" xlink:href="#DejaVuSans-44"/>
      <use x="2285.291016" xlink:href="#DejaVuSans-32"/>
      <use x="2317.078125" xlink:href="#DejaVuSans-114"/>
      <use x="2358.191406" xlink:href="#DejaVuSans-97"/>
      <use x="2419.470703" xlink:href="#DejaVuSans-110"/>
      <use x="2482.849609" xlink:href="#DejaVuSans-100"/>
      <use x="2546.326172" xlink:href="#DejaVuSans-97"/>
      <use x="2607.605469" xlink:href="#DejaVuSans-117"/>
      <use x="2670.984375" xlink:href="#DejaVuSans-103"/>
      <use x="2734.460938" xlink:href="#DejaVuSans-95"/>
      <use x="2784.460938" xlink:href="#DejaVuSans-49"/>
      <use x="2848.083984" xlink:href="#DejaVuSans-48"/>
      <use x="2911.707031" xlink:href="#DejaVuSans-32"/>
      <use x="2943.494141" xlink:href="#DejaVuSans-108"/>
      <use x="2971.277344" xlink:href="#DejaVuSans-114"/>
     </g>
    </g>
   </g>
  </g>
 </g>
 <defs>
  <clipPath id="p003fc4cc56">
   <rect height="403.46642" width="353.908853" x="21.971131" y="6.4692"/>
  </clipPath>
  <clipPath id="p15d3a38f58">
   <rect height="403.46642" width="353.908853" x="407.151139" y="6.4692"/>
  </clipPath>
  <clipPath id="pe45b57ecc1">
   <rect height="403.46642" width="353.908853" x="792.331147" y="6.4692"/>
  </clipPath>
 </defs>
</svg>
